<?xml version="1.0" encoding="UTF-8"?>
<svg version="1.1" xmlns="http://www.w3.org/2000/svg" width="400" height="400">
<path d="M0 0 C1.42334802 0.03538532 2.84667238 0.07173334 4.26997375 0.10894775 C5.77822684 0.11177039 7.28649366 0.11018142 8.79473877 0.10452271 C12.88017391 0.10165746 16.96266309 0.16036938 21.0474143 0.23026228 C25.3193749 0.29285019 29.59140594 0.29865517 33.86375427 0.31051636 C41.94967012 0.34157685 50.03423115 0.42360642 58.11955082 0.52401125 C67.32609441 0.63585347 76.53270331 0.6907842 85.7397573 0.7409656 C104.67523902 0.84544364 123.6094603 1.0212917 142.54389954 1.24420166 C142.948927 1.98705414 143.35395447 2.72990662 143.77125549 3.49526978 C144.30627686 4.47637726 144.84129822 5.45748474 145.39253235 6.46832275 C145.92130981 7.43805023 146.45008728 8.40777771 146.99488831 9.40689087 C154.98107129 24.03511481 163.24594966 38.47419778 171.85639954 52.74420166 C174.00991507 56.32143025 176.06841068 59.93877604 178.08296204 63.59576416 C183.47277485 73.3666013 188.98694015 83.05866692 194.66499329 92.66485596 C198.35682953 98.91263362 202.0052096 105.18489711 205.62251282 111.47613525 C207.65122818 115.00061698 209.69115413 118.51119903 211.82905579 121.97076416 C212.47745422 123.03037354 213.12585266 124.08998291 213.79389954 125.18170166 C214.35593079 126.0776001 214.91796204 126.97349854 215.49702454 127.89654541 C216.7580765 130.72450149 216.51551969 131.37408046 215.54389954 134.24420166 C214.70413512 135.91191505 213.81120935 137.55330934 212.88374329 139.17388916 C212.3416925 140.12658691 211.79964172 141.07928467 211.24116516 142.06085205 C210.6604425 143.07010742 210.07971985 144.07936279 209.48139954 145.11920166 C208.88649719 146.16132813 208.29159485 147.20345459 207.67866516 148.27716064 C206.49623219 150.34754417 205.31187146 152.41682809 204.1254425 154.48492432 C202.86372979 156.68620204 201.60823647 158.89057019 200.36030579 161.09967041 C197.36249594 166.39257769 194.31063532 171.64733209 191.20405579 176.87701416 C190.61173157 177.87466797 190.01940735 178.87232178 189.40913391 179.90020752 C188.22449412 181.89230831 187.03707575 183.88275989 185.84663391 185.87139893 C185.30458313 186.78204102 184.76253235 187.69268311 184.20405579 188.63092041 C183.4713446 189.8562146 183.4713446 189.8562146 182.72383118 191.10626221 C181.41793377 193.31953394 181.41793377 193.31953394 180.54389954 196.24420166 C179.88389954 196.24420166 179.22389954 196.24420166 178.54389954 196.24420166 C178.41877991 196.82653564 178.29366028 197.40886963 178.16474915 198.0088501 C177.54357169 200.24538208 176.7333646 201.98444372 175.61030579 204.00982666 C175.21367737 204.72686768 174.81704895 205.44390869 174.40840149 206.18267822 C173.97874084 206.94548096 173.5490802 207.70828369 173.10639954 208.49420166 C172.66191467 209.29052002 172.21742981 210.08683838 171.75947571 210.9072876 C168.39111135 216.88416358 164.79302495 222.68632541 161.09614563 228.46368408 C157.66999175 233.88265635 154.85323968 239.48401854 152.06733704 245.25201416 C150.20220897 248.91531697 148.01753536 251.96830557 145.54389954 255.24420166 C144.810458 256.46367632 144.09543095 257.69441828 143.39936829 258.93560791 C142.7870636 260.02744385 142.17475891 261.11927979 141.54389954 262.24420166 C121.88161226 262.59496735 102.21996158 262.85928729 82.55519199 263.02138424 C73.42381634 263.09865876 64.29438693 263.20395264 55.16426086 263.37579346 C47.20406233 263.525543 39.24527312 263.62212742 31.28370517 263.65552908 C27.06911142 263.67505101 22.85854824 263.72072967 18.64525032 263.83015251 C-6.99383716 264.47082041 -6.99383716 264.47082041 -12.72204971 260.78694534 C-16.5584977 256.82303154 -17.98742637 252.46726956 -19.45610046 247.24420166 C-20.3867261 245.42684844 -21.35585089 243.62758519 -22.39360046 241.86920166 C-22.86539734 240.99006104 -23.33719421 240.11092041 -23.82328796 239.20513916 C-25.81648275 235.59068546 -27.91296552 232.04397225 -30.01860046 228.49420166 C-34.13831512 221.54847531 -38.12743261 214.53563728 -42.08110046 207.49420166 C-46.16005734 200.23377682 -50.33387067 193.07796345 -54.75688171 186.02154541 C-56.98740468 182.37579408 -59.00522315 178.63198477 -61.02250671 174.86529541 C-62.92373142 171.38921428 -64.97583852 168.0139875 -67.03031921 164.62701416 C-68.76993171 161.71971657 -70.4081905 158.76474635 -72.03813171 155.79498291 C-73.48504547 153.19213254 -74.96564768 150.61003152 -76.4563446 148.03204346 C-77.16238916 146.80218557 -77.86086705 145.56795158 -78.55155945 144.32940674 C-79.96460358 141.7958025 -81.37282282 139.356291 -83.10453796 137.02545166 C-84.55863468 134.94565273 -85.24914829 133.78406931 -85.45610046 131.24420166 C-83.74631486 126.51131687 -81.18556336 122.45295376 -78.45610046 118.24420166 C-77.85281921 117.28900635 -77.24953796 116.33381104 -76.62797546 115.34967041 C-75.474553 113.53380937 -74.31180715 111.723836 -73.13969421 109.91998291 C-70.90891552 106.37454577 -68.94138536 102.71248212 -66.96391296 99.02154541 C-65.4705954 96.27090088 -63.91594937 93.56803856 -62.33110046 90.86920166 C-59.04210299 85.26626348 -55.80459893 79.63507174 -52.58110046 73.99420166 C-52.06241394 73.08686279 -51.54372742 72.17952393 -51.00932312 71.24468994 C-47.51280879 65.11895433 -44.06264891 58.96861585 -40.62651062 52.80889893 C-37.57441315 47.37537888 -34.31785197 42.08510632 -30.98735046 36.81842041 C-29.34451957 34.26482093 -29.34451957 34.26482093 -28.45610046 31.24420166 C-27.79610046 31.24420166 -27.13610046 31.24420166 -26.45610046 31.24420166 C-26.07711609 29.96802979 -26.07711609 29.96802979 -25.69047546 28.66607666 C-24.36466274 24.99072241 -22.67493666 21.8671691 -20.70610046 18.49420166 C-20.05125671 17.36498291 -19.39641296 16.23576416 -18.72172546 15.07232666 C-18.35278231 14.47670614 -17.98383915 13.88108562 -17.6037159 13.267416 C-16.37745828 11.2096872 -16.37745828 11.2096872 -15.44006157 8.7227726 C-11.90549303 0.95999946 -8.25584337 0.08759567 0 0 Z " fill="#175190" transform="translate(134.4561004638672,22.75579833984375)"/>
<path d="M0 0 C2.24808839 2.08575554 3.75002841 4.07654498 5.19921875 6.7734375 C5.80020386 7.87764038 5.80020386 7.87764038 6.41333008 9.00415039 C6.83380615 9.78653076 7.25428223 10.56891113 7.6875 11.375 C11.31234386 18.01888461 15.06736889 24.51217336 19.11328125 30.91015625 C21.05231469 34.08567478 22.85919705 37.31251636 24.65454102 40.57055664 C26.99729561 44.80077819 29.40938687 48.99137244 31.8125 53.1875 C32.59318848 54.55418823 32.59318848 54.55418823 33.38964844 55.94848633 C35.7667724 60.10845327 38.14942714 64.26474592 40.55859375 68.40625 C40.93330811 69.05311768 41.30802246 69.69998535 41.6940918 70.36645508 C42.68357164 72.07293604 43.67756247 73.77679912 44.671875 75.48046875 C46 78 46 78 46 80 C46.8971875 80.4021875 46.8971875 80.4021875 47.8125 80.8125 C50 82 50 82 51.4140625 83.46875 C55.30129665 87.22194159 60.71792318 88.2098549 65.9375 88.4375 C72.34624812 88.23012911 77.72697475 86.09817715 82.4375 81.75 C82.953125 81.1725 83.46875 80.595 84 80 C84.66 80 85.32 80 86 80 C86.37125 78.7315625 86.37125 78.7315625 86.75 77.4375 C87.86282431 74.37723313 89.19056886 71.76908107 90.90234375 69.00390625 C92.16263134 66.70309652 93.1552227 64.31855503 94.17211914 61.90258789 C95.57222179 58.68495298 97.1653155 55.56726159 98.75 52.4375 C99.09490479 51.75075195 99.43980957 51.06400391 99.79516602 50.35644531 C101.53417226 46.89512727 103.2844087 43.43970067 105.04296875 39.98828125 C105.36233398 39.35801025 105.68169922 38.72773926 106.01074219 38.07836914 C106.88808067 36.34749772 107.77007457 34.61898832 108.65234375 32.890625 C109.74626878 30.54423509 110.51559039 28.52628808 111 26 C111.66 26 112.32 26 113 26 C113.58265625 27.16660156 114.1653125 28.33320313 114.765625 29.53515625 C116.12478534 32.25407411 117.48849089 34.97056988 118.859375 37.68359375 C122.00818433 43.92913182 125.11186127 50.18684923 128.05957031 56.53027344 C129.68649868 60.02967437 131.34048752 63.51595945 133 67 C133.2976123 67.63164062 133.59522461 68.26328125 133.90185547 68.9140625 C137.96719382 77.43925615 141.75114118 83.09802187 150.4140625 87.12109375 C156.38441216 89.15029114 162.89494644 88.76582552 168.75 86.5 C176.57693009 82.4958486 180.63173275 75.39436271 184.54296875 67.80859375 C187.61191597 61.89284831 191.05436594 56.17758779 194.4375 50.4375 C195.07123535 49.36133423 195.07123535 49.36133423 195.71777344 48.26342773 C197.14439374 45.84181937 198.57204076 43.42081907 200 41 C200.53963379 40.08508789 201.07926758 39.17017578 201.63525391 38.22753906 C203.33954643 35.33882454 205.04460778 32.45056542 206.75 29.5625 C207.54555298 28.21466431 207.54555298 28.21466431 208.35717773 26.83959961 C209.38786326 25.09520175 210.42045044 23.35192588 211.45507812 21.60986328 C212.5293134 19.79513903 213.59511707 17.97540796 214.65429688 16.15185547 C215.18603516 15.2445166 215.71777344 14.33717773 216.265625 13.40234375 C216.74290039 12.58113037 217.22017578 11.75991699 217.71191406 10.91381836 C219 9 219 9 221 8 C222.87438149 11.07146921 224.72081186 14.15883525 226.5625 17.25 C227.09552734 18.12269531 227.62855469 18.99539062 228.17773438 19.89453125 C228.67724609 20.73886719 229.17675781 21.58320313 229.69140625 22.453125 C230.39052124 23.61569824 230.39052124 23.61569824 231.10375977 24.80175781 C232.19134034 27.46930767 232.05958581 28.35422701 231 31 C230.16023559 32.66771339 229.26730981 34.30910768 228.33984375 35.9296875 C227.79779297 36.88238525 227.25574219 37.83508301 226.69726562 38.81665039 C226.11654297 39.82590576 225.53582031 40.83516113 224.9375 41.875 C224.04514648 43.4381897 224.04514648 43.4381897 223.13476562 45.03295898 C221.95233265 47.10334251 220.76797192 49.17262643 219.58154297 51.24072266 C218.31983026 53.44200038 217.06433693 55.64636853 215.81640625 57.85546875 C212.8185964 63.14837603 209.76673579 68.40313043 206.66015625 73.6328125 C206.06783203 74.63046631 205.47550781 75.62812012 204.86523438 76.65600586 C203.68059459 78.64810665 202.49317622 80.63855823 201.30273438 82.62719727 C200.76068359 83.53783936 200.21863281 84.44848145 199.66015625 85.38671875 C199.17168213 86.20358154 198.68320801 87.02044434 198.17993164 87.86206055 C196.87403423 90.07533228 196.87403423 90.07533228 196 93 C195.34 93 194.68 93 194 93 C193.87488037 93.58233398 193.74976074 94.16466797 193.62084961 94.76464844 C192.99967215 97.00118042 192.18946507 98.74024206 191.06640625 100.765625 C190.66977783 101.48266602 190.27314941 102.19970703 189.86450195 102.93847656 C189.22001099 104.08268066 189.22001099 104.08268066 188.5625 105.25 C188.11801514 106.04631836 187.67353027 106.84263672 187.21557617 107.66308594 C183.84721181 113.63996192 180.24912542 119.44212375 176.55224609 125.21948242 C173.12609222 130.63845469 170.30934015 136.23981688 167.5234375 142.0078125 C165.65830944 145.67111531 163.47363583 148.72410391 161 152 C160.26655846 153.21947466 159.55153141 154.45021662 158.85546875 155.69140625 C158.24316406 156.78324219 157.63085938 157.87507812 157 159 C137.33771273 159.35076569 117.67606204 159.61508563 98.01129246 159.77718258 C88.8799168 159.8544571 79.75048739 159.95975098 70.62036133 160.1315918 C62.66016279 160.28134134 54.70137358 160.37792576 46.73980564 160.41132742 C42.52521189 160.43084935 38.31464871 160.47652801 34.10135078 160.58595085 C8.46226331 161.22661875 8.46226331 161.22661875 2.73405075 157.54274368 C-1.10239723 153.57882988 -2.5313259 149.2230679 -4 144 C-4.93062563 142.18264678 -5.89975043 140.38338353 -6.9375 138.625 C-7.40929687 137.74585938 -7.88109375 136.86671875 -8.3671875 135.9609375 C-10.36038229 132.3464838 -12.45686506 128.79977059 -14.5625 125.25 C-19.26389138 117.32358259 -23.7899146 109.30426152 -28.29833984 101.2668457 C-31.86533649 94.93326985 -35.56027097 88.72172298 -39.51171875 82.62109375 C-40.24841797 81.32365234 -40.24841797 81.32365234 -41 80 C-41.515625 79.11828125 -42.03125 78.2365625 -42.5625 77.328125 C-43.29207419 71.7781499 -40.14081889 67.94386739 -37.3125 63.3125 C-36.71542236 62.29881348 -36.11834473 61.28512695 -35.50317383 60.24072266 C-34.27470991 58.15691648 -33.03825153 56.07780313 -31.79394531 54.00341797 C-29.66913549 50.44606761 -27.60825896 46.85490806 -25.55175781 43.2578125 C-21.99337743 37.04274584 -18.35208762 30.88926259 -14.5625 24.8125 C-12.15498887 20.94485534 -9.96215149 17.0940556 -8.00390625 12.984375 C-2.90438247 2.90438247 -2.90438247 2.90438247 0 0 Z " fill="#000000" transform="translate(119,126)"/>
<path d="M0 0 C11.02802861 6.59780332 17.02548417 22.20036999 22.99609375 33.12890625 C24.65783669 36.04334772 26.43167212 38.88146544 28.203125 41.73046875 C31.25565647 46.65002697 34.09936768 51.63192189 36.83203125 56.734375 C38.7273549 60.19966702 40.77278917 63.56460076 42.8203125 66.94140625 C45.73500415 71.80972906 48.48872422 76.74411899 50.953125 81.85546875 C52.01794253 84.47497915 52.01794253 84.47497915 54.265625 85.35546875 C54.52085937 84.52789062 54.77609375 83.7003125 55.0390625 82.84765625 C56.41889983 78.9190748 58.09718972 75.23336612 59.890625 71.48046875 C60.24543945 70.73216797 60.60025391 69.98386719 60.96582031 69.21289062 C63.56522325 63.75667261 66.25198988 58.34778002 68.97631836 52.953125 C72.74684453 45.45755549 76.35234093 37.88275739 79.96582031 30.31054688 C88.79836808 11.82272567 88.79836808 11.82272567 90.265625 10.35546875 C91.68132623 10.26895264 93.10122 10.24841971 94.51953125 10.2578125 C95.80053711 10.26264648 95.80053711 10.26264648 97.10742188 10.26757812 C98.00525391 10.27595703 98.90308594 10.28433594 99.828125 10.29296875 C100.72982422 10.29748047 101.63152344 10.30199219 102.56054688 10.30664062 C104.79563814 10.3184665 107.03059937 10.33494655 109.265625 10.35546875 C115.28159234 21.53234208 121.27232786 32.67538716 126.265625 44.35546875 C127.49110612 47.075414 128.74843315 49.77973314 130.015625 52.48046875 C130.36197998 53.21894043 130.70833496 53.95741211 131.06518555 54.71826172 C133.78573152 60.46184317 136.73839474 66.03599508 139.79296875 71.609375 C142.15426218 76.01252959 144.27898048 80.42224617 145.265625 85.35546875 C145.925625 85.35546875 146.585625 85.35546875 147.265625 85.35546875 C147.65609009 84.05391846 147.65609009 84.05391846 148.05444336 82.72607422 C149.27859692 79.31936911 150.77564929 76.52084368 152.64453125 73.42578125 C153.31419922 72.3083252 153.98386719 71.19086914 154.67382812 70.03955078 C155.02582275 69.4580426 155.37781738 68.87653442 155.74047852 68.27740479 C157.57420608 65.247844 159.38976853 62.20742423 161.20703125 59.16796875 C161.56358795 58.57267365 161.92014465 57.97737854 162.2875061 57.36404419 C165.02796539 52.77970891 167.67957676 48.1532435 170.265625 43.48046875 C173.48429086 37.67254827 176.90387775 32.03040556 180.4140625 26.39453125 C184.36915879 19.90283312 187.94067505 13.19008809 191.265625 6.35546875 C194.89835935 7.79303176 196.18661512 9.38009906 198.02734375 12.78515625 C198.50623047 13.66300781 198.98511719 14.54085937 199.47851562 15.4453125 C200.20844727 16.82396484 200.20844727 16.82396484 200.953125 18.23046875 C201.45134766 19.14183594 201.94957031 20.05320312 202.46289062 20.9921875 C206.82782603 29.08242056 206.82782603 29.08242056 207.265625 32.35546875 C205.640625 35.04296875 205.640625 35.04296875 204.49658203 36.60864258 C203.15904436 38.50671518 202.05575962 40.45314909 200.9453125 42.4921875 C198.36270056 47.19109321 195.70441787 51.84164749 193.015625 56.48046875 C192.54108887 57.30015137 192.06655273 58.11983398 191.57763672 58.96435547 C188.19466695 64.79265478 184.74678962 70.5788683 181.26318359 76.34741211 C179.33333792 79.55053545 177.44526466 82.76766495 175.640625 86.04296875 C175.07601562 87.06583984 175.07601562 87.06583984 174.5 88.109375 C173.54695894 89.84354782 172.60026799 91.58121139 171.65625 93.3203125 C167.18810758 101.31749662 162.71123678 109.0842771 153.4921875 111.9140625 C145.73603182 113.45168635 139.70154041 112.68733102 132.65234375 109.1328125 C126.04582541 104.2130648 122.70589597 97.7989724 119.390625 90.41796875 C118.52473117 88.5449743 117.6575297 86.67258387 116.7890625 84.80078125 C116.36463867 83.87942383 115.94021484 82.95806641 115.50292969 82.00878906 C113.74301107 78.2347568 111.89149714 74.51041502 110.015625 70.79296875 C109.69416504 70.15286865 109.37270508 69.51276855 109.04150391 68.85327148 C107.51679781 65.82153363 105.98074921 62.79577275 104.4375 59.7734375 C103.88578125 58.68675781 103.3340625 57.60007813 102.765625 56.48046875 C102.2809375 55.53429687 101.79625 54.588125 101.296875 53.61328125 C100.265625 51.35546875 100.265625 51.35546875 100.265625 49.35546875 C99.605625 49.35546875 98.945625 49.35546875 98.265625 49.35546875 C98.18570313 49.99484375 98.10578125 50.63421875 98.0234375 51.29296875 C96.95869507 55.59584539 95.06584217 59.37568757 93.140625 63.35546875 C92.53710205 64.61762207 92.53710205 64.61762207 91.92138672 65.90527344 C89.01304653 71.93832419 85.9142627 77.83426532 82.6875 83.703125 C80.99452558 86.86117343 79.63891147 90.04709681 78.265625 93.35546875 C74.71195423 101.66518011 70.93554269 107.51941101 62.453125 111.23046875 C55.02479247 113.62531727 48.21542705 113.06734137 41.2890625 109.53125 C33.56956018 105.04559324 30.45277136 99.10311372 26.265625 91.35546875 C25.74871094 90.40671875 25.23179687 89.45796875 24.69921875 88.48046875 C23.70827623 86.65899739 22.71995795 84.8360957 21.734375 83.01171875 C19.80843573 79.52863709 17.75058305 76.13349234 15.6875 72.73046875 C13.97227023 69.86546957 12.35264209 66.95604333 10.7421875 64.03125 C5.86208469 55.18767745 0.93259406 46.3807092 -4.31640625 37.75 C-6.91786865 33.35689684 -9.32230737 28.85457363 -11.734375 24.35546875 C-14.52327742 26.84947213 -16.19489709 29.61982918 -18.046875 32.85546875 C-18.66820312 33.93957031 -19.28953125 35.02367187 -19.9296875 36.140625 C-21.44905567 38.84720509 -22.94542908 41.56285425 -24.421875 44.29296875 C-31.84651499 57.99999642 -39.7065769 71.46938577 -47.81298828 84.78295898 C-50.31095853 88.90131521 -52.66120292 93.00669366 -54.734375 97.35546875 C-58.56321437 96.07918896 -58.75233573 94.94278004 -60.546875 91.41796875 C-63.0177694 86.65576876 -65.70278506 82.13723999 -68.6328125 77.64453125 C-69.92022034 74.96927949 -70.06642538 73.29098662 -69.734375 70.35546875 C-68.47720047 68.30673988 -67.12793264 66.31398219 -65.734375 64.35546875 C-64.95715647 63.01685943 -64.19949268 61.66678908 -63.45703125 60.30859375 C-63.01866943 59.51163086 -62.58030762 58.71466797 -62.12866211 57.89355469 C-61.66854736 57.05598633 -61.20843262 56.21841797 -60.734375 55.35546875 C-53.88937445 43.04294079 -46.89760326 30.82358942 -39.671875 18.73046875 C-39.04104004 17.67021484 -38.41020508 16.60996094 -37.76025391 15.51757812 C-37.1626123 14.52306641 -36.5649707 13.52855469 -35.94921875 12.50390625 C-35.42448975 11.62911621 -34.89976074 10.75432617 -34.35913086 9.85302734 C-26.26806022 -2.58448619 -13.62558607 -6.2771961 0 0 Z " fill="#FCFCFC" transform="translate(131.734375,102.64453125)"/>
<path d="M0 0 C3.63 0 7.26 0 11 0 C11.02505615 0.86278564 11.0501123 1.72557129 11.07592773 2.61450195 C11.17111385 5.81823769 11.27034444 9.02181537 11.37231445 12.2253418 C11.41560218 13.61135983 11.45728164 14.99742906 11.49731445 16.38354492 C11.55516584 18.37691798 11.61929776 20.37010565 11.68359375 22.36328125 C11.72025146 23.56251221 11.75690918 24.76174316 11.79467773 25.99731445 C11.87733025 29.04994349 11.87733025 29.04994349 13 32 C16.43793339 31.81870185 16.43793339 31.81870185 20 31 C22.33725078 27.78164655 22.30415632 24.58647658 22.4140625 20.703125 C22.45273438 19.49785156 22.49140625 18.29257812 22.53125 17.05078125 C22.57765625 15.16939453 22.57765625 15.16939453 22.625 13.25 C22.66367188 11.98027344 22.70234375 10.71054687 22.7421875 9.40234375 C22.83644222 6.2683743 22.92205166 3.13441051 23 0 C26.63 0 30.26 0 34 0 C34.02505615 0.86802246 34.0501123 1.73604492 34.07592773 2.63037109 C34.17099484 5.84713163 34.27023203 9.06372849 34.37231445 12.28027344 C34.41565846 13.6731259 34.45733396 15.06603131 34.49731445 16.45898438 C34.55502932 18.45976651 34.61921869 20.46035859 34.68359375 22.4609375 C34.73858032 24.26763916 34.73858032 24.26763916 34.79467773 26.11083984 C34.81052987 28.93996367 34.81052987 28.93996367 36 31 C38.31 31 40.62 31 43 31 C44.76650249 27.16637969 45.28971276 24.03138509 45.4140625 19.82421875 C45.45273437 18.66728516 45.49140625 17.51035156 45.53125 16.31835938 C45.5621875 15.12017578 45.593125 13.92199219 45.625 12.6875 C45.66367187 11.46998047 45.70234375 10.25246094 45.7421875 8.99804688 C45.83628002 5.99884772 45.92192209 2.99965177 46 0 C49.63 0 53.26 0 57 0 C57.07480519 3.98347226 57.12890718 7.96666594 57.16479492 11.95068359 C57.18709408 13.96336248 57.22523653 15.97584584 57.26367188 17.98828125 C57.37586226 32.87220554 57.37586226 32.87220554 52.31640625 39.05859375 C51.44822266 39.74115234 51.44822266 39.74115234 50.5625 40.4375 C49.98628906 40.91058594 49.41007812 41.38367188 48.81640625 41.87109375 C44.79205857 44.37224747 40.63984854 44.30425236 36 44 C34.46793639 43.46884903 32.94704463 42.90462777 31.4375 42.3125 C27.72924233 40.92587238 27.72924233 40.92587238 23.9375 42.3125 C22.968125 42.869375 21.99875 43.42625 21 44 C14.99426726 44.57197455 11.36112376 43.68056188 6 41 C6 40.34 6 39.68 6 39 C5.38125 38.7525 4.7625 38.505 4.125 38.25 C1.48141967 36.69495275 1.05352994 35.87219988 0 33 C-0.16786322 30.42465327 -0.23317374 27.96245607 -0.1953125 25.390625 C-0.1924826 24.66381531 -0.18965271 23.93700562 -0.18673706 23.18817139 C-0.17557523 20.87527749 -0.15047851 18.56277612 -0.125 16.25 C-0.11496501 14.67839102 -0.10584006 13.10677596 -0.09765625 11.53515625 C-0.07564904 7.68995378 -0.04114715 3.84504336 0 0 Z " fill="#000000" transform="translate(212,332)"/>
<path d="M0 0 C7.56499393 3.13953041 11.81301691 8.7937781 14.92382812 16.19921875 C15.76824392 18.53604328 16.55022054 20.88514229 17.3125 23.25 C20.05810556 31.45205239 23.10877377 39.47490763 26.4230957 47.46386719 C26.7449585 48.24793945 27.06682129 49.03201172 27.3984375 49.83984375 C27.82648682 50.86646118 27.82648682 50.86646118 28.26318359 51.91381836 C29 54 29 54 30 59 C26.04 59 22.08 59 18 59 C15.11698925 52.89480076 12.47166298 46.76770546 10.125 40.4375 C9.87669434 39.77476074 9.62838867 39.11202148 9.37255859 38.42919922 C7.96152456 34.64827142 6.59906295 30.85469734 5.2734375 27.04296875 C4.68273972 25.40348433 4.09160301 23.76415798 3.5 22.125 C3.10965576 20.95602173 3.10965576 20.95602173 2.71142578 19.76342773 C1.02714351 15.13307643 1.02714351 15.13307643 -3.0546875 12.46875 C-6.65959252 11.89502506 -7.97207618 11.92826265 -11 14 C-12.63067029 16.68271564 -13.80858454 19.11574602 -15 22 C-15.44085937 23.04285156 -15.88171875 24.08570313 -16.3359375 25.16015625 C-19.76453938 33.4958312 -22.79658194 41.9513352 -25.7277832 50.47363281 C-26.00968506 51.2931543 -26.29158691 52.11267578 -26.58203125 52.95703125 C-26.83186768 53.68897705 -27.0817041 54.42092285 -27.33911133 55.17504883 C-28 57 -28 57 -29 59 C-32.96 59 -36.92 59 -41 59 C-40.44330958 53.11946739 -38.71894868 48.2990851 -36.4375 42.875 C-35.71034968 41.11015249 -34.98515466 39.34449835 -34.26171875 37.578125 C-33.70170166 36.21204102 -33.70170166 36.21204102 -33.13037109 34.81835938 C-31.98852023 31.97137743 -30.90116352 29.10940161 -29.83203125 26.234375 C-29.48277588 25.29609863 -29.13352051 24.35782227 -28.77368164 23.39111328 C-28.10695048 21.58952395 -27.44569496 19.78589569 -26.79077148 17.97998047 C-21.99486876 5.08949907 -14.31406686 -1.94762072 0 0 Z " fill="#000000" transform="translate(41,316)"/>
<path d="M0 0 C0 -0.66 0 -1.32 0 -2 C3.63 -2 7.26 -2 11 -2 C11 12.19 11 26.38 11 41 C6.71 41 2.42 41 -2 41 C-3.98 41.495 -3.98 41.495 -6 42 C-13.60144246 42.73063772 -18.87259851 41.20757752 -25.1875 36.75 C-30.70126034 31.35876767 -32.26262953 27.7759583 -32.625 20.125 C-32.41288601 13.2422667 -30.78951808 8.93624292 -26 4 C-18.90058961 -2.33603293 -8.76740538 -4.67594954 0 0 Z M-19 13 C-21.48386059 16.72579089 -21.3804212 18.58711402 -21 23 C-19.34860695 26.5386994 -18.28394771 27.81070153 -15 30 C-11.93524457 30.54522803 -9.06475161 30.54842924 -6 30 C-2.97590636 27.72872666 -2.97590636 27.72872666 -1 25 C-0.67 24.67 -0.34 24.34 0 24 C0.51579536 18.25223163 0.51579536 18.25223163 -1.75 13.125 C-4.61110663 10.42284374 -6.49495406 9.23763883 -10.375 8.625 C-14.01935808 9.14562258 -16.12190381 10.76148074 -19 13 Z " fill="#000000" transform="translate(306,334)"/>
<path d="M0 0 C4.39731352 3.0823887 7.32760717 7.35782151 9.01171875 12.41015625 C9.01171875 16.37015625 9.01171875 20.33015625 9.01171875 24.41015625 C-0.88828125 24.41015625 -10.78828125 24.41015625 -20.98828125 24.41015625 C-16.86375555 28.53468195 -16.03472642 29.23400126 -10.69140625 29.54296875 C-6.55095858 29.52978261 -2.53099052 29.41720781 1.57421875 28.84765625 C2.70859375 28.70328125 3.84296875 28.55890625 5.01171875 28.41015625 C6.01171875 29.41015625 6.01171875 29.41015625 6.26171875 32.28515625 C6.01171875 35.41015625 6.01171875 35.41015625 4.82421875 37.16015625 C-1.28102786 41.37067115 -8.76923227 41.94867402 -15.98828125 41.41015625 C-22.9008275 39.97004245 -28.05306725 35.73241305 -32.48828125 30.41015625 C-35.42848787 24.52974301 -35.22525032 16.27981884 -33.2578125 10.125 C-30.33003357 4.68769627 -25.89184979 0.12150609 -20.06640625 -2.08203125 C-13.15094896 -3.77189863 -6.36257755 -3.18700024 0 0 Z M-20.98828125 12.41015625 C-21.31828125 13.73015625 -21.64828125 15.05015625 -21.98828125 16.41015625 C-15.71828125 16.41015625 -9.44828125 16.41015625 -2.98828125 16.41015625 C-3.60005826 12.27079415 -3.60005826 12.27079415 -6.73828125 10.16015625 C-12.74721966 6.92457403 -15.77340249 8.14343727 -20.98828125 12.41015625 Z " fill="#000000" transform="translate(390.98828125,334.58984375)"/>
<path d="M0 0 C6.66356496 3.73159638 10.10777462 7.53883444 12.875 14.6875 C13.76779965 22.05309712 13.23576387 27.43247429 8.765625 33.63671875 C5.06409667 38.18730899 1.14054032 41.8906371 -4.875 42.75 C-12.4901229 43.25767486 -17.73438932 41.80347622 -24.125 37.625 C-29.0355267 32.49126754 -31.07964726 27.28581076 -31.375 20.1875 C-31.10754327 14.01011231 -29.47663165 9.51808675 -25.2265625 4.99609375 C-18.17121796 -1.39684944 -9.12369088 -3.66148121 0 0 Z M-17.875 13.75 C-20.04436483 16.48528609 -19.87874322 17.69759495 -19.625 21.25 C-18.58990227 26.08045607 -18.0209864 27.98600907 -13.875 30.75 C-9.28228797 31.48965025 -5.85037911 31.35961194 -1.875 28.875 C1.40520199 25.38978539 1.59123487 22.66804414 1.53125 18.01171875 C1.25749128 15.39399862 1.25749128 15.39399862 -1.4375 12.75 C-7.97699255 8.94520434 -12.03308416 8.72323521 -17.875 13.75 Z " fill="#000000" transform="translate(192.875,333.25)"/>
<path d="M0 0 C3.63 0 7.26 0 11 0 C11.02578125 1.73507812 11.0515625 3.47015625 11.078125 5.2578125 C11.13441403 7.54689987 11.19176119 9.8359614 11.25 12.125 C11.26417969 13.26710938 11.27835938 14.40921875 11.29296875 15.5859375 C11.46001832 24.13809863 11.46001832 24.13809863 16 31 C19.06927494 32.00507947 21.86314143 31.6919541 25 31 C27.50160818 29.12379387 28.61945652 27.76108697 30 25 C30.15344209 23.11527141 30.24959571 21.22572126 30.31640625 19.3359375 C30.35830078 18.21445312 30.40019531 17.09296875 30.44335938 15.9375 C30.48267578 14.761875 30.52199219 13.58625 30.5625 12.375 C30.60568359 11.19164062 30.64886719 10.00828125 30.69335938 8.7890625 C30.79967338 5.85952093 30.90036217 2.92977623 31 0 C34.63 0 38.26 0 42 0 C42 14.19 42 28.38 42 43 C37.66666667 43 33.33333333 43 29 43 C28.195625 43.2475 28.195625 43.2475 27.375 43.5 C20.9489657 44.85284933 14.65061224 44.47311234 9 41 C4.36205136 36.81374723 0.93156046 33.28190444 0 27 C-0.0793925 24.86971994 -0.10775926 22.73720378 -0.09765625 20.60546875 C-0.09443359 19.40341797 -0.09121094 18.20136719 -0.08789062 16.96289062 C-0.07951172 15.71701172 -0.07113281 14.47113281 -0.0625 13.1875 C-0.05798828 11.92228516 -0.05347656 10.65707031 -0.04882812 9.35351562 C-0.03706251 6.2356289 -0.02062272 3.11783867 0 0 Z " fill="#000000" transform="translate(71,332)"/>
<path d="M0 0 C0.8146875 0.00257813 1.629375 0.00515625 2.46875 0.0078125 C3.2834375 0.00523437 4.098125 0.00265625 4.9375 0 C6.96875 0.1328125 6.96875 0.1328125 7.96875 1.1328125 C7.96875 3.7728125 7.96875 6.4128125 7.96875 9.1328125 C13.24875 9.1328125 18.52875 9.1328125 23.96875 9.1328125 C23.96875 12.7628125 23.96875 16.3928125 23.96875 20.1328125 C18.68875 20.1328125 13.40875 20.1328125 7.96875 20.1328125 C7.96875 30.6928125 7.96875 41.2528125 7.96875 52.1328125 C4.33875 52.1328125 0.70875 52.1328125 -3.03125 52.1328125 C-3.03125 41.5728125 -3.03125 31.0128125 -3.03125 20.1328125 C-8.31125 20.1328125 -13.59125 20.1328125 -19.03125 20.1328125 C-19.03125 16.5028125 -19.03125 12.8728125 -19.03125 9.1328125 C-13.75125 9.1328125 -8.47125 9.1328125 -3.03125 9.1328125 C-3.03125 6.4928125 -3.03125 3.8528125 -3.03125 1.1328125 C-2.03125 0.1328125 -2.03125 0.1328125 0 0 Z " fill="#000000" transform="translate(137.03125,322.8671875)"/>
<path d="M0 0 C1.33417969 0.00386719 1.33417969 0.00386719 2.6953125 0.0078125 C4.02175781 0.00394531 4.02175781 0.00394531 5.375 0 C7.8203125 0.1328125 7.8203125 0.1328125 10.8203125 1.1328125 C11.8103125 0.8028125 12.8003125 0.4728125 13.8203125 0.1328125 C20.20360035 -0.52188369 24.97713717 0.58306327 30.8203125 3.1328125 C30.30995419 7.521894 29.29816973 10.46989312 26.8203125 14.1328125 C26.1396875 13.9678125 25.4590625 13.8028125 24.7578125 13.6328125 C20.35830875 12.8839608 16.45921027 12.22710584 12.4453125 14.4453125 C9.53407463 17.46852106 9.66214801 20.64492888 9.5390625 24.640625 C9.50167969 25.70925781 9.46429688 26.77789062 9.42578125 27.87890625 C9.35522513 30.13931533 9.2849143 32.39973207 9.21484375 34.66015625 C9.17746094 35.72621094 9.14007813 36.79226563 9.1015625 37.890625 C9.05612305 39.36233154 9.05612305 39.36233154 9.00976562 40.86376953 C8.8203125 43.1328125 8.8203125 43.1328125 7.8203125 44.1328125 C5.96743748 44.20507752 4.11197372 44.2166247 2.2578125 44.1953125 C1.24589844 44.18628906 0.23398437 44.17726563 -0.80859375 44.16796875 C-1.59105469 44.15636719 -2.37351562 44.14476562 -3.1796875 44.1328125 C-3.20433263 38.0272654 -3.22252121 31.92174699 -3.23461914 25.81616211 C-3.23966038 23.73738094 -3.24649324 21.65860334 -3.25512695 19.57983398 C-3.26720172 16.59878664 -3.27291774 13.61778601 -3.27734375 10.63671875 C-3.28508568 9.23360191 -3.28508568 9.23360191 -3.29298401 7.80213928 C-3.29305954 6.94132248 -3.29313507 6.08050568 -3.29321289 5.19360352 C-3.2954335 4.43193375 -3.29765411 3.67026398 -3.29994202 2.88551331 C-3.11748004 0.22614338 -2.64980628 0.16145773 0 0 Z " fill="#000000" transform="translate(327.1796875,330.8671875)"/>
</svg>
