<?xml version="1.0" encoding="UTF-8"?>
<svg version="1.1" xmlns="http://www.w3.org/2000/svg" width="512" height="512">
<path d="M0 0 C3.47747924 1.79517007 6.68848684 3.9488815 9.9375 6.125 C11.90027318 7.40742695 13.86384333 8.68863478 15.828125 9.96875 C16.84197266 10.63390625 17.85582031 11.2990625 18.90039062 11.984375 C23.95169438 15.26915476 29.07013904 18.44451671 34.1875 21.625 C36.19164868 22.87591376 38.19555776 24.12721148 40.19921875 25.37890625 C43.05753722 27.16351267 45.91610146 28.94771284 48.77587891 30.72998047 C51.35279207 32.33732477 53.92673803 33.94931877 56.5 35.5625 C57.24660889 36.02672363 57.99321777 36.49094727 58.76245117 36.96923828 C70.08325951 44.08325951 70.08325951 44.08325951 74 48 C73.92263531 50.8842776 73.78198648 53.7425568 73.60229492 56.62109375 C73.07362932 65.9879385 72.73597346 75.34975085 72.50442028 84.72851562 C72.35632762 90.40470745 72.14066643 96.06029325 71.76098633 101.72607422 C69.40923545 125.52793176 69.40923545 125.52793176 76.73932648 147.39263916 C85.63064874 157.02310258 100.15965736 166.68066416 113 170 C116.1045267 169.48723781 118.37591008 168.3500952 121.0625 166.734375 C122.24380493 166.02631714 122.24380493 166.02631714 123.44897461 165.30395508 C124.29081299 164.7911499 125.13265137 164.27834473 126 163.75 C127.31013062 162.9604895 127.31013062 162.9604895 128.64672852 162.1550293 C136.04492278 157.66296156 143.29622416 152.95514269 150.46289062 148.10253906 C151.24728516 147.58014648 152.03167969 147.05775391 152.83984375 146.51953125 C153.52425537 146.05651611 154.20866699 145.59350098 154.91381836 145.11645508 C157.3118207 143.83312392 159.30156947 143.31013954 162 143 C168.65465315 145.14855007 174.38400818 149.20731169 180.25 152.9375 C181.31412109 153.60845703 182.37824219 154.27941406 183.47460938 154.97070312 C186.65270819 156.9758188 189.82667678 158.98733761 193 161 C195.41696126 162.52772778 197.83472552 164.05417593 200.25268555 165.58032227 C201.74979374 166.52607828 203.24605272 167.47317993 204.74145508 168.42163086 C209.26711599 171.28924761 213.81150439 174.1240931 218.37109375 176.9375 C219.46035156 177.61167969 220.54960937 178.28585938 221.671875 178.98046875 C223.80578587 180.30012416 225.94239899 181.61542261 228.08203125 182.92578125 C229.05398438 183.52777344 230.0259375 184.12976563 231.02734375 184.75 C231.89093506 185.28109375 232.75452637 185.8121875 233.64428711 186.359375 C236.70430832 188.49051217 239.31661918 190.63323836 241 194 C241.29599687 197.93124675 241.27802989 201.8714177 241.3125 205.8125 C241.34150391 206.90626953 241.37050781 208.00003906 241.40039062 209.12695312 C241.4640367 217.16104623 241.4640367 217.16104623 239.23046875 221.19921875 C236.98923285 223.00869292 235.74369712 223.42865145 233 224 C233.03297271 226.94056614 233.10006919 229.87347963 233.1875 232.8125 C233.19330078 233.64587891 233.19910156 234.47925781 233.20507812 235.33789062 C233.28905609 237.66128099 233.41635376 239.74830311 234 242 C236.32464736 243.97038956 236.32464736 243.97038956 239 245 C241.6851465 249.02771975 241.68074427 252.26799715 241 257 C239.25 260 239.25 260 237 262 C235.68 262.33 234.36 262.66 233 263 C233 269.27 233 275.54 233 282 C234.65 282.33 236.3 282.66 238 283 C240.24066274 284.85434158 240.91115227 286.24479427 241.25 289.125 C241.36142832 293.35927633 241.21010339 296.30847705 239 300 C237.33032227 301.36523438 237.33032227 301.36523438 235.31640625 302.59375 C234.56399658 303.06014893 233.81158691 303.52654785 233.03637695 304.00708008 C232.21999756 304.49974365 231.40361816 304.99240723 230.5625 305.5 C228.81754041 306.57655078 227.07275328 307.65338114 225.328125 308.73046875 C224.43673828 309.27622559 223.54535156 309.82198242 222.62695312 310.38427734 C218.66414304 312.82162652 214.73980342 315.31851285 210.8125 317.8125 C202.40711844 323.12848929 193.97394457 328.3997905 185.53442383 333.66137695 C184.58462646 334.25394287 183.6348291 334.84650879 182.65625 335.45703125 C181.25052734 336.32448975 181.25052734 336.32448975 179.81640625 337.20947266 C177.89840128 338.42884232 176.01060159 339.69675227 174.15234375 341.00537109 C165.234986 347.17713764 165.234986 347.17713764 159.28710938 346.6484375 C154.39405375 345.26116639 150.39736701 342.35826665 146.25 339.5 C144.30872864 338.21724375 142.36732291 336.93469084 140.42578125 335.65234375 C138.61664653 334.43569987 136.80800919 333.21831587 135 332 C132.4938017 330.33012915 129.97410385 328.68568329 127.4375 327.0625 C126.48746094 326.43472656 125.53742188 325.80695313 124.55859375 325.16015625 C121.41748497 323.73586723 120.28005279 324.12237733 117 325 C114.77470085 325.89914617 114.77470085 325.89914617 112.5769043 327.04125977 C111.73641037 327.46162003 110.89591644 327.88198029 110.029953 328.31507874 C109.1370607 328.76926682 108.2441684 329.2234549 107.32421875 329.69140625 C106.3990596 330.15610825 105.47390045 330.62081024 104.52070618 331.09959412 C101.57343467 332.58161 98.63045136 334.07192672 95.6875 335.5625 C93.68712619 336.57021197 91.6864782 337.57737988 89.68554688 338.58398438 C84.78716836 341.04969078 79.89228201 343.52222137 75 346 C75.0030162 347.18937164 75.00603241 348.37874329 75.00914001 349.60415649 C75.03302039 360.81620392 75.02021093 372.02768999 74.97153378 383.23966408 C74.947686 389.00387101 74.93673915 394.76749958 74.95532227 400.53173828 C74.97278302 406.09530195 74.95629442 411.65782676 74.91632271 417.22126389 C74.90703274 419.34309472 74.90994996 421.46501546 74.92530632 423.58681107 C74.94474188 426.56114942 74.92067003 429.53220893 74.88647461 432.50634766 C74.9022908 433.3824469 74.91810699 434.25854614 74.93440247 435.16119385 C74.855764 438.71889306 74.77472112 441.0622844 72.45802879 443.86638832 C70.70307409 445.39148005 68.94057475 446.72270526 67 448 C66.29198242 448.49516113 65.58396484 448.99032227 64.85449219 449.50048828 C63.95972168 450.03005127 63.95972168 450.03005127 63.046875 450.5703125 C62.35577637 450.98506836 61.66467773 451.39982422 60.95263672 451.82714844 C60.2257666 452.25543945 59.49889648 452.68373047 58.75 453.125 C57.14245542 454.08985786 55.5357093 455.05604705 53.9296875 456.0234375 C53.11081055 456.51553711 52.29193359 457.00763672 51.44824219 457.51464844 C47.55779587 459.87498703 43.71616725 462.31056056 39.875 464.75 C32.38484838 469.49491737 24.88641916 474.22630473 17.375 478.9375 C16.37968262 479.56430664 15.38436523 480.19111328 14.35888672 480.83691406 C11.5831753 482.57576749 8.79277667 484.28874481 6 486 C5.18692383 486.52352051 4.37384766 487.04704102 3.53613281 487.58642578 C0.03678621 489.73412202 -2.27703978 490.95625926 -6.421875 491.20703125 C-11.57040565 489.47024525 -15.75042467 486.69446194 -20.25 483.6875 C-22.226298 482.39803202 -24.20286492 481.10897612 -26.1796875 479.8203125 C-27.16291992 479.17352539 -28.14615234 478.52673828 -29.15917969 477.86035156 C-33.20134342 475.21328318 -37.28480736 472.63447382 -41.375 470.0625 C-42.12531494 469.58820557 -42.87562988 469.11391113 -43.64868164 468.62524414 C-48.16562511 465.77206437 -52.69726972 462.94362851 -57.23828125 460.12890625 C-58.30836426 459.46431396 -59.37844727 458.79972168 -60.48095703 458.11499023 C-62.56196361 456.82351128 -64.64486478 455.5350783 -66.72998047 454.25024414 C-79.97293323 446.02706677 -79.97293323 446.02706677 -84 442 C-84.12533087 439.01776826 -84.18611578 436.05758366 -84.20532227 433.07397461 C-84.21522186 432.13748581 -84.22512146 431.20099701 -84.23532104 430.23612976 C-84.26703753 427.12489392 -84.29173341 424.01364278 -84.31640625 420.90234375 C-84.33696703 418.75142508 -84.35796325 416.60051054 -84.37937927 414.44960022 C-84.4346905 408.77622811 -84.48405972 403.10281899 -84.53222656 397.42938232 C-84.58237567 391.64494516 -84.63809606 385.86056204 -84.69335938 380.07617188 C-84.80105158 368.71749402 -84.90247182 357.35876935 -85 346 C-91.16480554 342.82888982 -97.34046212 339.67974334 -103.52416992 336.5456543 C-105.62667253 335.47679695 -107.72663522 334.40292814 -109.82397461 333.32397461 C-112.83835342 331.77435427 -115.86139341 330.24295931 -118.88671875 328.71484375 C-119.82335861 328.22845932 -120.75999847 327.74207489 -121.72502136 327.24095154 C-122.60555679 326.80041946 -123.48609222 326.35988739 -124.39331055 325.90600586 C-125.16386276 325.51295761 -125.93441498 325.11990936 -126.72831726 324.71495056 C-129.54639273 323.8280377 -131.19256409 324.16877213 -134 325 C-136.46920523 326.27329018 -136.46920523 326.27329018 -138.9140625 327.9140625 C-139.84089844 328.51089844 -140.76773438 329.10773438 -141.72265625 329.72265625 C-142.68042969 330.35042969 -143.63820313 330.97820312 -144.625 331.625 C-147.46353697 333.46123978 -150.3020266 335.29739941 -153.14550781 337.12597656 C-155.06971524 338.38925198 -156.97021385 339.68930116 -158.84667969 341.02246094 C-163.75015807 344.4150732 -167.71076936 347.11726846 -173.83300781 346.56835938 C-178.03345389 345.46666509 -181.34054849 343.20438626 -184.875 340.75 C-186.55565857 339.6362191 -188.23665746 338.52295159 -189.91796875 337.41015625 C-190.76536621 336.8392627 -191.61276367 336.26836914 -192.48583984 335.68017578 C-196.3382971 333.10563599 -200.26199029 330.64857302 -204.1875 328.1875 C-205.7540418 327.19813126 -207.32044422 326.2085418 -208.88671875 325.21875 C-215.73253734 320.90334981 -222.59840295 316.61993554 -229.46557617 312.33862305 C-231.36447386 311.15392608 -233.26141319 309.96608361 -235.15625 308.77490234 C-237.12557031 307.54576784 -239.10556103 306.33362728 -241.09375 305.13525391 C-242.08375 304.52987793 -243.07375 303.92450195 -244.09375 303.30078125 C-244.98771484 302.76235596 -245.88167969 302.22393066 -246.80273438 301.66918945 C-249.2056258 299.84379294 -249.88172087 298.75715129 -251 296 C-251.25168228 293.92601013 -251.25168228 293.92601013 -251.25396729 291.67358398 C-251.25960693 290.81562225 -251.26524658 289.95766052 -251.27105713 289.07369995 C-251.26700867 288.1405899 -251.26296021 287.20747986 -251.25878906 286.24609375 C-251.2622937 285.25707062 -251.26579834 284.26804749 -251.26940918 283.24905396 C-251.27821462 279.97846466 -251.27238144 276.70809151 -251.265625 273.4375 C-251.26697199 271.16593382 -251.2689128 268.89436792 -251.27142334 266.62280273 C-251.274373 261.86146297 -251.27008198 257.10019823 -251.26074219 252.33886719 C-251.24934781 246.23209155 -251.25590812 240.12549172 -251.26788712 234.01872253 C-251.27510994 229.32790805 -251.27281582 224.63713532 -251.26763153 219.94631958 C-251.26629621 217.69442728 -251.26793865 215.4425312 -251.27259064 213.19064331 C-251.27766272 210.04496194 -251.26993582 206.89956631 -251.25878906 203.75390625 C-251.26283752 202.8207962 -251.26688599 201.88768616 -251.27105713 200.92630005 C-251.26541748 200.06833832 -251.25977783 199.21037659 -251.25396729 198.32641602 C-251.25321323 197.58311539 -251.25245918 196.83981476 -251.25168228 196.07398987 C-250.87012386 192.92975459 -249.8547929 190.70821573 -247.40966797 188.68237305 C-246.46051514 188.10289917 -246.46051514 188.10289917 -245.4921875 187.51171875 C-244.76515625 187.06054688 -244.038125 186.609375 -243.2890625 186.14453125 C-242.49242187 185.66371094 -241.69578125 185.18289062 -240.875 184.6875 C-239.14322198 183.61850122 -237.41145151 182.54949023 -235.6796875 181.48046875 C-234.75768555 180.91634277 -233.83568359 180.3522168 -232.88574219 179.77099609 C-227.90345395 176.71333798 -222.95446888 173.60244974 -218 170.5 C-215.96490934 169.22906164 -213.92975356 167.95822753 -211.89453125 166.6875 C-206.48344075 163.30545812 -201.0825318 159.90758851 -195.6875 156.5 C-194.9126123 156.01168701 -194.13772461 155.52337402 -193.33935547 155.02026367 C-190.06173819 152.95167381 -186.79277034 150.87427521 -183.55859375 148.73828125 C-182.59050781 148.10277344 -181.62242187 147.46726563 -180.625 146.8125 C-179.83351563 146.28269531 -179.04203125 145.75289062 -178.2265625 145.20703125 C-175.6412343 143.80551123 -173.95155859 143.15236659 -171 143 C-165.23188165 144.93880533 -160.33757964 148.14812575 -155.25 151.4375 C-154.43450684 151.95594482 -153.61901367 152.47438965 -152.77880859 153.00854492 C-148.39649438 155.79748087 -144.04359002 158.62676151 -139.7109375 161.4921875 C-138.43234863 162.32665405 -138.43234863 162.32665405 -137.12792969 163.17797852 C-135.4875026 164.24924845 -133.85495147 165.33269905 -132.23144531 166.42944336 C-128.1538586 169.14703194 -128.1538586 169.14703194 -123.47265625 170.15625 C-119.6556026 168.37134024 -116.27040521 166.08469809 -112.8125 163.6875 C-111.38184561 162.71174794 -109.95083475 161.7365184 -108.51953125 160.76171875 C-107.75346054 160.21014099 -106.98738983 159.65856323 -106.19810486 159.090271 C-103.67160893 157.43896142 -101.2768507 156.11410332 -98.58802795 154.78094482 C-89.82909695 150.28709117 -89.82909695 150.28709117 -83.98410225 142.71543312 C-82.44924951 136.22253241 -82.88649755 129.61860485 -83.1640625 123.00390625 C-83.18539287 120.88075956 -83.19813696 118.75751096 -83.20272827 116.63426208 C-83.23494434 111.07464057 -83.37115922 105.52266909 -83.53363037 99.96551514 C-83.744354 92.11722127 -83.81520674 84.26625514 -83.89730835 76.41575623 C-83.94101577 72.24047247 -84.0260672 68.06921705 -84.14395142 63.895401 C-84.18297968 61.99350509 -84.22176061 60.09160408 -84.26025391 58.18969727 C-84.29356308 57.32885529 -84.32687225 56.46801331 -84.3611908 55.58108521 C-84.4226357 51.53239508 -84.34430211 49.54794332 -82.13946533 46.03903198 C-79.79269462 43.8024262 -77.47833386 42.1678738 -74.6953125 40.50390625 C-73.64827148 39.8701709 -72.60123047 39.23643555 -71.52246094 38.58349609 C-70.40129883 37.91656738 -69.28013672 37.24963867 -68.125 36.5625 C-66.35419701 35.494027 -64.58565093 34.42188691 -62.81726074 33.34942627 C-61.61839926 32.62248137 -60.41893257 31.89653365 -59.21887207 31.17156982 C-53.6773507 27.82026159 -48.20486068 24.36551331 -42.75 20.875 C-41.8731958 20.31538574 -40.9963916 19.75577148 -40.09301758 19.17919922 C-36.37952699 16.80717429 -32.66949907 14.42980054 -28.96142578 12.04931641 C-26.90444126 10.72906587 -24.84667527 9.41003201 -22.78808594 8.09228516 C-20.84548123 6.84875038 -18.90464148 5.60245292 -16.96582031 4.35302734 C-16.09666992 3.79695801 -15.22751953 3.24088867 -14.33203125 2.66796875 C-13.56608643 2.17578857 -12.8001416 1.6836084 -12.01098633 1.17651367 C-7.88040728 -1.24005309 -4.48471241 -1.37583472 0 0 Z M-82 162.6875 C-87.41201525 166.64432082 -92.99539981 170.29775761 -98.625 173.9375 C-99.53894531 174.52942139 -100.45289063 175.12134277 -101.39453125 175.73120117 C-103.59538712 177.15563937 -105.79718634 178.578592 -108 180 C-106.69467452 183.91597644 -105.02734726 184.53830346 -101.5625 186.6875 C-100.57378906 187.31011719 -99.58507812 187.93273437 -98.56640625 188.57421875 C-96.19792479 190.16188098 -96.19792479 190.16188098 -94 190 C-93.190238 192.8463064 -92.87451555 195.37077539 -92.87301636 198.32641602 C-92.87019653 199.18437775 -92.86737671 200.04233948 -92.86447144 200.92630005 C-92.86649567 201.8594101 -92.8685199 202.79252014 -92.87060547 203.75390625 C-92.86885315 204.74292938 -92.86710083 205.73195251 -92.86529541 206.75094604 C-92.86089276 210.02148186 -92.86380934 213.29196363 -92.8671875 216.5625 C-92.86651401 218.83406586 -92.8655436 221.10563165 -92.86428833 223.37719727 C-92.86281351 228.13851609 -92.86495902 232.89981616 -92.86962891 237.66113281 C-92.87532605 243.76786288 -92.8720459 249.87454901 -92.86605644 255.98127747 C-92.86244504 260.67208183 -92.86359209 265.36287575 -92.86618423 270.05368042 C-92.8668519 272.30557256 -92.86603068 274.55746565 -92.86370468 276.80935669 C-92.8611687 279.9549613 -92.8650322 283.10049447 -92.87060547 286.24609375 C-92.86858124 287.1792038 -92.86655701 288.11231384 -92.86447144 289.07369995 C-92.86870117 290.36064255 -92.86870117 290.36064255 -92.87301636 291.67358398 C-92.87339338 292.41688461 -92.87377041 293.16018524 -92.87415886 293.92601013 C-93.00581537 296.09584328 -93.28534558 297.94501143 -94 300 C-95.63804407 300.73418924 -97.31420518 301.38330069 -99 302 C-101.6754318 303.60223599 -104.23814135 305.36606022 -106.8125 307.125 C-107.50537109 307.59292969 -108.19824219 308.06085938 -108.91210938 308.54296875 C-110.61091105 309.69112437 -112.30584864 310.84499367 -114 312 C-110.77281836 314.60166377 -107.39711066 316.43050878 -103.6953125 318.28515625 C-102.79291336 318.73779091 -102.79291336 318.73779091 -101.87228394 319.1995697 C-100.6041523 319.83431339 -99.33501654 320.46705449 -98.06494141 321.09790039 C-96.13531147 322.05737282 -94.21008646 323.0252804 -92.28515625 323.99414062 C-91.04713108 324.61249214 -89.80885773 325.23034706 -88.5703125 325.84765625 C-87.45414551 326.40461182 -86.33797852 326.96156738 -85.18798828 327.53540039 C-80.71447916 329.62314841 -80.71447916 329.62314841 -76 331 C-73.17159369 330.04903129 -73.17159369 330.04903129 -70.5 328.1875 C-69.4591626 327.53104492 -68.4183252 326.87458984 -67.34594727 326.19824219 C-66.23038604 325.46586856 -65.11507632 324.73311171 -64 324 C-62.83836317 323.25755142 -61.6755036 322.51701274 -60.51147461 321.77832031 C-58.13815067 320.26761578 -55.77270888 318.74565701 -53.41357422 317.21289062 C-50.31163362 315.19802935 -47.19268376 313.21132481 -44.06640625 311.234375 C-33.32120165 304.4367509 -33.32120165 304.4367509 -22.69140625 297.4609375 C-21.83796631 296.89922852 -20.98452637 296.33751953 -20.10522461 295.75878906 C-18.50618991 294.70546293 -16.91629905 293.63805655 -15.33813477 292.55371094 C-11.26968229 289.89471112 -7.94778983 288.14434774 -3.00146484 288.51074219 C0.9993442 289.48873942 4.1453791 291.7509277 7.5 294.0625 C9.1827543 295.1731479 10.86639042 296.2824606 12.55078125 297.390625 C13.43588379 297.98037109 14.32098633 298.57011719 15.23291016 299.17773438 C20.98122612 302.96328496 26.85309088 306.55539585 32.70263672 310.18164062 C38.06197926 313.51268342 43.38032939 316.89145151 48.65234375 320.359375 C49.73620361 321.06280029 50.82006348 321.76622559 51.93676758 322.4909668 C54.02169584 323.84563532 56.09632239 325.2163273 58.15893555 326.60473633 C59.09906494 327.2108374 60.03919434 327.81693848 61.0078125 328.44140625 C61.82910645 328.98482666 62.65040039 329.52824707 63.49658203 330.08813477 C67.03440625 331.37678051 68.58711479 330.50117411 72 329 C74.55435319 327.8029593 77.07230042 326.58089876 79.5859375 325.3046875 C80.28772125 324.95238068 80.989505 324.60007385 81.71255493 324.23709106 C83.93529034 323.12016304 86.15516549 321.99768046 88.375 320.875 C89.88913684 320.11291144 91.40345796 319.35118888 92.91796875 318.58984375 C96.61412431 316.73078965 100.3077265 314.86675157 104 313 C101.67204594 310.58879124 99.43616235 308.45640303 96.6171875 306.640625 C96.00746094 306.24746094 95.39773438 305.85429687 94.76953125 305.44921875 C94.14433594 305.05347656 93.51914062 304.65773438 92.875 304.25 C92.24207031 303.83878906 91.60914063 303.42757812 90.95703125 303.00390625 C87.73587186 300.75173582 87.73587186 300.75173582 84 300 C82.73528222 295.12598371 82.85948078 290.32901095 82.87060547 285.33203125 C82.86797699 283.87994766 82.86797699 283.87994766 82.86529541 282.39852905 C82.86089936 279.20316772 82.86380701 276.00786188 82.8671875 272.8125 C82.86651382 270.5895995 82.86554325 268.36669907 82.86428833 266.14379883 C82.8628144 261.48680927 82.86495615 256.82983889 82.86962891 252.17285156 C82.875326 246.2041318 82.87204537 240.23545701 82.86605644 234.26673889 C82.86244263 229.67712058 82.8635932 225.08751292 82.86618423 220.49789429 C82.86685123 218.29706822 82.86603302 216.09624119 82.86370468 213.89541626 C82.86116475 210.81957435 82.86503776 207.74380524 82.87060547 204.66796875 C82.86858124 203.7587265 82.86655701 202.84948425 82.86447144 201.91268921 C82.89288725 193.43716602 82.89288725 193.43716602 84 190 C86.26171875 188.875 86.26171875 188.875 89 188 C90.63160349 187.04542117 92.23724241 186.04494699 93.8125 185 C94.99779297 184.2265625 94.99779297 184.2265625 96.20703125 183.4375 C96.79871094 182.963125 97.39039063 182.48875 98 182 C98 181.34 98 180.68 98 180 C95.90454945 178.37126778 93.81269523 176.87204018 91.61328125 175.39453125 C90.95925827 174.95106857 90.30523529 174.5076059 89.63139343 174.05070496 C88.24251946 173.11318016 86.8510617 172.17947367 85.45727539 171.24926758 C83.32829397 169.82308025 81.21598755 168.37431818 79.10351562 166.92382812 C77.75356739 166.01679394 76.40268471 165.11114865 75.05078125 164.20703125 C74.10517082 163.55248711 74.10517082 163.55248711 73.14045715 162.88471985 C70.48592653 161.14213367 68.62705175 159.99068414 65.40356445 160.03857422 C62.55851285 161.17659486 60.09291501 162.55071575 57.4921875 164.17578125 C56.43265869 164.83288086 55.37312988 165.48998047 54.28149414 166.16699219 C53.14586838 166.88195864 52.01037324 167.59713261 50.875 168.3125 C49.70016725 169.04520414 48.52495179 169.77729498 47.34936523 170.50878906 C43.89330223 172.662623 40.44615588 174.8303498 37 177 C36.08653809 177.57347168 35.17307617 178.14694336 34.23193359 178.73779297 C31.84058941 180.23944322 29.45120199 181.74415125 27.0625 183.25 C26.31492432 183.71994385 25.56734863 184.1898877 24.79711914 184.67407227 C20.7924647 187.20060645 16.82683874 189.77418557 12.890625 192.40625 C12.04105225 192.96538086 11.19147949 193.52451172 10.31616211 194.10058594 C8.69758004 195.16690876 7.08822019 196.24742359 5.49047852 197.34472656 C1.37405873 200.0362144 -1.99481767 201.87436932 -7.00512695 201.49365234 C-11.00024871 200.50501739 -14.14723761 198.24795284 -17.5 195.9375 C-19.17621585 194.83071633 -20.85334393 193.72531333 -22.53125 192.62109375 C-23.41554688 192.03183105 -24.29984375 191.44256836 -25.2109375 190.83544922 C-30.0818 187.62999191 -35.04592289 184.57458974 -40 181.5 C-47.61627187 176.74829566 -55.22227518 171.98070636 -62.8125 167.1875 C-63.99489258 166.44113281 -63.99489258 166.44113281 -65.20117188 165.6796875 C-68.15410279 163.81274097 -71.09288064 161.93807957 -74 160 C-78.32301564 160 -78.76523127 160.23169212 -82 162.6875 Z " fill="#7846AA" transform="translate(261,11)"/>
<path d="M0 0 C0.12117188 0.69867188 0.24234375 1.39734375 0.3671875 2.1171875 C0.61855469 3.48230469 0.61855469 3.48230469 0.875 4.875 C1.11863281 6.23238281 1.11863281 6.23238281 1.3671875 7.6171875 C1.83044703 10.16505988 1.83044703 10.16505988 4 12 C6.06874034 12.6425235 6.06874034 12.6425235 8 13 C8.00410889 13.55985596 8.00821777 14.11971191 8.01245117 14.6965332 C8.04537305 17.2362587 8.11600694 19.77357981 8.1875 22.3125 C8.19330078 23.19357422 8.19910156 24.07464844 8.20507812 24.98242188 C8.28849559 27.42006562 8.41451548 29.63111013 9 32 C11.31571754 34.00690076 11.31571754 34.00690076 14 35 C16.6851465 39.02771975 16.68074427 42.26799715 16 47 C14.25 50 14.25 50 12 52 C10.68 52.33 9.36 52.66 8 53 C8 59.27 8 65.54 8 72 C6.02 72.99 4.04 73.98 2 75 C1.28487565 76.64645662 0.61733742 78.31443875 0 80 C-2.12866211 81.75415039 -2.12866211 81.75415039 -4.77734375 83.34765625 C-5.75678955 83.94707031 -6.73623535 84.54648437 -7.74536133 85.1640625 C-8.79876709 85.79054688 -9.85217285 86.41703125 -10.9375 87.0625 C-13.12790997 88.39663348 -15.31801032 89.7312754 -17.5078125 91.06640625 C-18.60254883 91.72785645 -19.69728516 92.38930664 -20.82519531 93.07080078 C-25.35684227 95.82449767 -29.83649619 98.65708325 -34.3125 101.5 C-35.08384277 101.98702393 -35.85518555 102.47404785 -36.64990234 102.97583008 C-39.96011087 105.06589964 -43.26372331 107.16451874 -46.546875 109.296875 C-48.03960937 110.26367188 -48.03960937 110.26367188 -49.5625 111.25 C-50.38878906 111.79140625 -51.21507812 112.3328125 -52.06640625 112.890625 C-54 114 -54 114 -56 114 C-56.53608013 103.96140679 -56.94304126 93.92627478 -57.19167995 83.87621975 C-57.31112575 79.20697398 -57.47251216 74.54759341 -57.73510742 69.8840332 C-59.3810171 39.87574936 -59.3810171 39.87574936 -53.84048462 31.88577271 C-48.58406627 26.92857826 -42.65417161 23.9429312 -35.99597168 21.27461243 C-31.13383079 19.20605309 -26.77594443 16.36673276 -22.3125 13.5625 C-20.6901645 12.59577483 -19.06554251 11.6328641 -17.4375 10.67578125 C-12.50735555 7.73478969 -7.74913056 4.58261851 -3.01953125 1.328125 C-1 0 -1 0 0 0 Z " fill="#FDFDFE" transform="translate(486,221)"/>
<path d="M0 0 C3.25247416 1.60021373 6.32219199 3.37165698 9.41015625 5.2734375 C10.47379395 5.92787842 11.53743164 6.58231934 12.63330078 7.2565918 C13.7764369 7.96261501 14.91950184 8.66875347 16.0625 9.375 C17.23420064 10.09743093 18.40591297 10.81984288 19.57763672 11.54223633 C28.67888655 17.15923752 37.73823888 22.84130153 46.76025391 28.5847168 C48.87570303 30.05303845 48.87570303 30.05303845 51.00396729 30.63948059 C53.76054853 31.76243372 55.13423527 32.65130395 57 35 C58.18111842 40.98256552 57.92962416 46.91470695 57.78125 52.98828125 C57.76632275 54.77472907 57.75493801 56.56120971 57.74694824 58.34770203 C57.71645134 63.04215455 57.63791194 67.73461608 57.54931641 72.42828369 C57.46737059 77.22079533 57.43091827 82.01362983 57.390625 86.80664062 C57.30491332 96.20530028 57.1684377 105.60248437 57 115 C53.5298384 113.64943192 50.49928564 112.18458181 47.3671875 110.1640625 C46.48780518 109.60017822 45.60842285 109.03629395 44.70239258 108.45532227 C43.30283325 107.54931274 43.30283325 107.54931274 41.875 106.625 C39.89734569 105.35514122 37.91947715 104.08561601 35.94140625 102.81640625 C34.9477002 102.17719238 33.95399414 101.53797852 32.93017578 100.87939453 C28.57206203 98.08413044 24.19338232 95.32189272 19.8125 92.5625 C15.48298009 89.833666 15.48298009 89.833666 13.45111084 88.48217773 C11.00762072 86.92154613 11.00762072 86.92154613 8.19625854 85.83297729 C4.79125092 84.22569534 2.55499321 82.78699411 0 80 C-1.57317451 73.94050567 -1.28436776 68.03439888 -1.07421875 61.81640625 C-1.053684 60.03284006 -1.03803457 58.24921151 -1.02705383 56.46556091 C-0.98519223 51.78673851 -0.87728041 47.11171536 -0.75531006 42.43438721 C-0.64246897 37.65534874 -0.59247846 32.87569178 -0.53710938 28.09570312 C-0.4193857 18.72880573 -0.2318324 9.36471959 0 0 Z " fill="#26D1F6" transform="translate(192,365)"/>
<path d="M0 0 C0.66 0 1.32 0 2 0 C2.44205577 10.22167577 2.77868082 20.44105043 2.98443127 30.67036819 C3.08324449 35.42204577 3.21693003 40.16714856 3.43334961 44.91503906 C4.79262208 75.52577058 4.79262208 75.52577058 0.22888184 82.83761597 C-4.09467202 87.10113709 -9.02985901 89.33072808 -14.73971558 91.21783447 C-17.60842342 92.21054334 -19.93043297 93.68126652 -22.4140625 95.41015625 C-23.12377197 95.85713867 -23.83348145 96.30412109 -24.56469727 96.76464844 C-25.24459717 97.19293945 -25.92449707 97.62123047 -26.625 98.0625 C-27.77150024 98.78421387 -27.77150024 98.78421387 -28.94116211 99.52050781 C-32.94868282 102.04966571 -36.93770517 104.6032774 -40.90234375 107.19921875 C-41.68593262 107.71154053 -42.46952148 108.2238623 -43.27685547 108.75170898 C-44.7694826 109.73015939 -46.25951945 110.71257595 -47.74658203 111.69946289 C-52.78034499 115 -52.78034499 115 -55 115 C-55.55931581 104.83122223 -55.98399796 94.666161 -56.24349213 84.48506832 C-56.36815306 79.7549033 -56.53657524 75.03533592 -56.81054688 70.3112793 C-58.52633061 39.93313129 -58.52633061 39.93313129 -52.77938843 31.89349365 C-47.21148465 26.84063464 -40.86667887 23.87483392 -33.90838623 21.1736145 C-30.09628867 19.63532741 -26.98816947 17.6532478 -23.58203125 15.359375 C-22.10766602 14.43705078 -22.10766602 14.43705078 -20.60351562 13.49609375 C-18.66842065 12.2854745 -16.73353952 11.0745134 -14.79882812 9.86328125 C-13.36120117 8.96416016 -13.36120117 8.96416016 -11.89453125 8.046875 C-11.06800049 7.52963867 -10.24146973 7.01240234 -9.38989258 6.47949219 C-8.60122803 5.99125977 -7.81256348 5.50302734 -7 5 C-6.11530029 4.4421582 -5.23060059 3.88431641 -4.3190918 3.30957031 C-2 2 -2 2 0 2 C0 1.34 0 0.68 0 0 Z " fill="#26D1F6" transform="translate(318,365)"/>
<path d="M0 0 C2.21994629 1.26154503 4.4390537 2.52452839 6.65771484 3.78833008 C7.27956161 4.14151558 7.90140839 4.49470108 8.542099 4.85858917 C14.00807577 7.97462403 19.33515296 11.28109773 24.625 14.6875 C25.44355469 15.21021484 26.26210938 15.73292969 27.10546875 16.27148438 C28.93495765 17.44252086 30.73751964 18.65623435 32.51757812 19.90112305 C35.26464355 21.70967785 38.04235791 22.79822624 41.12304688 23.93676758 C47.28120016 26.53354296 52.33531674 29.24283196 56 35 C59.76428541 46.64543636 57.95875564 60.49829975 57.37329102 72.51403809 C57.16720413 77.19180232 57.07704928 81.87172203 56.9765625 86.55273438 C56.7632158 95.70751548 56.42280645 104.85266387 56 114 C52.86574844 112.77249804 50.03208842 111.52866373 47.19921875 109.70703125 C46.48096924 109.2488501 45.76271973 108.79066895 45.02270508 108.31860352 C44.2520874 107.82158936 43.48146973 107.3245752 42.6875 106.8125 C40.99781515 105.73371794 39.30768869 104.65562735 37.6171875 103.578125 C36.71581055 103.00255859 35.81443359 102.42699219 34.88574219 101.83398438 C29.71345859 98.54682749 24.51192759 95.3064846 19.3125 92.0625 C18.30985107 91.43641846 17.30720215 90.81033691 16.27416992 90.1652832 C14.45285863 89.02801384 12.63142647 87.890938 10.80981445 86.75415039 C9.88257568 86.17528076 8.95533691 85.59641113 8 85 C7.31138885 84.77273727 6.62277771 84.54547455 5.91329956 84.31132507 C3.17969636 83.19748388 1.83307348 82.34238614 0 80 C-1.17376883 74.01509746 -0.92964866 68.08629582 -0.78125 62.01171875 C-0.76632275 60.22527093 -0.75493801 58.43879029 -0.74694824 56.65229797 C-0.71645134 51.95784545 -0.63791194 47.26538392 -0.54931641 42.57171631 C-0.46737059 37.77920467 -0.43091827 32.98637017 -0.390625 28.19335938 C-0.30491332 18.79469972 -0.1684377 9.39751563 0 0 Z " fill="#FDFDFE" transform="translate(359,221)"/>
<path d="M0 0 C0.55931581 10.16877777 0.98399796 20.333839 1.24349213 30.51493168 C1.36815306 35.2450967 1.53657524 39.96466408 1.81054688 44.6887207 C3.52977332 75.11905475 3.52977332 75.11905475 -2.26693726 83.13470459 C-7.812301 88.13493658 -14.02037822 91.07676546 -20.94107056 93.728302 C-25.77346308 95.73728717 -29.98049252 98.59598875 -34.3125 101.5 C-35.83587329 102.4677549 -37.36152039 103.43195153 -38.890625 104.390625 C-41.45183549 106.01233155 -44.00457473 107.64569029 -46.546875 109.296875 C-48.03960937 110.26367188 -48.03960937 110.26367188 -49.5625 111.25 C-50.38878906 111.79140625 -51.21507813 112.3328125 -52.06640625 112.890625 C-54 114 -54 114 -56 114 C-56.39533674 103.8910966 -56.69663385 93.78405223 -56.88080692 83.66897106 C-56.9692499 78.97061406 -57.08895279 74.27757173 -57.2824707 69.58227539 C-58.49406626 39.39271464 -58.49406626 39.39271464 -54.47293091 32.3104248 C-50.70222227 28.33311607 -46.3278031 26.42273171 -41.17666626 24.76077271 C-37.98335928 23.64467106 -35.37185635 21.84924905 -32.58203125 19.9609375 C-30.65964282 18.76435704 -28.73647508 17.56902762 -26.8125 16.375 C-18.93090848 11.47066232 -11.08739062 6.51919748 -3.31640625 1.44140625 C-1 0 -1 0 0 0 Z " fill="#FDFDFE" transform="translate(153,221)"/>
<path d="M0 0 C1.90703055 1.10794111 3.81349631 2.2168544 5.71972656 3.32617188 C6.78145081 3.94359253 7.84317505 4.56101318 8.93707275 5.19714355 C12.93028002 7.54756813 16.84647134 10.00448252 20.75 12.5 C29.58162518 18.11521431 38.45422885 23.66284467 47.34277344 29.1875 C48.81665527 30.10595703 48.81665527 30.10595703 50.3203125 31.04296875 C51.63926514 31.86317505 51.63926514 31.86317505 52.98486328 32.69995117 C55 34 55 34 56 35 C56.09500548 37.46444057 56.12557985 39.90074626 56.11352539 42.36547852 C56.11367142 43.13615662 56.11381744 43.90683472 56.1139679 44.7008667 C56.1132686 47.26024139 56.10547545 49.8195442 56.09765625 52.37890625 C56.09579213 54.14867615 56.0943682 55.91844656 56.09336853 57.68821716 C56.08954288 62.35551366 56.0797122 67.02277923 56.06866455 71.69006348 C56.05845144 76.44897035 56.05387113 81.20788221 56.04882812 85.96679688 C56.03808997 95.31121153 56.02101299 104.6556032 56 114 C52.86574844 112.77249804 50.03208842 111.52866373 47.19921875 109.70703125 C46.48096924 109.2488501 45.76271973 108.79066895 45.02270508 108.31860352 C44.2520874 107.82158936 43.48146973 107.3245752 42.6875 106.8125 C40.99781515 105.73371794 39.30768869 104.65562735 37.6171875 103.578125 C36.71581055 103.00255859 35.81443359 102.42699219 34.88574219 101.83398438 C29.71345859 98.54682749 24.51192759 95.3064846 19.3125 92.0625 C18.30985107 91.43641846 17.30720215 90.81033691 16.27416992 90.1652832 C14.45285863 89.02801384 12.63142647 87.890938 10.80981445 86.75415039 C9.88257568 86.17528076 8.95533691 85.59641113 8 85 C7.31138885 84.77273727 6.62277771 84.54547455 5.91329956 84.31132507 C3.17969636 83.19748388 1.83307348 82.34238614 0 80 C-1.17376883 74.01509746 -0.92964866 68.08629582 -0.78125 62.01171875 C-0.76632275 60.22527093 -0.75493801 58.43879029 -0.74694824 56.65229797 C-0.71645134 51.95784545 -0.63791194 47.26538392 -0.54931641 42.57171631 C-0.46737059 37.77920467 -0.43091827 32.98637017 -0.390625 28.19335938 C-0.30491332 18.79469972 -0.1684377 9.39751563 0 0 Z " fill="#FDFDFE" transform="translate(26,221)"/>
<path d="M0 0 C3.72564282 1.44726249 6.99857721 3.09853548 10.40234375 5.203125 C11.44777344 5.84757568 12.49320313 6.49202637 13.5703125 7.15600586 C14.68148437 7.84702393 15.79265625 8.53804199 16.9375 9.25 C18.09233074 9.96446352 19.24728004 10.67873544 20.40234375 11.39282227 C29.08727226 16.77147681 37.71961477 22.23236865 46.32006836 27.74511719 C47.1735083 28.29200195 48.02694824 28.83888672 48.90625 29.40234375 C49.65197266 29.88179443 50.39769531 30.36124512 51.16601562 30.85522461 C52.9938599 32.03619541 52.9938599 32.03619541 55 33 C55 59.4 55 85.8 55 113 C46.36536121 108.06592069 37.99264351 103.18062469 29.75 97.6875 C27.93426388 96.48010175 26.11648287 95.27577416 24.296875 94.07421875 C23.34474121 93.3989917 22.39260742 92.72376465 21.41162109 92.02807617 C18.5430709 90.32283455 16.41822626 89.44351681 13.29541016 88.48168945 C7.63047123 86.44401629 3.2084648 84.27434208 0 79 C-2.95214283 66.9112 -1.77385441 53.94905174 -1.23596191 41.62329102 C-1.05076118 36.93194646 -0.96940019 32.23887918 -0.87890625 27.54492188 C-0.68668284 18.35870432 -0.38013708 9.18022898 0 0 Z " fill="#26D5F8" transform="translate(193,78)"/>
<path d="M0 0 C0.44209317 10.09126862 0.77869744 20.18020551 0.98443127 30.27921677 C1.08323791 34.97040577 1.21690608 39.65493328 1.43334961 44.34228516 C2.79257237 74.55878781 2.79257237 74.55878781 -1.77011108 81.81512451 C-6.09806808 86.0637723 -11.03975627 88.30060886 -16.73648071 90.20654297 C-19.61689086 91.21624573 -21.95379076 92.70416031 -24.44921875 94.4453125 C-28.19385006 96.81345211 -31.94025857 99.17875894 -35.68798828 101.54199219 C-37.24917839 102.52651461 -38.81004296 103.51155339 -40.37060547 104.49707031 C-42.62059167 105.91707827 -44.87249403 107.33399342 -47.125 108.75 C-48.14726685 109.39606201 -48.14726685 109.39606201 -49.19018555 110.05517578 C-53.88544255 113 -53.88544255 113 -55 113 C-55.4653131 102.77851669 -55.81965064 92.55958185 -56.03624344 82.32963181 C-56.14026551 77.57758177 -56.28098072 72.83281516 -56.50878906 68.08496094 C-57.93832986 37.4961536 -57.93832986 37.4961536 -53.15872192 30.18252563 C-48.58058314 25.89024256 -43.36034515 23.72961959 -37.44451904 21.83807373 C-34.07417011 20.68259044 -31.55411603 19.02757445 -28.62109375 17.01171875 C-27.74259766 16.45033203 -26.86410156 15.88894531 -25.95898438 15.31054688 C-25.12689453 14.77494141 -24.29480469 14.23933594 -23.4375 13.6875 C-18.18359375 10.32421875 -18.18359375 10.32421875 -15.64013672 8.69677734 C-13.74676003 7.47993177 -11.85831895 6.25539337 -9.97314453 5.02587891 C-8.9829834 4.38440918 -7.99282227 3.74293945 -6.97265625 3.08203125 C-6.069104 2.49268799 -5.16555176 1.90334473 -4.23461914 1.29614258 C-2 0 -2 0 0 0 Z " fill="#26D5F8" transform="translate(319,78)"/>
<path d="M0 0 C2.79168176 1.42405024 5.4524008 2.95421125 8.1171875 4.60449219 C9.17768311 5.25893311 10.23817871 5.91337402 11.33081055 6.58764648 C12.46545093 7.29359148 13.59996995 7.99973158 14.734375 8.70605469 C15.90066093 9.4286873 17.06708467 10.15109754 18.23364258 10.87329102 C21.69629687 13.01937269 25.15331717 15.17436548 28.609375 17.33105469 C29.58664551 17.94029785 30.56391602 18.54954102 31.57080078 19.17724609 C34.14876085 20.78691496 36.72380061 22.40108966 39.296875 24.01855469 C40.04275879 24.48632324 40.78864258 24.9540918 41.55712891 25.43603516 C46.0213181 28.25805877 50.33817379 31.22421763 54.609375 34.33105469 C51.86669267 37.24431559 49.14845736 39.41992552 45.7421875 41.51074219 C44.78417236 42.10338867 43.82615723 42.69603516 42.83911133 43.30664062 C41.81454834 43.93344727 40.78998535 44.56025391 39.734375 45.20605469 C37.57368852 46.54113444 35.41354506 47.87709336 33.25390625 49.21386719 C32.15385254 49.89352539 31.05379883 50.57318359 29.92041016 51.2734375 C23.79761036 55.07840408 17.72832365 58.96719136 11.65478516 62.85009766 C9.99940601 63.90715451 8.34083913 64.95924628 6.67822266 66.00488281 C5.02083737 67.06729925 3.40648922 68.19672981 1.80859375 69.34667969 C-0.390625 70.33105469 -0.390625 70.33105469 -2.69042969 69.59277344 C-5.52651481 68.26755753 -8.13032736 66.77427268 -10.79296875 65.12792969 C-11.8382373 64.4837207 -12.88350586 63.83951172 -13.96044922 63.17578125 C-15.62744873 62.1388916 -15.62744873 62.1388916 -17.328125 61.08105469 C-18.48446545 60.36446663 -19.64087908 59.64799665 -20.79736328 58.93164062 C-23.75461581 57.0973448 -26.70768744 55.25643828 -29.65899658 53.41259766 C-31.33683528 52.36465075 -33.01581128 51.31852545 -34.69482422 50.27246094 C-37.72299371 48.38248646 -40.74551004 46.4838677 -43.765625 44.58105469 C-44.67948975 44.00967773 -45.59335449 43.43830078 -46.53491211 42.84960938 C-47.38190674 42.31239258 -48.22890137 41.77517578 -49.1015625 41.22167969 C-49.83681152 40.75793945 -50.57206055 40.29419922 -51.32958984 39.81640625 C-53.59648155 38.18269751 -55.46668376 36.35208797 -57.390625 34.33105469 C-50.70098133 29.40626676 -43.74415943 25.04400439 -36.64355469 20.74536133 C-29.2677682 16.27590259 -21.9778606 11.67696038 -14.6953125 7.05761719 C-13.97827148 6.6093457 -13.26123047 6.16107422 -12.52246094 5.69921875 C-11.07041876 4.76733094 -9.64156385 3.79853228 -8.23535156 2.79882812 C-7.54666992 2.32219727 -6.85798828 1.84556641 -6.1484375 1.35449219 C-5.24182373 0.699729 -5.24182373 0.699729 -4.31689453 0.03173828 C-2.390625 -0.66894531 -2.390625 -0.66894531 0 0 Z " fill="#24B5F8" transform="translate(257.390625,316.6689453125)"/>
<path d="M0 0 C3.76981943 1.24419993 6.82361804 3.33039681 10.08203125 5.5390625 C11.59110669 6.53978592 13.1016101 7.53835818 14.61328125 8.53515625 C15.433125 9.07640137 16.25296875 9.61764648 17.09765625 10.17529297 C22.04405745 13.39425033 27.06810033 16.48929312 32.08203125 19.6015625 C40.0721134 24.57276604 48.00975634 29.58772577 55.76953125 34.9140625 C52.53146747 37.57925479 49.26460884 39.95803176 45.69921875 42.1640625 C44.72927979 42.76686035 43.75934082 43.3696582 42.76000977 43.99072266 C41.73190186 44.6254248 40.70379395 45.26012695 39.64453125 45.9140625 C37.4840824 47.25473694 35.32392994 48.5958891 33.1640625 49.9375 C32.08850098 50.60491211 31.01293945 51.27232422 29.90478516 51.95996094 C24.61243161 55.25851239 19.3509597 58.60610328 14.09912109 61.96875 C9.09352983 65.15111266 3.98299026 68.0856217 -1.23046875 70.9140625 C-12.64232745 63.79355495 -24.0532285 56.67211499 -35.41796875 49.4765625 C-42.65297235 44.89617245 -49.92150033 40.3755513 -57.23046875 35.9140625 C-54.50626475 33.02438775 -51.81196091 30.84910538 -48.43359375 28.76953125 C-47.48572998 28.18196045 -46.53786621 27.59438965 -45.5612793 26.98901367 C-44.54461182 26.36615479 -43.52794434 25.7432959 -42.48046875 25.1015625 C-40.32543125 23.76837396 -38.17048617 22.43503602 -36.015625 21.1015625 C-34.9033252 20.41578125 -33.79102539 19.73 -32.64501953 19.0234375 C-27.05418167 15.57380141 -21.4875775 12.0853332 -15.91796875 8.6015625 C-14.8928418 7.96178467 -13.86771484 7.32200684 -12.81152344 6.6628418 C-11.38501465 5.77205933 -11.38501465 5.77205933 -9.9296875 4.86328125 C-8.67418091 4.07957153 -8.67418091 4.07957153 -7.39331055 3.2800293 C-2.07330087 -0.079882 -2.07330087 -0.079882 0 0 Z " fill="#FDFDFE" transform="translate(90.23046875,172.0859375)"/>
<path d="M0 0 C3.13670975 1.21830027 5.92988611 2.91825592 8.78515625 4.67578125 C9.43645508 5.07176514 10.08775391 5.46774902 10.75878906 5.87573242 C17.64112245 10.07971534 24.45616284 14.39195222 31.26171875 18.71875 C34.70370049 20.90628697 38.15788267 23.07279639 41.62109375 25.2265625 C42.49604492 25.77272217 43.37099609 26.31888184 44.27246094 26.8815918 C45.96086857 27.93500578 47.65155236 28.9847822 49.34472656 30.03051758 C50.10108398 30.50384521 50.85744141 30.97717285 51.63671875 31.46484375 C52.30654785 31.88072754 52.97637695 32.29661133 53.66650391 32.72509766 C55.22265625 33.86328125 55.22265625 33.86328125 56.22265625 35.86328125 C55.55024902 36.27465332 54.8778418 36.68602539 54.18505859 37.10986328 C50.98804512 39.06736245 47.79237722 41.0270437 44.59765625 42.98828125 C44.01452667 43.34620758 43.43139709 43.70413391 42.83059692 44.07290649 C33.66391527 49.70368638 24.55677563 55.42000079 15.51904297 61.25634766 C10.1958581 64.67684733 4.79425503 67.86370651 -0.77734375 70.86328125 C-1.87046875 70.17105469 -2.96359375 69.47882813 -4.08984375 68.765625 C-21.58705915 57.69493899 -39.11124436 46.66306467 -56.77734375 35.86328125 C-53.92145891 32.80346433 -51.05141522 30.6247717 -47.47265625 28.46484375 C-46.42408447 27.82691895 -45.3755127 27.18899414 -44.29516602 26.53173828 C-43.17553467 25.85739746 -42.05590332 25.18305664 -40.90234375 24.48828125 C-38.55803581 23.06424429 -36.21644893 21.63576299 -33.875 20.20703125 C-33.28341599 19.84666779 -32.69183197 19.48630432 -32.08232117 19.11502075 C-26.12232645 15.47817082 -20.22449843 11.74568932 -14.33984375 7.98828125 C-13.41768066 7.39998535 -12.49551758 6.81168945 -11.54541016 6.20556641 C-1.63959266 -0.12612251 -1.63959266 -0.12612251 0 0 Z " fill="#FEFDFE" transform="translate(422.77734375,172.13671875)"/>
<path d="M0 0 C1.46794101 0.78780592 2.90522709 1.63405831 4.31640625 2.51953125 C5.57227539 3.30227417 5.57227539 3.30227417 6.85351562 4.10083008 C8.19446289 4.94810669 8.19446289 4.94810669 9.5625 5.8125 C10.9556543 6.68394653 10.9556543 6.68394653 12.37695312 7.57299805 C15.25523355 9.37583136 18.12834503 11.18663507 21 13 C22.30300049 13.82177734 22.30300049 13.82177734 23.63232422 14.66015625 C26.87476762 16.70576674 30.11704127 18.75155828 33.35302734 20.80737305 C36.90513284 23.06178307 40.4652916 25.29450758 44.07421875 27.45703125 C44.99750977 28.01233521 44.99750977 28.01233521 45.93945312 28.57885742 C47.56395306 29.55106165 49.19387392 30.51419208 50.82421875 31.4765625 C51.54222656 31.97929688 52.26023437 32.48203125 53 33 C53 33.66 53 34.32 53 35 C50.96240234 36.47363281 50.96240234 36.47363281 48.0859375 38.203125 C46.49410645 39.16943848 46.49410645 39.16943848 44.87011719 40.15527344 C44.30015015 40.49683472 43.73018311 40.838396 43.14294434 41.19030762 C40.16206228 42.97702564 37.1954225 44.78715305 34.2265625 46.59375 C33.62199219 46.96070984 33.01742187 47.32766968 32.39453125 47.70574951 C26.46421167 51.31057398 20.59920345 55.01509946 14.75 58.75 C13.8532959 59.32137695 12.9565918 59.89275391 12.03271484 60.48144531 C11.1917627 61.01866211 10.35081055 61.55587891 9.484375 62.109375 C8.70384766 62.60501953 7.92332031 63.10066406 7.11914062 63.61132812 C5.80161203 64.47470401 4.50359542 65.36968643 3.24023438 66.31054688 C-0.4485527 69.05252964 -0.4485527 69.05252964 -3.36303711 68.77490234 C-6.25482355 67.92511712 -8.35565917 66.76941539 -10.89453125 65.1484375 C-11.83901123 64.5512793 -12.78349121 63.95412109 -13.7565918 63.33886719 C-14.7650415 62.69079102 -15.77349121 62.04271484 -16.8125 61.375 C-18.96080576 60.01281305 -21.10924741 58.65084039 -23.2578125 57.2890625 C-24.36415039 56.58426758 -25.47048828 55.87947266 -26.61035156 55.15332031 C-32.1143107 51.65087304 -37.65299371 48.20390007 -43.1875 44.75 C-44.19594971 44.11884277 -45.20439941 43.48768555 -46.2434082 42.83740234 C-47.18788818 42.24652832 -48.13236816 41.6556543 -49.10546875 41.046875 C-50.34526489 40.27102051 -50.34526489 40.27102051 -51.61010742 39.47949219 C-53.31694211 38.42285533 -55.05285183 37.4126089 -56.8059082 36.43457031 C-57.5299585 35.96116211 -58.25400879 35.48775391 -59 35 C-59 34.34 -59 33.68 -59 33 C-57.43383789 31.84594727 -57.43383789 31.84594727 -55.22265625 30.56640625 C-54.40780762 30.0880835 -53.59295898 29.60976074 -52.75341797 29.11694336 C-51.42141357 28.3474939 -51.42141357 28.3474939 -50.0625 27.5625 C-43.40849669 23.65021981 -36.82915208 19.6718359 -30.375 15.4375 C-24.33600305 11.50431006 -18.28967943 7.58465243 -12.1875 3.75 C-11.42808105 3.25943115 -10.66866211 2.7688623 -9.88623047 2.26342773 C-9.1748291 1.82071533 -8.46342773 1.37800293 -7.73046875 0.921875 C-7.10551514 0.52581055 -6.48056152 0.12974609 -5.83666992 -0.27832031 C-3.42818574 -1.22468203 -2.39974989 -0.91623153 0 0 Z " fill="#25B6F8" transform="translate(259,29)"/>
<path d="M0 0 C1.8376111 3.77193857 1.85445429 7.32583673 1.1875 11.4375 C-0.52616731 14.37521538 -1.69582461 15.8971732 -4.75 17.375 C-7.59787783 17.46129933 -9.30867878 16.78571143 -11.8125 15.4375 C-15.27315535 11.66904598 -15.32081878 8.72730708 -15.16796875 3.78515625 C-14.8125 1.4375 -14.8125 1.4375 -13.0625 -1.125 C-8.07293084 -4.3127803 -4.58088177 -3.94903601 0 0 Z " fill="#7848AA" transform="translate(500.8125,256.5625)"/>
</svg>
