<?xml version="1.0" encoding="UTF-8"?>
<svg version="1.1" xmlns="http://www.w3.org/2000/svg" width="225" height="225">
<path d="M0 0 C12.20475346 4.75945887 23.51352554 12.47192834 34.75292969 19.09423828 C40.10985637 22.23831119 45.49227766 25.33786442 50.875 28.4375 C52.47432373 29.35958252 52.47432373 29.35958252 54.10595703 30.30029297 C59.1839241 33.2275737 64.26352183 36.1520023 69.34506226 39.07307434 C71.1250134 40.09649255 72.90460669 41.12053013 74.68408203 42.14477539 C76.91349337 43.42778627 79.14359376 44.70960088 81.37451172 45.98999023 C82.89455811 46.86506226 82.89455811 46.86506226 84.4453125 47.7578125 C85.32719238 48.2645752 86.20907227 48.77133789 87.11767578 49.29345703 C88.06884277 49.85661621 89.02000977 50.41977539 90 51 C90.65672101 51.29084567 91.31344202 51.58169134 91.99006367 51.88135052 C95.23602368 53.49391003 97.54800353 54.69903078 98.77521133 58.23126984 C99.10901229 61.1043262 99.18378799 63.88933433 99.17797852 66.78198242 C99.2064537 67.8688031 99.23492889 68.95562378 99.26426697 70.07537842 C99.34537486 73.66944598 99.36585088 77.26054956 99.37890625 80.85546875 C99.40715759 83.35786617 99.43646452 85.86025188 99.46678162 88.36262512 C99.51921074 93.61082479 99.53830323 98.85827996 99.53735352 104.10668945 C99.53738135 109.48708967 99.60061745 114.86244126 99.72192383 120.24145508 C99.86645421 126.74509575 99.927148 133.24414604 99.92442131 139.74935341 C99.93568035 142.222649 99.97453926 144.6959836 100.04193306 147.16838646 C100.50897027 165.98557848 100.50897027 165.98557848 96.34159279 170.99250603 C92.32816965 174.3031364 87.92284016 176.34985531 83.08171463 178.17258072 C80.02928494 179.38583019 77.36670871 181.01827629 74.56640625 182.73046875 C72.56553379 183.88355831 70.56422606 185.03589289 68.5625 186.1875 C66.31379049 187.4830528 64.06509292 188.77862632 61.81640625 190.07421875 C60.12281982 191.0494751 60.12281982 191.0494751 58.39501953 192.04443359 C54.00362936 194.57391981 49.61396813 197.10639505 45.22460938 199.6394043 C43.08424417 200.87439243 40.94362136 202.1089342 38.80273438 203.34301758 C33.70964541 206.27928399 28.61880754 209.2192768 23.5350647 212.17169189 C21.12565992 213.57068053 18.7150991 214.96767029 16.30444336 216.36450195 C14.59701018 217.35498071 12.89126028 218.3483594 11.18554688 219.34179688 C10.15623047 219.93798828 9.12691406 220.53417969 8.06640625 221.1484375 C7.15834229 221.67614746 6.25027832 222.20385742 5.31469727 222.74755859 C3 224 3 224 0 225 C-2.25463867 224.05053711 -2.25463867 224.05053711 -4.91796875 222.52734375 C-6.40961548 221.68345093 -6.40961548 221.68345093 -7.93139648 220.82250977 C-9.00591064 220.20045654 -10.0804248 219.57840332 -11.1875 218.9375 C-12.86404663 217.98218384 -12.86404663 217.98218384 -14.57446289 217.00756836 C-18.057151 215.01756581 -21.52990307 213.01186531 -25 211 C-26.53817383 210.10909668 -26.53817383 210.10909668 -28.10742188 209.20019531 C-33.04381573 206.33604832 -37.97159243 203.45751596 -42.89453125 200.5703125 C-50.25251864 196.25861046 -57.64508126 192.0071463 -65.04272461 187.76391602 C-67.03832167 186.6161807 -69.01915947 185.4424362 -70.98513794 184.24467468 C-74.03346053 182.45529732 -77.15055756 181.05146143 -80.39878845 179.66119385 C-95.06975067 172.92378905 -95.06975067 172.92378905 -98.28575134 166.38633919 C-100.32359314 158.84438554 -99.95789575 151.10720502 -99.74609375 143.36328125 C-99.74821927 140.87231332 -99.75762558 138.38134204 -99.77394104 135.89042664 C-99.78377809 130.68692079 -99.71722349 125.49179627 -99.59350586 120.28979492 C-99.43979779 113.63536758 -99.4604614 107.0031508 -99.53610134 100.34786701 C-99.57820874 95.21040227 -99.53679411 90.07623464 -99.46956062 84.93913841 C-99.44574473 82.48857181 -99.44551489 80.03765298 -99.46984673 77.58709145 C-99.57666935 59.03694737 -99.57666935 59.03694737 -95.31996346 54.01985359 C-91.30082896 50.73080347 -86.90122451 48.66912947 -82.07378387 46.83195114 C-79.02956815 45.61068658 -76.36382517 43.97773334 -73.56640625 42.26953125 C-71.56553379 41.11644169 -69.56422606 39.96410711 -67.5625 38.8125 C-65.31379049 37.5169472 -63.06509292 36.22137368 -60.81640625 34.92578125 C-59.68734863 34.27561035 -58.55829102 33.62543945 -57.39501953 32.95556641 C-51.92830016 29.80667944 -46.46427815 26.6531206 -41 23.5 C-38.86458583 22.26822484 -36.72916915 21.03645403 -34.59375 19.8046875 C-30.56489144 17.48043948 -26.53669509 15.15505139 -22.50927734 12.82830811 C-20.08952335 11.43041399 -17.66952737 10.03293911 -15.24951172 8.63549805 C-13.53198948 7.64347676 -11.81481948 6.65084571 -10.09765625 5.65820312 C-9.06511719 5.06201172 -8.03257813 4.46582031 -6.96875 3.8515625 C-5.59879883 3.05999756 -5.59879883 3.05999756 -4.20117188 2.25244141 C-2.82011309 1.46663489 -1.42121505 0.71060752 0 0 Z " fill="#FDFDFD" transform="translate(112,0)"/>
<path d="M0 0 C12.20475346 4.75945887 23.51352554 12.47192834 34.75292969 19.09423828 C40.10985637 22.23831119 45.49227766 25.33786442 50.875 28.4375 C52.47432373 29.35958252 52.47432373 29.35958252 54.10595703 30.30029297 C59.1839241 33.2275737 64.26352183 36.1520023 69.34506226 39.07307434 C71.1250134 40.09649255 72.90460669 41.12053013 74.68408203 42.14477539 C76.91349337 43.42778627 79.14359376 44.70960088 81.37451172 45.98999023 C82.89455811 46.86506226 82.89455811 46.86506226 84.4453125 47.7578125 C85.32719238 48.2645752 86.20907227 48.77133789 87.11767578 49.29345703 C88.06884277 49.85661621 89.02000977 50.41977539 90 51 C90.65672101 51.29084567 91.31344202 51.58169134 91.99006367 51.88135052 C95.23602368 53.49391003 97.54800353 54.69903078 98.77521133 58.23126984 C99.10901229 61.1043262 99.18378799 63.88933433 99.17797852 66.78198242 C99.2064537 67.8688031 99.23492889 68.95562378 99.26426697 70.07537842 C99.34537486 73.66944598 99.36585088 77.26054956 99.37890625 80.85546875 C99.40715759 83.35786617 99.43646452 85.86025188 99.46678162 88.36262512 C99.51921074 93.61082479 99.53830323 98.85827996 99.53735352 104.10668945 C99.53738135 109.48708967 99.60061745 114.86244126 99.72192383 120.24145508 C99.86645421 126.74509575 99.927148 133.24414604 99.92442131 139.74935341 C99.93568035 142.222649 99.97453926 144.6959836 100.04193306 147.16838646 C100.50897027 165.98557848 100.50897027 165.98557848 96.34159279 170.99250603 C92.32816965 174.3031364 87.92284016 176.34985531 83.08171463 178.17258072 C80.02928494 179.38583019 77.36670871 181.01827629 74.56640625 182.73046875 C72.56553379 183.88355831 70.56422606 185.03589289 68.5625 186.1875 C66.31379049 187.4830528 64.06509292 188.77862632 61.81640625 190.07421875 C60.12281982 191.0494751 60.12281982 191.0494751 58.39501953 192.04443359 C54.00362936 194.57391981 49.61396813 197.10639505 45.22460938 199.6394043 C43.08424417 200.87439243 40.94362136 202.1089342 38.80273438 203.34301758 C33.70964541 206.27928399 28.61880754 209.2192768 23.5350647 212.17169189 C21.12565992 213.57068053 18.7150991 214.96767029 16.30444336 216.36450195 C14.59701018 217.35498071 12.89126028 218.3483594 11.18554688 219.34179688 C10.15623047 219.93798828 9.12691406 220.53417969 8.06640625 221.1484375 C7.15834229 221.67614746 6.25027832 222.20385742 5.31469727 222.74755859 C3 224 3 224 0 225 C-2.25463867 224.05053711 -2.25463867 224.05053711 -4.91796875 222.52734375 C-6.40961548 221.68345093 -6.40961548 221.68345093 -7.93139648 220.82250977 C-9.00591064 220.20045654 -10.0804248 219.57840332 -11.1875 218.9375 C-12.86404663 217.98218384 -12.86404663 217.98218384 -14.57446289 217.00756836 C-18.057151 215.01756581 -21.52990307 213.01186531 -25 211 C-26.53817383 210.10909668 -26.53817383 210.10909668 -28.10742188 209.20019531 C-33.04381573 206.33604832 -37.97159243 203.45751596 -42.89453125 200.5703125 C-50.25251864 196.25861046 -57.64508126 192.0071463 -65.04272461 187.76391602 C-67.03832167 186.6161807 -69.01915947 185.4424362 -70.98513794 184.24467468 C-74.03346053 182.45529732 -77.15055756 181.05146143 -80.39878845 179.66119385 C-95.06975067 172.92378905 -95.06975067 172.92378905 -98.28575134 166.38633919 C-100.32359314 158.84438554 -99.95789575 151.10720502 -99.74609375 143.36328125 C-99.74821927 140.87231332 -99.75762558 138.38134204 -99.77394104 135.89042664 C-99.78377809 130.68692079 -99.71722349 125.49179627 -99.59350586 120.28979492 C-99.43979779 113.63536758 -99.4604614 107.0031508 -99.53610134 100.34786701 C-99.57820874 95.21040227 -99.53679411 90.07623464 -99.46956062 84.93913841 C-99.44574473 82.48857181 -99.44551489 80.03765298 -99.46984673 77.58709145 C-99.57666935 59.03694737 -99.57666935 59.03694737 -95.31996346 54.01985359 C-91.30082896 50.73080347 -86.90122451 48.66912947 -82.07378387 46.83195114 C-79.02956815 45.61068658 -76.36382517 43.97773334 -73.56640625 42.26953125 C-71.56553379 41.11644169 -69.56422606 39.96410711 -67.5625 38.8125 C-65.31379049 37.5169472 -63.06509292 36.22137368 -60.81640625 34.92578125 C-59.68734863 34.27561035 -58.55829102 33.62543945 -57.39501953 32.95556641 C-51.92830016 29.80667944 -46.46427815 26.6531206 -41 23.5 C-38.86458583 22.26822484 -36.72916915 21.03645403 -34.59375 19.8046875 C-30.56489144 17.48043948 -26.53669509 15.15505139 -22.50927734 12.82830811 C-20.08952335 11.43041399 -17.66952737 10.03293911 -15.24951172 8.63549805 C-13.53198948 7.64347676 -11.81481948 6.65084571 -10.09765625 5.65820312 C-9.06511719 5.06201172 -8.03257813 4.46582031 -6.96875 3.8515625 C-5.59879883 3.05999756 -5.59879883 3.05999756 -4.20117188 2.25244141 C-2.82011309 1.46663489 -1.42121505 0.71060752 0 0 Z M-8.6875 13.125 C-9.47785645 13.57020996 -10.26821289 14.01541992 -11.08251953 14.47412109 C-18.56076468 18.70597388 -25.97640396 23.04662323 -33.38916016 27.3918457 C-41.41352572 32.09179513 -49.48088099 36.71211048 -57.5625 41.3125 C-67.11750329 46.75287454 -76.62243845 52.25863578 -86 58 C-82.49341371 60.96118011 -78.99261693 63.22087354 -74.9296875 65.34765625 C-73.78628906 65.95287109 -72.64289063 66.55808594 -71.46484375 67.18164062 C-69.66394251 68.12641203 -67.86205077 69.06927422 -66.06005859 70.01196289 C-64.3059202 70.93189727 -62.55525444 71.8584437 -60.8046875 72.78515625 C-59.76296387 73.33051025 -58.72124023 73.87586426 -57.64794922 74.43774414 C-55.35006342 75.7934671 -53.7432087 77.00867035 -52 79 C-52.99 80.32 -53.98 81.64 -55 83 C-55.67466309 82.63237549 -56.34932617 82.26475098 -57.04443359 81.88598633 C-60.15366718 80.19306317 -63.26432251 78.50276848 -66.375 76.8125 C-67.43589844 76.23435547 -68.49679688 75.65621094 -69.58984375 75.06054688 C-70.64042969 74.49013672 -71.69101563 73.91972656 -72.7734375 73.33203125 C-73.72653809 72.81358643 -74.67963867 72.2951416 -75.66162109 71.76098633 C-80.07185759 69.43459787 -84.53342091 67.21584062 -89 65 C-89.02359072 73.60874149 -89.04114518 82.21746859 -89.05181217 90.82623482 C-89.05694213 94.8273651 -89.06384958 98.82847265 -89.07543945 102.82958984 C-89.0987724 111.30938521 -89.09030849 119.78757137 -89.02293396 128.26717091 C-88.99318984 132.71230169 -89.0258232 137.15118517 -89.11188602 141.59553528 C-89.14580169 143.69097548 -89.15610115 145.78501252 -89.15660095 147.88070679 C-89.15889987 150.43569854 -89.19956638 152.99106912 -89.28639221 155.54458618 C-89.22969654 162.07321275 -89.22969654 162.07321275 -85.79048157 167.39419556 C-81.13640206 170.82650232 -76.17806292 173.42870118 -70.72265625 175.359375 C-64.34930958 177.78610383 -58.66966067 180.84456085 -52.8125 184.3125 C-50.93218818 185.38719959 -49.04929935 186.45740102 -47.1640625 187.5234375 C-46.18598633 188.07741211 -45.20791016 188.63138672 -44.20019531 189.20214844 C-40.63031801 191.20768525 -37.04809535 193.1896535 -33.4609375 195.1640625 C-32.81575668 195.51919418 -32.17057587 195.87432587 -31.50584412 196.24021912 C-28.34594308 197.97830161 -25.18428143 199.71311151 -22.02075195 201.44458008 C-15.88916816 204.80828606 -9.83271671 208.24451728 -3.90161133 211.95336914 C-2.0697452 213.16072737 -2.0697452 213.16072737 0 213 C0.11185009 200.28637273 -0.06921053 187.68200655 -1 175 C0.175625 174.7834375 0.175625 174.7834375 1.375 174.5625 C3.96421018 174.12201075 3.96421018 174.12201075 6 173 C6 186.2 6 199.4 6 213 C9.73255129 211.50697948 12.82962441 210.04854911 16.26171875 208.05078125 C17.28458984 207.4578125 18.30746094 206.86484375 19.36132812 206.25390625 C20.45896484 205.61324219 21.55660156 204.97257813 22.6875 204.3125 C23.84940348 203.6376662 25.01151671 202.96319344 26.17382812 202.2890625 C28.5872404 200.88892911 30.9997446 199.48724981 33.41162109 198.08447266 C38.93267049 194.87508744 44.46698539 191.68869588 50 188.5 C52.13549037 187.26835695 54.27090654 186.03658523 56.40625 184.8046875 C57.47488281 184.18819336 58.54351562 183.57169922 59.64453125 182.93652344 C62.59367557 181.23449981 65.54234625 179.53166133 68.49072266 177.82830811 C70.91047665 176.43041399 73.33047263 175.03293911 75.75048828 173.63549805 C77.46801052 172.64347676 79.18518052 171.65084571 80.90234375 170.65820312 C82.45115234 169.76391602 82.45115234 169.76391602 84.03125 168.8515625 C85.40120117 168.05999756 85.40120117 168.05999756 86.79882812 167.25244141 C88.17988691 166.46663489 89.57878495 165.71060752 91 165 C91 132 91 99 91 65 C86.33933785 66.55355405 82.98611115 67.98590964 78.83203125 70.40625 C77.69185547 71.06753906 76.55167969 71.72882813 75.37695312 72.41015625 C74.18878018 73.10673348 73.00062936 73.80334844 71.8125 74.5 C70.6129119 75.19709955 69.41304442 75.89371858 68.21289062 76.58984375 C62.02985464 80.17131742 62.02985464 80.17131742 56 84 C55.34 82.68 54.68 81.36 54 80 C53.34 80 52.68 80 52 80 C52 79.34 52 78.68 52 78 C52.87325928 77.73429199 53.74651855 77.46858398 54.64624023 77.19482422 C57.9208152 76.0282107 60.66373063 74.63378066 63.66015625 72.8828125 C64.70107422 72.27566406 65.74199219 71.66851562 66.81445312 71.04296875 C67.88630859 70.41003906 68.95816406 69.77710938 70.0625 69.125 C71.13822266 68.49980469 72.21394531 67.87460938 73.32226562 67.23046875 C78.15533713 64.39594572 82.68013105 61.58610311 87 58 C74.68380475 50.78942166 62.35339463 43.60773799 49.94970703 36.54858398 C43.16827809 32.68290064 36.42486297 28.75438852 29.6875 24.8125 C25.79335479 22.53876036 21.8975804 20.26784602 18 18 C17.15308594 17.50709473 16.30617188 17.01418945 15.43359375 16.50634766 C13.18920446 15.20487557 10.93969433 13.91290556 8.6875 12.625 C8.04192139 12.24964111 7.39634277 11.87428223 6.73120117 11.48754883 C0.27507407 7.82474264 -2.63017649 9.6664934 -8.6875 13.125 Z " fill="#484848" transform="translate(112,0)"/>
<path d="M0 0 C8.76915269 4.30444471 17.38878268 8.7790453 25.875 13.625 C26.84179688 14.1715625 27.80859375 14.718125 28.8046875 15.28125 C31.54677645 16.83857769 34.28375899 18.39794408 37 20 C37.68785583 20.29821152 38.37571167 20.59642303 39.08441162 20.90367126 C41.46276666 22.06629831 43.15868944 23.08926717 45 25 C46.11462399 28.81405115 45.9337914 32.48063277 45.78125 36.42578125 C45.76993042 37.52850876 45.75861084 38.63123627 45.74694824 39.76737976 C45.70221804 43.28419862 45.60185222 46.79691702 45.5 50.3125 C45.4598691 52.69850877 45.42336766 55.08458154 45.390625 57.47070312 C45.30249425 63.31519747 45.16868959 69.15730587 45 75 C41.00824623 73.76712415 37.49732544 72.31851663 33.875 70.2421875 C32.92705566 69.70239258 31.97911133 69.16259766 31.00244141 68.60644531 C30.01163574 68.03506836 29.02083008 67.46369141 28 66.875 C26.98212402 66.29331055 25.96424805 65.71162109 24.91552734 65.11230469 C22.88221717 63.94976838 20.85012652 62.78509617 18.81933594 61.61816406 C16.35518098 60.20385691 13.88656832 58.79807431 11.4140625 57.3984375 C2.14124447 52.14124447 2.14124447 52.14124447 1 51 C0.74224552 48.6579346 0.56542368 46.35095881 0.4375 44 C0.3950415 43.24412598 0.35258301 42.48825195 0.30883789 41.70947266 C-0.35290993 27.82741472 -0.08035845 13.89335702 0 0 Z " fill="#F8D668" transform="translate(65,89)"/>
<path d="M0 0 C2.40917969 1.14819336 2.40917969 1.14819336 4.921875 2.58984375 C5.85765381 3.12246826 6.79343262 3.65509277 7.75756836 4.20385742 C9.23882202 5.0620105 9.23882202 5.0620105 10.75 5.9375 C11.76392822 6.51927002 12.77785645 7.10104004 13.82250977 7.70043945 C15.88962734 8.88873527 17.95482157 10.0803832 20.01806641 11.27539062 C22.7699877 12.86697176 25.52996189 14.44339654 28.29296875 16.015625 C29.84162216 16.90542148 31.38982958 17.79599484 32.9375 18.6875 C33.6584082 19.09669678 34.37931641 19.50589355 35.12207031 19.92749023 C36.78236592 20.89503471 38.39746285 21.93952911 40 23 C40 23.66 40 24.32 40 25 C39.3922876 25.34144043 38.7845752 25.68288086 38.15844727 26.03466797 C35.29216229 27.64639645 32.42713936 29.26034841 29.5625 30.875 C28.52311279 31.46055664 27.48372559 32.04611328 26.4128418 32.64941406 C19.29217109 36.67273795 12.22020071 40.7675085 5.23071289 45.01513672 C-0.81066799 48.636144 -0.81066799 48.636144 -4 49 C-6.24804688 48.09472656 -6.24804688 48.09472656 -8.71875 46.640625 C-10.10404907 45.83951294 -10.10404907 45.83951294 -11.51733398 45.0222168 C-12.50161377 44.43738525 -13.48589355 43.85255371 -14.5 43.25 C-16.56313991 42.05224409 -18.62695614 40.85565249 -20.69140625 39.66015625 C-21.73699707 39.05059082 -22.78258789 38.44102539 -23.85986328 37.81298828 C-28.67880688 35.03072462 -33.55453318 32.3553107 -38.4375 29.6875 C-39.30117187 29.2140918 -40.16484375 28.74068359 -41.0546875 28.25292969 C-43.03572183 27.16726432 -45.01745938 26.0829114 -47 25 C-47 24.34 -47 23.68 -47 23 C-36.28257592 16.79846855 -36.28257592 16.79846855 -31.41333008 14 C-30.21955747 13.3138131 -29.02579117 12.62761522 -27.83203125 11.94140625 C-27.24114212 11.60182892 -26.65025299 11.26225159 -26.04145813 10.91238403 C-22.6411221 8.95509262 -19.25717603 6.97308315 -15.88671875 4.96484375 C-14.80100586 4.32760376 -14.80100586 4.32760376 -13.69335938 3.67749023 C-12.39228904 2.91372901 -11.09752008 2.13909007 -9.81054688 1.35180664 C-6.01448272 -0.85206694 -4.17501185 -1.19057791 0 0 Z " fill="#F8D668" transform="translate(116,59)"/>
<path d="M0 0 C0 17.16 0 34.32 0 52 C-6.6 55.63 -13.2 59.26 -20 63 C-27.55534095 67.42982142 -27.55534095 67.42982142 -35.07568359 71.91601562 C-37.66476316 73.37446694 -40.34211916 74.67105958 -43 76 C-43 58.84 -43 41.68 -43 24 C-36.7815625 20.5659375 -36.7815625 20.5659375 -30.4375 17.0625 C-21.88830761 12.3295537 -13.37372763 7.56620373 -5.05249023 2.43969727 C-1.08656514 0 -1.08656514 0 0 0 Z " fill="#F8D667" transform="translate(160,89)"/>
</svg>
