<?xml version="1.0" standalone="no"?>
<!DOCTYPE svg PUBLIC "-//W3C//DTD SVG 20010904//EN"
 "http://www.w3.org/TR/2001/REC-SVG-20010904/DTD/svg10.dtd">
<svg version="1.0" xmlns="http://www.w3.org/2000/svg"
 width="300.000000pt" height="183.000000pt" viewBox="0 0 300.000000 183.000000"
 preserveAspectRatio="xMidYMid meet">
<metadata>
Created by potrace 1.10, written by Peter Selinger 2001-2011
</metadata>
<g transform="translate(0.000000,183.000000) scale(0.100000,-0.100000)"
fill="#000000" stroke="none">
<path d="M870 1528 c-77 -35 -125 -82 -165 -161 -28 -55 -44 -76 -68 -87 -64
-28 -108 -99 -106 -172 l1 -43 8 54 c11 76 55 132 124 157 23 8 32 20 42 55
20 67 81 139 144 172 46 23 65 27 115 24 76 -5 171 -25 210 -44 39 -20 93 -71
111 -105 8 -16 22 -28 32 -28 25 0 78 -35 97 -64 76 -116 3 -298 -130 -326
-16 -3 -30 -12 -31 -20 -3 -49 -19 -93 -35 -97 -14 -4 -16 -12 -12 -41 18
-134 84 -216 226 -285 117 -57 558 -207 713 -243 239 -54 555 -42 803 31 32
10 51 21 51 31 0 10 -6 14 -17 10 -188 -55 -335 -76 -511 -75 -165 1 -232 9
-393 50 -119 29 -503 161 -614 210 -123 54 -182 108 -208 188 -20 61 -22 102
-6 118 6 6 14 26 18 44 5 26 17 39 56 62 69 40 100 72 123 126 34 77 36 110
12 175 -23 60 -77 122 -116 132 -11 3 -38 26 -58 50 -21 25 -55 56 -77 70 -85
53 -256 70 -339 32z"/>
<path d="M933 1494 c-48 -24 -98 -84 -140 -168 -30 -61 -42 -76 -60 -76 -23 0
-56 -29 -75 -65 -8 -16 -4 -14 18 6 16 15 47 36 69 47 33 17 43 29 59 74 24
72 114 161 183 182 47 14 47 15 13 15 -19 0 -49 -6 -67 -15z"/>
<path d="M1023 1470 c-92 -21 -171 -103 -197 -202 -12 -47 -17 -53 -44 -59
-17 -4 -43 -14 -57 -23 -81 -53 -87 -189 -11 -240 34 -21 45 -20 39 4 -3 11
-11 20 -18 20 -8 0 -23 14 -36 31 -16 23 -20 40 -16 70 7 51 50 108 87 116 36
7 63 37 79 88 44 141 191 213 311 153 30 -16 53 -37 70 -68 20 -34 37 -49 67
-60 55 -20 81 -46 89 -86 6 -35 34 -69 34 -43 0 64 -65 149 -113 149 -17 0
-33 15 -57 52 -52 79 -142 118 -227 98z"/>
<path d="M617 1110 c-15 -52 -11 -94 12 -138 12 -22 11 -23 -11 -12 -14 7 -8
-2 17 -25 22 -20 61 -46 86 -58 55 -25 89 -82 89 -150 0 -49 20 -129 43 -174
9 -17 47 -58 84 -90 37 -32 96 -85 130 -119 62 -59 63 -62 63 -113 0 -29 -5
-61 -10 -71 -12 -22 -117 -89 -173 -110 -43 -16 -61 -40 -30 -40 29 0 136 54
175 89 20 17 43 50 52 72 31 77 -9 145 -161 277 -100 88 -131 144 -140 253 -3
41 -11 77 -17 81 -6 3 -11 29 -11 56 l0 50 -46 4 c-111 11 -178 128 -135 233
8 19 11 35 6 35 -5 0 -15 -23 -23 -50z"/>
<path d="M1295 1020 c-3 -5 -17 -10 -31 -10 -13 0 -24 -5 -24 -10 0 -6 11 -8
28 -4 40 10 57 20 44 28 -6 3 -13 2 -17 -4z"/>
<path d="M1108 933 c-18 -3 -25 -9 -22 -18 8 -19 -15 -87 -34 -102 -20 -17
-11 -103 18 -172 33 -76 101 -131 254 -206 72 -35 142 -76 156 -90 23 -25 25
-33 22 -112 -2 -91 6 -116 52 -156 28 -24 112 -67 131 -67 32 0 12 18 -59 54
-95 47 -107 66 -104 159 3 76 -13 127 -49 159 -10 9 -58 37 -108 63 -214 112
-230 124 -258 186 -40 91 -46 140 -22 186 9 15 20 40 25 56 5 15 14 27 19 27
6 0 8 -6 5 -14 -3 -8 1 -27 9 -43 8 -15 17 -47 20 -71 8 -62 51 -145 102 -194
79 -77 157 -117 405 -208 63 -24 129 -49 145 -56 222 -96 614 -140 890 -99
110 16 143 23 243 51 80 23 62 35 -20 13 -175 -45 -238 -52 -453 -53 -184 -1
-223 2 -315 22 -109 24 -530 161 -660 215 -197 81 -283 167 -309 309 -6 29
-15 75 -20 102 -6 26 -8 52 -5 57 5 9 -8 9 -58 2z"/>
<path d="M949 913 c-36 -4 -36 -5 -42 -56 -5 -36 -13 -57 -28 -70 -20 -16 -21
-24 -15 -79 13 -129 23 -144 193 -295 114 -101 148 -185 109 -262 -21 -40 -91
-100 -150 -127 l-51 -24 52 2 c37 1 50 5 43 13 -6 7 7 20 41 39 97 54 126 153
75 254 -21 42 -114 140 -187 197 -41 32 -69 77 -84 135 -19 69 -19 124 -1 139
7 6 21 31 31 56 25 68 33 54 55 -92 18 -120 74 -208 176 -274 38 -25 87 -53
109 -63 22 -9 47 -21 55 -26 8 -5 39 -21 68 -35 55 -28 59 -36 53 -114 -1 -18
3 -56 9 -85 9 -42 20 -59 63 -99 38 -35 59 -47 82 -47 l30 1 -40 21 c-98 50
-130 104 -122 201 6 71 -1 100 -32 125 -9 7 -71 40 -139 74 -197 97 -267 178
-280 322 -3 34 -9 64 -13 67 -5 3 -10 28 -11 57 -2 29 -5 51 -8 50 -3 -1 -21
-3 -41 -5z"/>
</g>
</svg>
