<?xml version="1.0" encoding="UTF-8"?>
<svg version="1.1" xmlns="http://www.w3.org/2000/svg" width="512" height="512">
<path d="M0 0 C0.90105469 0.40734375 1.80210937 0.8146875 2.73046875 1.234375 C20.58827992 9.99578308 32.90548118 26.8395741 40 45 C43.96854357 57.34333772 44.14252967 69.57320931 44.09765625 82.41015625 C44.09578796 83.9891302 44.094366 85.56810473 44.09336853 87.14707947 C44.0895757 91.27503092 44.07977353 95.40294641 44.06866455 99.53088379 C44.0583804 103.75430821 44.05385599 107.97773851 44.04882812 112.20117188 C44.03814793 120.4674643 44.021111 128.73372766 44 137 C44.61931396 136.97905273 45.23862793 136.95810547 45.87670898 136.93652344 C48.73013542 136.8524818 51.58330036 136.80106555 54.4375 136.75 C55.41138672 136.71648437 56.38527344 136.68296875 57.38867188 136.6484375 C65.27990497 136.54286916 71.46883391 137.98637886 77.55859375 143.18359375 C78.17863281 143.92738281 78.79867188 144.67117187 79.4375 145.4375 C80.07558594 146.17871094 80.71367187 146.91992188 81.37109375 147.68359375 C84.9075973 152.71272231 85.29298149 157.25760397 85.27415466 163.27861023 C85.27939134 164.10887138 85.28462802 164.93913252 85.29002339 165.7945531 C85.30501757 168.57491691 85.30572842 171.35509659 85.30639648 174.13549805 C85.31401846 176.12984019 85.32244603 178.1241794 85.33161926 180.11851501 C85.35356987 185.53607864 85.36236417 190.95358581 85.36744571 196.37118888 C85.37108922 199.75750952 85.37732933 203.14381538 85.3844471 206.53013039 C85.40894549 218.34878819 85.42199392 230.16740209 85.42553711 241.98608398 C85.4291706 252.99410432 85.45905176 264.00184553 85.50094169 275.00978059 C85.53566377 284.46644471 85.5510859 293.92301644 85.55178314 303.37974387 C85.55257543 309.0251318 85.56129177 314.67023554 85.58978081 320.31555748 C85.61599339 325.62869815 85.61814858 330.94131969 85.60212517 336.25449562 C85.60031312 338.19989277 85.60697926 340.14531998 85.62294388 342.09065247 C85.77857597 362.29365866 85.77857597 362.29365866 78.44277096 370.80724621 C72.06699566 376.94755232 64.00331798 378.45718974 55.43019104 378.38768005 C54.61692995 378.39306559 53.80366887 378.39845113 52.96576351 378.40399987 C50.26681231 378.41819746 47.56835727 378.41119622 44.86938477 378.40405273 C42.92371225 378.40976058 40.97804308 378.41672644 39.03237915 378.42485046 C33.76583116 378.44275068 28.49945007 378.44161943 23.23288083 378.43590808 C18.82935803 378.43281184 14.42586708 378.4389135 10.02234882 378.44494683 C-0.36899833 378.45898001 -10.76026324 378.45744065 -21.15161133 378.44604492 C-31.85749236 378.43456342 -42.56312288 378.44864277 -53.26897091 378.4754414 C-62.47519517 378.49761995 -71.68134092 378.50423095 -80.88758999 378.49836498 C-86.37972042 378.49499956 -91.87169028 378.49738307 -97.36379814 378.51461601 C-102.52921914 378.53011748 -107.69426982 378.52609396 -112.85967636 378.50731087 C-114.75023771 378.50363394 -116.6408267 378.50670719 -118.53136253 378.51719666 C-139.77215245 378.62600994 -139.77215245 378.62600994 -148.875 370.9375 C-154.07217298 365.18743628 -156.10177622 358.43882437 -156.03930664 350.80395508 C-156.0307943 349.45422356 -156.0307943 349.45422356 -156.02210999 348.07722473 C-156.01481369 347.39174057 -156.0075174 346.70625641 -156 346 C-157.23028679 346.00999275 -157.23028679 346.00999275 -158.48542786 346.02018738 C-166.21045133 346.08026878 -173.93536171 346.12595913 -181.66055775 346.15543652 C-185.63228627 346.17110056 -189.60382193 346.19235199 -193.57543945 346.22631836 C-197.40743089 346.25888596 -201.23923668 346.27684745 -205.07135582 346.28463173 C-206.53422659 346.29017996 -207.99708707 346.30101425 -209.45987892 346.31719017 C-211.50708696 346.33893079 -213.5535254 346.34196847 -215.60083008 346.34057617 C-217.34956169 346.35056892 -217.34956169 346.35056892 -219.13362122 346.36076355 C-222 346 -222 346 -223.84526062 344.62715149 C-225.4559924 342.35745786 -225.86739927 340.78461523 -226 338 C-224.8584081 335.7168162 -223.80987317 333.80987317 -222 332 C-219.94443339 331.90586313 -217.88559819 331.88257002 -215.82788086 331.88647461 C-215.18399918 331.88632858 -214.54011749 331.88618256 -213.87672424 331.8860321 C-211.73939697 331.88673115 -209.60215587 331.89452309 -207.46484375 331.90234375 C-205.98653715 331.90420796 -204.50822993 331.90563185 -203.02992249 331.90663147 C-199.13201198 331.91045641 -195.23413851 331.92028648 -191.33624268 331.93133545 C-187.36153667 331.94155008 -183.38682471 331.9461292 -179.41210938 331.95117188 C-171.60805404 331.96190878 -163.80403692 331.97950538 -156 332 C-156 326.06 -156 320.12 -156 314 C-158.85164795 314.02618408 -161.7032959 314.05236816 -164.64135742 314.0793457 C-174.06091865 314.16217719 -183.48049592 314.21741677 -192.90032482 314.25906086 C-198.61188705 314.28515956 -204.32307628 314.32056339 -210.03442383 314.37719727 C-215.54576091 314.4315061 -221.05673913 314.46141848 -226.56832314 314.47438622 C-228.67151858 314.48362803 -230.77469429 314.50167521 -232.87773705 314.52865028 C-235.82281376 314.56492504 -238.76640591 314.56994593 -241.71166992 314.56762695 C-242.5820137 314.58560333 -243.45235748 314.60357971 -244.34907532 314.62210083 C-248.72382905 314.58480435 -250.46822805 314.40931421 -254.04536438 311.65592957 C-256 309 -256 309 -256.5625 305.9375 C-255.84485481 302.18979732 -255.08945763 301.2403219 -252 299 C-248.91181611 298.41908962 -245.86721352 298.49487586 -242.73339844 298.54589844 C-241.79647156 298.54531433 -240.85954468 298.54473022 -239.89422607 298.54412842 C-236.79889819 298.54691404 -233.70453455 298.57802908 -230.609375 298.609375 C-228.46275356 298.61683568 -226.31612531 298.62252943 -224.16949463 298.62652588 C-218.52060124 298.64179575 -212.87211947 298.68108962 -207.22338867 298.7253418 C-201.45887826 298.76626508 -195.69430131 298.78453063 -189.9296875 298.8046875 C-178.61958175 298.84758235 -167.30988951 298.91794365 -156 299 C-156 293.06 -156 287.12 -156 281 C-157.9480957 281.01571045 -159.89619141 281.0314209 -161.90332031 281.04760742 C-168.34138202 281.09599177 -174.77940067 281.13045833 -181.21759415 281.15543652 C-185.12091481 281.17108945 -189.02403869 281.19232061 -192.92724609 281.22631836 C-196.69440392 281.25892557 -200.46137252 281.27685582 -204.22866058 281.28463173 C-205.66558562 281.29017284 -207.10250035 281.30099336 -208.53934479 281.31719017 C-210.55249422 281.33897989 -212.56583424 281.34022554 -214.57910156 281.34057617 C-216.29785492 281.35056892 -216.29785492 281.35056892 -218.05133057 281.36076355 C-221.32030337 280.96081155 -222.66881285 280.28330221 -225 278 C-226.38897856 274.57385288 -226.09025628 273.23466634 -224.75 269.75 C-223 267 -223 267 -220 266 C-217.92971727 265.91078114 -215.85662411 265.88240349 -213.78442383 265.88647461 C-211.86277153 265.88658791 -211.86277153 265.88658791 -209.90229797 265.88670349 C-208.50387534 265.89181013 -207.1054531 265.89702613 -205.70703125 265.90234375 C-204.27642364 265.90420911 -202.84581539 265.90563246 -201.41520691 265.90663147 C-197.65213249 265.91044733 -193.88909675 265.92026968 -190.1260376 265.93133545 C-186.28520226 265.94156957 -182.44436067 265.94613338 -178.60351562 265.95117188 C-171.06899076 265.96189278 -163.53450573 265.97948205 -156 266 C-156 260.06 -156 254.12 -156 248 C-160.3307666 248.0314209 -160.3307666 248.0314209 -164.74902344 248.06347656 C-174.28038539 248.12970846 -183.81175743 248.1739202 -193.34328842 248.20724869 C-199.12318834 248.22813748 -204.9028528 248.25647912 -210.68261719 248.30175781 C-216.25877451 248.34516886 -221.83470513 248.36912737 -227.41101837 248.37950897 C-229.54013896 248.38690882 -231.66924691 248.40135875 -233.79827118 248.42292023 C-236.77692125 248.45189078 -239.75463051 248.45595861 -242.73339844 248.45410156 C-243.61668823 248.46848267 -244.49997803 248.48286377 -245.41003418 248.49768066 C-251.36691913 248.45740453 -251.36691913 248.45740453 -254.5479126 246.15911865 C-256.53733569 243.2010319 -256.58239041 241.49434245 -256 238 C-254.5479126 235.84088135 -254.5479126 235.84088135 -252 234 C-248.91168723 233.41953668 -245.86727472 233.49487487 -242.73339844 233.54589844 C-241.79647156 233.54531433 -240.85954468 233.54473022 -239.89422607 233.54412842 C-236.79889819 233.54691404 -233.70453455 233.57802908 -230.609375 233.609375 C-228.46275356 233.61683568 -226.31612531 233.62252943 -224.16949463 233.62652588 C-218.52060124 233.64179575 -212.87211947 233.68108962 -207.22338867 233.7253418 C-201.45887826 233.76626508 -195.69430131 233.78453063 -189.9296875 233.8046875 C-178.61958175 233.84758235 -167.30988951 233.91794365 -156 234 C-156 228.06 -156 222.12 -156 216 C-158.8767041 216.01571045 -158.8767041 216.01571045 -161.81152344 216.03173828 C-168.14981651 216.06399589 -174.48809015 216.08697295 -180.82644272 216.10362434 C-184.66917254 216.11405904 -188.5118135 216.12821245 -192.35449219 216.15087891 C-196.06328453 216.17261857 -199.77199144 216.18457099 -203.48084259 216.18975449 C-204.89542231 216.19344823 -206.30999739 216.2006612 -207.72454071 216.21146011 C-209.70661352 216.2259891 -211.6887724 216.22681704 -213.67089844 216.22705078 C-214.79896912 216.231492 -215.92703979 216.23593323 -217.08929443 216.24050903 C-219.9949357 216.00041846 -221.62800973 215.66998061 -224 214 C-225.4375 210.6875 -225.4375 210.6875 -226 207 C-224.69868726 204.00698071 -223.93517013 202.46758506 -221 201 C-218.93707015 200.90839663 -216.87111115 200.8824882 -214.80615234 200.88647461 C-213.50495453 200.88655014 -212.20375671 200.88662567 -210.86312866 200.88670349 C-209.43739789 200.89181053 -208.0116675 200.89702653 -206.5859375 200.90234375 C-205.13148039 200.90420853 -203.67702266 200.90563215 -202.2225647 200.90663147 C-198.39207224 200.91045195 -194.56161763 200.92027824 -190.73114014 200.93133545 C-186.82336947 200.94155965 -182.91559269 200.94613126 -179.0078125 200.95117188 C-171.33852241 200.96190092 -163.66927132 200.97949393 -156 201 C-156 195.06 -156 189.12 -156 183 C-160.3307666 183.0314209 -160.3307666 183.0314209 -164.74902344 183.06347656 C-174.28038539 183.12970846 -183.81175743 183.1739202 -193.34328842 183.20724869 C-199.12318834 183.22813748 -204.9028528 183.25647912 -210.68261719 183.30175781 C-216.25877451 183.34516886 -221.83470513 183.36912737 -227.41101837 183.37950897 C-229.54013896 183.38690882 -231.66924691 183.40135875 -233.79827118 183.42292023 C-236.77692125 183.45189078 -239.75463051 183.45595861 -242.73339844 183.45410156 C-243.61668823 183.46848267 -244.49997803 183.48286377 -245.41003418 183.49768066 C-251.36924992 183.45738877 -251.36924992 183.45738877 -254.54400635 181.1552124 C-256.56822245 178.15889739 -256.65131373 176.54604142 -256 173 C-254.00586445 170.29039853 -252.40987997 168.32041867 -249.02327538 167.55075645 C-246.57229468 167.38374571 -244.16791394 167.38164094 -241.71166992 167.43237305 C-240.32069092 167.43127785 -240.32069092 167.43127785 -238.90161133 167.43016052 C-235.84396373 167.43363719 -232.78784941 167.47250268 -229.73046875 167.51171875 C-227.60769991 167.52104658 -225.4849203 167.52816283 -223.36213684 167.53315735 C-217.78054988 167.55222936 -212.19961559 167.60133264 -206.61828613 167.65667725 C-200.92074411 167.70786491 -195.22309641 167.73067041 -189.52539062 167.75585938 C-178.34997398 167.80945058 -167.17504131 167.89476643 -156 168 C-156.00516632 167.38008682 -156.01033264 166.76017365 -156.01565552 166.12147522 C-156.02168289 164.90324318 -156.02168289 164.90324318 -156.02783203 163.66040039 C-156.03299835 162.85486221 -156.03816467 162.04932404 -156.04348755 161.21937561 C-155.89794015 153.79140254 -152.08392103 147.22579789 -147 142 C-141.88184994 138.16692658 -137.08877738 136.86576292 -130.796875 136.90234375 C-129.8171875 136.90556641 -128.8375 136.90878906 -127.828125 136.91210938 C-126.81234375 136.92048828 -125.7965625 136.92886719 -124.75 136.9375 C-123.203125 136.94426758 -123.203125 136.94426758 -121.625 136.95117188 C-119.08327427 136.96293912 -116.54166681 136.97937989 -114 137 C-114.00999275 135.64055519 -114.00999275 135.64055519 -114.02018738 134.25364685 C-114.0806761 125.64940373 -114.12616438 117.04523357 -114.15543652 108.44082546 C-114.17099225 104.0188065 -114.19204233 99.59696545 -114.22631836 95.17504883 C-114.25927662 90.89561821 -114.27692855 86.61635705 -114.28463173 82.33680916 C-114.29011064 80.71639405 -114.30080619 79.09598661 -114.31719017 77.47564507 C-114.44630788 64.1581638 -113.55235913 51.01763985 -107.8125 38.75 C-107.50916748 38.08581055 -107.20583496 37.42162109 -106.89331055 36.73730469 C-97.6277985 17.16967925 -81.05887001 3.17097007 -60.87207031 -4.12109375 C-40.65435395 -10.99958639 -19.17457715 -9.22925705 0 0 Z M-73.21484375 40.47265625 C-79.49079273 49.35786192 -83.26390346 58.75262541 -83.22705078 69.67944336 C-83.22729185 70.42370103 -83.22753292 71.1679587 -83.2277813 71.93476963 C-83.22630049 74.31992027 -83.21112508 76.70474977 -83.1953125 79.08984375 C-83.19236823 80.57197927 -83.19033016 82.05411687 -83.18920898 83.53625488 C-83.17876614 89.00336851 -83.15084359 94.47043748 -83.125 99.9375 C-83.08375 112.168125 -83.0425 124.39875 -83 137 C-51.32 137 -19.64 137 13 137 C13.0825 125.223125 13.165 113.44625 13.25 101.3125 C13.28641602 97.61973877 13.32283203 93.92697754 13.36035156 90.12231445 C13.37374469 86.7575376 13.37374469 86.7575376 13.3817749 83.39274597 C13.38784202 81.91576794 13.40175046 80.43880734 13.42230225 78.96195984 C13.63937569 62.51384181 10.3184261 48.49172074 -1.25 36.25 C-11.82416504 26.22491221 -22.91410726 22.47267949 -37.24829102 22.58032227 C-51.46617028 23.04135453 -64.10515366 29.52980471 -73.21484375 40.47265625 Z " fill="#0B607E" transform="translate(354,71)"/>
<path d="M0 0 C0.90105469 0.40734375 1.80210937 0.8146875 2.73046875 1.234375 C20.58827992 9.99578308 32.90548118 26.8395741 40 45 C43.96854357 57.34333772 44.14252967 69.57320931 44.09765625 82.41015625 C44.09578796 83.9891302 44.094366 85.56810473 44.09336853 87.14707947 C44.0895757 91.27503092 44.07977353 95.40294641 44.06866455 99.53088379 C44.05656784 104.49867764 44.05203278 109.46648361 44.04621124 114.43428802 C44.03655964 121.95621692 44.01738059 129.47806713 44 137 C33.77 137 23.54 137 13 137 C12.9906543 134.85669189 12.98130859 132.71338379 12.97167969 130.50512695 C12.93771849 123.37641538 12.88206516 116.24798749 12.81609726 109.11950397 C12.77680245 104.8028811 12.74452671 100.48645674 12.72900391 96.16967773 C12.71371745 91.99375151 12.67906399 87.8183717 12.63169098 83.64269066 C12.61699949 82.05977348 12.60896612 80.47677823 12.60811615 78.89379311 C12.5909041 62.89259524 9.49765038 48.74598196 -1.75 36.75 C-12.12100179 26.99021695 -23.28193654 23.47544171 -37.24829102 23.58032227 C-50.08898855 23.99669771 -61.91680375 29.3041011 -70.8125 38.6875 C-78.03692351 47.61383097 -82.20295237 58.22512586 -82.31884766 69.67944336 C-82.32889328 70.41198334 -82.3389389 71.14452332 -82.34928894 71.89926147 C-82.37992944 74.29611498 -82.39710218 76.69285781 -82.4140625 79.08984375 C-82.4327896 80.76136719 -82.45236415 82.43288132 -82.4727478 84.10438538 C-82.52391227 88.48546853 -82.56362156 92.86658228 -82.60089111 97.24780273 C-82.64102951 101.7258247 -82.69207682 106.20372111 -82.7421875 110.68164062 C-82.83876097 119.45434733 -82.92221547 128.22710656 -83 137 C-93.23 137 -103.46 137 -114 137 C-114.0681853 127.48028324 -114.12304986 117.96073266 -114.15543652 108.44082546 C-114.17099225 104.0188065 -114.19204233 99.59696545 -114.22631836 95.17504883 C-114.25927662 90.89561821 -114.27692855 86.61635705 -114.28463173 82.33680916 C-114.29011064 80.71639405 -114.30080619 79.09598661 -114.31719017 77.47564507 C-114.44630788 64.1581638 -113.55235913 51.01763985 -107.8125 38.75 C-107.50916748 38.08581055 -107.20583496 37.42162109 -106.89331055 36.73730469 C-97.6277985 17.16967925 -81.05887001 3.17097007 -60.87207031 -4.12109375 C-40.65435395 -10.99958639 -19.17457715 -9.22925705 0 0 Z " fill="#1585FB" transform="translate(354,71)"/>
<path d="M0 0 C7.29525889 5.27961436 12.52352487 10.90172084 14 20 C15.01310915 29.55400404 13.65738178 37.08432179 8 45 C6.98526611 45.68908447 5.97053223 46.37816895 4.92504883 47.08813477 C2.99449861 48.67358302 2.12132239 49.55940781 1.45288086 51.98690796 C1.25974599 54.42427665 1.24770057 56.80162386 1.30078125 59.24609375 C1.29418991 60.13482681 1.28759857 61.02355988 1.2808075 61.93922424 C1.26335124 64.77274935 1.2852903 67.60407968 1.3125 70.4375 C1.32382246 73.26691043 1.32640985 76.09566428 1.3120575 78.92506409 C1.30470692 80.68250686 1.31275794 82.44010217 1.3384552 84.19737244 C1.33540902 89.92136472 0.51176681 94.24621399 -3.5 98.64453125 C-8.31951517 102.39722666 -11.74758862 103.35301036 -17.71875 103.28515625 C-21.2471192 102.8441101 -23.31457039 101.24826665 -26 99 C-26.7425 98.38125 -27.485 97.7625 -28.25 97.125 C-32.51302708 91.94846712 -32.27310623 86.02455368 -32.1953125 79.6640625 C-32.1924826 78.78471039 -32.18965271 77.90535828 -32.18673706 76.99935913 C-32.17559712 74.20776406 -32.15050411 71.4164971 -32.125 68.625 C-32.1149622 66.72526507 -32.10583775 64.82552508 -32.09765625 62.92578125 C-32.07567806 58.28372893 -32.0411911 53.64191998 -32 49 C-32.93948486 48.55865723 -32.93948486 48.55865723 -33.89794922 48.10839844 C-36.35707036 46.811719 -37.4777773 45.47504428 -39.125 43.25 C-39.62257813 42.59515625 -40.12015625 41.9403125 -40.6328125 41.265625 C-45.11705584 33.83459318 -44.81463323 25.36245944 -44 17 C-42.09094203 11.20971674 -38.56376356 6.99329311 -34 3 C-33.2575 2.29875 -32.515 1.5975 -31.75 0.875 C-21.88593548 -5.85049854 -10.26568939 -5.82647236 0 0 Z " fill="#78D929" transform="translate(334,277)"/>
<path d="M0 0 C1.17769958 -0.00838898 2.35539917 -0.01677795 3.56878662 -0.02542114 C5.50144379 -0.00856262 5.50144379 -0.00856262 7.47314453 0.00863647 C8.84654095 0.0064901 10.21993559 0.00261164 11.59332275 -0.00286865 C15.32068736 -0.01256039 19.04757279 0.00273879 22.77487946 0.02303743 C26.67543489 0.04060924 30.57597555 0.03708333 34.4765625 0.03631592 C41.02693699 0.03818884 47.57712615 0.05555126 54.12744141 0.08285522 C61.70056511 0.11430597 69.27348585 0.1248514 76.84667015 0.12338412 C84.13171581 0.12216327 91.41669539 0.13237674 98.70172119 0.14896774 C101.80210893 0.15602846 104.90247327 0.15969353 108.00286865 0.16075516 C111.65382052 0.16276475 115.30460209 0.17498005 118.95549774 0.19508743 C120.93468989 0.20371328 122.91391698 0.2025947 124.89312744 0.20120239 C126.07082703 0.20973236 127.24852661 0.21826233 128.46191406 0.22705078 C129.99720261 0.23207831 129.99720261 0.23207831 131.56350708 0.23720741 C134.30186495 0.50131521 135.9367803 1.00052737 138.23095703 2.49447632 C139.75587701 5.54431628 139.46658251 8.13681322 139.23095703 11.49447632 C138.23791504 13.18597412 138.23791504 13.18597412 136.23095703 14.49447632 C133.37581922 14.82621456 130.73007576 14.97459236 127.86962891 14.99301147 C126.58491447 15.01849375 126.58491447 15.01849375 125.27424622 15.04449081 C122.41610434 15.0971128 119.55816528 15.12811834 116.69970703 15.15853882 C114.67653866 15.19006848 112.65338582 15.22260922 110.63024902 15.25610352 C105.25336533 15.34014747 99.87644624 15.40344456 94.49920654 15.45970154 C91.29597439 15.49378452 88.09281857 15.53205287 84.88964844 15.57150269 C73.34260115 15.71042395 61.79618597 15.80248195 50.24833679 15.83550644 C44.88261324 15.85093683 39.51738241 15.87700708 34.15185547 15.92660522 C28.82203199 15.97573786 23.49262248 16.00065427 18.1625824 16.00780106 C16.16266731 16.01448607 14.1627607 16.02963578 12.16297913 16.05369186 C9.40712894 16.08515635 6.65295362 16.08541832 3.89697266 16.07797241 C2.68347641 16.10258041 2.68347641 16.10258041 1.44546509 16.12768555 C-2.62160159 16.08255238 -4.52913498 15.68160581 -7.7755127 13.14941406 C-9.76904297 10.49447632 -9.76904297 10.49447632 -10.33154297 7.43197632 C-9.19203958 1.48123638 -5.6907649 -0.00605777 0 0 Z " fill="#1584FA" transform="translate(107.76904296875,369.5055236816406)"/>
<path d="M0 0 C1.2971846 -0.00350464 1.2971846 -0.00350464 2.62057495 -0.00708008 C5.49440182 -0.00869928 8.36663244 0.02549101 11.24023438 0.06005859 C13.27762274 0.06686886 15.31501908 0.07157846 17.35241699 0.0743103 C22.75399728 0.08775679 28.15492537 0.13195549 33.55627441 0.18188477 C38.8701353 0.22502736 44.18404689 0.23626789 49.49804688 0.25146484 C61.04806659 0.29232662 72.59663121 0.40306516 84.14581299 0.54530334 C87.39519561 0.58422937 90.64460535 0.61871417 93.89404297 0.65270996 C99.19552955 0.71019249 104.49652294 0.78483805 109.79759216 0.87260056 C111.78723765 0.90360779 113.77696448 0.92980161 115.76673889 0.95097733 C118.50249341 0.98154005 121.23728343 1.0307049 123.97265625 1.08496094 C125.18522346 1.09276896 125.18522346 1.09276896 126.42228699 1.10073471 C131.80467052 1.23600965 131.80467052 1.23600965 134.33312988 2.89590454 C136.04883236 5.78883757 135.68302342 8.32579831 135.33398438 11.58349609 C133.79135625 13.6870799 132.6529012 14.42403768 130.33398438 15.58349609 C128.49331267 15.68552864 126.64893191 15.72298395 124.80545044 15.73066711 C123.63050018 15.73782242 122.45554993 15.74497772 121.24499512 15.75234985 C119.94936646 15.75503876 118.65373779 15.75772766 117.31884766 15.76049805 C115.94574816 15.76676189 114.57265037 15.77340862 113.19955444 15.78041077 C109.46399215 15.79782593 105.72844266 15.80837359 101.99284983 15.8166163 C99.66006529 15.82176461 97.32728474 15.82784037 94.99450302 15.83412743 C87.69880377 15.85317964 80.40311465 15.86741157 73.10739529 15.8757394 C64.67980145 15.88551759 56.25246986 15.91185195 47.82496846 15.95224029 C41.31451381 15.98237307 34.80413446 15.99720549 28.29361141 16.00052041 C24.40335709 16.00287386 20.51338293 16.0118723 16.62320328 16.03698158 C12.96400869 16.06021852 9.30527959 16.06451359 5.64603043 16.0542202 C3.6619901 16.05348679 1.67797365 16.07260816 -0.30596924 16.09228516 C-1.48655914 16.08534134 -2.66714905 16.07839752 -3.8835144 16.07124329 C-4.90963774 16.07363164 -5.93576107 16.07601999 -6.99297905 16.07848072 C-10.39020762 15.44939246 -11.56953807 14.28040187 -13.66601562 11.58349609 C-14.22851562 8.64599609 -14.22851562 8.64599609 -13.66601562 5.58349609 C-9.73614446 0.34978411 -6.20302209 -0.12578859 0 0 Z " fill="#1584FA" transform="translate(111.666015625,238.41650390625)"/>
<path d="M0 0 C1.18611374 -0.00983414 2.37222748 -0.01966827 3.59428406 -0.02980042 C5.54096733 -0.01529846 5.54096733 -0.01529846 7.52697754 -0.00050354 C8.91022796 -0.00428737 10.2934746 -0.00978794 11.67671204 -0.01687622 C15.43091733 -0.03084015 19.1846648 -0.01965486 22.93884468 -0.00316501 C26.86743659 0.01068388 30.79600187 0.0042256 34.72460938 0.0007019 C41.32205586 -0.00200036 47.91932043 0.01147663 54.51672363 0.03465271 C62.14442268 0.06126264 69.77181755 0.06300966 77.3995471 0.05126435 C84.73692943 0.04048534 92.07420172 0.04667457 99.41157532 0.06081963 C102.53431295 0.06657839 105.65697004 0.06649763 108.77970886 0.06175423 C112.4569822 0.05698206 116.13392245 0.06709568 119.81113243 0.08870888 C121.80463952 0.09692853 123.79819023 0.09042626 125.79170227 0.08351135 C127.57087288 0.0983683 127.57087288 0.0983683 129.38598633 0.11352539 C130.93233639 0.11717023 130.93233639 0.11717023 132.50992584 0.12088871 C135.58605318 0.55692052 136.96453852 1.37068243 139.19299316 3.50120544 C139.72424316 5.43870544 139.72424316 5.43870544 139.69299316 7.50120544 C139.70846191 8.52214294 139.70846191 8.52214294 139.72424316 9.56370544 C138.95617664 12.36488922 137.65473585 13.01856441 135.19299316 14.50120544 C132.50992584 14.88152218 132.50992584 14.88152218 129.38598633 14.8888855 C128.19987259 14.89879013 127.01375885 14.90869476 125.79170227 14.91889954 C124.49391342 14.91439789 123.19612457 14.90989624 121.85900879 14.90525818 C120.47575834 14.91096162 119.0925126 14.91792578 117.70927429 14.92605591 C113.95516225 14.94400428 110.20128372 14.94281602 106.44714165 14.93711352 C103.3133019 14.93402449 100.17950719 14.94011084 97.04567385 14.94615227 C89.65349873 14.960201 82.26143917 14.95863297 74.8692627 14.94725037 C67.2415223 14.93576464 59.61413332 14.94985144 51.98643923 14.97664684 C45.4377051 14.99879112 38.88908139 15.00544424 32.34031248 14.99957043 C28.42888187 14.99619706 24.51767661 14.99864104 20.60627747 15.01582146 C16.92895553 15.03126881 13.25215507 15.02736034 9.5748539 15.00851631 C7.58132243 15.00306309 5.58776767 15.01736071 3.59428406 15.0322113 C2.40817032 15.02237717 1.22205658 15.01254303 0 15.00241089 C-1.03090004 15.0022016 -2.06180008 15.00199232 -3.12393951 15.0017767 C-6.52667331 14.36693958 -7.71199325 13.20886145 -9.80700684 10.50120544 C-10.30700684 7.50120544 -10.30700684 7.50120544 -9.80700684 4.50120544 C-6.81927125 0.63976976 -4.80720296 0.00097591 0 0 Z " fill="#1584FA" transform="translate(107.8070068359375,304.49879455566406)"/>
<path d="M0 0 C1.30112228 0.00007553 2.60224457 0.00015106 3.9427948 0.00022888 C5.36331216 0.00533554 6.78382912 0.01055154 8.2043457 0.01586914 C9.65737357 0.01773448 11.11040207 0.01915783 12.56343079 0.02015686 C16.38568868 0.02397293 20.2079085 0.03379546 24.03015137 0.04486084 C27.93130987 0.05509452 31.83247452 0.05965868 35.73364258 0.06469727 C43.38665672 0.07541854 51.03963165 0.09300798 58.69262695 0.11352539 C58.69262695 5.06352539 58.69262695 10.01352539 58.69262695 15.11352539 C50.15637426 15.18131205 41.62033095 15.23634749 33.08388138 15.26896191 C29.12002815 15.28461547 25.15636867 15.30584782 21.19262695 15.33984375 C17.36711473 15.37244866 13.54178883 15.39038074 9.71614838 15.39815712 C8.25689511 15.40369864 6.797652 15.41451995 5.33847809 15.43071556 C3.29386896 15.45250572 1.2500289 15.45549178 -0.79467773 15.45410156 C-2.54007843 15.46409431 -2.54007843 15.46409431 -4.32073975 15.47428894 C-7.61372363 15.07652047 -8.96401974 14.41671719 -11.30737305 12.11352539 C-12.69635161 8.68737827 -12.39762933 7.34819173 -11.05737305 3.86352539 C-8.20651143 -0.61640001 -4.93923071 -0.00955364 0 0 Z " fill="#1584FA" transform="translate(140.307373046875,336.886474609375)"/>
<path d="M0 0 C0.64402771 -0.00014603 1.28805542 -0.00029205 1.95159912 -0.0004425 C4.08348949 0.00025499 6.21529283 0.00803973 8.34716797 0.01586914 C9.82404533 0.0177339 11.30092331 0.01915753 12.77780151 0.02015686 C16.66747746 0.02397747 20.55711614 0.03380387 24.44677734 0.04486084 C28.41487117 0.05508476 32.38297102 0.05965658 36.35107422 0.06469727 C44.1388536 0.07542654 51.92659457 0.09301966 59.71435547 0.11352539 C59.71435547 5.06352539 59.71435547 10.01352539 59.71435547 15.11352539 C51.30848887 15.15871822 42.9027168 15.19540807 34.49676132 15.21714973 C30.59349807 15.22758487 26.69032229 15.2417391 22.78710938 15.2644043 C19.01996247 15.28614238 15.25289967 15.29809605 11.48569489 15.30327988 C10.04878668 15.3069739 8.61188306 15.31418742 7.17501068 15.3249855 C5.16180413 15.33951239 3.14851286 15.34034242 1.13525391 15.34057617 C-0.58349945 15.34723801 -0.58349945 15.34723801 -2.3369751 15.35403442 C-5.26208671 15.11544689 -6.9014845 14.79777739 -9.28564453 13.11352539 C-10.72314453 9.80102539 -10.72314453 9.80102539 -11.28564453 6.11352539 C-8.6790055 0.11825563 -6.16970332 -0.01172947 0 0 Z " fill="#1584FA" transform="translate(139.28564453125,271.886474609375)"/>
<path d="M0 0 C1.18802719 0.00222061 2.37605438 0.00444122 3.6000824 0.00672913 C4.58053528 0.00651009 4.58053528 0.00651009 5.58079529 0.00628662 C7.75058766 0.00698569 9.92029517 0.01477774 12.09007263 0.02259827 C13.59079949 0.02446247 15.09152696 0.02588636 16.59225464 0.02688599 C20.54934865 0.03071099 24.50640616 0.04054112 28.46348572 0.05158997 C32.49851488 0.06180446 36.53354991 0.06638369 40.56858826 0.07142639 C48.49113294 0.08216341 56.41364092 0.09976006 64.33616638 0.12025452 C64.33616638 4.74025452 64.33616638 9.36025452 64.33616638 14.12025452 C55.65227305 14.18799701 46.96855484 14.24305115 38.28445721 14.27569103 C34.25219605 14.29135553 30.22012485 14.31260782 26.18797302 14.34657288 C22.29762718 14.37913881 18.40746418 14.39710162 14.51699257 14.40488625 C13.03179355 14.41043477 11.54660468 14.42126963 10.06148338 14.43744469 C7.98314566 14.45918303 5.90556607 14.46222307 3.82713318 14.46083069 C2.64354721 14.46749252 1.45996124 14.47415436 0.24050903 14.48101807 C-2.66383362 14.12025452 -2.66383362 14.12025452 -4.51483154 12.74740601 C-6.11832012 10.47663654 -6.53137704 8.90184271 -6.66383362 6.12025452 C-3.68692657 0.16644041 -3.68692657 0.16644041 0 0 Z " fill="#1684FA" transform="translate(134.66383361816406,402.87974548339844)"/>
<path d="M0 0 C1.74688039 -0.01655196 3.49369325 -0.04383229 5.24023438 -0.08203125 C7.76183109 -0.13688486 10.28184158 -0.15868561 12.80395508 -0.17333984 C13.96982903 -0.2073439 13.96982903 -0.2073439 15.15925598 -0.24203491 C19.21181178 -0.22629791 21.08078614 0.16658866 24.3125 2.69140625 C26.31567383 5.35009766 26.31567383 5.35009766 26.87817383 8.41259766 C26.16366383 12.14392765 25.37190828 13.10126003 22.31567383 15.35009766 C19.38919716 15.94361692 16.51242852 15.91075752 13.53442383 15.88134766 C12.25867493 15.88708801 12.25867493 15.88708801 10.95715332 15.89294434 C9.16177179 15.89566224 7.36635058 15.88830948 5.57104492 15.87158203 C2.8248659 15.85016933 0.08130285 15.87138637 -2.66479492 15.89697266 C-4.41089444 15.89432936 -6.15699233 15.88920433 -7.90307617 15.88134766 C-8.72296021 15.88944458 -9.54284424 15.8975415 -10.38757324 15.90588379 C-14.1496276 15.84408778 -16.08592691 15.77977706 -19.20581055 13.53955078 C-21.35295105 10.35996756 -21.16075425 8.09346109 -20.68432617 4.35009766 C-16.14619806 -1.83825885 -6.89078249 0.04787512 0 0 Z " fill="#1585FB" transform="translate(86.684326171875,336.64990234375)"/>
<path d="M0 0 C1.2757489 -0.00574036 1.2757489 -0.00574036 2.57727051 -0.01159668 C4.37265204 -0.01431458 6.16807324 -0.00696182 7.96337891 0.00976562 C10.70955793 0.03117833 13.45312097 0.00996129 16.19921875 -0.015625 C17.94531827 -0.0129817 19.69141616 -0.00785667 21.4375 0 C22.25738403 -0.00809692 23.07726807 -0.01619385 23.92199707 -0.02453613 C27.70864905 0.03766392 29.61514185 0.08710321 32.73242188 2.38085938 C34.21875 4.53125 34.21875 4.53125 34.78125 7.46875 C34.0117313 11.65835179 32.55497494 12.91850437 29.21875 15.53125 C26.20541013 15.99427494 23.77692647 16.16583686 20.77734375 16.08984375 C19.5703054 16.08634666 19.5703054 16.08634666 18.33888245 16.08277893 C16.64353787 16.07306505 14.94822462 16.05133206 13.25317383 16.01831055 C10.66113134 15.96884316 8.07098792 15.95682425 5.47851562 15.95117188 C3.82810485 15.93708668 2.17771051 15.92088255 0.52734375 15.90234375 C-0.63215538 15.8942997 -0.63215538 15.8942997 -1.81507874 15.88609314 C-8.69572076 15.73422318 -8.69572076 15.73422318 -11.78125 13.53125 C-13.32711876 10.43951248 -13.07484521 7.93695448 -12.78125 4.53125 C-9.44059475 -0.45089588 -5.48146276 -0.05413325 0 0 Z " fill="#1585FB" transform="translate(78.78125,271.46875)"/>
<path d="M0 0 C0.87411026 -0.00524185 1.74822052 -0.0104837 2.64881897 -0.0158844 C4.49723244 -0.02230683 6.34568677 -0.02096473 8.1940918 -0.01245117 C11.02141209 -0.00394759 13.84670786 -0.03268773 16.67382812 -0.06445312 C18.47005148 -0.0660654 20.26627841 -0.0654871 22.0625 -0.0625 C23.3298423 -0.07935097 23.3298423 -0.07935097 24.62278748 -0.09654236 C30.46433905 -0.02725025 30.46433905 -0.02725025 33.63110352 2.27709961 C35.64027939 5.23149456 35.68118937 6.93239503 35.09765625 10.43359375 C33.4493275 12.85738065 32.15136471 14.22905946 29.20993042 14.80001831 C26.81825251 14.94771774 24.45857103 14.96154639 22.0625 14.9296875 C21.18743301 14.93114273 20.31236603 14.93259796 19.41078186 14.93409729 C17.56410384 14.93243973 15.71741181 14.92089437 13.87084961 14.90014648 C11.04155987 14.87115936 8.21414036 14.87954633 5.38476562 14.89257812 C3.58983463 14.88634152 1.79490956 14.87795119 0 14.8671875 C-1.27037865 14.87159096 -1.27037865 14.87159096 -2.56642151 14.87608337 C-8.47642689 14.78091487 -8.47642689 14.78091487 -10.62425232 13.0294342 C-12.21612185 11.04180661 -12.30600739 9.95599431 -12.27734375 7.43359375 C-12.28507812 6.75296875 -12.2928125 6.07234375 -12.30078125 5.37109375 C-11.02402641 -0.83743959 -5.14822007 -0.01784505 0 0 Z " fill="#1685FB" transform="translate(77.90234375,402.56640625)"/>
</svg>
