<?xml version="1.0" encoding="UTF-8"?>
<svg version="1.1" xmlns="http://www.w3.org/2000/svg" width="800" height="1467">
<path d="M0 0 C1.52097591 1.47872658 3.0234225 2.97693766 4.5 4.5 C5.07234375 5.06332031 5.6446875 5.62664062 6.234375 6.20703125 C17.09451507 17.71094251 20.6314629 34.52729389 20.62025452 49.87156677 C20.62153615 50.93409474 20.62153615 50.93409474 20.62284368 52.01808792 C20.62448067 54.37333173 20.61900651 56.72850308 20.61352539 59.08374023 C20.61324311 60.77933246 20.61340206 62.47492481 20.6139679 64.17051697 C20.61425427 68.76087591 20.60838342 73.35120861 20.60139394 77.94156146 C20.59513373 82.7435154 20.59455449 87.54546998 20.59336853 92.34742737 C20.59026308 101.43493725 20.58206028 110.52243506 20.57201904 119.60993963 C20.5608335 129.95815011 20.5553413 140.30636117 20.55032361 150.65457618 C20.53987701 171.93639234 20.5215413 193.21819198 20.5 214.5 C7.96 214.5 -4.58 214.5 -17.5 214.5 C-18.9375 204.125 -18.9375 204.125 -19.38452148 200.85791016 C-19.56349976 199.58633057 -19.56349976 199.58633057 -19.74609375 198.2890625 C-19.92676392 196.98509521 -19.92676392 196.98509521 -20.11108398 195.65478516 C-20.40299163 193.45965439 -20.40299163 193.45965439 -21.5 191.5 C-21.91507813 191.90089844 -22.33015625 192.30179688 -22.7578125 192.71484375 C-45.40929443 213.61296829 -71.92605234 219.45057121 -101.99804688 218.67919922 C-117.95979053 217.8624173 -132.97510399 211.70476001 -144.5 200.5 C-158.73858069 184.03664108 -159.54454111 164.21317914 -158.5 143.5 C-157.07201632 127.07452618 -147.25297828 111.94293373 -135 101.375 C-122.18056778 91.75056474 -107.94505148 86.32165603 -92.5 82.5 C-91.83210449 82.33274414 -91.16420898 82.16548828 -90.47607422 81.99316406 C-69.73515924 76.9998814 -47.70098536 77.12419851 -26.5 77.5 C-26.68953499 73.28515785 -26.90218664 69.07225365 -27.13476562 64.85961914 C-27.21052727 63.43154429 -27.28036326 62.00314051 -27.34375 60.57446289 C-27.85014479 49.29531022 -28.97704203 36.85543054 -37.5 28.5 C-52.72861374 16.63682576 -73.74618761 17.56824644 -91.96484375 19.7109375 C-106.78743718 21.6936279 -121.10721451 25.33985402 -135.17578125 30.36328125 C-138.5 31.5 -138.5 31.5 -140.5 31.5 C-142.81 21.6 -145.12 11.7 -147.5 1.5 C-131.10711249 -5.52552322 -131.10711249 -5.52552322 -124.25 -7.625 C-123.45698486 -7.87088867 -122.66396973 -8.11677734 -121.84692383 -8.37011719 C-85.74189994 -19.29912828 -31.10338836 -27.2910149 0 0 Z M-104.3125 125.0625 C-110.5409856 132.68153123 -112.2541385 142.61573283 -111.87109375 152.23828125 C-110.62709185 163.1724032 -107.07330806 171.37840225 -98.5 178.5 C-88.29213273 184.63124296 -74.93685562 185.43158064 -63.47265625 182.6640625 C-55.43995414 180.15226268 -47.49853398 176.63304628 -40.55810547 171.80639648 C-38.5 170.5 -38.5 170.5 -35.43017578 169.17993164 C-31.59795733 167.14846569 -28.62724855 165.31059447 -26.5 161.5 C-24.43080437 152.72845603 -25.37942255 143.36224033 -25.75 134.4375 C-25.81023554 131.9252571 -25.86498093 129.41287619 -25.9140625 126.90039062 C-26.0458738 120.76390243 -26.2462475 114.63259172 -26.5 108.5 C-31.06744875 108.449719 -35.63472861 108.41387471 -40.20239258 108.39013672 C-41.74897068 108.38021763 -43.29553076 108.36667813 -44.84204102 108.34912109 C-65.83701654 108.11713241 -88.64902068 109.39902068 -104.3125 125.0625 Z " fill="#5282A1" transform="translate(307.5,1158.5)"/>
<path d="M0 0 C1.52097591 1.47872658 3.0234225 2.97693766 4.5 4.5 C5.07234375 5.06332031 5.6446875 5.62664062 6.234375 6.20703125 C17.23313408 17.85777863 20.63158941 34.48568938 20.62025452 49.99182129 C20.62153615 51.0556309 20.62153615 51.0556309 20.62284368 52.14093161 C20.62447737 54.49306949 20.61901205 56.84513442 20.61352539 59.19726562 C20.61324304 60.89300535 20.6134022 62.58874521 20.6139679 64.28448486 C20.61425399 68.87065252 20.60838769 73.45679384 20.60139394 78.0429554 C20.59512905 82.8422342 20.59455412 87.64151364 20.59336853 92.4407959 C20.59026445 101.52118929 20.58206352 110.6015706 20.57201904 119.68195868 C20.56082922 130.02293733 20.55534023 140.36391658 20.55032361 150.70489979 C20.53988012 171.96993993 20.52229858 193.2349692 20.5 214.5 C15.24894558 214.52464928 9.99792455 214.54283568 4.74682617 214.55493164 C2.95905979 214.55997218 1.17129755 214.56680454 -0.61645508 214.57543945 C-3.18051168 214.5875173 -5.74451397 214.59323094 -8.30859375 214.59765625 C-9.51484657 214.60539818 -9.51484657 214.60539818 -10.74546814 214.61329651 C-12.66401715 214.61349215 -14.58245368 214.56201983 -16.5 214.5 C-18.05307327 212.94692673 -17.91965275 211.24731213 -18.21875 209.09765625 C-18.41017578 207.76250977 -18.41017578 207.76250977 -18.60546875 206.40039062 C-18.80076172 204.99563477 -18.80076172 204.99563477 -19 203.5625 C-19.25726598 201.7196095 -19.51753929 199.87713557 -19.78125 198.03515625 C-19.89533203 197.214104 -20.00941406 196.39305176 -20.12695312 195.54711914 C-20.41171684 193.44355203 -20.41171684 193.44355203 -21.5 191.5 C-21.91507813 191.90089844 -22.33015625 192.30179688 -22.7578125 192.71484375 C-45.40929443 213.61296829 -71.92605234 219.45057121 -101.99804688 218.67919922 C-117.23791008 217.8993568 -132.43452875 212.23515867 -143.5 201.5 C-158.23175764 184.63320503 -159.92327051 164.99850101 -158.5 143.5 C-156.4162293 126.95673066 -147.52322994 112.15179311 -135 101.375 C-122.18056778 91.75056474 -107.94505148 86.32165603 -92.5 82.5 C-91.83210449 82.33274414 -91.16420898 82.16548828 -90.47607422 81.99316406 C-69.73515924 76.9998814 -47.70098536 77.12419851 -26.5 77.5 C-26.39775715 52.07603189 -26.39775715 52.07603189 -36.8125 29.6875 C-51.77933266 17.50519435 -70.44269093 17.62346179 -88.86376953 19.39428711 C-104.77489474 21.1662886 -120.11873336 24.98626884 -135.17578125 30.36328125 C-138.5 31.5 -138.5 31.5 -140.5 31.5 C-141.50935416 27.4397655 -142.5058367 23.37647836 -143.5 19.3125 C-143.78617188 18.16201172 -144.07234375 17.01152344 -144.3671875 15.82617188 C-144.63789062 14.71435547 -144.90859375 13.60253906 -145.1875 12.45703125 C-145.43886719 11.43585205 -145.69023438 10.41467285 -145.94921875 9.36254883 C-146.46980513 6.65693032 -146.60586387 4.24584412 -146.5 1.5 C-108.32974085 -18.71043203 -35.98356391 -31.57302244 0 0 Z M-104.3125 125.0625 C-110.5409856 132.68153123 -112.2541385 142.61573283 -111.87109375 152.23828125 C-110.62709185 163.1724032 -107.07330806 171.37840225 -98.5 178.5 C-88.30379816 184.62423625 -75.00354612 185.40669582 -63.54296875 182.69921875 C-53.88210199 179.70527602 -44.94098589 175.03590268 -36.5 169.5 C-35.66218491 168.98311111 -34.82436981 168.46622223 -33.96116638 167.93367004 C-28.60825157 164.28619555 -28.60825157 164.28619555 -25.62156677 158.7375946 C-25.34453223 155.48956988 -25.37311199 152.38129988 -25.5234375 149.125 C-25.54466171 147.3773938 -25.54466171 147.3773938 -25.5663147 145.59448242 C-25.62204833 141.89364496 -25.74744865 138.19898901 -25.875 134.5 C-25.92518784 131.98316071 -25.97081043 129.46622597 -26.01171875 126.94921875 C-26.12163934 120.79739015 -26.2886977 114.64913659 -26.5 108.5 C-31.06744875 108.449719 -35.63472861 108.41387471 -40.20239258 108.39013672 C-41.74897068 108.38021763 -43.29553076 108.36667813 -44.84204102 108.34912109 C-65.83701654 108.11713241 -88.64902068 109.39902068 -104.3125 125.0625 Z " fill="#5282A1" transform="translate(730.5,1158.5)"/>
<path d="M0 0 C14.64750181 9.88706372 22.01960545 32.91111852 25.52294922 49.45703125 C33.60684216 92.5490624 18.60451764 134.4881107 -5.58154297 169.97070312 C-9.19541881 175.14084702 -13.02556574 180.10082113 -17 185 C-17.76054687 185.95261719 -18.52109375 186.90523437 -19.3046875 187.88671875 C-23.63556715 193.25910753 -28.12310129 198.45689625 -32.7734375 203.5546875 C-34.20879241 205.13105974 -35.6317339 206.71886961 -37.0390625 208.3203125 C-45.73681502 218.1907957 -55.00369495 227.8579981 -65.0703125 236.34765625 C-67.48534193 238.41558631 -69.79565725 240.58607434 -72.125 242.75 C-76.79899455 247.01727956 -81.65654398 250.94672936 -86.65991211 254.81884766 C-91.31528762 258.43059075 -95.83082163 262.18041708 -100.30712891 266.01098633 C-103.73974363 268.94609782 -107.22471746 271.80085154 -110.75 274.625 C-115.12152309 278.17566941 -119.08799773 281.97648878 -123.01171875 286.01171875 C-124.65801005 287.65801005 -126.30115289 289.12363381 -128.125 290.5625 C-131.8517713 293.72215393 -134.84832421 297.2785982 -138 301 C-139.22203125 302.37285156 -139.22203125 302.37285156 -140.46875 303.7734375 C-162.50091212 328.71717945 -177.40660428 358.13896323 -175.8125 391.98046875 C-172.14605219 430.05805694 -148.34454597 461.76064165 -126.90625 491.94824219 C-115.12011873 508.55547286 -104.00005486 525.19818331 -96 544 C-98.89059376 542.68383888 -101.02562293 541.24755763 -103.3203125 539.05859375 C-103.93310059 538.47940186 -104.54588867 537.90020996 -105.17724609 537.3034668 C-105.82000488 536.68769775 -106.46276367 536.07192871 -107.125 535.4375 C-108.47325305 534.16071316 -109.82221207 532.8846714 -111.171875 531.609375 C-111.82736328 530.98869141 -112.48285156 530.36800781 -113.15820312 529.72851562 C-115.52667538 527.50571823 -117.94485661 525.34253282 -120.375 523.1875 C-124.27069987 519.71103936 -127.96776754 516.08463507 -131.6015625 512.3359375 C-133.5780593 510.4109455 -135.58606655 508.61380579 -137.67578125 506.81640625 C-142.51947754 502.61057225 -147.03902975 498.10763092 -151.5625 493.5625 C-152.37396484 492.75490234 -153.18542969 491.94730469 -154.02148438 491.11523438 C-158.31712504 486.81265967 -162.45224215 482.43500144 -166.41577148 477.82495117 C-168.32786473 475.6223164 -170.31835761 473.50499326 -172.32275391 471.38671875 C-178.54047466 464.80099741 -184.19672994 457.89780697 -189.68847656 450.70117188 C-190.94633008 449.06961504 -192.22901192 447.46199715 -193.5234375 445.859375 C-213.759887 420.45209771 -231.82501996 387.38525107 -228.55541992 353.9050293 C-225.17090283 325.6213513 -208.37434226 303.79883627 -189 284 C-188.32324219 283.3080957 -187.64648438 282.61619141 -186.94921875 281.90332031 C-184.72319997 279.63677454 -182.48905626 277.37866515 -180.25 275.125 C-179.20440918 274.0721582 -179.20440918 274.0721582 -178.13769531 272.99804688 C-173.58751668 268.46297078 -168.88296618 264.17320309 -164 260 C-163.19755859 259.30704834 -163.19755859 259.30704834 -162.37890625 258.60009766 C-155.86431191 252.9839955 -149.23187764 247.551232 -142.44506836 242.26879883 C-137.89143114 238.71955743 -133.40702742 235.09191117 -128.9375 231.4375 C-124.17838876 227.55003125 -119.38625046 223.72659646 -114.5 220 C-108.12759077 215.13955371 -101.9160834 210.09485731 -95.7109375 205.0234375 C-92.80913587 202.65268453 -89.88160821 200.31811843 -86.9375 198 C-69.22862882 183.84474845 -51.56628756 168.41803675 -37 151 C-36.56671387 150.4858252 -36.13342773 149.97165039 -35.68701172 149.44189453 C-27.8850304 140.13292259 -21.08866843 130.50920853 -15 120 C-14.45085937 119.05640625 -14.45085937 119.05640625 -13.890625 118.09375 C4.96706887 85.29776066 8.44402431 48.86919804 2 12 C1.78301629 10.67743264 1.56799524 9.35454091 1.35546875 8.03125 C0.92021651 5.35084773 0.47064328 2.67436125 0 0 Z " fill="#F8981C" transform="translate(502,11)"/>
<path d="M0 0 C17.16 0 34.32 0 52 0 C58.24445819 19.82889354 64.46490271 39.66507791 70.66009808 59.50940895 C72.21838057 64.50009237 73.77948842 69.48988159 75.34261227 74.47905064 C77.93113932 82.74168516 80.50946473 91.0073899 83.07163906 99.27823734 C84.29562178 103.22864067 85.52358285 107.17767573 86.76321411 111.12319946 C93.5934689 132.87805896 99.2459526 154.69722014 104 177 C106.81661902 170.38888289 109.562257 163.81204285 111.7265625 156.95703125 C111.95589981 156.24279999 112.18523712 155.52856873 112.42152405 154.79269409 C113.16379723 152.4683438 113.89581459 150.14098748 114.625 147.8125 C114.88189606 146.99520416 115.13879211 146.17790833 115.4034729 145.33584595 C129.84881275 99.22509682 141.27895588 52.06197976 147.50585938 4.10400391 C148 1 148 1 149 0 C150.56547048 -0.09326716 152.13512772 -0.11745582 153.70336914 -0.11352539 C154.70433121 -0.11344986 155.70529327 -0.11337433 156.73658752 -0.11329651 C157.8251152 -0.10813522 158.91364288 -0.10297394 160.03515625 -0.09765625 C161.6977372 -0.09553383 161.6977372 -0.09553383 163.39390564 -0.09336853 C166.95013069 -0.08775033 170.50629383 -0.07519475 174.0625 -0.0625 C176.46679597 -0.05748734 178.87109292 -0.05292403 181.27539062 -0.04882812 C187.18361504 -0.03777499 193.0918031 -0.02101917 199 0 C196.71807846 13.49078652 194.34829561 26.94207361 191.4375 40.3125 C191.27214752 41.07504089 191.10679504 41.83758179 190.93643188 42.62322998 C184.12954885 73.83914833 175.70782335 104.61753112 165.67779541 134.94836426 C165.00625074 136.98107949 164.33942657 139.0152953 163.67333984 141.04980469 C158.58347781 156.55138043 153.03109279 171.83941355 147 187 C146.73061615 187.6811084 146.4612323 188.3622168 146.1836853 189.06396484 C140.93442811 202.28434604 134.93856149 215.04313857 129 228 C109.53 228 90.06 228 70 228 C68.05948378 222.82529009 66.24881577 217.7839396 64.62182617 212.5234375 C64.40265502 211.81705328 64.18348387 211.11066906 63.95767117 210.38287926 C63.23378499 208.04763029 62.51333784 205.71133608 61.79296875 203.375 C61.27495004 201.70092291 60.75674682 200.0269029 60.2383728 198.35293579 C58.84249812 193.84277897 57.44982105 189.3316408 56.05791092 184.82025909 C55.18367283 181.9875994 54.30852912 179.15522109 53.43307495 176.32293701 C44.52965146 147.51784997 35.6805262 118.69633807 26.88891602 89.85693359 C26.66986382 89.13837503 26.45081163 88.41981647 26.2251215 87.67948341 C26.00671321 86.96302336 25.78830492 86.2465633 25.5632782 85.50839233 C25.34547888 84.79393322 25.12767956 84.07947411 24.90328026 83.34336472 C24.46669969 81.91118582 24.03014681 80.47899848 23.59362221 79.04680252 C20.44441865 68.71583149 17.2797694 58.3896927 14.10371971 48.06694412 C13.41866441 45.84015597 12.73396426 43.61325894 12.0493927 41.38632202 C11.60446359 39.93902529 11.15953258 38.49172914 10.71459961 37.04443359 C10.49774789 36.33902624 10.28089617 35.63361889 10.05747318 34.90683556 C8.78725343 30.77580438 7.51459846 26.64553315 6.2401762 22.51579666 C5.2855893 19.42004096 4.33450348 16.32320946 3.3828125 13.2265625 C3.03714737 12.10958984 2.69148224 10.99261719 2.33534241 9.84179688 C2.02503586 8.83004395 1.71472931 7.81829102 1.39501953 6.77587891 C1.12384308 5.89606354 0.85266663 5.01624817 0.57327271 4.10977173 C0 2 0 2 0 0 Z " fill="#5282A1" transform="translate(354,1145)"/>
<path d="M0 0 C2.38671875 2.109375 2.38671875 2.109375 4 4 C3.4237085 4.03440186 2.84741699 4.06880371 2.25366211 4.10424805 C-26.29320454 5.91956196 -69.07776769 11.24658391 -89.6953125 33.859375 C-91.31551246 36.51766716 -91.34109789 37.92718351 -91 41 C-86.16628461 47.01799355 -77.79930055 49.2495071 -70.75 51.5 C-69.55963135 51.88454346 -68.3692627 52.26908691 -67.14282227 52.6652832 C-20.63461986 67.26381846 29.89187247 70.53496702 78.3125 73.1875 C79.32106552 73.2430304 79.32106552 73.2430304 80.3500061 73.29968262 C85.56495583 73.57898429 90.78154313 73.79776816 96 74 C97.60873489 74.06355179 97.60873489 74.06355179 99.24996948 74.12838745 C122.14709991 75.00700624 145.02545546 75.20107203 167.9375 75.1875 C168.83741039 75.18738041 169.73732079 75.18726082 170.66450119 75.1871376 C203.14833719 75.18170078 235.55087734 74.61120505 268 73 C269.05272095 72.94908203 270.10544189 72.89816406 271.19006348 72.84570312 C398.91170802 73.16100333 398.91170802 73.16100333 513.1875 29.125 C516.42620152 25.03900981 517.52004991 21.19086858 517 16 C515.55881844 12.18086886 513.55683993 9.16561134 511 6 C517.8724344 7.02844529 523.5424411 10.97608583 528 16.25 C531.35906121 20.86870916 531.77601514 24.36937854 531 30 C525.24779709 44.62242236 507.20910592 51.93146543 493.76855469 57.85913086 C429.38952246 85.06144605 355.66912344 93.03823295 286.73046875 98.90234375 C286.02086502 98.96321671 285.31126129 99.02408966 284.58015442 99.08680725 C246.45846218 102.23133872 208.3164815 103.34244633 170.07617188 103.26074219 C164.70709752 103.24936337 159.33822193 103.25613608 153.96915436 103.26761913 C116.32433426 103.3358247 78.78678098 102.09898434 41.25 99.1875 C40.14553528 99.10351959 39.04107056 99.01953918 37.90313721 98.93301392 C-3.91907888 95.73981573 -45.49171727 91.02149137 -87 85 C-88.24124634 84.82050812 -88.24124634 84.82050812 -89.50756836 84.63739014 C-143.49466602 76.78990563 -143.49466602 76.78990563 -153.96484375 62.83984375 C-155.82081696 59.54111401 -156.47994881 56.69293945 -156 53 C-151.63764097 38.3481637 -136.91710911 30.81883611 -124.3515625 24.00390625 C-91.28310355 6.54886374 -37.36036346 -13.69709631 0 0 Z " fill="#5282A1" transform="translate(194,851)"/>
<path d="M0 0 C16.5 0 33 0 50 0 C50.04534018 35.24479627 50.08108772 70.48958308 50.10213066 105.73440244 C50.10463167 109.90814009 50.10722035 114.08187768 50.10986328 118.25561523 C50.1103879 119.08642961 50.11091252 119.91724399 50.11145304 120.77323455 C50.12012367 134.17439704 50.13587495 147.57554213 50.15430559 160.97669434 C50.17309814 174.7573152 50.18413636 188.53792704 50.18817699 202.31856018 C50.19090279 210.80199883 50.19946868 219.28538829 50.21583293 227.76881177 C50.22651571 233.60921551 50.22957551 239.44959433 50.22700275 245.29000711 C50.22573873 248.64497305 50.22862839 251.99978619 50.23841095 255.35474777 C50.39798382 312.96936798 50.39798382 312.96936798 39 336 C38.58234375 336.89589844 38.1646875 337.79179688 37.734375 338.71484375 C25.8998669 362.41786717 1.13773546 380.54942433 -23.46875 389.22265625 C-24.72171875 389.60744141 -24.72171875 389.60744141 -26 390 C-32.60666811 382.86921208 -38.92202038 375.59156209 -45 368 C-45.74507812 367.11054687 -46.49015625 366.22109375 -47.2578125 365.3046875 C-49 363 -49 363 -49 361 C-47.27059936 359.91044742 -45.48792031 358.90519732 -43.6875 357.9375 C-27.04145275 348.48709391 -12.49292977 334.30910712 -6 316 C-0.08124609 293.73068843 -0.84645371 270.4500437 -0.79467773 247.59887695 C-0.7856001 244.88674567 -0.77510814 242.17462027 -0.76467896 239.4624939 C-0.74310356 233.66241958 -0.72489175 227.86234291 -0.70907402 222.06225014 C-0.68620022 213.67665966 -0.65808345 205.29109294 -0.62875474 196.90552285 C-0.58129106 183.29501735 -0.53797057 169.68450202 -0.49731445 156.07397461 C-0.4578507 142.86563353 -0.41639909 129.65730111 -0.37231445 116.44897461 C-0.36959018 115.63254257 -0.36686591 114.81611053 -0.36405908 113.97493813 C-0.35037782 109.87846048 -0.3366579 105.78198296 -0.32291877 101.68550551 C-0.2092881 67.79035414 -0.10318018 33.89518519 0 0 Z " fill="#5282A1" transform="translate(66,1065)"/>
<path d="M0 0 C0.33 0.66 0.66 1.32 1 2 C0.31188232 2.39155273 -0.37623535 2.78310547 -1.08520508 3.18652344 C-14.77460571 10.9908144 -28.33825192 18.91489839 -41.58691406 27.45361328 C-44.20188559 29.12937509 -46.83004164 30.78295293 -49.4609375 32.43359375 C-60.89782133 39.62280291 -72.0706459 47.06181129 -83 55 C-83.75877441 55.54624023 -84.51754883 56.09248047 -85.29931641 56.65527344 C-109.31925959 73.9583186 -134.69394288 92.85814839 -151 118 C-151.52335937 118.76570313 -152.04671875 119.53140625 -152.5859375 120.3203125 C-161.04187511 133.32614547 -165.18707765 149.4465246 -162.28125 164.796875 C-160.30204448 172.61792907 -157.73112254 179.85346529 -154 187 C-153.6999707 187.5779834 -153.39994141 188.1559668 -153.09082031 188.75146484 C-146.4088622 201.48544325 -138.23385174 213.02088073 -129.625 224.51171875 C-119.08313586 238.66776276 -109.11355054 253.84575184 -108 272 C-107.94714844 272.79664063 -107.89429688 273.59328125 -107.83984375 274.4140625 C-107.07497906 296.96094341 -117.4474013 316.79238753 -132.3125 333.0625 C-133.72092583 334.55990226 -135.14148577 336.04398361 -136.57177734 337.52050781 C-137.98689686 338.98642649 -139.37846124 340.47222272 -140.76953125 341.9609375 C-154.37926075 356.29080831 -171.19453987 368.41180571 -189 377 C-187.60802133 373.80334547 -186.00812165 371.8942356 -183.4375 369.5625 C-169.79202805 356.18894869 -160.16673212 337.29274318 -159.00390625 318.16796875 C-158.98115455 299.71633688 -166.82600026 284.99025263 -178.38671875 271.15625 C-202.30735707 242.44035383 -224.28406636 206.73156833 -220.79785156 167.73901367 C-217.45881728 140.78363425 -206.47966248 119.10105742 -188.04296875 99.25390625 C-186.62380587 97.68821413 -185.26341976 96.06802921 -183.953125 94.41015625 C-182.25117595 92.30995112 -180.61263108 90.61920951 -178.5625 88.875 C-177.86125 88.27816406 -177.16 87.68132812 -176.4375 87.06640625 C-175.2309375 86.04353516 -175.2309375 86.04353516 -174 85 C-172.6078125 83.77603516 -172.6078125 83.77603516 -171.1875 82.52734375 C-127.20735828 44.10451361 -70.7319665 21.78002402 -15.71484375 4.36328125 C-15.05159088 4.15241882 -14.38833801 3.9415564 -13.70498657 3.7243042 C-9.17109008 2.30570412 -4.61471762 1.11804978 0 0 Z " fill="#F8981C" transform="translate(626,213)"/>
<path d="M0 0 C0.495 0.99 0.495 0.99 1 2 C0.44570313 2.43570313 -0.10859375 2.87140625 -0.6796875 3.3203125 C-6.6130554 8.04008273 -6.6130554 8.04008273 -9 15 C-6.0341602 21.32450607 -1.26158403 22.72168206 5 25 C15.09144146 27.67244023 25.33440614 28.944321 35.6875 30.0625 C36.45565033 30.14649048 37.22380066 30.23048096 38.01522827 30.3170166 C42.6595749 30.82289633 47.30559257 31.31033144 51.95300293 31.78717041 C53.76141375 31.9751938 55.5687885 32.17312491 57.37597656 32.37255859 C93.63737706 36.31196699 131.85586972 35.90498879 168 31 C168.78634827 30.89347107 169.57269653 30.78694214 170.38287354 30.67718506 C188.23730784 28.2364014 206.1185071 25.66732412 223.77416992 22.02954102 C230.86231364 20.62141361 234.72275221 21.64519355 241.0234375 25.02734375 C242.21121717 25.65705971 243.39912959 26.28652532 244.5871582 26.91577148 C245.20563629 27.24616425 245.82411438 27.57655701 246.46133423 27.91696167 C259.69321912 34.97339018 273.12726347 41.28721407 287 47 C287 47.66 287 48.32 287 49 C277.27475596 53.33923119 267.48279074 57.09668077 257.375 60.4375 C256.66478699 60.67333801 255.95457397 60.90917603 255.22283936 61.15216064 C226.40186011 70.67951192 196.94816341 76.79602926 166.8125 80.25 C166.0890036 80.33317474 165.3655072 80.41634949 164.62008667 80.50204468 C147.12418361 82.48564328 129.72583028 83.2392669 112.125 83.25 C111.12065918 83.25067474 110.11631836 83.25134949 109.08154297 83.25204468 C60.21613642 83.20032963 -3.74569315 80.49030744 -41.94140625 46.30859375 C-46.24095976 41.48689332 -47.7026745 36.92174859 -47.46484375 30.5859375 C-46.27694814 23.97764427 -41.94220918 19.4080129 -36.75 15.4375 C-25.62456493 8.22190863 -12.75125018 3.42436401 0 0 Z " fill="#5382A1" transform="translate(273,776)"/>
<path d="M0 0 C-2.47075901 2.47075901 -4.10957981 2.69774473 -7.4921875 3.5234375 C-8.65468018 3.81613525 -9.81717285 4.10883301 -11.01489258 4.41040039 C-12.28872803 4.72871826 -13.56256348 5.04703613 -14.875 5.375 C-27.0101543 8.48632367 -38.93034972 12.09655015 -50.8125 16.0625 C-51.54797058 16.30562927 -52.28344116 16.54875854 -53.04119873 16.79925537 C-61.20418957 19.50549282 -69.25409867 22.41518446 -77.21484375 25.671875 C-77.91116409 25.95599747 -78.60748444 26.24011993 -79.3249054 26.53285217 C-84.88265766 28.84973121 -90.01234828 31.6151665 -95 35 C-96.010625 35.639375 -97.02125 36.27875 -98.0625 36.9375 C-100.72701565 39.77391988 -100.78066297 42.19815819 -101 46 C-75.82754592 64.4940479 -29.70814884 61.12594604 0.1640625 61.203125 C1.86457336 61.21011709 3.56508401 61.21715788 5.26559448 61.22424316 C10.71873276 61.24361853 16.17183108 61.2484278 21.625 61.25 C22.56032562 61.25058914 23.49565125 61.25117828 24.45932007 61.25178528 C60.39273894 61.26771781 96.13388092 60.2605562 132 58 C133.75848267 57.89108429 133.75848267 57.89108429 135.55249023 57.77996826 C180.02861985 55.01048617 224.1880051 50.05338943 268.3125 43.875 C269.48421753 43.71100708 270.65593506 43.54701416 271.86315918 43.37805176 C285.07187847 41.51895006 298.24774005 39.53464101 311.38606262 37.22506714 C312.31464584 37.06458893 313.24322906 36.90411072 314.19995117 36.73876953 C315.00937668 36.5958548 315.81880219 36.45294006 316.65275574 36.30569458 C319.12700989 35.9834588 321.50766827 35.94769144 324 36 C320.5280754 38.90652212 316.66098692 40.61199174 312.5625 42.4375 C301.26023614 47.60086315 290.0319669 53.59821945 279.71191406 60.53881836 C276.30800487 62.37284757 272.86969843 63.19695543 269.125 64.015625 C268.3453035 64.19218628 267.56560699 64.36874756 266.76228333 64.55065918 C264.17746256 65.12973558 261.58940631 65.69180321 259 66.25 C258.09897552 66.44597778 257.19795105 66.64195557 256.2696228 66.84387207 C174.19724941 84.58740379 88.77603543 89.22887783 5 88 C4.26849731 87.99033203 3.53699463 87.98066406 2.7833252 87.97070312 C-139.99601441 86.05602237 -139.99601441 86.05602237 -170.84765625 61.53125 C-173.23377491 59.03213965 -174.01387324 56.93063382 -174.6875 53.5625 C-173.5021829 47.42040232 -170.36122529 44.62866622 -165.29296875 41.1328125 C-117.21470443 12.18120956 -55.63365328 -1.26263529 0 0 Z " fill="#5282A1" transform="translate(292,556)"/>
<path d="M0 0 C-0.68707031 0.64066406 -1.37414062 1.28132812 -2.08203125 1.94140625 C-9.15086008 8.47342595 -9.15086008 8.47342595 -13 17 C-13 21.23865918 -12.53443392 23.28185442 -10 26.6875 C2.85993458 36.60036624 21.48125483 36.68997023 37.0625 38.0625 C37.99419006 38.14649048 38.92588013 38.23048096 39.88580322 38.3170166 C111.94216921 44.78461327 182.21694067 41.28275195 253.625 29.74609375 C254.46747787 29.61221756 255.30995575 29.47834137 256.17796326 29.34040833 C260.79527054 28.58945045 265.36454108 27.72442202 269.93554688 26.72802734 C271.41595459 26.4189016 271.41595459 26.4189016 272.92626953 26.10353088 C274.81885213 25.7044157 276.70658156 25.28124448 278.58740234 24.8299408 C283.20994184 23.87267692 286.06295359 23.5550825 290.17993164 26.08496094 C292.53963026 27.86291651 294.76179339 29.73751994 296.77734375 31.90234375 C299.9018297 35.03447137 303.19489502 37.19632351 307.0625 39.3125 C308.20074219 39.93769531 309.33898437 40.56289063 310.51171875 41.20703125 C315.92633878 43.99013382 321.42390416 46.55466893 327 49 C326 51 326 51 323.03295898 52.01806641 C321.68979856 52.38828037 320.34390026 52.74863769 318.99609375 53.1015625 C318.26356384 53.29900055 317.53103394 53.4964386 316.77630615 53.69985962 C314.33285915 54.35283273 311.88582274 54.99056481 309.4375 55.625 C308.59111969 55.8458728 307.74473938 56.06674561 306.87271118 56.29431152 C264.35138244 67.33901929 220.78665983 74.48085211 177 78 C175.19668213 78.1544458 175.19668213 78.1544458 173.35693359 78.31201172 C133.98819834 81.5828359 93.31115429 82.04092312 54 78 C52.71738281 77.87109375 51.43476563 77.7421875 50.11328125 77.609375 C-24.23834053 69.96148329 -24.23834053 69.96148329 -50 48 C-53.41459824 43.73175219 -54.80771072 40.48024442 -55 35 C-53.85096418 27.10037875 -49.26779827 22.52511684 -43.1640625 17.80859375 C-33.16566633 10.98071038 -22.21386909 6.45532651 -11 2 C-10.23913086 1.68385742 -9.47826172 1.36771484 -8.69433594 1.04199219 C-3.34344654 -1.11448218 -3.34344654 -1.11448218 0 0 Z " fill="#5282A1" transform="translate(251,669)"/>
<path d="M0 0 C0.33 0 0.66 0 1 0 C0.81291332 10.85102735 -4.60010139 21.42194601 -12.07421875 29.2109375 C-30.09898424 45.95605432 -52.82728532 55.65047675 -76 63 C-76.89750977 63.28584961 -77.79501953 63.57169922 -78.71972656 63.86621094 C-163.87693925 90.62138424 -256.40222631 93.76692535 -345 95 C-346.9169165 95.02707031 -346.9169165 95.02707031 -348.87255859 95.0546875 C-356.25052309 95.142143 -363.62241566 95.107716 -371 95 C-371.75593445 94.98904297 -372.5118689 94.97808594 -373.29071045 94.96679688 C-547.59955832 92.36906225 -547.59955832 92.36906225 -598 66 C-598 65.34 -598 64.68 -598 64 C-596.86175781 64.15855469 -595.72351563 64.31710937 -594.55078125 64.48046875 C-531.30466822 73.09658752 -467.97454894 77.39682859 -404.15161133 77.26074219 C-398.77466507 77.24937057 -393.39791744 77.25613035 -388.02097797 77.26761913 C-350.59411055 77.33536661 -313.25088958 76.19684279 -275.9375 73.1875 C-274.87631958 73.10385193 -273.81513916 73.02020386 -272.72180176 72.934021 C-136.90423631 63.74922874 -136.90423631 63.74922874 -9 9 C-8.37867188 8.51660156 -7.75734375 8.03320312 -7.1171875 7.53515625 C-4.28025596 5.2806865 -2.08141171 2.95779559 0 0 Z " fill="#5282A1" transform="translate(768,907)"/>
<path d="M0 0 C23.03153055 -0.43359471 45.23721242 5.68837191 62.77734375 21.12109375 C63.52628906 21.7759375 64.27523437 22.43078125 65.046875 23.10546875 C78.16269784 35.34988258 85.19332206 51.79285449 85.83984375 69.6328125 C85.34757292 97.10767806 71.25069668 118.55249855 51.94140625 137.20703125 C42.84154532 145.7434333 32.44227331 152.70466148 21.77734375 159.12109375 C21.12733398 159.51264648 20.47732422 159.90419922 19.80761719 160.30761719 C-5.36922468 175.2786094 -33.2451345 185.61345235 -61.28515625 193.80859375 C-62.58791504 194.19301636 -62.58791504 194.19301636 -63.91699219 194.58520508 C-69.84944684 196.24549689 -69.84944684 196.24549689 -73.22265625 195.12109375 C-69.34814621 189.7646994 -65.49733456 187.3347203 -59.59765625 184.49609375 C-35.05910235 172.11529949 -12.29697926 155.86126546 7.77734375 137.12109375 C8.66292969 136.30125 9.54851562 135.48140625 10.4609375 134.63671875 C26.9279557 118.84706725 41.25949906 97.69956509 42.98046875 74.3671875 C43.24945493 58.25043192 38.15927242 43.88086862 26.92578125 32.109375 C14.52297698 20.63114341 -2.07428373 13.69859741 -19.07348633 13.96533203 C-23.17215827 14.26238448 -27.14878092 15.13454932 -31.16015625 15.99609375 C-32.42375977 16.25712891 -32.42375977 16.25712891 -33.71289062 16.5234375 C-39.22788297 17.66974076 -44.72610772 18.88977814 -50.22265625 20.12109375 C-46.79561512 12.9324847 -40.64771167 8.6771994 -33.2578125 6.02734375 C-22.29574696 2.7542431 -11.44619577 0.43009948 0 0 Z " fill="#5282A1" transform="translate(683.22265625,545.87890625)"/>
<path d="M0 0 C2.31 0 4.62 0 7 0 C8.32 2.97 9.64 5.94 11 9 C12.32 6.03 13.64 3.06 15 0 C16.98 0 18.96 0 21 0 C21 6.27 21 12.54 21 19 C19.68 19 18.36 19 17 19 C16.67 16.36 16.34 13.72 16 11 C15.01 13.64 14.02 16.28 13 19 C11.68 19 10.36 19 9 19 C8.01 16.69 7.02 14.38 6 12 C5.67 14.31 5.34 16.62 5 19 C3.35 19 1.7 19 0 19 C0 12.73 0 6.46 0 0 Z " fill="#5382A1" transform="translate(772,1146)"/>
<path d="M0 0 C5.28 0 10.56 0 16 0 C16 1.32 16 2.64 16 4 C14.35 4 12.7 4 11 4 C11 8.95 11 13.9 11 19 C9.35 19 7.7 19 6 19 C6 14.05 6 9.1 6 4 C4.02 4 2.04 4 0 4 C0 2.68 0 1.36 0 0 Z " fill="#5382A1" transform="translate(754,1146)"/>
</svg>
