<?xml version="1.0" encoding="UTF-8"?>
<svg version="1.1" xmlns="http://www.w3.org/2000/svg" width="512" height="512">
<path d="M0 0 C0.7940625 0.7528125 1.588125 1.505625 2.40625 2.28125 C7.75627051 7.46142859 12.35624402 13.18914075 17 19 C17.63550781 19.75667969 18.27101563 20.51335937 18.92578125 21.29296875 C28.21252034 32.46397375 36.55618873 44.97636034 43 58 C43.48799072 58.96631348 43.48799072 58.96631348 43.98583984 59.95214844 C73.49281506 118.64839254 78.4129336 186.06519831 58.38427734 248.56152344 C47.85681429 279.84529968 31.15744977 309.35703026 8.4609375 333.38671875 C6.33563966 335.64358265 4.31275364 337.94568404 2.3125 340.3125 C-0.49337117 343.54290014 -3.51307894 346.32874115 -6.77734375 349.08984375 C-9.35500202 351.30508961 -11.82586922 353.6206534 -14.3125 355.9375 C-19.60173352 360.74787287 -25.12174258 364.94120321 -31 369 C-32.01578125 369.73476563 -33.0315625 370.46953125 -34.078125 371.2265625 C-52.25825099 384.12393981 -72.89048703 393.97042001 -94 401 C-94.82516113 401.27779297 -95.65032227 401.55558594 -96.50048828 401.84179688 C-120.80085126 409.89926071 -145.76518731 413.43863235 -171.3125 413.375 C-172.18095551 413.37412384 -173.04941101 413.37324768 -173.94418335 413.37234497 C-219.10804695 413.2231496 -263.98306785 400.66178178 -302 376 C-302.65597168 375.57460938 -303.31194336 375.14921875 -303.98779297 374.7109375 C-313.56647004 368.43675496 -322.46852724 361.63200562 -331 354 C-331.52078125 353.53561523 -332.0415625 353.07123047 -332.578125 352.59277344 C-342.88209203 343.36638712 -352.4164973 333.87146522 -361 323 C-361.76957031 322.05898438 -362.53914063 321.11796875 -363.33203125 320.1484375 C-376.53896316 303.63443864 -386.43400209 285.26793297 -395 266 C-395.31549805 265.29681641 -395.63099609 264.59363281 -395.95605469 263.86914062 C-415.4492314 219.85807882 -418.16550686 168.75579273 -409 122 C-408.84660156 121.21641113 -408.69320313 120.43282227 -408.53515625 119.62548828 C-404.9234575 101.7547709 -398.8136557 84.45023898 -391 68 C-390.68417969 67.33129883 -390.36835938 66.66259766 -390.04296875 65.97363281 C-374.34785164 33.00450734 -350.43402499 1.89343053 -321 -20 C-320.4858252 -20.38526855 -319.97165039 -20.77053711 -319.44189453 -21.16748047 C-305.98434043 -31.19817729 -291.92880092 -39.96929671 -276.75878906 -47.16552734 C-275.21659567 -47.89723431 -273.68186291 -48.64462321 -272.1484375 -49.39453125 C-190.2163291 -88.38035322 -88.25524002 -73.69579942 0 0 Z " fill="#3F4142" transform="translate(428,89)"/>
<path d="M0 0 C7.0375179 5.75828367 13.3678998 12.21964869 19.78833008 18.64306641 C21.07654328 19.92828407 22.36496021 21.21329757 23.65356445 22.49812317 C27.13700937 25.97276947 30.61723763 29.45062013 34.09660554 32.92934847 C36.2712131 35.1032438 38.44653174 37.27642496 40.62210655 39.44935226 C48.21308229 47.03109214 55.80148609 54.61539519 63.38745117 62.20214844 C70.45901352 69.27431287 77.53614887 76.34086632 84.61588937 83.40484297 C90.69855736 89.47444907 96.77737768 95.5478904 102.85319823 101.62435091 C106.48042532 105.25183315 110.10919374 108.8777402 113.74183083 112.49980545 C117.15339685 115.90171193 120.56015758 119.30835729 123.96324921 122.71874046 C125.21362177 123.97016116 126.46570977 125.21987051 127.71961784 126.46774864 C129.42884408 128.16928515 131.13181258 129.87684817 132.83332825 131.58609009 C133.33244195 132.08006023 133.83155566 132.57403037 134.34579402 133.08296931 C138.10294354 136.8780108 140.27790184 139.8513424 140.375 145.25 C140.40335938 145.95640625 140.43171875 146.6628125 140.4609375 147.390625 C138.83872565 156.57399376 132.18511357 162.37547412 125.828125 168.6328125 C124.82094395 169.63760331 123.81450775 170.64314123 122.80877686 171.64938354 C120.70677083 173.74827616 118.59826935 175.84032853 116.484375 177.92724609 C113.79351062 180.5841775 111.115954 183.25403841 108.4427681 185.92874336 C106.36709958 188.0038643 104.28623028 190.07370405 102.20363617 192.14187241 C101.21543742 193.12376789 100.2283917 194.1068254 99.24259186 195.0911293 C83.18927684 211.09344773 83.18927684 211.09344773 74.75 211.3125 C73.81671875 211.34988281 72.8834375 211.38726562 71.921875 211.42578125 C65.99388697 210.56194342 61.81189664 206.0721644 57.67236328 202.01049805 C56.92954605 201.28498497 56.92954605 201.28498497 56.17172241 200.54481506 C54.54893088 198.95608725 52.93391517 197.35977566 51.3203125 195.76171875 C50.48300409 194.9347647 50.48300409 194.9347647 49.62878036 194.09110451 C46.67016589 191.16823595 43.71768216 188.23933122 40.77001953 185.30541992 C37.75739226 182.30925234 34.72443175 179.33461309 31.68605232 176.36459637 C29.32491846 174.04872956 26.97999511 171.71692574 24.63885117 169.38086891 C23.52938555 168.27919165 22.4141594 167.18327853 21.29263687 166.09387779 C9.57470459 154.68951093 0.15872678 140.74065277 -0.36076355 123.8621521 C-0.36936583 121.55182506 -0.36169944 119.24139883 -0.34057617 116.93115234 C-0.34101425 115.66172791 -0.34145233 114.39230347 -0.34190369 113.08441162 C-0.34275761 109.6345699 -0.32523099 106.18504686 -0.30418181 102.73527861 C-0.28531321 99.11850864 -0.28365661 95.50172981 -0.28010559 91.88491821 C-0.27081482 85.04989978 -0.24624169 78.21502686 -0.21605712 71.38007224 C-0.18242015 63.59282651 -0.16600383 55.80557351 -0.15097082 48.01827312 C-0.11968913 32.01209808 -0.06698704 16.00606787 0 0 Z " fill="#EAECEC" transform="translate(192,151)"/>
<path d="M0 0 C0.7940625 0.7528125 1.588125 1.505625 2.40625 2.28125 C7.75627051 7.46142859 12.35624402 13.18914075 17 19 C17.63550781 19.75667969 18.27101563 20.51335937 18.92578125 21.29296875 C28.21252034 32.46397375 36.55618873 44.97636034 43 58 C43.48799072 58.96631348 43.48799072 58.96631348 43.98583984 59.95214844 C73.49281506 118.64839254 78.4129336 186.06519831 58.38427734 248.56152344 C47.85681429 279.84529968 31.15744977 309.35703026 8.4609375 333.38671875 C6.33563966 335.64358265 4.31275364 337.94568404 2.3125 340.3125 C-0.49337117 343.54290014 -3.51307894 346.32874115 -6.77734375 349.08984375 C-9.35500202 351.30508961 -11.82586922 353.6206534 -14.3125 355.9375 C-19.60173352 360.74787287 -25.12174258 364.94120321 -31 369 C-32.01578125 369.73476563 -33.0315625 370.46953125 -34.078125 371.2265625 C-52.25825099 384.12393981 -72.89048703 393.97042001 -94 401 C-94.82516113 401.27779297 -95.65032227 401.55558594 -96.50048828 401.84179688 C-120.80085126 409.89926071 -145.76518731 413.43863235 -171.3125 413.375 C-172.18095551 413.37412384 -173.04941101 413.37324768 -173.94418335 413.37234497 C-219.10804695 413.2231496 -263.98306785 400.66178178 -302 376 C-302.65597168 375.57460938 -303.31194336 375.14921875 -303.98779297 374.7109375 C-313.56647004 368.43675496 -322.46852724 361.63200562 -331 354 C-331.52078125 353.53561523 -332.0415625 353.07123047 -332.578125 352.59277344 C-342.88209203 343.36638712 -352.4164973 333.87146522 -361 323 C-361.76957031 322.05898438 -362.53914063 321.11796875 -363.33203125 320.1484375 C-376.53896316 303.63443864 -386.43400209 285.26793297 -395 266 C-395.31549805 265.29681641 -395.63099609 264.59363281 -395.95605469 263.86914062 C-415.4492314 219.85807882 -418.16550686 168.75579273 -409 122 C-408.84660156 121.21641113 -408.69320313 120.43282227 -408.53515625 119.62548828 C-404.9234575 101.7547709 -398.8136557 84.45023898 -391 68 C-390.68417969 67.33129883 -390.36835938 66.66259766 -390.04296875 65.97363281 C-374.34785164 33.00450734 -350.43402499 1.89343053 -321 -20 C-320.4858252 -20.38526855 -319.97165039 -20.77053711 -319.44189453 -21.16748047 C-305.98434043 -31.19817729 -291.92880092 -39.96929671 -276.75878906 -47.16552734 C-275.21659567 -47.89723431 -273.68186291 -48.64462321 -272.1484375 -49.39453125 C-190.2163291 -88.38035322 -88.25524002 -73.69579942 0 0 Z M-227.4375 -59.3125 C-228.47696777 -59.05686279 -229.51643555 -58.80122559 -230.58740234 -58.5378418 C-261.71408471 -50.6036358 -290.93349208 -36.08826439 -316 -16 C-316.97324219 -15.23042969 -317.94648438 -14.46085937 -318.94921875 -13.66796875 C-325.96234575 -7.99782831 -332.41502539 -1.78848584 -338.8125 4.5625 C-339.60084229 5.34157715 -340.38918457 6.1206543 -341.20141602 6.92333984 C-382.88681057 48.83263699 -404.50252076 108.34165653 -404.375 166.8125 C-404.37445618 167.75443207 -404.37391235 168.69636414 -404.37335205 169.6668396 C-404.31098501 193.24781733 -401.19421093 215.48146377 -394 238 C-393.74911621 238.78713379 -393.49823242 239.57426758 -393.23974609 240.38525391 C-383.40815161 270.44906856 -367.5176479 298.45348172 -346.08984375 321.7265625 C-344.14128585 323.84630212 -342.25242667 326.00483469 -340.375 328.1875 C-333.86523597 335.61873748 -326.74032522 341.86216399 -319 348 C-318.01 348.79535156 -317.02 349.59070313 -316 350.41015625 C-267.23112874 388.87660345 -205.88752677 405.5581396 -144.24780273 399.23046875 C-95.63998123 393.21593759 -47.78712663 372.1395331 -12.67041016 337.63525391 C-10.83254511 335.83606944 -8.96898255 334.06555726 -7.10546875 332.29296875 C2.30658836 323.23204901 10.44105699 313.64798332 18 303 C18.44537109 302.37802734 18.89074219 301.75605469 19.34960938 301.11523438 C41.7130162 269.61700177 54.99558352 233.19421838 60 195 C60.103125 194.23091309 60.20625 193.46182617 60.3125 192.66943359 C61.26118467 184.60053165 61.24360545 176.48838517 61.25 168.375 C61.25067474 167.60266022 61.25134949 166.83032043 61.25204468 166.03457642 C61.20332283 130.74128736 53.42665509 96.77516446 38 65 C37.65743164 64.29423828 37.31486328 63.58847656 36.96191406 62.86132812 C25.97449996 40.55882307 11.17335694 20.87911133 -6 3 C-6.8559375 2.1028125 -7.711875 1.205625 -8.59375 0.28125 C-14.36135074 -5.63236595 -20.44327584 -10.98042525 -27 -16 C-27.62874023 -16.48339844 -28.25748047 -16.96679688 -28.90527344 -17.46484375 C-58.4289232 -39.96172461 -91.66313954 -54.65120463 -128 -62 C-128.77633789 -62.16516113 -129.55267578 -62.33032227 -130.35253906 -62.50048828 C-144.12895765 -65.31455604 -158.06010438 -65.31203919 -172.0625 -65.375 C-173.45095627 -65.38691879 -173.45095627 -65.38691879 -174.86746216 -65.39907837 C-192.71591414 -65.51659725 -210.08792384 -63.60711303 -227.4375 -59.3125 Z " fill="#000000" transform="translate(428,89)"/>
<path d="M0 0 C4.79352062 4.00767983 9.34399618 8.18345266 13.77734375 12.58447266 C14.41395432 13.21290573 15.05056488 13.84133881 15.70646667 14.48881531 C17.78646486 16.54423936 19.86251387 18.60357935 21.9375 20.6640625 C22.64944519 21.37068401 23.36139038 22.07730553 24.09490967 22.80533981 C27.8511449 26.53498595 31.60379435 30.26820188 35.35400391 34.00390625 C38.45876752 37.09525376 41.57066811 40.17914097 44.68896484 43.25683594 C48.46222934 46.98098798 52.22326342 50.71707421 55.97561646 54.46229172 C57.40679647 55.88673809 58.84224422 57.30690956 60.2819519 58.72273636 C62.28573786 60.69512264 64.27340492 62.68246186 66.2578125 64.67431641 C67.15840645 65.55030235 67.15840645 65.55030235 68.07719421 66.44398499 C69.69970703 68.09170532 69.69970703 68.09170532 72 71 C71.48509958 74.81975794 69.581031 78.0031039 67.82421875 81.3984375 C67.50321701 82.02088348 67.18221527 82.64332947 66.85148621 83.28463745 C65.80133412 85.31712996 64.74469371 87.34616239 63.6875 89.375 C62.95385227 90.7899942 62.22029179 92.20503364 61.48681641 93.62011719 C56.91768034 102.41562862 52.24436164 111.14776956 47.45336914 119.82470703 C42.76571236 128.34352225 38.31379543 136.98162961 33.89404297 145.64160156 C30.50048632 152.25382 26.91996794 158.68479159 23 165 C15.22972346 161.24074102 10.69623478 155.07528421 6.6875 147.625 C6.36233398 147.02534424 6.03716797 146.42568848 5.70214844 145.80786133 C0.83080233 136.32188855 -0.43747335 127.52877228 -0.34057617 116.93115234 C-0.34101425 115.66172791 -0.34145233 114.39230347 -0.34190369 113.08441162 C-0.34275761 109.6345699 -0.32523099 106.18504686 -0.30418181 102.73527861 C-0.28531321 99.11850864 -0.28365661 95.50172981 -0.28010559 91.88491821 C-0.27081482 85.04989978 -0.24624169 78.21502686 -0.21605712 71.38007224 C-0.18242015 63.59282651 -0.16600383 55.80557351 -0.15097082 48.01827312 C-0.11968913 32.01209808 -0.06698704 16.00606787 0 0 Z " fill="#F8F8F8" transform="translate(192,151)"/>
<path d="M0 0 C-0.52046076 3.9347193 -1.38788176 5.88625653 -4.19532776 8.67634583 C-4.8782489 9.36476562 -5.56117004 10.05318542 -6.26478577 10.76246643 C-7.39550758 11.87161659 -7.39550758 11.87161659 -8.54907227 13.00317383 C-9.73435013 14.18932785 -9.73435013 14.18932785 -10.943573 15.39944458 C-13.55848152 18.01156581 -16.18727428 20.60923304 -18.81640625 23.20703125 C-20.63188699 25.01505198 -22.44648677 26.8239577 -24.26023865 28.63371277 C-28.54884306 32.90860366 -32.84623215 37.17446521 -37.14800924 41.4360854 C-42.04579068 46.28913556 -46.93219984 51.15356784 -51.81769097 56.01898539 C-61.86586539 66.02536541 -71.92822389 76.01738031 -82 86 C-84.78053912 84.72915022 -86.82876963 83.42090225 -88.9866333 81.26060486 C-89.54746613 80.70396652 -90.10829895 80.14732819 -90.68612671 79.57382202 C-91.28889435 78.96543488 -91.89166199 78.35704773 -92.51269531 77.73022461 C-93.15701508 77.08780319 -93.80133484 76.44538177 -94.46517944 75.78349304 C-96.59107704 73.66129684 -98.70969498 71.5319923 -100.828125 69.40234375 C-102.30177971 67.92749708 -103.77580411 66.45301971 -105.25018311 64.97889709 C-108.33656399 61.8909526 -111.41955639 58.79967771 -114.5 55.70581055 C-118.45858844 51.73019527 -122.4237653 47.76123202 -126.39125443 43.7945013 C-129.43345127 40.75203329 -132.47304068 37.70697189 -135.51174164 34.66101265 C-136.97365662 33.19590514 -138.43618721 31.73141165 -139.89933014 30.26753044 C-141.93705018 28.22765512 -143.97145056 26.18452925 -146.00488281 24.14038086 C-146.61574738 23.52996948 -147.22661194 22.91955811 -147.85598755 22.29064941 C-152 18.11447604 -152 18.11447604 -152 17 C-135.58531511 14.77706641 -119.16596274 12.75101718 -102.6875 11.0625 C-89.00593813 9.6583263 -75.34321544 8.13704538 -61.6875 6.5 C-60.37418198 6.3428653 -60.37418198 6.3428653 -59.03433228 6.18255615 C-50.57334647 5.16896537 -42.11411337 4.14201613 -33.65809631 3.08773804 C-30.61073093 2.70794046 -27.56300439 2.33108102 -24.51528931 1.95410156 C-22.44286696 1.69595373 -20.37121626 1.43218687 -18.29956055 1.16796875 C-12.15033548 0.40463312 -6.19733262 -0.21074053 0 0 Z " fill="#E9EBEB" transform="translate(433,200)"/>
<path d="M0 0 C0 42.57 0 85.14 0 129 C-4.30101884 125.31341242 -8.35959654 121.77007614 -12.3527832 117.80834961 C-12.83827133 117.32782639 -13.32375946 116.84730316 -13.82395935 116.35221863 C-15.40228346 114.78830287 -16.97686539 113.22069512 -18.55078125 111.65234375 C-19.09349356 111.11245882 -19.63620586 110.57257389 -20.195364 110.01632881 C-23.05977359 107.16681413 -25.92137053 104.31451147 -28.78051758 101.4597168 C-31.72710644 98.51864073 -34.68288215 95.58697949 -37.64085102 92.65735531 C-39.92356156 90.39327113 -42.19953388 88.12250413 -44.47371483 85.84985542 C-45.56086237 84.765728 -46.65050285 83.68409433 -47.74270058 82.60505486 C-49.26704574 81.09779207 -50.78161431 79.58131746 -52.29418945 78.06225586 C-53.58822441 76.77368935 -53.58822441 76.77368935 -54.90840149 75.45909119 C-58.54001544 71.18940472 -59.64491606 66.9470971 -59.39971924 61.43188477 C-57.96374756 52.6954585 -47.39668173 45.105494 -41.328125 39.0625 C-40.19776719 37.93079277 -39.06770623 36.79878897 -37.93792725 35.66650391 C-35.58440821 33.31005389 -33.22735361 30.95721587 -30.86767578 28.60693359 C-27.83886398 25.58959418 -24.81922589 22.56325713 -21.80211258 19.53422546 C-19.47751595 17.20242237 -17.14820279 14.87537803 -14.8174057 12.54977417 C-13.70112948 11.43483375 -12.58634155 10.31840123 -11.47306061 9.20046997 C-9.92464072 7.64699633 -8.37000058 6.10003511 -6.81347656 4.5546875 C-5.93000549 3.67280762 -5.04653442 2.79092773 -4.1362915 1.88232422 C-2 0 -2 0 0 0 Z " fill="#F4F4F4" transform="translate(177,233)"/>
<path d="M0 0 C4.320088 3.70293257 8.37409276 7.24835249 12.36865234 11.23925781 C13.09929398 11.96727097 13.09929398 11.96727097 13.84469604 12.70999146 C15.42760631 14.28855856 17.00689957 15.87068517 18.5859375 17.453125 C19.69440375 18.56091659 20.80301832 19.66855978 21.91177368 20.77606201 C24.22129238 23.08411445 26.52901258 25.39394591 28.83544922 27.70507812 C31.79450751 30.66986666 34.75807815 33.63009787 37.72298241 36.58903885 C40.00667839 38.86912872 42.28799657 41.15158564 44.56859207 43.43477631 C45.66112466 44.52797629 46.75440146 45.62043305 47.84843063 46.71213531 C49.37062093 48.23179468 50.88958377 49.75460728 52.40771484 51.27832031 C53.27262543 52.14402649 54.13753601 53.00973267 55.02865601 53.90167236 C57.85899536 56.91432734 58.1959599 58.70176498 58.3125 62.75 C58.36857422 64.01070312 58.36857422 64.01070312 58.42578125 65.296875 C57.4919894 71.22516822 52.79418977 75.45501133 48.6965332 79.54638672 C48.18061615 80.06420212 47.6646991 80.58201752 47.13314819 81.11552429 C45.44385742 82.80848986 43.74752959 84.49419894 42.05078125 86.1796875 C40.87025572 87.35901991 39.69010073 88.53872334 38.51029968 89.71878052 C36.04632699 92.18119439 33.57904633 94.64022701 31.10913086 97.09667969 C27.93618604 100.25255137 24.76994841 103.4150505 21.60590839 106.57984734 C19.1742229 109.01126175 16.73994681 111.44006799 14.30476952 113.86798477 C13.13551853 115.0340456 11.96687927 116.20072014 10.79885292 117.36800766 C9.17350072 118.99120472 7.54490761 120.6110741 5.9152832 122.22998047 C4.98802933 123.15342255 4.06077545 124.07686462 3.10542297 125.02828979 C1 127 1 127 0 127 C0 85.09 0 43.18 0 0 Z " fill="#F8F8F8" transform="translate(109,151)"/>
</svg>
