<?xml version="1.0" encoding="UTF-8"?>
<svg version="1.1" xmlns="http://www.w3.org/2000/svg" width="1200" height="628">
<path d="M0 0 C396 0 792 0 1200 0 C1200 207.24 1200 414.48 1200 628 C804 628 408 628 0 628 C0 420.76 0 213.52 0 0 Z " fill="#A863F8" transform="translate(0,0)"/>
<path d="M0 0 C12.20610182 9.38246807 14.18413387 26.0989461 17.34765625 40.296875 C17.9739622 43.49745883 17.9739622 43.49745883 19.14453125 45.6484375 C19.24415683 47.55046987 19.28011181 49.45596631 19.28637695 51.3605957 C19.29341141 52.55977127 19.30044586 53.75894684 19.30769348 54.99446106 C19.31185776 56.2995311 19.31602203 57.60460114 19.3203125 58.94921875 C19.33074401 60.30528029 19.34216779 61.66133452 19.35453796 63.01737976 C19.40685585 68.77432662 19.45481846 74.53115145 19.47045898 80.28833008 C19.48065709 83.81170413 19.5102875 87.33448748 19.55177879 90.85762596 C19.56979145 92.82967365 19.56746334 94.80187431 19.56452942 96.77400208 C19.73936128 109.85489535 22.42383204 121.01487936 31.875 130.359375 C34.60052165 132.82618267 36.78671263 134.50322919 40.234375 135.90234375 C43.14453125 137.6484375 43.14453125 137.6484375 44.4296875 140.625 C44.81447266 142.43097656 44.81447266 142.43097656 45.20703125 144.2734375 C45.51115447 145.61660675 45.81858554 146.95903029 46.12890625 148.30078125 C46.28681641 149.0057373 46.44472656 149.71069336 46.60742188 150.43701172 C47.72191027 155.02566439 49.21038885 159.51934498 50.65844727 164.01220703 C51.77308115 167.64307403 52.49885775 170.06694815 51.14453125 173.6484375 C49.67333984 175.55200195 49.67333984 175.55200195 47.79296875 177.51171875 C47.10589844 178.23423828 46.41882813 178.95675781 45.7109375 179.70117188 C44.98777344 180.44689453 44.26460937 181.19261719 43.51953125 181.9609375 C42.81957031 182.69505859 42.11960937 183.42917969 41.3984375 184.18554688 C38.08225406 187.65246593 34.72778798 191.07592486 31.32421875 194.45703125 C29.07503228 196.69500702 26.9294099 198.96105538 24.89453125 201.3984375 C21.96173521 204.80682208 18.8438061 207.99243264 15.64453125 211.1484375 C11.90421326 214.83837235 8.3621378 218.62347443 4.953125 222.62109375 C1.97047235 225.9644992 -1.25903567 229.0592012 -4.4453125 232.20703125 C-7.12401407 234.92046477 -9.60154993 237.75620773 -12.078125 240.65234375 C-14.08815652 242.90976376 -16.20379828 245.02579463 -18.35546875 247.1484375 C-21.07988415 249.8362221 -23.68807187 252.54660613 -26.16796875 255.4609375 C-29.23047058 259.03742565 -32.50827162 262.34233549 -35.85546875 265.6484375 C-39.75443381 269.49965039 -43.46371182 273.4126549 -47.015625 277.58984375 C-49.81106963 280.71765547 -52.81723887 283.63097347 -55.80224609 286.57568359 C-58.4934687 289.24464169 -61.07419361 291.96040765 -63.54296875 294.8359375 C-64.09339844 295.45855469 -64.64382813 296.08117187 -65.2109375 296.72265625 C-66.36907463 298.07885959 -67.4718985 299.48327592 -68.53125 300.91796875 C-70.53712077 303.37054308 -72.11916488 305.02881839 -74.85546875 306.6484375 C-78.76766812 307.03545077 -82.35823194 306.91003109 -86.26953125 306.5390625 C-90.643086 306.67246068 -92.49814643 307.92965494 -95.85546875 310.6484375 C-96.32984375 311.2465625 -96.80421875 311.8446875 -97.29296875 312.4609375 C-98.85546875 313.6484375 -98.85546875 313.6484375 -101.78515625 313.421875 C-106.83820389 312.59362331 -111.66809525 310.99434841 -116.54296875 309.4609375 C-118.60925203 308.82121725 -120.67566049 308.18190121 -122.7421875 307.54296875 C-123.77263184 307.22279785 -124.80307617 306.90262695 -125.86474609 306.57275391 C-130.18678943 305.2369779 -134.52038127 303.94112001 -138.85546875 302.6484375 C-145.82028521 300.56528211 -152.77726957 298.4575284 -159.73046875 296.3359375 C-168.82730901 293.5614363 -177.9330523 290.81714513 -187.04296875 288.0859375 C-187.68667419 287.89287018 -188.33037964 287.69980286 -188.99359131 287.50088501 C-195.13983101 285.65751599 -201.28659005 283.81601254 -207.4375 281.98828125 C-215.83805039 279.48803968 -224.20208235 276.90393916 -232.54296875 274.2109375 C-241.72899062 271.24802341 -250.9827432 268.58689827 -260.29370117 266.04516602 C-262.24468518 265.51058651 -264.19213331 264.96288165 -266.13525391 264.40039062 C-268.82341682 263.62080668 -268.82341682 263.62080668 -271.47802734 263.13085938 C-273.93541389 262.56174908 -275.74765853 262.03852317 -277.85546875 260.6484375 C-279.61326373 257.46845099 -280.18601572 254.19481253 -280.85546875 250.6484375 C-281.32071296 248.84209905 -281.79740829 247.03867362 -282.28515625 245.23828125 C-282.76806485 243.35445796 -283.24979963 241.47033345 -283.73046875 239.5859375 C-285.46778661 232.83817988 -287.26169489 226.12610744 -289.29296875 219.4609375 C-291.95249221 210.70060204 -294.08438974 201.81372046 -296.27148438 192.92602539 C-297.97232082 186.05580833 -299.79587584 179.27390921 -301.87329102 172.50854492 C-304.3188113 164.37156047 -306.27627269 156.103267 -308.31253052 147.85681152 C-310.93659809 137.23434102 -313.69717861 126.65933706 -316.62890625 116.1171875 C-317.0381031 114.62769827 -317.44697516 113.13811976 -317.85546875 111.6484375 C-318.05124512 110.95556641 -318.24702148 110.26269531 -318.44873047 109.54882812 C-320.57861462 101.66768677 -321.74892599 91.83626982 -318.35546875 84.1484375 C-311.26495181 72.688764 -299.13576462 70.32302751 -286.98046875 67.0234375 C-285.10113647 66.50946411 -285.10113647 66.50946411 -283.18383789 65.98510742 C-263.41109229 60.58843985 -243.61123436 55.26636362 -223.70385742 50.38769531 C-217.08086248 48.74659922 -210.53905403 46.85720855 -203.98901367 44.94848633 C-197.3145934 43.02138664 -190.60224046 41.30272518 -183.85546875 39.6484375 C-176.30682177 37.79743983 -168.81581822 35.82845586 -161.35546875 33.6484375 C-150.79439182 30.56433643 -140.13558918 27.93107289 -129.45556641 25.29492188 C-121.33091584 23.27482096 -113.26502725 21.04165579 -105.19921875 18.80078125 C-102.68887243 18.10391321 -100.17845349 17.40730673 -97.66796875 16.7109375 C-95.76688354 16.1835498 -95.76688354 16.1835498 -93.82739258 15.64550781 C-85.90193197 13.45783806 -77.95897322 11.39130793 -69.97216797 9.44165039 C-64.03784682 7.97922469 -58.16416114 6.34553715 -52.29296875 4.6484375 C-51.42140137 4.39868164 -50.54983398 4.14892578 -49.65185547 3.89160156 C-44.48366264 2.4110883 -44.48366264 2.4110883 -39.32568359 0.89550781 C-12.01569282 -7.213401 -12.01569282 -7.213401 0 0 Z " fill="#FEFEFE" transform="translate(696.85546875,113.3515625)"/>
<path d="M0 0 C6.017541 1.61411688 11.91318309 3.57806046 17.75 5.75 C18.98234375 6.19859375 20.2146875 6.6471875 21.484375 7.109375 C26.95896304 10.05348679 30.64226361 14.13761605 32.58505249 20.10847473 C33.00275505 21.64364875 33.39960289 23.18460276 33.77880859 24.72973633 C34.00495598 25.58283229 34.23110336 26.43592825 34.4641037 27.3148756 C35.21065963 30.14946321 35.92938516 32.99035357 36.6484375 35.83203125 C37.17826823 37.86504151 37.70989838 39.89758355 38.24319458 41.9296875 C39.38124106 46.28068508 40.50725024 50.63455091 41.6237793 54.99111938 C43.38169446 61.84962476 45.16590732 68.70110505 46.95507812 75.55151367 C48.79739298 82.61037985 50.63798923 89.66966918 52.46929932 96.73139954 C58.19693728 118.81688995 64.04113399 140.87049691 69.92657471 162.91439819 C71.22847534 167.79181784 72.52559042 172.67049444 73.82098198 177.54964638 C74.78778542 181.18944213 75.75697641 184.82859902 76.72680283 188.46759033 C77.17210583 190.14010735 77.61652731 191.81285938 78.05997086 193.48587036 C80.67316419 203.46316864 80.67316419 203.46316864 83.76367188 213.29956055 C85.57231793 218.71299819 85.81468534 222.77033485 83.8125 228.25 C80.16946063 233.77737007 75.65492006 235.76875836 69.4375 237.4375 C68.69790039 237.64576416 67.95830078 237.85402832 67.19628906 238.06860352 C60.73776225 239.86241421 54.23011856 241.46359218 47.71972656 243.05664062 C41.66680767 244.54850846 35.67376197 246.19850241 29.6875 247.9375 C21.56554156 250.29379184 13.41450998 252.49392529 5.22607422 254.60693359 C-2.27252847 256.54314556 -9.75599597 258.53307537 -17.23614502 260.53918457 C-26.32691062 262.97715099 -35.42053856 265.38543639 -44.5625 267.625 C-52.05578771 269.46168791 -59.45909879 271.54132772 -66.86547852 273.69970703 C-74.42512945 275.88229073 -82.03707533 277.81064673 -89.68847656 279.64428711 C-96.03774843 281.18762255 -102.31377853 282.93267579 -108.58984375 284.74609375 C-120.05824557 288.05543839 -131.58627568 291.12343121 -143.12963867 294.15942383 C-146.56303561 295.0626409 -149.99544202 295.96954863 -153.42773438 296.87695312 C-164.4380697 299.78242397 -175.45851287 302.63186745 -186.51185608 305.3691864 C-192.04787345 306.74580999 -197.53454884 308.23924774 -203 309.875 C-211.28327994 312.29890911 -219.61962293 314.43871355 -228 316.5 C-236.48217436 318.58738094 -244.92199184 320.75625666 -253.3125 323.1875 C-254.57924561 323.55415771 -254.57924561 323.55415771 -255.87158203 323.92822266 C-257.48471395 324.39636598 -259.09767713 324.8650912 -260.71044922 325.33447266 C-264.26040362 326.36637452 -267.81289939 327.38580201 -271.375 328.375 C-272.49648438 328.69210937 -273.61796875 329.00921875 -274.7734375 329.3359375 C-279.56809755 330.32273194 -284.33176571 330.96945675 -288.6875 328.375 C-289.49767578 327.92253906 -289.49767578 327.92253906 -290.32421875 327.4609375 C-295.6020174 322.8597797 -296.94530153 317.28705308 -298.3125 310.75 C-298.73340015 308.86638419 -299.15805628 306.98360478 -299.5859375 305.1015625 C-299.92383301 303.61317871 -299.92383301 303.61317871 -300.26855469 302.09472656 C-301.53453462 296.73839759 -302.98758862 291.43396102 -304.4375 286.125 C-306.72140745 277.74242232 -308.95751808 269.35093764 -311.125 260.9375 C-313.04276197 253.50712239 -315.10304803 246.13903175 -317.31469727 238.79125977 C-318.83128833 233.70527434 -320.07433784 228.59571669 -321.21337891 223.4140625 C-322.00663359 219.97120913 -322.89233201 216.56728258 -323.8125 213.15625 C-324.16963077 211.82738603 -324.52647213 210.49844425 -324.88305664 209.16943359 C-325.06699982 208.4843573 -325.25094299 207.79928101 -325.44046021 207.09344482 C-326.36608191 203.63035251 -327.27440258 200.16274749 -328.18359375 196.6953125 C-332.81287211 178.88125692 -332.81287211 178.88125692 -337.875 161.1875 C-339.55743818 155.61943078 -340.94383012 150.05710288 -342.1796875 144.375 C-342.97622975 141.09779761 -343.93125022 137.91642149 -344.93969727 134.70043945 C-349.93891322 118.64845036 -349.93891322 118.64845036 -349 111 C-346.20243456 106.01979292 -342.41376967 101.67230702 -338.8125 97.25 C-337.73401637 95.92322321 -336.65711483 94.59515834 -335.58203125 93.265625 C-334.87397339 92.39599121 -334.87397339 92.39599121 -334.15161133 91.50878906 C-332.91535893 89.9867019 -332.91535893 89.9867019 -332 88 C-331.34 88 -330.68 88 -330 88 C-329.32815382 90.10251861 -328.66269032 92.20707763 -328 94.3125 C-327.62875 95.48425781 -327.2575 96.65601563 -326.875 97.86328125 C-326 101 -326 101 -326 104 C-324.865625 104.226875 -323.73125 104.45375 -322.5625 104.6875 C-314.93455482 106.38655944 -307.47969456 108.75149346 -300 111 C-298.38546834 111.48324558 -296.77088433 111.9663163 -295.15625 112.44921875 C-291.79745219 113.45463196 -288.43946684 114.46270376 -285.08203125 115.47265625 C-281.78881399 116.46319671 -278.49460924 117.45030808 -275.19921875 118.43359375 C-265.72245039 121.26371628 -256.26272288 124.14489011 -246.8125 127.0625 C-238.2448068 129.70691095 -229.66564982 132.29960439 -221.05859375 134.8125 C-204.45260974 139.66143127 -187.92059222 144.76180514 -171.38035583 149.82928467 C-169.90813861 150.27943161 -168.43546033 150.72807374 -166.96229553 151.17510986 C-163.91968242 152.09900892 -160.88799378 153.03696869 -157.86816406 154.03369141 C-156.99643555 154.31776855 -156.12470703 154.6018457 -155.2265625 154.89453125 C-154.51322754 155.1366333 -153.79989258 155.37873535 -153.06494141 155.62817383 C-149.79367155 156.21721899 -147.03071399 155.68869377 -144.26953125 153.84375 C-143.54830078 153.17859375 -143.54830078 153.17859375 -142.8125 152.5 C-140 150 -140 150 -138 149 C-137.00355469 149.11859375 -136.00710938 149.2371875 -134.98046875 149.359375 C-127.7907285 150.18892975 -127.7907285 150.18892975 -121.13525391 147.85742188 C-116.9267173 144.37369524 -113.45397653 140.21185425 -110 136 C-108.7942764 134.62271098 -107.58647168 133.2472357 -106.375 131.875 C-105.85679687 131.26398438 -105.33859375 130.65296875 -104.8046875 130.0234375 C-102.02077021 126.90207569 -99.02017656 123.99978177 -96.04418945 121.0637207 C-93.43862818 118.47961541 -90.93939418 115.85782054 -88.5625 113.0625 C-85.06423799 108.95731061 -81.24316838 105.21562795 -77.40917969 101.42871094 C-74.00913777 98.05431359 -70.81236685 94.57511725 -67.70703125 90.92578125 C-65.00778615 87.88063747 -62.07938937 85.07157299 -59.18359375 82.21484375 C-57.22025329 80.22340539 -55.37920331 78.18697422 -53.5625 76.0625 C-50.84380752 72.8896408 -47.97248325 69.93661618 -45 67 C-42.06881809 64.10408042 -39.23596826 61.19757429 -36.5625 58.0625 C-33.25653882 54.19382202 -29.66855322 50.63935695 -26.04931641 47.06884766 C-22.80015827 43.84649591 -19.77563666 40.50668184 -16.80859375 37.02734375 C-14.63041508 34.58571366 -12.32751992 32.29951968 -10 30 C-1.53830783 22.65918277 -1.53830783 22.65918277 3 13 C2.47129635 9.70117463 2.47129635 9.70117463 1.5625 6.25 C1.13130859 4.49429687 1.13130859 4.49429687 0.69140625 2.703125 C0.46324219 1.81109375 0.23507812 0.9190625 0 0 Z " fill="#7615CB" transform="translate(745,270)"/>
<path d="M0 0 C2.40269918 0.00171361 4.80540022 0.00164288 7.20809937 -0.00012207 C12.22615622 0.00152543 17.24376324 0.02012174 22.26171875 0.05175781 C28.67492956 0.09147566 35.08755351 0.09579419 41.50086403 0.08829498 C46.45615967 0.08521754 51.41132482 0.09737277 56.36658859 0.11442566 C58.73073889 0.12142649 61.09490397 0.12458376 63.45906448 0.12373352 C66.76806353 0.12554259 70.07637472 0.14701854 73.38525391 0.17382812 C74.34967911 0.17089752 75.31410431 0.16796692 76.30775452 0.16494751 C87.64590027 0.30581112 97.05225267 3.59568721 105.3125 11.48046875 C110.95503275 17.59121166 115.41857842 24.68810322 115.5032959 33.18818665 C115.51478668 34.13129196 115.52627747 35.07439728 115.53811646 36.04608154 C115.54921951 37.59588715 115.54921951 37.59588715 115.56054688 39.17700195 C115.57193695 40.26685898 115.58332703 41.356716 115.59506226 42.479599 C115.69280351 52.55473183 115.74406271 62.63050757 115.78075409 72.70603657 C115.80823254 80.13973413 115.85879854 87.57246775 115.94122839 95.00576431 C116.00414816 100.88168499 116.02802302 106.7573114 116.03901672 112.63353539 C116.04937725 115.12006736 116.07170491 117.60658128 116.10661316 120.09288979 C116.31978121 136.11071026 115.9699853 148.17849338 104.9609375 160.65625 C95.37774342 169.12710906 85.01769551 170.89153041 72.59057617 170.90014648 C71.55515182 170.90847 70.51972748 170.91679352 69.45292664 170.92536926 C66.05321416 170.94932997 62.65369402 170.95822392 59.25390625 170.96484375 C56.8741297 170.97381993 54.4943537 170.98294194 52.11457825 170.99220276 C47.13423292 171.00865696 42.15395454 171.0163865 37.17358398 171.01928711 C30.81530402 171.02467023 24.45765949 171.06236394 18.09955883 171.10803127 C13.18624105 171.13787928 8.27307499 171.14501235 3.35967445 171.14601326 C1.01667683 171.15019932 -1.32632192 171.16256809 -3.66922951 171.18353081 C-20.12414252 171.31905781 -32.14088279 170.92216471 -44.53515625 158.92578125 C-52.39634304 150.31453627 -53.96665027 142.02423297 -53.9387207 130.66064453 C-53.94383163 129.58167908 -53.94894257 128.50271362 -53.95420837 127.39105225 C-53.96807035 123.83616538 -53.96715008 120.28147313 -53.96484375 116.7265625 C-53.96873261 114.24705941 -53.97306767 111.76755699 -53.97782898 109.28805542 C-53.98528396 104.094847 -53.98500516 98.90170657 -53.97973633 93.70849609 C-53.97394355 87.06529413 -53.99087188 80.4223782 -54.014081 73.77920723 C-54.02883848 68.65927513 -54.02968726 63.5394099 -54.02657127 58.4194603 C-54.02708349 55.97073692 -54.03230256 53.52200971 -54.04238319 51.07330704 C-54.05476862 47.64390371 -54.0479427 44.21503973 -54.03637695 40.78564453 C-54.04402069 39.78171661 -54.05166443 38.7777887 -54.05953979 37.74343872 C-53.97572221 26.45544222 -50.52052414 18.89566958 -42.91796875 10.71484375 C-30.52376978 -1.21553905 -16.11103523 -0.12191725 0 0 Z " fill="#360966" transform="translate(770.6640625,83.40625)"/>
<path d="M0 0 C1.79160301 -0.01270432 1.79160301 -0.01270432 3.61940002 -0.02566528 C6.87998544 -0.04499537 10.14021827 -0.05081654 13.40085053 -0.04891777 C16.13165746 -0.04879761 18.86241159 -0.05738031 21.59320372 -0.06569529 C28.04166423 -0.08489735 34.48999531 -0.08782531 40.93847656 -0.08105469 C47.56934561 -0.07442004 54.19965753 -0.09726171 60.83041364 -0.13436842 C66.54194883 -0.16515981 72.2533057 -0.17641518 77.96492213 -0.1725316 C81.36797337 -0.17047334 84.7705911 -0.17579821 88.173563 -0.20042419 C91.97422624 -0.22264657 95.77355867 -0.21289242 99.57421875 -0.1953125 C101.24303101 -0.21520737 101.24303101 -0.21520737 102.94555664 -0.23550415 C111.56075822 -0.14327167 118.13365087 2.05820159 124.67260742 7.77148438 C125.59879883 8.89683594 125.59879883 8.89683594 126.54370117 10.04492188 C127.18436523 10.8003125 127.8250293 11.55570312 128.48510742 12.33398438 C130.89756167 15.69756288 131.11475274 18.47891883 131.15820312 22.4987793 C131.17745598 24.05135689 131.17745598 24.05135689 131.19709778 25.63529968 C131.20448471 26.75402969 131.21187164 27.8727597 131.21948242 29.02539062 C131.22755417 30.17856277 131.23562592 31.33173492 131.24394226 32.51985168 C131.25778186 34.96349586 131.26850457 37.40715936 131.27636719 39.85083008 C131.29355346 43.57540909 131.33743938 47.29909442 131.3815918 51.0234375 C131.39172122 53.39908202 131.40023654 55.77473408 131.40698242 58.15039062 C131.42449051 59.25899948 131.4419986 60.36760834 131.46003723 61.5098114 C131.4384428 69.2661507 130.23517037 74.46968853 125.19213867 80.59179688 C120.19972205 84.88315073 115.22476555 87.3600574 108.98120117 89.41992188 C109.41432617 91.24716797 109.41432617 91.24716797 109.85620117 93.11132812 C110.23160128 94.73493358 110.60657889 96.35863677 110.98120117 97.98242188 C111.17198242 98.78228516 111.36276367 99.58214844 111.55932617 100.40625 C112.65581239 105.20337719 113.19252314 109.50008221 112.98120117 114.41992188 C106.72371689 111.44977957 101.00550517 107.98668319 95.23120117 104.16992188 C94.41393555 103.63496094 93.59666992 103.1 92.75463867 102.54882812 C91.92706055 102.00613281 91.09948242 101.4634375 90.24682617 100.90429688 C89.43202286 100.38134033 88.61721954 99.85838379 87.77772522 99.31958008 C84.98120117 97.41992188 84.98120117 97.41992188 82.51805115 95.35986328 C73.27958926 88.06353625 65.09192744 88.35152145 53.75073242 88.56054688 C51.90614455 88.56319113 50.06154665 88.56171198 48.21696472 88.55633545 C43.39158422 88.55059326 38.56768832 88.58879363 33.74261475 88.64019775 C26.01220107 88.71811789 18.28188622 88.74164947 10.55112267 88.74010468 C7.8669422 88.74789107 5.18410251 88.7826493 2.50019836 88.82037354 C-8.7579468 88.90602743 -16.56418165 87.62716361 -25.41333008 80.37304688 C-31.08998771 73.46713734 -31.61527308 67.17269443 -31.55004883 58.54492188 C-31.55387573 57.42102051 -31.55770264 56.29711914 -31.56164551 55.13916016 C-31.56435698 52.77245178 -31.55704966 50.40571304 -31.5402832 48.0390625 C-31.51886433 44.43095643 -31.54011275 40.82484153 -31.56567383 37.21679688 C-31.56303042 34.90950084 -31.55790517 32.60220604 -31.55004883 30.29492188 C-31.55814575 29.22387207 -31.56624268 28.15282227 -31.57458496 27.04931641 C-31.48004555 19.44146108 -30.20671237 14.13367683 -25.12426758 8.21289062 C-24.49133789 7.68308594 -23.8584082 7.15328125 -23.20629883 6.60742188 C-22.58110352 6.06472656 -21.9559082 5.52203125 -21.31176758 4.96289062 C-14.27519715 0.22789008 -8.30718493 -0.02176359 0 0 Z " fill="#A057F1" transform="translate(995.018798828125,359.580078125)"/>
<path d="M0 0 C-5.89390277 7.58990336 -11.86975351 15.09924919 -18 22.5 C-22.71306854 28.19142115 -27.34453019 33.9332467 -31.88671875 39.76171875 C-35.36853977 44.22089304 -38.92248072 48.61734231 -42.5 53 C-46.54982067 57.96232244 -50.55805194 62.9515402 -54.5 68 C-58.44195404 73.04846745 -62.45050422 78.03740594 -66.5 83 C-75.58677892 94.14537662 -84.43278985 105.45013151 -93 117 C-97.1289971 115.24363556 -100.40031868 112.46503188 -103.875 109.6875 C-104.47441406 109.21376953 -105.07382812 108.74003906 -105.69140625 108.25195312 C-106.28566406 107.78080078 -106.87992187 107.30964844 -107.4921875 106.82421875 C-108.07967773 106.35935059 -108.66716797 105.89448242 -109.27246094 105.41552734 C-110.42214088 104.47349169 -111.54613209 103.4991894 -112.64160156 102.49462891 C-115.42129108 99.83671767 -115.42129108 99.83671767 -119.0078125 98.8828125 C-121.94039803 100.52736047 -124.37626538 102.65188613 -126.875 104.875 C-128.03857579 105.88487724 -129.20400099 106.89262681 -130.37109375 107.8984375 C-130.97034668 108.4150293 -131.56959961 108.93162109 -132.18701172 109.46386719 C-135.04476464 111.88522208 -137.98361481 114.1975847 -140.9375 116.5 C-141.50791016 116.94496826 -142.07832031 117.38993652 -142.66601562 117.84838867 C-143.8342995 118.75845303 -145.00308709 119.6678711 -146.17236328 120.57666016 C-149.41543123 123.10231954 -152.64424067 125.64612885 -155.875 128.1875 C-157.05983644 129.11856517 -158.24472654 130.04956206 -159.4296875 130.98046875 C-160.27789062 131.64691406 -161.12609375 132.31335938 -162 133 C-163.31471504 129.35574916 -162.66607052 127.1867159 -161.41015625 123.58203125 C-161.04204834 122.5038916 -160.67394043 121.42575195 -160.29467773 120.31494141 C-159.88805908 119.15913574 -159.48144043 118.00333008 -159.0625 116.8125 C-156.53408614 109.52114516 -154.02878746 102.25134918 -151.8984375 94.83203125 C-151.40138306 93.13953247 -151.40138306 93.13953247 -150.89428711 91.4128418 C-150.27029374 89.26859103 -149.66841641 87.11774314 -149.09204102 84.96020508 C-147.69796015 80.26813163 -146.63955295 76.87820464 -142.41796875 74.15234375 C-140.96028905 73.40493634 -139.48615598 72.68904886 -138 72 C-136.31862107 71.10603862 -134.63902646 70.20871568 -132.9609375 69.30859375 C-131.10032308 68.34891193 -129.23827432 67.39200722 -127.375 66.4375 C-119.61258524 62.42712604 -111.90301658 58.34028661 -104.25 54.125 C-94.92132866 48.99431525 -85.48796495 44.08482392 -76.02392578 39.20922852 C-68.12599914 35.13014739 -60.31002335 30.9240597 -52.52783203 26.62915039 C-47.16548833 23.68501274 -41.76634026 20.82414199 -36.328125 18.0234375 C-35.66920258 17.68406662 -35.01028015 17.34469574 -34.33139038 16.99504089 C-31.07216217 15.31878309 -27.80966891 13.64917852 -24.54345703 11.98657227 C-23.34927042 11.375189 -22.15509663 10.76378069 -20.9609375 10.15234375 C-19.90696777 9.61601318 -18.85299805 9.07968262 -17.76708984 8.52709961 C-15.32037082 7.17680603 -13.17736752 5.74326589 -11 4 C-34.98946853 13.29164187 -58.97666301 22.58874198 -82.93798828 31.95275879 C-99.87421432 38.57063211 -116.82780657 45.14349278 -133.78515625 51.70703125 C-134.79091202 52.09654968 -135.79666779 52.48606812 -136.832901 52.88739014 C-138.70270314 53.61153582 -140.57267351 54.33524738 -142.44285583 55.05841064 C-143.29243362 55.38750427 -144.14201141 55.7165979 -145.01733398 56.05566406 C-146.2487764 56.52848816 -146.2487764 56.52848816 -147.50509644 57.01086426 C-149.24386039 57.70021899 -150.96946901 58.4233 -152.68362427 59.17175293 C-153.55639008 59.5478772 -154.42915588 59.92400146 -155.32836914 60.31152344 C-156.10596085 60.65842224 -156.88355255 61.00532104 -157.68470764 61.36273193 C-160.52927089 62.14567812 -162.19802604 61.87120064 -165 61 C-167.18623117 59.36963888 -169.16973516 57.75255462 -171.1875 55.9375 C-172.35065055 54.92213146 -173.51471993 53.90781455 -174.6796875 52.89453125 C-175.2478418 52.39646973 -175.81599609 51.8984082 -176.40136719 51.38525391 C-178.49300823 49.57279647 -180.64252302 47.84259195 -182.8125 46.125 C-187.96456298 42.04207427 -193.05717022 37.88826443 -198.15161133 33.73388672 C-202.57455847 30.13518 -207.03979755 26.6043317 -211.59375 23.171875 C-212.0578125 22.78515625 -212.521875 22.3984375 -213 22 C-213 21.67 -213 21.34 -213 21 C-193.82576182 18.86686172 -174.64789884 16.84268741 -155.4375 15.0625 C-140.01020074 13.63141477 -124.62064204 11.97002706 -109.23141479 10.17752075 C-94.98030034 8.52114501 -80.72098262 7.072019 -66.43377686 5.76528931 C-56.1835446 4.82571115 -45.95111601 3.79480573 -35.7265625 2.60546875 C-34.71084167 2.4875296 -33.69512085 2.36959045 -32.64862061 2.24807739 C-27.7173656 1.67274949 -22.78769305 1.08627887 -17.859375 0.48632812 C-16.08595081 0.27592944 -14.31251398 0.06563728 -12.5390625 -0.14453125 C-11.73070953 -0.24635208 -10.92235657 -0.34817291 -10.08950806 -0.45307922 C-6.43625982 -0.88080818 -3.52488868 -1.03619472 0 0 Z " fill="#DDC2F6" transform="translate(399,69)"/>
<path d="M0 0 C-5.36371868 5.90688006 -10.71339353 11.78937671 -16.41015625 17.37890625 C-18.08574421 19.0874296 -19.63485572 20.86677325 -21.1875 22.6875 C-24.29615326 26.30139713 -27.61114646 29.65286826 -31 33 C-34.8989733 36.8512064 -38.60824316 40.76421751 -42.16015625 44.94140625 C-44.95560088 48.06921797 -47.96177012 50.98253597 -50.94677734 53.92724609 C-53.63799995 56.59620419 -56.21872486 59.31197015 -58.6875 62.1875 C-59.23792969 62.81011719 -59.78835938 63.43273437 -60.35546875 64.07421875 C-61.51360588 65.43042209 -62.61642975 66.83483842 -63.67578125 68.26953125 C-65.68165202 70.72210558 -67.26369613 72.38038089 -70 74 C-73.91219937 74.38701327 -77.50276319 74.26159359 -81.4140625 73.890625 C-85.78761725 74.02402318 -87.64267768 75.28121744 -91 78 C-91.474375 78.598125 -91.94875 79.19625 -92.4375 79.8125 C-94 81 -94 81 -96.9296875 80.7734375 C-101.98273514 79.94518581 -106.8126265 78.34591091 -111.6875 76.8125 C-113.75378328 76.17277975 -115.82019174 75.53346371 -117.88671875 74.89453125 C-118.91716309 74.57436035 -119.94760742 74.25418945 -121.00927734 73.92431641 C-125.33132068 72.5885404 -129.66491252 71.29268251 -134 70 C-140.96481615 67.91684471 -147.92181822 65.80914749 -154.875 63.6875 C-168.9016313 59.40833361 -182.95109654 55.2053386 -197 51 C-197 50.67 -197 50.34 -197 50 C-194.91666667 49.47916667 -192.83333333 48.95833333 -190.75 48.4375 C-190.05543701 48.26331543 -189.36087402 48.08913086 -188.64526367 47.90966797 C-183.91337499 46.72406502 -179.17857438 45.55105943 -174.44140625 44.38671875 C-162.8096903 41.51756215 -151.22930966 38.56818093 -139.73168945 35.19970703 C-132.181446 33.0054198 -124.56704375 31.11995774 -116.93164062 29.24755859 C-110.49308073 27.65652717 -104.11425953 25.92737605 -97.75 24.0625 C-88.35376793 21.31167705 -78.87929943 18.94607971 -69.37304688 16.60791016 C-61.44419475 14.64518365 -53.59194498 12.50386426 -45.75463867 10.20581055 C-38.00326689 7.95244339 -30.18652918 5.99574632 -22.34277344 4.09155273 C-16.86978202 2.75513548 -11.51720217 1.27136604 -6.18041992 -0.5402832 C-3.75651842 -1.05133533 -2.32432243 -0.78403307 0 0 Z " fill="#FDFCFE" transform="translate(692,346)"/>
<path d="M0 0 C2.19431201 1.40698412 4.24128475 2.89729808 6.2890625 4.5078125 C7.3203125 5.2503125 8.3515625 5.9928125 9.4140625 6.7578125 C18.4720459 15.42197053 24.29489841 26.51093741 24.58203125 39.05761719 C24.7255924 57.52675881 24.7255924 57.52675881 18.34765625 64.6875 C12.51480669 70.03696424 8.07185416 70.85365198 0.24609375 70.796875 C-3.92683755 70.38895305 -5.65298181 69.32435064 -8.7109375 66.5078125 C-9.3709375 65.5178125 -10.0309375 64.5278125 -10.7109375 63.5078125 C-11.3709375 63.5078125 -12.0309375 63.5078125 -12.7109375 63.5078125 C-13.855625 64.6834375 -13.855625 64.6834375 -15.0234375 65.8828125 C-19.42430902 70.18133817 -23.40339824 70.84627812 -29.4609375 71.0078125 C-36.41828344 70.89124964 -40.78592109 69.46426519 -45.7109375 64.5078125 C-51.04524549 57.76766472 -53.26114503 51.21701437 -53.08203125 42.640625 C-52.12260157 34.54101863 -47.89350784 28.81188758 -41.609375 23.84765625 C-36.25194586 20.06659 -31.12484238 19.8644725 -24.7109375 20.5078125 C-20.2844848 21.59579582 -16.82124301 23.11215786 -13.7109375 26.5078125 C-13.3809375 24.8578125 -13.0509375 23.2078125 -12.7109375 21.5078125 C-10.0709375 21.5078125 -7.4309375 21.5078125 -4.7109375 21.5078125 C-4.69635498 22.57741211 -4.68177246 23.64701172 -4.66674805 24.74902344 C-4.60871449 28.72266844 -4.53148231 32.69574975 -4.44848633 36.66894531 C-4.41526069 38.38760215 -4.38722134 40.10636749 -4.36450195 41.82519531 C-4.33091189 44.29799573 -4.27859572 46.76980406 -4.22265625 49.2421875 C-4.21626633 50.00899841 -4.2098764 50.77580933 -4.20329285 51.56585693 C-4.11595675 54.74461549 -3.89902023 57.14595885 -2.42114258 59.98925781 C-0.03981652 62.10372578 2.18512537 62.12249849 5.2890625 61.95703125 C8.76050171 61.17731346 10.22848506 59.29565257 12.2890625 56.5078125 C16.12095435 47.35460088 15.80344363 35.13950151 12.2890625 25.9453125 C7.22281082 15.64155555 -0.55173172 8.55125172 -11.3359375 4.7578125 C-23.01533213 1.02387964 -35.69007808 0.89779671 -46.7109375 6.5078125 C-56.69519878 12.17534905 -63.67366153 20.04909073 -67.82421875 30.8046875 C-70.74573201 43.00554466 -70.32031917 56.63711897 -63.7109375 67.5078125 C-57.11984595 78.10063821 -48.45235391 83.59400703 -36.7109375 87.5078125 C-25.43838828 88.25604482 -14.92144845 87.98691074 -5.01953125 81.8359375 C-2.7109375 80.5078125 -2.7109375 80.5078125 -0.5234375 81.0703125 C1.53034559 82.69917495 2.32338363 84.09361532 3.2890625 86.5078125 C-0.23592486 89.55803219 -3.50998416 91.47685735 -7.8359375 93.1953125 C-8.86976563 93.61167969 -9.90359375 94.02804688 -10.96875 94.45703125 C-21.08596201 98.33385465 -35.44375451 98.46704769 -45.5234375 94.3828125 C-48.23828125 93 -48.23828125 93 -50.7109375 91.5078125 C-51.53722656 91.01539063 -52.36351562 90.52296875 -53.21484375 90.015625 C-55.45250453 88.59266444 -57.58404539 87.09022023 -59.7109375 85.5078125 C-60.7421875 84.7653125 -61.7734375 84.0228125 -62.8359375 83.2578125 C-71.20713175 75.25058322 -78.64793498 62.8383018 -78.94921875 51.0078125 C-79.33178772 32.14302635 -79.33178772 32.14302635 -74.7109375 23.5078125 C-74.2984375 22.67507812 -73.8859375 21.84234375 -73.4609375 20.984375 C-66.5240611 8.1748021 -54.99825346 -0.81383888 -41.37890625 -5.68359375 C-27.23885897 -8.80072877 -12.67233116 -6.97526009 0 0 Z " fill="#A561F4" transform="translate(828.7109375,124.4921875)"/>
<path d="M0 0 C0.99 0.33 1.98 0.66 3 1 C2.28714844 1.70125 1.57429687 2.4025 0.83984375 3.125 C-4.01263284 7.92314515 -8.79394965 12.7092364 -13.171875 17.953125 C-13.77515625 18.62859375 -14.3784375 19.3040625 -15 20 C-15.42555176 20.54897949 -15.85110352 21.09795898 -16.28955078 21.66357422 C-21.57865537 27.84647364 -27.63657091 28.9900046 -35.375 30.625 C-37.91467415 31.20828066 -40.4537423 31.79420644 -42.9921875 32.3828125 C-44.2100293 32.65899414 -45.42787109 32.93517578 -46.68261719 33.21972656 C-50.67695837 34.15922571 -54.58530803 35.27627904 -58.5 36.5 C-68.38152787 39.53315754 -78.4377066 41.89856187 -88.46875 44.37890625 C-94.95069386 45.9820168 -101.40559314 47.66157522 -107.84863281 49.41503906 C-112.7304231 50.74240737 -117.61545945 52.05779669 -122.5 53.375 C-123.61640869 53.67647949 -124.73281738 53.97795898 -125.88305664 54.28857422 C-133.2652959 56.27763185 -140.659545 58.21470046 -148.0625 60.125 C-154.47634245 61.78131898 -160.84930856 63.51221242 -167.1875 65.4375 C-176.02185193 68.1167797 -184.97916323 70.29884506 -193.94213867 72.50170898 C-195.08271729 72.78216064 -196.2232959 73.0626123 -197.3984375 73.3515625 C-198.5131543 73.62387695 -199.62787109 73.89619141 -200.77636719 74.17675781 C-203.80620543 74.95050929 -206.79159788 75.82160278 -209.7890625 76.7109375 C-218.33630489 79.03570017 -224.84844843 78.17249109 -233.0625 75.125 C-234.57316007 74.58297776 -236.08487588 74.04388852 -237.59765625 73.5078125 C-238.32355957 73.25032227 -239.04946289 72.99283203 -239.79736328 72.72753906 C-243.15653865 71.617991 -246.55619954 70.80524733 -250 70 C-246.87104504 67.328759 -244.20940821 66.32372058 -240.22265625 65.38671875 C-239.08054687 65.11150391 -237.9384375 64.83628906 -236.76171875 64.55273438 C-235.54097656 64.26720703 -234.32023437 63.98167969 -233.0625 63.6875 C-224.4885142 61.61836975 -215.95942301 59.49847487 -207.5 57 C-198.18827163 54.26459399 -188.79533412 51.9254338 -179.37207031 49.60766602 C-171.43539356 47.64300792 -163.575893 45.49811051 -155.73046875 43.19921875 C-148.18344122 41.00626485 -140.57250445 39.12123413 -132.94042969 37.24975586 C-126.41599091 35.63754541 -119.95056697 33.8850972 -113.5 32 C-106.03970186 29.81982155 -98.54863228 27.85101716 -91 26 C-83.53440398 24.16925332 -76.1266344 22.22402543 -68.75 20.0625 C-60.54905158 17.66160601 -52.29742892 15.5413688 -44 13.5 C-35.37919721 11.37468382 -26.78940928 9.18367003 -18.25 6.75 C-17.42371094 6.51603516 -16.59742188 6.28207031 -15.74609375 6.04101562 C-7.26451298 4.07950023 -7.26451298 4.07950023 0 0 Z " fill="#FDFCFE" transform="translate(715,318)"/>
<path d="M0 0 C3.26101645 2.20338949 3.91433675 3.68019054 4.9375 7.5 C5 11 5 11 4.0078125 13.07421875 C1.08757562 15.87514634 -2.22856448 16.43866967 -6.0625 17.3125 C-7.78811996 17.73551516 -9.51336056 18.16007993 -11.23828125 18.5859375 C-12.16721191 18.81120117 -13.09614258 19.03646484 -14.05322266 19.26855469 C-19.30820077 20.57293865 -24.5260858 22.01473608 -29.75 23.4375 C-38.17489448 25.71728633 -46.61142329 27.94444238 -55.0625 30.125 C-61.47634647 31.7813022 -67.84930197 33.51223995 -74.1875 35.4375 C-82.85362649 38.06544488 -91.64090231 40.18046483 -100.43237305 42.34350586 C-107.49952072 44.09313721 -114.51485566 45.94821706 -121.5 48 C-130.90728207 50.76325011 -140.39815821 53.12290953 -149.91796875 55.46484375 C-156.80998799 57.17086385 -163.62457179 59.00461125 -170.41113281 61.08618164 C-178.42546131 63.50166024 -186.57153304 65.41042869 -194.69726562 67.40966797 C-201.17715199 69.01388619 -207.61285976 70.68376448 -214 72.625 C-220.2125474 74.51011693 -226.45748605 76.21326621 -232.75 77.8125 C-234.02037109 78.14145264 -234.02037109 78.14145264 -235.31640625 78.47705078 C-243.53307991 80.53287846 -243.53307991 80.53287846 -247 80 C-249.21895459 78.46152482 -249.87449852 77.43846086 -250.6171875 74.84375 C-250.70226562 74.0703125 -250.78734375 73.296875 -250.875 72.5 C-250.97554688 71.7265625 -251.07609375 70.953125 -251.1796875 70.15625 C-251 68 -251 68 -249.84765625 66.3359375 C-242.76416889 61.21426165 -231.34183182 60.05362799 -222.91235352 57.9921875 C-216.89660159 56.50960078 -210.94566381 54.86583719 -205 53.125 C-196.71525221 50.70574076 -188.38064294 48.56123101 -180 46.5 C-170.84918229 44.24926359 -161.77321061 41.84895241 -152.73046875 39.19921875 C-145.18344122 37.00626485 -137.57250445 35.12123413 -129.94042969 33.24975586 C-123.41599091 31.63754541 -116.95056697 29.8850972 -110.5 28 C-103.03970186 25.81982155 -95.54863228 23.85101716 -88 22 C-80.53440398 20.16925332 -73.1266344 18.22402543 -65.75 16.0625 C-56.36719913 13.31560914 -46.90749594 10.94732444 -37.41259766 8.62109375 C-29.06251035 6.56030922 -20.79187606 4.30415457 -12.5703125 1.77734375 C-8.27591061 0.49184845 -4.53698044 -0.45438651 0 0 Z " fill="#CBA3FB" transform="translate(686,210)"/>
<path d="M0 0 C3.14122924 2.80163689 3.93084691 4.42701728 4.4375 8.625 C4 12 4 12 2.921875 13.56640625 C0.14561538 15.63731535 -2.89493023 16.40913037 -6.1875 17.3125 C-6.92145996 17.52124756 -7.65541992 17.72999512 -8.41162109 17.94506836 C-17.01137868 20.35197439 -25.6898299 22.46352786 -34.359375 24.6015625 C-40.52300686 26.12317102 -46.65682174 27.73676679 -52.78417969 29.39892578 C-57.68812569 30.72919408 -62.59414402 32.05179656 -67.5 33.375 C-68.61608643 33.67639893 -69.73217285 33.97779785 -70.88208008 34.28833008 C-78.26465354 36.27743648 -85.6592201 38.21461662 -93.0625 40.125 C-99.476343 41.78131912 -105.84930108 43.51223968 -112.1875 45.4375 C-120.85362649 48.06544488 -129.64090231 50.18046483 -138.43237305 52.34350586 C-145.49952072 54.09313721 -152.51485566 55.94821706 -159.5 58 C-168.90728207 60.76325011 -178.39815821 63.12290953 -187.91796875 65.46484375 C-194.15863992 67.00963201 -200.35271013 68.61798477 -206.5 70.5 C-214.17505688 72.83061955 -221.9200872 74.87574237 -229.6875 76.875 C-230.90695312 77.19791016 -232.12640625 77.52082031 -233.3828125 77.85351562 C-234.53910156 78.14677734 -235.69539063 78.44003906 -236.88671875 78.7421875 C-237.92014404 79.0088623 -238.95356934 79.27553711 -240.01831055 79.55029297 C-243.34114674 80.05145274 -245.76189071 79.88262218 -249 79 C-251.33122231 75.76636906 -252.0156984 73.8006185 -251.9375 69.8125 C-250.81743367 66.45230102 -249.96601365 65.83571431 -247 64 C-244.30883789 63.11206055 -244.30883789 63.11206055 -241.22265625 62.38671875 C-240.08022461 62.11142334 -238.93779297 61.83612793 -237.76074219 61.55249023 C-236.54032227 61.26704346 -235.31990234 60.98159668 -234.0625 60.6875 C-225.40522071 58.59844162 -216.79356481 56.4535552 -208.25 53.9375 C-199.86506565 51.47890671 -191.42626877 49.33058761 -182.94042969 47.24975586 C-176.41599091 45.63754541 -169.95056697 43.8850972 -163.5 42 C-156.03970186 39.81982155 -148.54863228 37.85101716 -141 36 C-133.53440398 34.16925332 -126.1266344 32.22402543 -118.75 30.0625 C-109.35376793 27.31167705 -99.87929943 24.94607971 -90.37304688 22.60791016 C-82.43604471 20.64316617 -74.57621606 18.49820517 -66.73046875 16.19921875 C-59.1943845 14.00944466 -51.59483134 12.12563546 -43.97338867 10.25854492 C-36.27192849 8.35677236 -28.64460412 6.25144143 -21.03710938 4.00390625 C-4.40127701 -0.8802554 -4.40127701 -0.8802554 0 0 Z " fill="#CBA3FB" transform="translate(712,306)"/>
<path d="M0 0 C3.26101645 2.20338949 3.91433675 3.68019054 4.9375 7.5 C5.0082005 11.45922798 4.65563574 12.22134822 2 15 C-0.19116211 15.9855957 -0.19116211 15.9855957 -2.77734375 16.67578125 C-3.751875 16.94277832 -4.72640625 17.20977539 -5.73046875 17.48486328 C-7.31794922 17.89454346 -7.31794922 17.89454346 -8.9375 18.3125 C-10.03835938 18.60882324 -11.13921875 18.90514648 -12.2734375 19.21044922 C-21.85596293 21.76641811 -31.48519823 24.14435217 -41.11499023 26.51489258 C-47.94183129 28.20296519 -54.6900635 30.02483817 -61.41210938 32.08642578 C-69.43182946 34.50373122 -77.58363039 36.4133223 -85.71484375 38.4140625 C-92.02300553 39.97582484 -98.28704991 41.59436725 -104.5 43.5 C-111.85052222 45.7528509 -119.28557551 47.60120388 -126.75 49.4375 C-135.04763638 51.47891213 -143.30103272 53.5916745 -151.5 56 C-160.90728207 58.76325011 -170.39815821 61.12290953 -179.91796875 63.46484375 C-186.80249828 65.16900988 -193.61009618 66.99978914 -200.38916016 69.07958984 C-208.60867515 71.55700969 -216.96064533 73.54064962 -225.29492188 75.58984375 C-232.25618134 77.28807253 -232.25618134 77.28807253 -239.1640625 79.1875 C-241.99593243 79.99883464 -244.08093036 80.40542634 -247 80 C-249.05311926 78.39694876 -249.89531158 77.3657469 -250.6171875 74.84375 C-250.70226562 74.0703125 -250.78734375 73.296875 -250.875 72.5 C-250.97554688 71.7265625 -251.07609375 70.953125 -251.1796875 70.15625 C-251 68 -251 68 -249.83203125 66.33203125 C-242.17498738 60.76475628 -229.42606142 59.57996737 -220.3527832 57.35229492 C-213.69049053 55.70637719 -207.08623879 53.92666411 -200.5 52 C-192.03103156 49.52477788 -183.51010227 47.35113619 -174.94140625 45.25 C-168.41664226 43.63770311 -161.95089009 41.88519163 -155.5 40 C-148.03970186 37.81982155 -140.54863228 35.85101716 -133 34 C-125.53440398 32.16925332 -118.1266344 30.22402543 -110.75 28.0625 C-101.35376793 25.31167705 -91.87929943 22.94607971 -82.37304688 20.60791016 C-74.43604471 18.64316617 -66.57621606 16.49820517 -58.73046875 14.19921875 C-51.19686775 12.01016622 -43.60061016 10.12281666 -35.97998047 8.26293945 C-28.17580664 6.34139478 -20.45835703 4.18206432 -12.7734375 1.828125 C-8.41574694 0.52919801 -4.60091406 -0.47062785 0 0 Z " fill="#CBA3FB" transform="translate(703,274)"/>
<path d="M0 0 C3.08810106 2.7542523 3.91523454 4.46315207 4.5625 8.5625 C4 12 4 12 1.84082031 14.10571289 C-1.17693502 16.11798202 -3.49631012 16.93123532 -7.015625 17.74609375 C-8.75489258 18.16181641 -8.75489258 18.16181641 -10.52929688 18.5859375 C-11.75712891 18.86695313 -12.98496094 19.14796875 -14.25 19.4375 C-16.8079381 20.04807943 -19.36523561 20.66134896 -21.921875 21.27734375 C-23.15228516 21.57237793 -24.38269531 21.86741211 -25.65039062 22.17138672 C-29.64270591 23.15899008 -33.57270618 24.28302754 -37.5 25.5 C-46.14895194 28.15602095 -54.93172326 30.25291613 -63.71484375 32.4140625 C-70.02300553 33.97582484 -76.28704991 35.59436725 -82.5 37.5 C-89.85052222 39.7528509 -97.28557551 41.60120388 -104.75 43.4375 C-113.04763638 45.47891213 -121.30103272 47.5916745 -129.5 50 C-138.90728207 52.76325011 -148.39815821 55.12290953 -157.91796875 57.46484375 C-164.80998799 59.17086385 -171.62457179 61.00461125 -178.41113281 63.08618164 C-186.42033859 65.50011627 -194.56102517 67.4085791 -202.68188477 69.40527344 C-209.31463448 71.04649587 -215.89834413 72.76825184 -222.4375 74.75 C-227.33067976 76.2254085 -232.22682668 77.64039296 -237.1875 78.875 C-238.17105469 79.11992187 -239.15460938 79.36484375 -240.16796875 79.6171875 C-243.40566584 80.05483483 -245.84688902 79.84410478 -249 79 C-251.33122231 75.76636906 -252.0156984 73.8006185 -251.9375 69.8125 C-250.82410767 66.472323 -249.9305865 65.84009129 -247 64 C-244.67602539 63.20385742 -244.67602539 63.20385742 -242.09765625 62.60546875 C-240.65567871 62.26044312 -240.65567871 62.26044312 -239.18457031 61.90844727 C-238.15428711 61.67053467 -237.12400391 61.43262207 -236.0625 61.1875 C-228.23581313 59.31057277 -220.47030606 57.33827036 -212.75 55.0625 C-203.35429444 52.31003952 -193.879209 49.94605746 -184.37304688 47.60791016 C-176.43604471 45.64316617 -168.57621606 43.49820517 -160.73046875 41.19921875 C-153.18344122 39.00626485 -145.57250445 37.12123413 -137.94042969 35.24975586 C-131.41598369 33.63754363 -124.95061176 31.88495889 -118.5 30 C-107.93892307 26.91589893 -97.28012043 24.28263539 -86.60009766 21.64648438 C-78.47544709 19.62638346 -70.4095585 17.39321829 -62.34375 15.15234375 C-50.50040366 11.86438924 -38.666277 8.58192383 -26.72558594 5.66357422 C-23.01072978 4.75562013 -19.30810642 3.82441184 -15.62109375 2.80859375 C-14.93321777 2.61942383 -14.2453418 2.43025391 -13.53662109 2.23535156 C-11.71165667 1.72889347 -9.88892426 1.21441099 -8.06640625 0.69921875 C-5.20638486 0.04706101 -2.91248752 -0.30550568 0 0 Z " fill="#CBA3FB" transform="translate(695,242)"/>
<path d="M0 0 C2.40269918 0.00171361 4.80540022 0.00164288 7.20809937 -0.00012207 C12.22615622 0.00152543 17.24376324 0.02012174 22.26171875 0.05175781 C28.67492956 0.09147566 35.08755351 0.09579419 41.50086403 0.08829498 C46.45615967 0.08521754 51.41132482 0.09737277 56.36658859 0.11442566 C58.73073889 0.12142649 61.09490397 0.12458376 63.45906448 0.12373352 C66.76806353 0.12554259 70.07637472 0.14701854 73.38525391 0.17382812 C74.34967911 0.17089752 75.31410431 0.16796692 76.30775452 0.16494751 C87.64590027 0.30581112 97.05225267 3.59568721 105.3125 11.48046875 C110.95503275 17.59121166 115.41857842 24.68810322 115.5032959 33.18818665 C115.51478668 34.13129196 115.52627747 35.07439728 115.53811646 36.04608154 C115.54921951 37.59588715 115.54921951 37.59588715 115.56054688 39.17700195 C115.57193695 40.26685898 115.58332703 41.356716 115.59506226 42.479599 C115.69280351 52.55473183 115.74406271 62.63050757 115.78075409 72.70603657 C115.80823254 80.13973413 115.85879854 87.57246775 115.94122839 95.00576431 C116.00414816 100.88168499 116.02802302 106.7573114 116.03901672 112.63353539 C116.04937725 115.12006736 116.07170491 117.60658128 116.10661316 120.09288979 C116.31978121 136.11071026 115.9699853 148.17849338 104.9609375 160.65625 C95.37774342 169.12710906 85.01769551 170.89153041 72.59057617 170.90014648 C71.55515182 170.90847 70.51972748 170.91679352 69.45292664 170.92536926 C66.05321416 170.94932997 62.65369402 170.95822392 59.25390625 170.96484375 C56.8741297 170.97381993 54.4943537 170.98294194 52.11457825 170.99220276 C47.13423292 171.00865696 42.15395454 171.0163865 37.17358398 171.01928711 C30.81530402 171.02467023 24.45765949 171.06236394 18.09955883 171.10803127 C13.18624105 171.13787928 8.27307499 171.14501235 3.35967445 171.14601326 C1.01667683 171.15019932 -1.32632192 171.16256809 -3.66922951 171.18353081 C-20.12414252 171.31905781 -32.14088279 170.92216471 -44.53515625 158.92578125 C-52.39634304 150.31453627 -53.96665027 142.02423297 -53.9387207 130.66064453 C-53.94383163 129.58167908 -53.94894257 128.50271362 -53.95420837 127.39105225 C-53.96807035 123.83616538 -53.96715008 120.28147313 -53.96484375 116.7265625 C-53.96873261 114.24705941 -53.97306767 111.76755699 -53.97782898 109.28805542 C-53.98528396 104.094847 -53.98500516 98.90170657 -53.97973633 93.70849609 C-53.97394355 87.06529413 -53.99087188 80.4223782 -54.014081 73.77920723 C-54.02883848 68.65927513 -54.02968726 63.5394099 -54.02657127 58.4194603 C-54.02708349 55.97073692 -54.03230256 53.52200971 -54.04238319 51.07330704 C-54.05476862 47.64390371 -54.0479427 44.21503973 -54.03637695 40.78564453 C-54.04402069 39.78171661 -54.05166443 38.7777887 -54.05953979 37.74343872 C-53.97572221 26.45544222 -50.52052414 18.89566958 -42.91796875 10.71484375 C-30.52376978 -1.21553905 -16.11103523 -0.12191725 0 0 Z M-43.6640625 18.59375 C-47.12288742 23.78655048 -48.77791673 28.98942511 -48.81123352 35.1835022 C-48.81838882 36.1001062 -48.82554413 37.01671021 -48.83291626 37.96109009 C-48.83560516 38.95957977 -48.83829407 39.95806946 -48.84106445 40.98681641 C-48.84763565 42.04423035 -48.85420685 43.10164429 -48.86097717 44.19110107 C-48.88069589 47.69250562 -48.89237061 51.19386727 -48.90234375 54.6953125 C-48.90641928 55.89274456 -48.9104948 57.09017662 -48.91469383 58.3238945 C-48.93555002 64.66368182 -48.94985286 71.00344752 -48.95922852 77.34326172 C-48.97028264 83.88000434 -49.00467287 90.41640561 -49.04440022 96.95302773 C-49.07059208 101.9889284 -49.07892274 107.02474811 -49.08250999 112.06071091 C-49.08737046 114.46955034 -49.09896891 116.87838628 -49.11754799 119.28715897 C-49.14198969 122.66648352 -49.14096458 126.04492985 -49.1340332 129.42431641 C-49.14684326 130.41066071 -49.15965332 131.397005 -49.17285156 132.41323853 C-49.09800672 142.47533742 -45.85186513 150.30449862 -38.95703125 157.61328125 C-33.54618414 162.28670456 -26.56326716 165.70614209 -19.35314941 165.73419189 C-18.03295807 165.74275711 -18.03295807 165.74275711 -16.68609619 165.75149536 C-15.72298523 165.75261322 -14.75987427 165.75373108 -13.76757812 165.75488281 C-12.75093079 165.75984772 -11.73428345 165.76481262 -10.68682861 165.76992798 C-7.31464973 165.78456202 -3.94251796 165.79135556 -0.5703125 165.796875 C1.77559409 165.80262776 4.12150066 165.80838548 6.46740723 165.81414795 C11.3936383 165.82466307 16.31985303 165.83050163 21.24609375 165.83398438 C27.53945034 165.83945404 33.83258893 165.86344732 40.12587738 165.89195633 C44.97652806 165.91064433 49.82712704 165.91579171 54.67781067 165.91732025 C56.99649745 165.92033607 59.31518354 165.92832819 61.63383484 165.94150543 C64.89082019 165.95868594 68.14728378 165.95665575 71.40429688 165.95019531 C72.35121399 165.9594101 73.2981311 165.96862488 74.27374268 165.9781189 C85.2090157 165.91065336 94.52557594 163.49528309 102.3359375 155.59375 C108.77552271 147.52354021 110.63564941 141.12866568 110.65820312 130.93530273 C110.66813293 129.86144821 110.67806274 128.78759369 110.68829346 127.68119812 C110.71749134 124.12988714 110.7311352 120.57875503 110.7421875 117.02734375 C110.75369699 114.55216977 110.76521237 112.07699582 110.7767334 109.6018219 C110.79774243 104.40926281 110.80943398 99.21676553 110.81640625 94.02416992 C110.82735401 87.39216051 110.87536579 80.76097684 110.93235016 74.12922573 C110.96973012 69.01344983 110.98002096 63.89786996 110.983078 58.78196907 C110.98910678 56.3384762 111.0050815 53.89498578 111.03144836 51.45162773 C111.56833002 31.95683198 111.56833002 31.95683198 102.35681152 15.40281677 C96.54907084 9.67207631 88.16333401 5.49158122 79.94236755 5.44657898 C79.04396652 5.43942368 78.14556549 5.43226837 77.21994019 5.42489624 C76.2365567 5.42220734 75.25317322 5.41951843 74.23999023 5.41674805 C72.68334908 5.40689125 72.68334908 5.40689125 71.09526062 5.39683533 C67.65335011 5.37709108 64.21148332 5.36543529 60.76953125 5.35546875 C59.59324724 5.35139322 58.41696323 5.3473177 57.20503426 5.34311867 C50.97547709 5.3222501 44.74594199 5.30795348 38.51635742 5.29858398 C32.09280439 5.28753633 25.66959936 5.25315721 19.24616909 5.21341228 C14.29862338 5.18721534 9.35116006 5.17888923 4.4035511 5.17530251 C2.03657756 5.17044216 -0.33039244 5.15884405 -2.69729805 5.14026451 C-6.01925985 5.11581537 -9.34032856 5.11684942 -12.66235352 5.1237793 C-13.63156738 5.11096924 -14.60078125 5.09815918 -15.59936523 5.08496094 C-27.39199206 5.17414762 -35.84705861 9.89072374 -43.6640625 18.59375 Z " fill="#030105" transform="translate(770.6640625,83.40625)"/>
<path d="M0 0 C-5.87273419 6.46744145 -11.74445694 12.89744576 -18 19 C-18.44214844 19.51328857 -18.88429688 20.02657715 -19.33984375 20.55541992 C-21.35933556 22.31267478 -22.3587988 22.39060491 -25 22.515625 C-30.52216101 22.96614056 -35.66285676 24.30700626 -41 25.75 C-42.01618408 26.01949463 -43.03236816 26.28898926 -44.0793457 26.56665039 C-50.47704093 28.27717507 -56.82617109 30.11541154 -63.16308594 32.03637695 C-71.17625661 34.42098084 -79.30717719 36.34443626 -87.42358398 38.34130859 C-94.57666032 40.1121809 -101.67825004 41.99130191 -108.75 44.0625 C-119.19748274 47.12181452 -129.74457825 49.72329603 -140.31201172 52.33154297 C-144.02802479 53.2556523 -147.73556286 54.20862704 -151.4375 55.1875 C-152.50871094 55.46980469 -153.57992187 55.75210938 -154.68359375 56.04296875 C-157.81866961 56.83848115 -157.81866961 56.83848115 -159.85961914 57.93139648 C-167.72327249 61.53199067 -174.86449185 58.27169487 -182.5625 55.6875 C-183.96602209 55.23780899 -185.3703164 54.79052069 -186.77539062 54.34570312 C-190.19295165 53.25806211 -193.59888109 52.13815845 -197 51 C-197 50.67 -197 50.34 -197 50 C-194.91666667 49.47916667 -192.83333333 48.95833333 -190.75 48.4375 C-190.05543701 48.26331543 -189.36087402 48.08913086 -188.64526367 47.90966797 C-183.91337499 46.72406502 -179.17857438 45.55105943 -174.44140625 44.38671875 C-162.8096903 41.51756215 -151.22930966 38.56818093 -139.73168945 35.19970703 C-132.181446 33.0054198 -124.56704375 31.11995774 -116.93164062 29.24755859 C-110.49308073 27.65652717 -104.11425953 25.92737605 -97.75 24.0625 C-88.35376793 21.31167705 -78.87929943 18.94607971 -69.37304688 16.60791016 C-61.44419475 14.64518365 -53.59194498 12.50386426 -45.75463867 10.20581055 C-38.00326689 7.95244339 -30.18652918 5.99574632 -22.34277344 4.09155273 C-16.86978202 2.75513548 -11.51720217 1.27136604 -6.18041992 -0.5402832 C-3.75651842 -1.05133533 -2.32432243 -0.78403307 0 0 Z " fill="#CBA3FA" transform="translate(692,346)"/>
<path d="M0 0 C-0.58152832 0.30067383 -1.16305664 0.60134766 -1.76220703 0.91113281 C-12.44182933 6.44004704 -23.09073721 12.01067944 -33.625 17.8125 C-42.7955988 22.85841927 -52.071827 27.68273104 -61.38061523 32.46643066 C-70.23673638 37.02016722 -79.01627429 41.69287756 -87.73632812 46.50292969 C-96.17186471 51.13780569 -104.71816761 55.55263554 -113.28955078 59.92993164 C-115.43561007 61.03168421 -117.57108391 62.15429597 -119.69555664 63.29711914 C-123 65 -123 65 -126.67749023 66.51342773 C-133.49917425 69.49032059 -137.38302941 72.45265465 -140.18081665 79.50778198 C-141.65475161 83.8141782 -142.87693369 88.16949296 -144.0625 92.5625 C-144.57773975 94.32762212 -145.09789686 96.09131656 -145.62304688 97.85351562 C-146.63744852 101.27635868 -147.62587997 104.70497761 -148.59423828 108.14111328 C-150.50143322 114.8374977 -152.72758607 121.41971614 -155 128 C-155.33 128 -155.66 128 -156 128 C-155.67 105.23 -155.34 82.46 -155 59 C-146.00056857 54.50028429 -146.00056857 54.50028429 -142.24438477 53.05566406 C-141.39465591 52.72657043 -140.54492706 52.39747681 -139.66944885 52.05841064 C-138.76919479 51.71429138 -137.86894073 51.37017212 -136.94140625 51.015625 C-135.97722275 50.6433075 -135.01303925 50.27098999 -134.01963806 49.88739014 C-130.86860553 48.67140015 -127.71554092 47.46077151 -124.5625 46.25 C-121.22179449 44.96199931 -117.88163683 43.67258438 -114.54147339 42.38317871 C-112.28182796 41.51104559 -110.02200033 40.6393844 -107.76199341 39.76818848 C-98.47716407 36.18853187 -89.20465469 32.57804477 -79.93734741 28.95330811 C-61.23130177 21.63690141 -42.50554202 14.37163208 -23.77539062 7.1171875 C-22.76059631 6.72405365 -21.745802 6.3309198 -20.70025635 5.9258728 C-18.79715828 5.18865533 -16.89396577 4.45168159 -14.99066162 3.71499634 C-14.14070618 3.38575165 -13.29075073 3.05650696 -12.41503906 2.71728516 C-11.6364856 2.4180011 -10.85793213 2.11871704 -10.05578613 1.81036377 C-8.3789661 1.14938344 -6.72413921 0.43283235 -5.07714844 -0.29931641 C-3 -1 -3 -1 0 0 Z " fill="#8632D2" transform="translate(391,73)"/>
<path d="M0 0 C2.15174713 1.60623378 2.906388 2.49339389 3.3984375 5.15625 C3.39070312 5.9296875 3.38296875 6.703125 3.375 7.5 C3.38660156 8.66015625 3.38660156 8.66015625 3.3984375 9.84375 C2.89095871 12.59010578 2.16606195 13.25753123 0 15 C-2.54931641 15.90380859 -2.54931641 15.90380859 -5.6015625 16.6484375 C-6.72232178 16.92880859 -7.84308105 17.20917969 -8.99780273 17.49804688 C-10.19477783 17.78744141 -11.39175293 18.07683594 -12.625 18.375 C-15.1086188 18.99521395 -17.59169519 19.61760407 -20.07421875 20.2421875 C-21.87705322 20.69416504 -21.87705322 20.69416504 -23.71630859 21.15527344 C-27.65768102 22.16918783 -31.54902224 23.30188227 -35.4375 24.5 C-44.00547733 27.11250588 -52.70046301 29.19455786 -61.39599609 31.33496094 C-68.82590704 33.17513064 -76.20936344 35.12370292 -83.5625 37.25 C-84.4177124 37.49693604 -85.2729248 37.74387207 -86.15405273 37.99829102 C-89.59204269 38.99615247 -93.02505837 40.00754019 -96.453125 41.0390625 C-101.80453293 42.60354515 -106.41700065 43.69787492 -112 43 C-114.74970314 40.78249747 -115.02043359 38.92371459 -115.9375 35.5 C-116 32 -116 32 -114.58203125 29.9609375 C-110.92014412 27.17989765 -107.15833526 26.28064606 -102.75 25.125 C-101.82832031 24.87234375 -100.90664063 24.6196875 -99.95703125 24.359375 C-91.98276413 22.19722472 -83.96114534 20.21774287 -75.9375 18.24829102 C-69.49665861 16.6582083 -63.11615793 14.92788924 -56.75 13.0625 C-47.181846 10.26195133 -37.53541209 7.82611581 -27.85449219 5.44750977 C-21.6474122 3.92163981 -15.47255955 2.334127 -9.32666016 0.57641602 C-5.99935239 -0.24790441 -3.40877202 -0.4260965 0 0 Z " fill="#7819CC" transform="translate(535,189)"/>
<path d="M0 0 C2.92959597 2.096562 3.47887912 4.58143841 4.796875 7.90234375 C6.99301144 12.44577169 6.99301144 12.44577169 10.93115234 15.36621094 C15.5562733 16.71861032 20.25144774 17.17124616 25.046875 17.46484375 C25.859375 19.703125 25.859375 19.703125 26.046875 22.46484375 C23.921875 24.5078125 23.921875 24.5078125 21.046875 26.65234375 C17.32020589 30.05145819 17.32020589 30.05145819 15.66699219 34.68310547 C15.52390084 40.00631715 16.21223041 45.21687297 17.046875 50.46484375 C15.4140625 51.6484375 15.4140625 51.6484375 13.046875 52.46484375 C9.87923477 51.16337597 7.07504145 49.47100198 4.1171875 47.75 C0.45628292 46.21763663 -1.17940603 46.36584846 -4.953125 47.46484375 C-7.58227365 48.68969935 -10.06039368 50.07984571 -12.5859375 51.50390625 C-15.24908554 52.58498615 -16.31500418 52.47389457 -18.953125 51.46484375 C-19.02838959 46.7231743 -18.97233776 42.38342007 -18.140625 37.71484375 C-17.69642501 34.11119316 -17.71444493 33.77372384 -20.078125 30.71484375 C-21.026875 29.97234375 -21.975625 29.22984375 -22.953125 28.46484375 C-27.88463185 24.08128211 -27.88463185 24.08128211 -28.265625 20.65234375 C-28.1625 19.93046875 -28.059375 19.20859375 -27.953125 18.46484375 C-24.46609652 16.32681169 -21.67173297 16.34747715 -17.640625 16.21484375 C-14.13291891 15.9109979 -14.13291891 15.9109979 -10.953125 14.46484375 C-8.39432545 10.95184304 -6.79770261 7.57416815 -5.22265625 3.5546875 C-3.38145294 -0.9265181 -3.38145294 -0.9265181 0 0 Z " fill="#C08FFA" transform="translate(127.953125,441.53515625)"/>
<path d="M0 0 C2.32421875 0.1015625 2.32421875 0.1015625 5 1 C6.45703125 3.8359375 6.45703125 3.8359375 7.8125 7.375 C9.96069367 11.9534286 9.96069367 11.9534286 13.87988281 14.90576172 C18.50510303 16.25681847 23.20488538 16.70642155 28 17 C28.80859375 19.19921875 28.80859375 19.19921875 29 22 C26.91015625 24.39453125 26.91015625 24.39453125 24.0625 26.8125 C20.50313449 29.98922279 20.50313449 29.98922279 18.296875 34.07421875 C18.31364667 36.14132762 18.59095143 37.97369459 19 40 C19.20035722 41.81112382 19.38755626 43.623745 19.5625 45.4375 C19.71912109 46.70400391 19.71912109 46.70400391 19.87890625 47.99609375 C19.93884766 48.98802734 19.93884766 48.98802734 20 50 C19.67 50.33 19.34 50.66 19 51 C14.90507882 50.75430473 11.88222603 50.10100276 8.4375 47.9375 C4.64789485 45.80154073 3.2421077 45.23642061 -1 46 C-3.33314553 47.19765374 -5.54669784 48.48985958 -7.75390625 49.90625 C-10.35175376 51.17128879 -12.14642918 51.20060252 -15 51 C-16.38208346 45.77879582 -15.27277243 41.48784963 -14.3125 36.25 C-14.28688965 32.9142517 -14.99962772 32.00042042 -17.265625 29.44140625 C-19.10467632 27.71280075 -20.98623392 26.0281498 -22.91015625 24.39453125 C-23.59980469 23.60433594 -24.28945313 22.81414062 -25 22 C-24.80859375 19.19921875 -24.80859375 19.19921875 -24 17 C-22.40671875 16.91878906 -22.40671875 16.91878906 -20.78125 16.8359375 C-12.98887562 16.27881297 -12.98887562 16.27881297 -6.45703125 12.48388672 C-3.67032581 8.62706128 -1.76715468 4.40044766 0 0 Z " fill="#AF72F2" transform="translate(1043,376)"/>
<path d="M0 0 C1.66283875 2.49425813 2.60976835 4.3663342 3.62109375 7.125 C3.91693359 7.91390625 4.21277344 8.7028125 4.51757812 9.515625 C5.13038969 11.17060655 5.73977258 12.82686176 6.34570312 14.484375 C6.64283203 15.27328125 6.93996094 16.0621875 7.24609375 16.875 C7.51091553 17.59429687 7.7757373 18.31359375 8.04858398 19.0546875 C9.5349061 22.0936956 11.0904393 23.58914179 14.17651367 24.9831543 C14.99869385 25.26070557 15.82087402 25.53825684 16.66796875 25.82421875 C18.00698242 26.28344727 18.00698242 26.28344727 19.37304688 26.75195312 C20.30181641 27.06068359 21.23058594 27.36941406 22.1875 27.6875 C23.59805664 28.16799805 23.59805664 28.16799805 25.03710938 28.65820312 C27.35552825 29.44670092 29.67639543 30.22694548 32 31 C32 31.66 32 32.32 32 33 C31.40985107 33.19634033 30.81970215 33.39268066 30.21166992 33.5949707 C27.53377386 34.49164297 24.86068829 35.40189371 22.1875 36.3125 C21.25873047 36.62123047 20.32996094 36.92996094 19.37304688 37.24804688 C18.48037109 37.55419922 17.58769531 37.86035156 16.66796875 38.17578125 C15.84578857 38.45333252 15.0236084 38.73088379 14.17651367 39.0168457 C10.24032393 40.79486433 9.15455178 42.63583982 7.46484375 46.6171875 C6.94732493 48.03341546 6.43846218 49.45283115 5.9375 50.875 C5.42617137 52.28920362 4.91446122 53.70326935 4.40234375 55.1171875 C4.16370605 55.78331055 3.92506836 56.44943359 3.67919922 57.13574219 C2.83778279 59.44525185 1.93202145 61.72568927 1 64 C-2.79109401 59.79512877 -3.92898139 54.51676788 -5.48632812 49.19921875 C-6.71788174 45.38774388 -7.57819849 43.37133486 -10.64453125 40.671875 C-14.63771959 38.6822538 -18.64620617 37.15481965 -22.875 35.75 C-23.65875 35.481875 -24.4425 35.21375 -25.25 34.9375 C-27.16404067 34.28392514 -29.08166749 33.64086832 -31 33 C-31 32.34 -31 31.68 -31 31 C-30.44538086 30.80365967 -29.89076172 30.60731934 -29.31933594 30.4050293 C-26.79361143 29.5063425 -24.27183399 28.5970439 -21.75 27.6875 C-20.87730469 27.37876953 -20.00460938 27.07003906 -19.10546875 26.75195312 C-18.26113281 26.44580078 -17.41679688 26.13964844 -16.546875 25.82421875 C-15.77182617 25.54666748 -14.99677734 25.26911621 -14.19824219 24.9831543 C-10.93005848 23.52147329 -8.6158471 22.16978953 -6.91918945 18.94702148 C-6.65323975 18.17946533 -6.38729004 17.41190918 -6.11328125 16.62109375 C-5.81486328 15.78255859 -5.51644531 14.94402344 -5.20898438 14.08007812 C-4.91314453 13.20802734 -4.61730469 12.33597656 -4.3125 11.4375 C-3.70504123 9.70681557 -3.09699643 7.97633668 -2.48828125 6.24609375 C-2.22571533 5.47966553 -1.96314941 4.7132373 -1.69262695 3.92358398 C-1 2 -1 2 0 0 Z " fill="#9B4FEC" transform="translate(101,253)"/>
<path d="M0 0 C3.53631692 1.26535458 6.1382446 2.68831782 8.99609375 5.1171875 C9.71990234 5.72433594 10.44371094 6.33148438 11.18945312 6.95703125 C11.93130859 7.58996094 12.67316406 8.22289062 13.4375 8.875 C18.14708628 12.86478052 22.77397954 16.70371451 28 20 C24.10278675 24.05429862 19.94509427 27.60642256 15.5625 31.125 C14.86310303 31.68977051 14.16370605 32.25454102 13.44311523 32.83642578 C6.67778215 38.28689288 -0.14788569 43.65925663 -7 49 C-7.94746094 49.73863281 -8.89492187 50.47726563 -9.87109375 51.23828125 C-11.91254503 52.82749215 -13.95524463 54.41504411 -16 56 C-17.31471504 52.35574916 -16.66607052 50.1867159 -15.41015625 46.58203125 C-15.04140381 45.50348877 -14.67265137 44.42494629 -14.29272461 43.3137207 C-13.68376343 41.58061646 -13.68376343 41.58061646 -13.0625 39.8125 C-12.2303329 37.38590931 -11.39964001 34.95881263 -10.5703125 32.53125 C-10.14395508 31.28988281 -9.71759766 30.04851562 -9.27832031 28.76953125 C-7.25654264 22.80768113 -5.34342269 16.81220671 -3.4375 10.8125 C-3.09146729 9.72622314 -2.74543457 8.63994629 -2.38891602 7.52075195 C-1.5910886 5.01431381 -0.79470286 2.50743021 0 0 Z " fill="#CAA0FA" transform="translate(253,146)"/>
<path d="M0 0 C4.85520677 2.14385753 7.37422477 4.52244882 9.91796875 9.3046875 C11.50869728 14.07687308 11.94307496 18.78610759 10.01171875 23.53125 C7.41222689 27.9803803 4.69580748 31.14113789 -0.08203125 33.3046875 C-5.02949783 34.07949466 -8.86455727 33.84578705 -13.45703125 31.8046875 C-18.15281485 27.33251264 -20.27444841 22.80614288 -20.64453125 16.3046875 C-20.40594905 10.95715539 -18.58057064 7.30038775 -15.08203125 3.3046875 C-10.26553477 -0.88357031 -6.17871019 -2.06343417 0 0 Z " fill="#380A69" transform="translate(805.08203125,153.6953125)"/>
<path d="M0 0 C4.94621595 9.32211789 5.42181928 18.81251732 5.37109375 29.1796875 C5.3778102 30.52288843 5.38639941 31.86608114 5.39674377 33.20925903 C5.43635178 38.85092136 5.43805796 44.49249874 5.43579102 50.13427734 C5.43573934 53.60960711 5.4551812 57.08444187 5.48512459 60.55963516 C5.49574838 62.49187133 5.48390052 64.42419052 5.47129822 66.35641479 C5.57955191 79.35261512 8.35293385 90.43924385 17.73046875 99.7109375 C20.53646009 102.25057646 22.78199952 103.90950923 26.3125 105.375 C29.41915604 107.25344319 29.53113915 107.81795771 30.375 111.1875 C30.58125 112.445625 30.7875 113.70375 31 115 C21.40797165 114.47679845 13.56426968 109.97351343 7 103 C1.26069904 95.54043111 -0.31020059 88.35158557 -0.22705078 79.12719727 C-0.22734283 78.26786087 -0.22763489 77.40852448 -0.22793579 76.52314758 C-0.22655086 73.70412837 -0.21102931 70.88537886 -0.1953125 68.06640625 C-0.19157939 66.10343063 -0.18873383 64.14045313 -0.18673706 62.17747498 C-0.17912407 57.02689411 -0.15949569 51.87642717 -0.1373291 46.72589111 C-0.11682031 41.46376079 -0.1077246 36.20161195 -0.09765625 30.93945312 C-0.07624754 20.6262522 -0.04213987 10.3131356 0 0 Z " fill="#D5CBDE" transform="translate(711,144)"/>
<path d="M0 0 C0.66 0 1.32 0 2 0 C2.31453125 1.10859375 2.6290625 2.2171875 2.953125 3.359375 C3.38474096 4.82311608 3.81707029 6.28664695 4.25 7.75 C4.45496094 8.47960937 4.65992188 9.20921875 4.87109375 9.9609375 C6.16293682 14.26708106 7.27528316 17.21957757 11 20 C14.01330558 21.53588267 14.01330558 21.53588267 17.25 22.75 C18.32765625 23.17796875 19.4053125 23.6059375 20.515625 24.046875 C21.33546875 24.36140625 22.1553125 24.6759375 23 25 C19.90491879 28.09508121 15.90089449 29.05920135 11.84765625 30.5859375 C8.72762753 32.13525217 7.64497303 32.96548453 6 36 C5.17488287 38.59401373 4.45293551 41.11349896 3.8125 43.75 C3.63525391 44.44738281 3.45800781 45.14476562 3.27539062 45.86328125 C2.84199251 47.57344679 2.41985982 49.28646044 2 51 C1.34 51 0.68 51 0 51 C-0.48919922 49.31970703 -0.48919922 49.31970703 -0.98828125 47.60546875 C-1.42918517 46.13266203 -1.87061921 44.66001393 -2.3125 43.1875 C-2.52583984 42.44951172 -2.73917969 41.71152344 -2.95898438 40.95117188 C-3.17490234 40.23896484 -3.39082031 39.52675781 -3.61328125 38.79296875 C-3.80704346 38.1383667 -4.00080566 37.48376465 -4.20043945 36.80932617 C-6.24480313 32.18313406 -10.26389806 30.78341175 -14.6875 28.8125 C-15.86699219 28.28269531 -17.04648438 27.75289062 -18.26171875 27.20703125 C-19.16535156 26.80871094 -20.06898437 26.41039062 -21 26 C-17.96492785 23.44227488 -15.39951656 22.53179262 -11.625 21.4375 C-7.3596609 19.63315307 -5.66423623 17.85501492 -3.94921875 13.671875 C-2.37538458 9.17871698 -1.13728087 4.62110328 0 0 Z " fill="#C79AFA" transform="translate(1061,152)"/>
<path d="M0 0 C8.49214299 2.1934078 16.79598961 4.84214574 25.1081543 7.63232422 C26.49304548 8.09469033 27.87802745 8.55678458 29.26309204 9.01863098 C32.23072447 10.00881391 35.19771926 11.00087621 38.16422081 11.99444199 C42.90074337 13.58080329 47.63873376 15.16274921 52.37690735 16.74417114 C59.91929351 19.26208747 67.4607426 21.78279705 75.00177652 24.3047601 C89.97114942 29.31099636 104.94181228 34.31337127 119.91363001 39.31229115 C121.51981044 39.84859531 123.12597444 40.38494868 124.73212194 40.92135143 C149.116869 49.06501809 173.52014788 57.14575524 198 65 C194.50413469 66.21343587 192.41760118 65.77572322 188.93237305 64.65161133 C187.40772682 64.16837906 187.40772682 64.16837906 185.85227966 63.67538452 C184.74989456 63.31457794 183.64750946 62.95377136 182.51171875 62.58203125 C181.35756973 62.2134903 180.20342072 61.84494934 179.01429749 61.46524048 C175.88487237 60.46438377 172.75843159 59.45478196 169.63298035 58.4416008 C166.38122019 57.39009446 163.12566026 56.35051453 159.87011719 55.31079102 C158.56215927 54.89294483 157.25420639 54.47508289 155.94625854 54.0572052 C155.29968166 53.85064615 154.65310478 53.6440871 153.98693466 53.43126869 C152.02474173 52.8038555 150.06298592 52.17509308 148.10134888 51.54594421 C137.34171376 48.09653324 126.55596111 44.73857808 115.75 41.4375 C112.95306416 40.58223008 110.15619037 39.72675751 107.359375 38.87109375 C106.6573999 38.65639938 105.9554248 38.44170502 105.23217773 38.22050476 C93.14313203 34.51815185 81.07302771 30.75418058 69 27 C68.3308683 26.79196621 67.6617366 26.58393242 66.97232819 26.36959457 C58.64784771 23.78145612 50.32428497 21.19039571 42.00229836 18.59424877 C38.4533512 17.48715193 34.9041158 16.38099727 31.35424805 15.27685547 C27.82534703 14.17920745 24.29715645 13.07930364 20.76944923 11.97782516 C19.45054411 11.56642481 18.13139701 11.15579927 16.81198692 10.74602127 C10.13230711 8.67089563 3.51533529 6.5481795 -3 4 C-2.01 2.68 -1.02 1.36 0 0 Z " fill="#6110B0" transform="translate(624,417)"/>
<path d="M0 0 C0.7737648 0.16233124 1.5475296 0.32466248 2.34474182 0.49191284 C7.0787128 1.14994293 11.71059045 1.13928161 16.48413086 1.12939453 C17.52714859 1.13114685 18.57016632 1.13289917 19.64479065 1.13470459 C23.08482539 1.13909759 26.52480851 1.13619385 29.96484375 1.1328125 C32.36088572 1.13348632 34.75692762 1.134457 37.15296936 1.13571167 C42.17221732 1.13718523 47.19144747 1.13504523 52.21069336 1.13037109 C58.63767638 1.12467711 65.0646176 1.1279529 71.49159908 1.13394356 C76.43901381 1.137561 81.38641867 1.13640508 86.33383369 1.13381577 C88.70326302 1.13314961 91.07269324 1.13396402 93.44212151 1.13629532 C96.75692993 1.13884088 100.07167117 1.13495422 103.38647461 1.12939453 C104.36176117 1.13141876 105.33704773 1.13344299 106.34188843 1.13552856 C111.3368005 1.12004535 116.07636002 0.85382326 121 0 C116.44084134 4.98123061 110.53175625 7.1652115 103.85557556 7.48101807 C101.95573229 7.49246404 100.05567405 7.48231901 98.15600586 7.45410156 C97.11105957 7.45468567 96.06611328 7.45526978 94.98950195 7.45587158 C91.56426809 7.45310342 88.13992403 7.4220706 84.71484375 7.390625 C82.32874527 7.38315812 79.94264063 7.3774673 77.55653381 7.37347412 C71.29780945 7.35825313 65.03946054 7.31900136 58.78088379 7.2746582 C52.38587522 7.2336294 45.99080557 7.21544685 39.59570312 7.1953125 C27.06364256 7.15250404 14.53184132 7.08507186 2 7 C1.34 4.69 0.68 2.38 0 0 Z " fill="#8C4BD7" transform="translate(740,252)"/>
<path d="M0 0 C2.97 0.495 2.97 0.495 6 1 C-2.51152825 11.16654763 -11.73620332 20.72813448 -20.78710938 30.41210938 C-24.53911598 34.42828366 -28.27624104 38.45763065 -32 42.5 C-36.90659139 47.8264067 -41.84394139 53.12343075 -46.7890625 58.4140625 C-50.54029543 62.42969951 -54.27686457 66.45830753 -58 70.5 C-62.90659139 75.8264067 -67.84394139 81.12343075 -72.7890625 86.4140625 C-77.03026691 90.95420643 -81.24958173 95.51389736 -85.45874023 100.08374023 C-89.89548872 104.8965217 -94.36333327 109.67992359 -98.83740234 114.45800781 C-101.64257368 117.45779817 -104.43438322 120.46755956 -107.19140625 123.51171875 C-107.68825928 124.05948975 -108.1851123 124.60726074 -108.69702148 125.17163086 C-110.03283347 126.64812675 -111.3642388 128.12860608 -112.6953125 129.609375 C-114.69315276 131.68171099 -116.63894454 133.36793401 -119 135 C-117.71104283 132.18648214 -116.33731495 130.0674293 -114.20703125 127.828125 C-113.66280518 127.2503833 -113.1185791 126.6726416 -112.55786133 126.07739258 C-111.69390747 125.17283325 -111.69390747 125.17283325 -110.8125 124.25 C-109.62416621 122.98906652 -108.43665837 121.72735409 -107.25 120.46484375 C-106.6828125 119.86269043 -106.115625 119.26053711 -105.53125 118.64013672 C-103.20160544 116.14483185 -100.96819093 113.57232051 -98.73828125 110.98828125 C-96.52743511 108.45947072 -94.26403557 105.98127436 -92 103.5 C-88.54671847 99.71337002 -85.13900949 95.8952368 -81.77734375 92.02734375 C-78.94688384 88.79875322 -76.06038793 85.62086825 -73.18359375 82.43359375 C-71.29151315 80.32488854 -69.42094242 78.20080199 -67.5625 76.0625 C-63.91062947 71.86835635 -60.15733816 67.76905708 -56.41015625 63.66015625 C-53.82761116 60.80972966 -51.29344897 57.92174108 -48.76953125 55.01953125 C-44.46130252 50.10263444 -40.05313844 45.27360968 -35.671875 40.421875 C-32.25694362 36.63525041 -28.85013474 32.84416383 -25.5 29 C-20.59602822 23.37286188 -15.5803901 17.8454703 -10.56640625 12.31640625 C-9.78136719 11.44886719 -8.99632812 10.58132813 -8.1875 9.6875 C-7.47980469 8.90761719 -6.77210938 8.12773437 -6.04296875 7.32421875 C-3.94830256 4.94118551 -1.96288965 2.4922082 0 0 Z " fill="#6010AF" transform="translate(591,426)"/>
<path d="M0 0 C1.76840361 2.65260541 2.87485157 5.03068634 4.125 7.9375 C6.757656 13.30436845 9.53952815 15.00253117 15 17 C16.34025261 17.65264475 17.6756329 18.31569451 19 19 C18.19175781 19.31710937 17.38351563 19.63421875 16.55078125 19.9609375 C9.47175004 23.05214292 5.75016716 25.45597357 2.8671875 32.73046875 C2.43792969 33.85388672 2.43792969 33.85388672 2 35 C1.34 35.99 0.68 36.98 0 38 C-0.24492188 37.19175781 -0.48984375 36.38351562 -0.7421875 35.55078125 C-2.81896571 29.61406008 -4.29757824 25.67509315 -10.125 22.8125 C-12.72403464 21.75787652 -15.33881834 20.88706055 -18 20 C-18 19.34 -18 18.68 -18 18 C-16.98679687 17.63648438 -16.98679687 17.63648438 -15.953125 17.265625 C-9.0904794 14.88359739 -9.0904794 14.88359739 -4 10 C-2.51871062 6.71630256 -1.21627931 3.39005508 0 0 Z " fill="#A863F8" transform="translate(101,266)"/>
<path d="M0 0 C0.33 0 0.66 0 1 0 C0.67 37.29 0.34 74.58 0 113 C-0.33 113 -0.66 113 -1 113 C-1.00364563 112.25656845 -1.00729126 111.5131369 -1.01104736 110.74717712 C-1.04922517 103.67311904 -1.1064075 96.59951323 -1.18390274 89.52579403 C-1.223083 85.89079664 -1.25541306 82.25603082 -1.27099609 78.62084961 C-1.28636045 75.09973887 -1.32114319 71.57926614 -1.36830902 68.05844307 C-1.38993837 66.0898379 -1.39245658 64.12105158 -1.39434814 62.15232849 C-1.52321317 54.04768568 -2.74840787 47.09358963 -5.09111023 39.39572144 C-6.53675589 33.99461549 -6.62213596 28.74767607 -6.5625 23.1875 C-6.58634766 22.14658203 -6.61019531 21.10566406 -6.63476562 20.03320312 C-6.62127733 12.86192403 -5.322364 5.322364 0 0 Z " fill="#7848AF" transform="translate(717,108)"/>
<path d="M0 0 C1.3303125 0.7425 1.3303125 0.7425 2.6875 1.5 C2.0275 2.49 1.3675 3.48 0.6875 4.5 C-3.07801848 4.67566414 -6.75340312 4.42674755 -10.515625 4.21484375 C-14.93807866 4.54698276 -16.90344213 5.7400431 -20.3125 8.5 C-21.0240625 9.3971875 -21.0240625 9.3971875 -21.75 10.3125 C-23.3125 11.5 -23.3125 11.5 -27 11.1875 C-28.093125 10.960625 -29.18625 10.73375 -30.3125 10.5 C-22.22470427 0.21990799 -13.5245632 -5.72934653 0 0 Z " fill="#CBBDD9" transform="translate(621.3125,415.5)"/>
<path d="M0 0 C0.66 0 1.32 0 2 0 C2.50636607 1.74816858 3.00484619 3.49862263 3.5 5.25 C3.7784375 6.22453125 4.056875 7.1990625 4.34375 8.203125 C5 11 5 11 5 15 C-0.33333333 15 -5.66666667 15 -11 15 C-9.21885509 12.49234716 -7.42340948 9.99529316 -5.625 7.5 C-5.11710937 6.78457031 -4.60921875 6.06914062 -4.0859375 5.33203125 C-3.59609375 4.65527344 -3.10625 3.97851562 -2.6015625 3.28125 C-2.15119629 2.65283203 -1.70083008 2.02441406 -1.23681641 1.37695312 C-0.82866699 0.92255859 -0.42051758 0.46816406 0 0 Z " fill="#3E0F70" transform="translate(413,358)"/>
<path d="M0 0 C6.61242722 1.82221376 12.80520671 4.05223604 19 7 C19 7.33 19 7.66 19 8 C18.41992188 8.08636719 17.83984375 8.17273438 17.2421875 8.26171875 C11.41168056 9.3104403 8.24345436 10.86535216 4 15 C2.24265549 10.02638346 0.67415387 5.2584002 0 0 Z " fill="#3B0E6B" transform="translate(745,270)"/>
<path d="M0 0 C-6.93 3.465 -6.93 3.465 -14 7 C-13.67 5.68 -13.34 4.36 -13 3 C-10.8203125 1.69921875 -10.8203125 1.69921875 -8.125 0.6875 C-7.24070312 0.34074219 -6.35640625 -0.00601563 -5.4453125 -0.36328125 C-3 -1 -3 -1 0 0 Z " fill="#9246D7" transform="translate(391,73)"/>
<path d="M0 0 C-1.1875 1.5 -1.1875 1.5 -3 3 C-5.6875 3.1875 -5.6875 3.1875 -8 3 C-7.67 2.01 -7.34 1.02 -7 0 C-3.86650268 -1.04449911 -3.01031744 -0.93423645 0 0 Z " fill="#C396EF" transform="translate(399,69)"/>
</svg>
