<?xml version="1.0" encoding="UTF-8"?>
<svg version="1.1" xmlns="http://www.w3.org/2000/svg" width="600" height="600">
<path d="M0 0 C1.32839939 0.75037297 2.64299001 1.52554167 3.9453125 2.3203125 C4.71447998 2.77229004 5.48364746 3.22426758 6.27612305 3.68994141 C8.84502114 5.21346627 11.39480792 6.76622463 13.9453125 8.3203125 C17.58557984 10.496379 21.23416174 12.65833929 24.8828125 14.8203125 C25.79482422 15.36300781 26.70683594 15.90570312 27.64648438 16.46484375 C33.17947334 19.74162449 38.7619975 22.89500015 44.42749023 25.93725586 C47.87001352 27.82825697 51.21703245 29.86498732 54.57421875 31.90234375 C56.69730579 33.17199877 58.83782351 34.38327438 61.0078125 35.5703125 C70.25019668 40.65197925 79.30262143 46.10198464 88.3203125 51.5703125 C92.55162639 54.12344427 96.87755819 56.47478208 101.2265625 58.8203125 C103.83969126 60.26203871 106.39495465 61.77072798 108.9453125 63.3203125 C112.29555315 65.35570203 115.67809493 67.2804307 119.1328125 69.1328125 C124.31469164 71.92588211 129.35436523 74.92269459 134.37963867 77.9855957 C137.626987 79.95806896 140.89805877 81.86260362 144.2265625 83.6953125 C150.4375077 87.12051467 156.5083651 90.78042618 162.59765625 94.41601562 C168.14645568 97.71329799 173.74220541 100.88711431 179.4296875 103.93945312 C182.87194877 105.82895524 186.21785447 107.86548618 189.57421875 109.90234375 C191.69730579 111.17199877 193.83782351 112.38327438 196.0078125 113.5703125 C206.07511996 119.10554027 215.91578292 125.07411772 225.7421875 131.0234375 C228.03043237 132.37041852 230.35559546 133.6277325 232.6953125 134.8828125 C240.55706627 139.23658796 245.95573003 144.64004438 248.9453125 153.3203125 C249.19831216 155.79158813 249.19831216 155.79158813 249.20258141 158.44224262 C249.2090303 159.45744899 249.21547919 160.47265536 249.2221235 161.51862556 C249.2190263 162.6269794 249.2159291 163.73533324 249.21273804 164.87727356 C249.21726915 166.06013134 249.22180026 167.24298912 249.22646868 168.46169108 C249.23693947 171.74144796 249.23843842 175.02106697 249.23607993 178.30083525 C249.23567172 181.8394634 249.2467113 185.37805885 249.25619507 188.91667175 C249.27280528 195.84828658 249.27830463 202.77986738 249.27941982 209.71150044 C249.28037031 215.34632939 249.28448061 220.98114712 249.29082108 226.61597252 C249.3084337 242.5937954 249.31765994 258.57159143 249.31616013 274.54942409 C249.31604026 275.84137396 249.31604026 275.84137396 249.31591797 277.15942383 C249.31583621 278.02177612 249.31575445 278.88412841 249.31567021 279.77261259 C249.31485734 293.74756672 249.33399501 307.72241305 249.3621947 321.697336 C249.39092534 336.0486981 249.40473489 350.40000763 249.40300715 364.75139922 C249.4023433 372.80780602 249.40783331 380.86409983 249.42936325 388.92048073 C249.44757746 395.78007296 249.4519205 402.63950098 249.4383444 409.49910692 C249.43181582 412.99788311 249.43169311 416.49634429 249.4490509 419.99509048 C249.46445683 423.79114267 249.45522446 427.58636652 249.43978882 431.38240051 C249.45007594 432.48406219 249.46036307 433.58572386 249.47096193 434.72076923 C249.41119491 441.368535 248.39973663 445.61196323 244.9453125 451.3203125 C244.2853125 451.3203125 243.6253125 451.3203125 242.9453125 451.3203125 C242.6978125 451.9390625 242.4503125 452.5578125 242.1953125 453.1953125 C240.71760488 455.70741546 239.50576073 456.08138594 236.9453125 457.3203125 C236.6153125 458.3103125 236.2853125 459.3003125 235.9453125 460.3203125 C234.15454102 461.57543945 234.15454102 461.57543945 231.82421875 462.80859375 C230.97585449 463.26468018 230.12749023 463.7207666 229.25341797 464.19067383 C228.34736816 464.66657959 227.44131836 465.14248535 226.5078125 465.6328125 C224.66725025 466.62105882 222.82739713 467.61062709 220.98828125 468.6015625 C219.66836182 469.30925781 219.66836182 469.30925781 218.32177734 470.03125 C214.90607668 471.88402373 211.57672957 473.85962127 208.26806641 475.89575195 C200.56515187 480.6200011 192.78161378 485.21402068 185.0078125 489.8203125 C184.09580078 490.36300781 183.18378906 490.90570313 182.24414062 491.46484375 C176.71115166 494.74162449 171.1286275 497.89500015 165.46313477 500.93725586 C162.02061148 502.82825697 158.67359255 504.86498732 155.31640625 506.90234375 C153.19331921 508.17199877 151.05280149 509.38327438 148.8828125 510.5703125 C139.64042832 515.65197925 130.58800357 521.10198464 121.5703125 526.5703125 C117.34149681 529.12193688 113.01810696 531.47188957 108.671875 533.81640625 C105.16186808 535.75244159 101.74278773 537.82299524 98.31640625 539.90234375 C96.19331921 541.17199877 94.05280149 542.38327438 91.8828125 543.5703125 C82.64042832 548.65197925 73.58800357 554.10198464 64.5703125 559.5703125 C60.34149681 562.12193688 56.01810696 564.47188957 51.671875 566.81640625 C48.16186808 568.75244159 44.74278773 570.82299524 41.31640625 572.90234375 C39.19331921 574.17199877 37.05280149 575.38327438 34.8828125 576.5703125 C30.3746679 579.04898987 25.94098128 581.64828487 21.5078125 584.2578125 C20.76539307 584.69456299 20.02297363 585.13131348 19.25805664 585.58129883 C14.54683203 588.35925905 9.86171043 591.17534353 5.21875 594.06640625 C-4.98777099 599.69577607 -15.58340446 599.64515887 -27.0546875 598.3203125 C-31.36071626 596.97557262 -34.45998236 594.9954419 -38.0546875 592.3203125 C-39.81453236 591.28065031 -41.58635407 590.26109894 -43.3671875 589.2578125 C-47.38154731 586.90293214 -51.38635699 584.53215119 -55.390625 582.16015625 C-56.83248169 581.30659546 -56.83248169 581.30659546 -58.3034668 580.43579102 C-60.21975995 579.30085259 -62.13532326 578.16468067 -64.05004883 577.02709961 C-71.59639666 572.55506504 -79.16499239 568.16401012 -87.0546875 564.3203125 C-87.0546875 563.6603125 -87.0546875 563.0003125 -87.0546875 562.3203125 C-88.1065625 562.1965625 -88.1065625 562.1965625 -89.1796875 562.0703125 C-92.75923727 561.13651691 -95.01060812 559.42775207 -98.0546875 557.3203125 C-99.38478778 556.56054828 -100.72424937 555.81704793 -102.0703125 555.0859375 C-108.42930127 551.58526904 -114.64616073 547.84942167 -120.8828125 544.13671875 C-125.90356735 541.15652208 -130.94813376 538.24036967 -136.0625 535.42382812 C-138.7529025 533.93355615 -141.4045906 532.38092512 -144.0546875 530.8203125 C-147.43022104 528.84242773 -150.81042711 526.88631964 -154.2421875 525.0078125 C-163.43879872 519.93960704 -172.45180855 514.5144983 -181.4296875 509.0703125 C-185.65850319 506.51868812 -189.98189304 504.16873543 -194.328125 501.82421875 C-197.83813192 499.88818341 -201.25721227 497.81762976 -204.68359375 495.73828125 C-206.80668079 494.46862623 -208.94719851 493.25735062 -211.1171875 492.0703125 C-220.35957168 486.98864575 -229.41199643 481.53864036 -238.4296875 476.0703125 C-242.65600508 473.52019545 -246.97685373 471.17162959 -251.3203125 468.828125 C-254.86233696 466.87495151 -258.31946757 464.79799854 -261.76953125 462.6875 C-263.77265298 461.4890511 -265.79961321 460.40098848 -267.8671875 459.3203125 C-273.87269414 455.55215147 -277.95863952 449.87492222 -279.62477285 442.95133203 C-280.05092 440.34336906 -280.18115292 437.92709566 -280.18332195 435.28649998 C-280.1865464 434.29096058 -280.18977085 433.29542119 -280.193093 432.26971394 C-280.1915444 431.18334155 -280.1899958 430.09696916 -280.18840027 428.97767639 C-280.19066583 427.81790879 -280.19293138 426.65814119 -280.19526559 425.46322912 C-280.20050031 422.24805186 -280.20125056 419.03290976 -280.20007122 415.81772959 C-280.19986709 412.34868191 -280.20538702 408.87964255 -280.21012878 405.41059875 C-280.21843296 398.61601864 -280.22118351 391.82144721 -280.22174116 385.02686245 C-280.22221637 379.50452954 -280.22427134 373.98219949 -280.22744179 368.45986748 C-280.2362472 352.80394268 -280.24086126 337.14802474 -280.24011131 321.49209744 C-280.24007136 320.64819406 -280.2400314 319.80429067 -280.23999023 318.93481445 C-280.23994935 318.08988123 -280.23990847 317.244948 -280.23986635 316.37441074 C-280.23945976 302.67620064 -280.24903286 288.97801801 -280.2631286 275.27981586 C-280.27748696 261.2154923 -280.2843991 247.15118214 -280.28353482 233.08685106 C-280.2832027 225.19039178 -280.28595661 217.29396131 -280.29671288 209.39750862 C-280.30581069 202.67550431 -280.307999 195.95354187 -280.30120345 189.23153407 C-280.2979348 185.80195042 -280.297894 182.37244714 -280.3065567 178.94287109 C-280.31424172 175.22515243 -280.30965484 171.50764615 -280.30192566 167.78993225 C-280.30706922 166.70579058 -280.31221279 165.62164891 -280.31751221 164.50465447 C-280.27339499 154.92921802 -278.02768288 147.25352392 -271.1015625 140.3828125 C-261.0856207 131.93399084 -249.03015046 125.85715342 -237.53515625 119.68359375 C-234.10554851 117.79865973 -230.77088438 115.76830484 -227.42578125 113.73828125 C-225.30269421 112.46862623 -223.16217649 111.25735062 -220.9921875 110.0703125 C-211.74980332 104.98864575 -202.69737857 99.53864036 -193.6796875 94.0703125 C-189.45087181 91.51868812 -185.12748196 89.16873543 -180.78125 86.82421875 C-177.27124308 84.88818341 -173.85216273 82.81762976 -170.42578125 80.73828125 C-168.30269421 79.46862623 -166.16217649 78.25735062 -163.9921875 77.0703125 C-154.74980332 71.98864575 -145.69737857 66.53864036 -136.6796875 61.0703125 C-132.45087181 58.51868812 -128.12748196 56.16873543 -123.78125 53.82421875 C-120.27124308 51.88818341 -116.85216273 49.81762976 -113.42578125 47.73828125 C-111.30269421 46.46862623 -109.16217649 45.25735062 -106.9921875 44.0703125 C-97.74980332 38.98864575 -88.69737857 33.53864036 -79.6796875 28.0703125 C-75.45087181 25.51868812 -71.12748196 23.16873543 -66.78125 20.82421875 C-63.3740356 18.94488129 -60.05013692 16.94563287 -56.734375 14.91015625 C-54.43132344 13.54376852 -52.10770219 12.25163139 -49.7578125 10.96875 C-46.75301322 9.31527453 -43.88280399 7.57210423 -41.046875 5.64453125 C-29.32544565 -2.04011618 -13.45195087 -6.47337245 0 0 Z " fill="#8AC400" transform="translate(315.0546875,1.6796875)"/>
<path d="M0 0 C6.75026015 0 6.75026015 0 10.0234375 2.01171875 C11.09078125 2.65463867 11.09078125 2.65463867 12.1796875 3.31054688 C13.26636719 3.99213867 13.26636719 3.99213867 14.375 4.6875 C15.45007813 5.34008789 15.45007813 5.34008789 16.546875 6.00585938 C18.70762048 7.322198 20.85462852 8.65877797 23 10 C23.75442383 10.46615723 24.50884766 10.93231445 25.28613281 11.41259766 C26.00897461 11.86038574 26.73181641 12.30817383 27.4765625 12.76953125 C28.12963379 13.17405518 28.78270508 13.5785791 29.45556641 13.99536133 C31 15 31 15 32 16 C32.10902423 17.59521829 32.14851664 19.19523475 32.16062927 20.79412842 C32.1706749 21.83163239 32.18072052 22.86913635 32.19107056 23.93807983 C32.19690155 25.08612091 32.20273254 26.23416199 32.20874023 27.41699219 C32.21852402 28.6185495 32.2283078 29.82010681 32.23838806 31.05807495 C32.26842577 35.05433168 32.29004832 39.05055253 32.30859375 43.046875 C32.31189107 43.72635476 32.31518839 44.40583452 32.31858563 45.10590458 C32.34937303 51.51253318 32.3760858 57.91916637 32.39300442 64.32584763 C32.4149094 72.52532587 32.4568652 80.72414904 32.52644199 88.92336535 C32.57368049 94.68562043 32.59793784 100.44769878 32.6052013 106.21014142 C32.61015886 109.65295048 32.62524586 113.09502204 32.6649456 116.53762054 C32.70867427 120.38041824 32.7049153 124.2223742 32.69702148 128.06542969 C32.7270224 129.77534592 32.7270224 129.77534592 32.75762939 131.51980591 C32.68812265 139.04032705 32.68812265 139.04032705 30.72620964 141.77645969 C29.1497345 143.12458801 29.1497345 143.12458801 26 145 C24.97938477 145.6405835 23.95876953 146.28116699 22.90722656 146.94116211 C21.82924805 147.54710205 20.75126953 148.15304199 19.640625 148.77734375 C18.75670074 149.27809166 18.75670074 149.27809166 17.85491943 149.78895569 C15.98977192 150.84419111 14.12015642 151.8911722 12.25 152.9375 C10.4009897 153.97859849 8.552977 155.02143193 6.70568848 156.06558228 C5.50132613 156.74521799 4.29552372 157.42230847 3.08825684 158.09677124 C-1.27337464 160.54401362 -5.48318811 163.17625363 -9.62988281 165.97094727 C-12.958445 167.41613573 -15.39983797 167.35592898 -19 167 C-22.15869141 165.65820312 -22.15869141 165.65820312 -25.3515625 163.78125 C-25.93231537 163.44508667 -26.51306824 163.10892334 -27.11141968 162.76257324 C-28.95787201 161.68900914 -30.791176 160.59496492 -32.625 159.5 C-33.8312416 158.79552118 -35.03826864 158.09238544 -36.24609375 157.390625 C-39.8482407 155.28926101 -43.42805446 153.15223601 -47 151 C-47.61532593 150.62955566 -48.23065186 150.25911133 -48.86462402 149.87744141 C-59.60990006 143.39009994 -59.60990006 143.39009994 -62 141 C-62.30107117 138.74981689 -62.30107117 138.74981689 -62.36987305 135.91113281 C-62.41322029 134.31872772 -62.41322029 134.31872772 -62.45744324 132.69415283 C-62.47535416 131.54211365 -62.49326508 130.39007446 -62.51171875 129.203125 C-62.53023392 128.02159851 -62.54874908 126.84007202 -62.56782532 125.6227417 C-62.59991545 123.11770764 -62.62554177 120.61258384 -62.64526367 118.10742188 C-62.67334602 115.54267608 -62.72109546 112.97806781 -62.78881836 110.4140625 C-62.8862227 106.71793694 -62.92429342 103.02536685 -62.94921875 99.328125 C-62.98939621 98.18418274 -63.02957367 97.04024048 -63.07096863 95.8616333 C-63.02924167 88.10078304 -63.02924167 88.10078304 -60.1696167 85.04238892 C-57.84836656 83.46611198 -55.52736527 82.21392259 -53 81 C-51.83389473 80.31427079 -50.67284989 79.61980055 -49.51904297 78.91357422 C-47.89699951 77.99342529 -47.89699951 77.99342529 -46.2421875 77.0546875 C-45.65003448 76.71752716 -45.05788147 76.38036682 -44.44778442 76.0329895 C-42.59193639 74.97721477 -40.73355754 73.92599607 -38.875 72.875 C-37.01371355 71.81783575 -35.15294447 70.75976608 -33.29229736 69.70147705 C-31.54294325 68.7084978 -29.79055688 67.72086651 -28.03808594 66.73339844 C-25.64243298 65.36654405 -23.29393908 63.95204637 -20.9453125 62.5078125 C-17.87637698 60.93671288 -16.37413491 60.42173728 -13 61 C-10.68359375 62.05859375 -10.68359375 62.05859375 -8.4375 63.4375 C-5.43178251 65.26593473 -3.51107812 66.12223047 0 67 C0 44.89 0 22.78 0 0 Z " fill="#66695F" transform="translate(378,201)"/>
<path d="M0 0 C3.50083911 1.62303474 6.72931459 3.64683597 10 5.6875 C11.74951393 6.7547035 13.49954483 7.8210598 15.25 8.88671875 C16.23178223 9.52279053 17.21356445 10.1588623 18.22509766 10.81420898 C21.23549476 12.67090661 24.34402981 14.02849852 27.59912109 15.40649414 C42.38085131 22.11147775 42.38085131 22.11147775 45.17492676 28.82168579 C46.8689464 36.87063581 46.19134635 44.92004825 45.625 53.0625 C45.54882887 55.5225035 45.4823377 57.98282679 45.42578125 60.44335938 C45.27428122 64.92853752 45.11393985 69.40975429 44.80322266 73.88696289 C44.7457486 74.78040909 44.68827454 75.67385529 44.62905884 76.59437561 C43.56487056 80.6640065 40.79306721 82.48390741 37.38134766 84.70410156 C36.40214355 85.2606543 35.42293945 85.81720703 34.4140625 86.390625 C33.32448242 87.01445068 32.23490234 87.63827637 31.11230469 88.28100586 C29.95009679 88.93773911 28.78765784 89.59406364 27.625 90.25 C26.44148374 90.9221709 25.25821604 91.59477961 24.07519531 92.26782227 C21.75931258 93.58510951 19.4420959 94.89993648 17.12402344 96.21337891 C14.52402635 97.70031066 11.94662782 99.21365479 9.3828125 100.76171875 C8.43414307 101.32874512 8.43414307 101.32874512 7.46630859 101.90722656 C5.88462525 102.85668655 4.30919391 103.81654102 2.734375 104.77734375 C-0.63415419 106.28355752 -2.33365085 106.56131226 -6 106 C-9.2067674 104.63975078 -12.17837778 102.93582662 -15.1875 101.1875 C-16.0544751 100.69556152 -16.9214502 100.20362305 -17.81469727 99.69677734 C-19.63165891 98.66306528 -21.44533906 97.62356612 -23.25585938 96.57861328 C-25.94617943 95.0309612 -28.65029022 93.51060969 -31.359375 91.99609375 C-33.05262139 91.04001479 -34.74534984 90.08301783 -36.4375 89.125 C-37.22342529 88.68567139 -38.00935059 88.24634277 -38.8190918 87.79370117 C-39.92764526 87.15718628 -39.92764526 87.15718628 -41.05859375 86.5078125 C-41.70111084 86.14316895 -42.34362793 85.77852539 -43.00561523 85.40283203 C-49.6766751 80.71046944 -49.6766751 80.71046944 -50.45899963 76.57177734 C-50.64679974 73.46254425 -50.66647925 70.39207843 -50.62890625 67.27734375 C-50.63252419 65.57089439 -50.63252419 65.57089439 -50.63621521 63.82997131 C-50.63523696 61.42852283 -50.62184879 59.02705175 -50.59692383 56.62573242 C-50.56258845 52.9469766 -50.57627489 49.27061894 -50.59570312 45.59179688 C-50.58880555 43.25780226 -50.57913397 40.92381385 -50.56640625 38.58984375 C-50.57136612 37.48873764 -50.57632599 36.38763153 -50.58143616 35.25315857 C-50.56559982 34.22852005 -50.54976349 33.20388153 -50.53344727 32.14819336 C-50.52724869 31.24838242 -50.52105011 30.34857147 -50.5146637 29.42149353 C-49.66457577 25.42182846 -46.96755794 23.6532583 -43.70092773 21.44775391 C-42.87020752 20.96226074 -42.0394873 20.47676758 -41.18359375 19.9765625 C-40.25353516 19.43 -39.32347656 18.8834375 -38.36523438 18.3203125 C-37.39908203 17.76085937 -36.43292969 17.20140625 -35.4375 16.625 C-34.49841797 16.07328125 -33.55933594 15.5215625 -32.59179688 14.953125 C-26.91012706 11.63069351 -21.17370685 8.42776827 -15.37646484 5.31152344 C-13.26465571 4.14605819 -11.23277088 2.90155228 -9.1875 1.625 C-5.45905388 -0.27577645 -4.13859148 -0.5521268 0 0 Z " fill="#FDFEFC" transform="translate(240,261)"/>
<path d="M0 0 C3.05078125 1.44140625 3.05078125 1.44140625 6.3125 3.5625 C7.60203731 4.38096876 8.89390841 5.1957667 10.1875 6.0078125 C10.92355469 6.47219727 11.65960938 6.93658203 12.41796875 7.41503906 C15.47460334 9.29133178 18.5750394 11.08580763 21.6875 12.8671875 C22.56440742 13.36921944 22.56440742 13.36921944 23.45903015 13.88139343 C25.83552129 15.24005992 28.21327867 16.59648065 30.59243774 17.95046997 C32.27807364 18.91078324 33.96134872 19.87523682 35.64453125 20.83984375 C36.62784424 21.40050537 37.61115723 21.96116699 38.62426758 22.53881836 C41 24 41 24 43 26 C43.24050903 28.89797974 43.24050903 28.89797974 43.22705078 32.65283203 C43.22734283 33.33587402 43.22763489 34.01891602 43.22793579 34.72265625 C43.22654039 36.98450341 43.21096967 39.24602276 43.1953125 41.5078125 C43.19158311 43.07436951 43.18873579 44.64092884 43.18673706 46.20748901 C43.17909476 50.33394797 43.15944124 54.46026651 43.1373291 58.58666992 C43.11688346 62.79604187 43.1077381 67.00543648 43.09765625 71.21484375 C43.07619583 79.476627 43.04205279 87.73829604 43 96 C39.3718678 95.33042237 36.59130386 94.44893847 33.34765625 92.671875 C32.05891602 91.96611328 32.05891602 91.96611328 30.74414062 91.24609375 C29.85919922 90.75238281 28.97425781 90.25867188 28.0625 89.75 C26.74088867 89.03263672 26.74088867 89.03263672 25.39257812 88.30078125 C20.50500935 85.5988893 15.91795571 83.04422823 12 79 C11.5227939 76.07368108 11.40657475 73.99012073 11.58203125 71.1015625 C11.60746088 69.55470897 11.63150633 68.00783217 11.65429688 66.4609375 C11.72472309 64.04141658 11.8125068 61.62485694 11.92749023 59.20703125 C12.64899841 49.60348503 12.64899841 49.60348503 8.62280273 41.36743164 C4.63444187 38.77484859 1.0698537 37.24400172 -3.5625 36.1875 C-8.7362045 37.41037561 -14.18855581 40.18855581 -18 44 C-18.09825675 46.54496419 -18.13712864 49.06774474 -18.140625 51.61328125 C-18.15895579 53.1868634 -18.17852635 54.76043151 -18.19921875 56.33398438 C-18.22818357 58.82274958 -18.24999963 61.3106159 -18.25048828 63.79956055 C-18.25382382 66.19661816 -18.28838022 68.59158638 -18.328125 70.98828125 C-18.3210553 71.73008133 -18.3139856 72.47188141 -18.30670166 73.23616028 C-18.39339762 76.91831869 -18.63750008 78.62467243 -21.23535156 81.31445312 C-22.14768555 81.87068359 -23.06001953 82.42691406 -24 83 C-24.79728516 83.50813232 -25.59457031 84.01626465 -26.41601562 84.53979492 C-29.10659559 86.09637457 -31.79966053 87.64789792 -34.5 89.1875 C-35.43714844 89.73341797 -36.37429687 90.27933594 -37.33984375 90.84179688 C-38.24863281 91.36193359 -39.15742187 91.88207031 -40.09375 92.41796875 C-40.91552734 92.89000732 -41.73730469 93.3620459 -42.58398438 93.84838867 C-45.08753771 95.04172548 -47.25113816 95.66353217 -50 96 C-51.84207239 94.15792761 -51.156642 91.17664979 -51.17700195 88.70776367 C-51.18357315 88.05080002 -51.19014435 87.39383636 -51.19691467 86.71696472 C-51.21669076 84.53396502 -51.22832042 82.35103428 -51.23828125 80.16796875 C-51.24235678 79.42366419 -51.2464323 78.67935963 -51.25063133 77.91250038 C-51.27151164 73.9721873 -51.28580414 70.03190923 -51.29516602 66.09155273 C-51.30622771 62.01912527 -51.34061849 57.94724467 -51.38033772 53.87501049 C-51.40647481 50.74631224 -51.41485527 47.61774474 -51.41844749 44.48894691 C-51.42332197 42.98781966 -51.43496054 41.48669858 -51.45348549 39.98567772 C-51.47781447 37.88348422 -51.47692436 35.78271087 -51.4699707 33.68041992 C-51.47583694 32.48430588 -51.48170319 31.28819183 -51.48774719 30.05583191 C-50.90089237 26.37907126 -49.87513885 25.27867465 -47 23 C-44.7043457 21.51123047 -44.7043457 21.51123047 -42.17578125 20.1171875 C-41.23734375 19.59406982 -40.29890625 19.07095215 -39.33203125 18.53198242 C-38.33558594 17.98517822 -37.33914062 17.43837402 -36.3125 16.875 C-27.55232437 12.03591882 -27.55232437 12.03591882 -18.94921875 6.92578125 C-17.81262817 6.2289624 -17.81262817 6.2289624 -16.65307617 5.51806641 C-15.25879363 4.65642224 -13.87164886 3.78307397 -12.4934082 2.89599609 C-8.13962961 0.22475345 -5.07856207 -0.71806351 0 0 Z " fill="#66695E" transform="translate(115,261)"/>
<path d="M0 0 C2.5078125 1.3203125 2.5078125 1.3203125 5.125 3.125 C8.68736448 5.49675991 12.22265027 7.73776697 16 9.75 C21.39956076 12.63813715 26.70178915 15.681254 32 18.75 C32.83789062 19.23436523 33.67578125 19.71873047 34.5390625 20.21777344 C37.74994784 22.08076676 40.90990319 23.93993546 44 26 C44.44347951 28.85999033 44.64652487 31.38174098 44.6875 34.25 C44.76774414 35.37728516 44.76774414 35.37728516 44.84960938 36.52734375 C44.90547704 39.89704611 44.80040452 42.10711122 42.49560547 44.67822266 C40.40357864 46.28045989 38.26096556 47.64715233 36 49 C35.2474292 49.49242187 34.4948584 49.98484375 33.71948242 50.4921875 C31.41940315 51.99380125 29.09144924 53.43891113 26.75 54.875 C25.96109375 55.37257813 25.1721875 55.87015625 24.359375 56.3828125 C23.59625 56.85203125 22.833125 57.32125 22.046875 57.8046875 C21.02352051 58.43866455 21.02352051 58.43866455 19.97949219 59.08544922 C18 60 18 60 14 60 C14.07863281 59.01 14.15726562 58.02 14.23828125 57 C14.38247126 52.88563954 14.44657851 48.90411814 13 45 C9.17984014 41.09301833 5.2331195 38.7343365 0 37 C-5.55889403 37.29070747 -10.04822568 39.30912943 -14.6953125 42.28125 C-19.47430173 47.91883729 -18.32010704 55.96508947 -18 63 C-17.26749023 63.27908203 -16.53498047 63.55816406 -15.78027344 63.84570312 C-13.2236163 64.90716036 -10.91247883 66.09053314 -8.515625 67.46875 C-7.67032227 67.9527124 -6.82501953 68.4366748 -5.95410156 68.93530273 C-5.06174805 69.45165283 -4.16939453 69.96800293 -3.25 70.5 C-2.32928711 71.03246338 -1.40857422 71.56492676 -0.45996094 72.11352539 C1.43344277 73.20909717 3.326345 74.30553607 5.21875 75.40283203 C7.84038422 76.90833862 10.47807592 78.37938271 13.125 79.83984375 C14.66673739 80.70560324 16.2084078 81.57148201 17.75 82.4375 C18.47026367 82.82550781 19.19052734 83.21351563 19.93261719 83.61328125 C24.78704072 86.37770506 24.78704072 86.37770506 25.953125 89.78515625 C25.97632813 90.88150391 25.97632813 90.88150391 26 92 C19.64049794 95.83200765 13.2170161 99.52102511 6.625 102.9375 C5.50351562 103.52402344 4.38203125 104.11054688 3.2265625 104.71484375 C-0.21809118 106.08686682 -2.3350219 106.45252783 -6 106 C-8.38671875 104.8984375 -8.38671875 104.8984375 -10.6875 103.375 C-14.05500016 101.22796957 -17.41219274 99.1901093 -20.9375 97.3125 C-26.33727284 94.39118405 -31.67478275 91.36698499 -37 88.3125 C-37.83781006 87.83659424 -38.67562012 87.36068848 -39.53881836 86.87036133 C-40.72616577 86.18623169 -40.72616577 86.18623169 -41.9375 85.48828125 C-42.64777344 85.08134033 -43.35804688 84.67439941 -44.08984375 84.25512695 C-46.09198807 82.93955641 -47.49427991 81.86912408 -49 80 C-49.38095093 77.64733887 -49.38095093 77.64733887 -49.38818359 74.84179688 C-49.39764008 73.79060669 -49.40709656 72.7394165 -49.4168396 71.65637207 C-49.41076691 70.52195679 -49.40469421 69.3875415 -49.3984375 68.21875 C-49.40130768 67.05371948 -49.40417786 65.88868896 -49.40713501 64.68835449 C-49.40917767 62.22370925 -49.40363379 59.75904788 -49.39111328 57.29443359 C-49.37506341 53.51493185 -49.39095614 49.7364996 -49.41015625 45.95703125 C-49.40817386 43.5651018 -49.40433026 41.17317301 -49.3984375 38.78125 C-49.40451019 37.64683472 -49.41058289 36.51241943 -49.4168396 35.34362793 C-49.40738312 34.29243774 -49.39792664 33.24124756 -49.38818359 32.15820312 C-49.38579681 31.23237427 -49.38341003 30.30654541 -49.38095093 29.35266113 C-48.92559174 26.54047249 -48.21272952 25.73081768 -46 24 C-44.21059976 22.86802358 -42.38809297 21.78776878 -40.546875 20.7421875 C-39.45914795 20.12029541 -38.3714209 19.49840332 -37.25073242 18.85766602 C-36.08394023 18.19656795 -34.91702725 17.53568303 -33.75 16.875 C-24.36616924 11.56116376 -24.36616924 11.56116376 -15.12109375 6.01171875 C-14.44014648 5.58971191 -13.75919922 5.16770508 -13.05761719 4.73291016 C-11.31818813 3.64429098 -9.58649522 2.54333752 -7.85546875 1.44140625 C-4.80333784 -0.09927269 -3.34884579 -0.57516292 0 0 Z " fill="#66685F" transform="translate(490,261)"/>
<path d="M0 0 C0.74765625 0.44988281 1.4953125 0.89976562 2.265625 1.36328125 C3.30396484 1.98396484 3.30396484 1.98396484 4.36328125 2.6171875 C5.67618267 3.49158507 6.98868111 4.366588 8.30078125 5.2421875 C10.30361709 6.38495864 12.03256127 6.85184605 14.265625 7.36328125 C16.18970012 23.67680708 16.18970012 23.67680708 13.0703125 28.03222656 C9.60943924 31.07380171 5.59204176 32.83153698 1.265625 34.36328125 C0.4509375 34.65589844 -0.36375 34.94851563 -1.203125 35.25 C-6.8836511 35.50422108 -12.28209182 31.78488163 -16.375 28.07568359 C-19.46004523 24.18945744 -19.60455665 19.78417004 -19.49023438 14.98608398 C-18.95152522 10.62189852 -17.89121052 8.00786248 -14.515625 5.12890625 C-5.26660139 -1.22636575 -5.26660139 -1.22636575 0 0 Z " fill="#8EC609" transform="translate(238.734375,297.63671875)"/>
<path d="M0 0 C4.90693507 1.84306378 9.65636447 3.84450359 13 8 C15.3448548 13.68213778 15.33612249 20.31927964 13 26 C9.42925408 30.53895251 4.36101161 33.1304283 -1 35 C-5.3117718 34.87680652 -8.20449316 32.83811802 -11.75 30.5 C-12.71421875 29.8709375 -13.6784375 29.241875 -14.671875 28.59375 C-17 27 -17 27 -18 26 C-19.70489892 10.25381094 -19.70489892 10.25381094 -16.16796875 5.578125 C-13.83193092 4.07500282 -11.58328018 3.00895791 -9 2 C-8.071875 1.360625 -7.14375 0.72125 -6.1875 0.0625 C-3.43299745 -1.27540124 -2.87154944 -0.94245725 0 0 Z " fill="#89C202" transform="translate(365,298)"/>
<path d="M0 0 C3.43444625 1.40900359 5.70984269 2.39921047 8.4375 5 C9.45050988 8.54853164 9.49398037 11.45936307 8.4375 15 C6.11548372 17.56145681 3.69800057 18.89897275 0.4375 20 C-3.52227017 20 -6.44477896 18.39469692 -9.5625 16 C-10.05078125 13.08203125 -10.05078125 13.08203125 -9.875 9.8125 C-9.82988281 8.72582031 -9.78476562 7.63914062 -9.73828125 6.51953125 C-9.68027344 5.68808594 -9.62226563 4.85664063 -9.5625 4 C-3.38068182 0 -3.38068182 0 0 0 Z " fill="#676C5C" transform="translate(488.5625,304)"/>
<path d="M0 0 C0.66 0.33 1.32 0.66 2 1 C1.35125916 1.55407532 0.70251831 2.10815063 0.03411865 2.67901611 C-2.37616045 5.42920915 -2.51030843 6.54115111 -2.54589844 10.13574219 C-2.56561707 11.15649841 -2.58533569 12.17725464 -2.60565186 13.22894287 C-2.60688049 14.32386047 -2.60810913 15.41877808 -2.609375 16.546875 C-2.62591125 17.6732135 -2.64244751 18.799552 -2.65948486 19.96002197 C-2.7080613 23.55673625 -2.72935809 27.15302742 -2.75 30.75 C-2.77815147 33.18882348 -2.80807773 35.62762717 -2.83984375 38.06640625 C-2.91382293 44.04419377 -2.96540894 50.02186183 -3 56 C-3.33 56 -3.66 56 -4 56 C-4.10135462 48.66776322 -4.17144649 41.33570683 -4.21972656 34.00292969 C-4.23985164 31.50806935 -4.26715452 29.01325622 -4.30175781 26.51855469 C-4.35023457 22.93412632 -4.3729602 19.35032115 -4.390625 15.765625 C-4.41127014 14.64883362 -4.43191528 13.53204224 -4.45318604 12.38140869 C-4.45348816 11.34063171 -4.45379028 10.29985474 -4.45410156 9.22753906 C-4.46298401 8.31264709 -4.47186646 7.39775513 -4.48101807 6.45513916 C-3.85681908 3.26919776 -2.43166769 2.06371451 0 0 Z " fill="#E8F3CF" transform="translate(194,284)"/>
</svg>
