<?xml version="1.0" encoding="UTF-8"?>
<svg version="1.1" xmlns="http://www.w3.org/2000/svg" width="900" height="900">
<path d="M0 0 C1.07461739 0.00539291 1.07461739 0.00539291 2.17094421 0.01089478 C2.92211517 0.01074875 3.67328613 0.01060272 4.44721985 0.01045227 C6.94166404 0.01115153 9.43603448 0.01894452 11.9304657 0.02676392 C13.65539509 0.02862805 15.38032501 0.03005197 17.10525513 0.03105164 C21.65418448 0.03487719 26.20308211 0.04470779 30.7519989 0.05575562 C35.39025951 0.06596893 40.02852522 0.07054908 44.66679382 0.07559204 C53.77422967 0.08633003 62.88164192 0.1034069 71.98905945 0.12442017 C71.98905945 0.78442017 71.98905945 1.44442017 71.98905945 2.12442017 C72.82308289 2.1128186 73.65710632 2.10121704 74.5164032 2.08926392 C90.11215021 1.96421211 90.11215021 1.96421211 97.16093445 4.07363892 C102.31396129 5.4880922 107.49838408 6.17135635 112.78593445 6.89199829 C118.45065291 7.7215404 123.61197117 9.18040086 128.98905945 11.12442017 C130.42547695 11.60682218 131.86285704 12.08637591 133.30155945 12.56192017 C134.04792664 12.81457642 134.79429382 13.06723267 135.5632782 13.32754517 C137.2653112 13.88666712 138.97748947 14.41538658 140.6960907 14.92129517 C161.64916928 21.31661232 184.55711313 36.02009261 195.77812195 55.17910767 C197.27118223 58.12845335 198.6538724 61.10086756 199.98905945 64.12442017 C200.85530945 65.88785767 200.85530945 65.88785767 201.73905945 67.68692017 C203.2014828 71.70858439 203.90396796 75.64672586 204.55937195 79.86660767 C204.76226388 82.08510509 204.76226388 82.08510509 205.98905945 83.12442017 C206.08830276 85.36012192 206.11538372 87.59902603 206.11604309 89.83692932 C206.11760308 90.54691073 206.11916307 91.25689213 206.12077034 91.98838812 C206.12478278 94.38523391 206.12158975 96.78201718 206.11845398 99.17886353 C206.11980792 100.89003029 206.12158782 102.60119676 206.12376404 104.31236267 C206.12833952 108.97345334 206.12654825 113.63452198 206.12338495 118.29561305 C206.12086153 123.16339984 206.12319888 128.03118469 206.12477112 132.89897156 C206.12659304 141.07625672 206.12418609 149.25353286 206.11943054 157.43081665 C206.1139897 166.89600947 206.1157492 176.36118075 206.12125695 185.82637304 C206.1257896 193.93931035 206.12643782 202.05224115 206.12381828 210.16517931 C206.12225611 215.01660138 206.12206006 219.86801331 206.12535477 224.71943474 C206.12823562 229.28051579 206.12625381 233.84156898 206.12046051 238.40264702 C206.11913399 240.08047947 206.11952521 241.75831425 206.12172318 243.43614578 C206.12443894 245.71910504 206.12104826 248.00197393 206.11604309 250.28492737 C206.11566607 251.5649208 206.11528904 252.84491423 206.11490059 254.16369534 C205.98905945 257.12442017 205.98905945 257.12442017 204.98905945 259.12442017 C204.71867484 261.20520606 204.47282817 263.28920316 204.23905945 265.37442017 C201.84577047 282.54978811 193.71538001 298.28598243 180.98905945 310.12442017 C180.38835632 310.71867798 179.7876532 311.31293579 179.16874695 311.92520142 C168.99699933 321.59023836 157.19657306 326.90716953 143.98905945 331.12442017 C143.11249695 331.45699829 142.23593445 331.78957642 141.33280945 332.13223267 C130.19798581 335.43625744 119.06398617 335.42453601 107.56840515 335.42739868 C105.73576488 335.43507348 103.9031281 335.44362241 102.07049561 335.45297241 C98.14846739 335.47114547 94.22648584 335.48325063 90.30442238 335.49051094 C84.10722367 335.50205152 77.91012865 335.52752626 71.71298218 335.55482483 C61.92207514 335.59634538 52.13116306 335.62882783 42.34021014 335.65729898 C24.77184562 335.7084553 7.20352367 335.77032823 -10.36476642 335.84263939 C-16.53128409 335.86759816 -22.6977877 335.88701131 -28.86433733 335.90202153 C-32.68513285 335.91218869 -36.50590632 335.92633259 -40.32668495 335.9414978 C-42.10492054 335.947678 -43.88316309 335.95212339 -45.66140747 335.95475578 C-48.07769836 335.95853893 -50.4938908 335.96832678 -52.91015625 335.97966003 C-53.97908341 335.97908084 -53.97908341 335.97908084 -55.06960505 335.97848994 C-58.32084592 335.72352202 -58.32084592 335.72352202 -61.01094055 337.12442017 C-62.40152111 337.33901478 -63.80126646 337.4950408 -65.2023468 337.62442017 C-66.06537415 337.70692017 -66.92840149 337.78942017 -67.81758118 337.87442017 C-68.72701477 337.95692017 -69.63644836 338.03942017 -70.57344055 338.12442017 C-72.34566651 338.29012135 -74.11780352 338.45677675 -75.8898468 338.62442017 C-76.74852356 338.7056311 -77.60720032 338.78684204 -78.49189758 338.87051392 C-82.00751045 339.22486916 -85.50740738 339.66654885 -89.01094055 340.12442017 C-89.01094055 340.78442017 -89.01094055 341.44442017 -89.01094055 342.12442017 C-89.5935968 342.25977173 -90.17625305 342.39512329 -90.77656555 342.53457642 C-109.55962621 347.4666065 -124.20740308 361.03113238 -134.0460968 377.36270142 C-135.2432267 379.54855398 -136.20101153 381.768263 -137.01094055 384.12442017 C-137.67094055 384.12442017 -138.33094055 384.12442017 -139.01094055 384.12442017 C-139.38219055 386.04254517 -139.38219055 386.04254517 -139.76094055 387.99942017 C-140.52384724 391.49789226 -141.57202672 394.59928047 -143.01094055 397.87442017 C-145.17808809 402.99017736 -145.93088145 408.04394683 -146.6164093 413.53457642 C-147.01094055 416.12442017 -147.01094055 416.12442017 -148.01094055 417.12442017 C-149.02551148 423.53889225 -149.1699589 430.04006006 -149.21626282 436.52139282 C-149.22616241 437.40067444 -149.23606201 438.27995605 -149.2462616 439.18588257 C-149.27751017 442.05338981 -149.30248691 444.92091355 -149.3273468 447.78848267 C-149.3479481 449.79201658 -149.36894533 451.79554645 -149.39031982 453.79907227 C-149.44521285 459.04323027 -149.49476507 464.28742534 -149.54316711 469.53164673 C-149.59362315 474.89463556 -149.64918274 480.25757132 -149.70429993 485.62051392 C-149.81147998 496.12177054 -149.91301218 506.62307347 -150.01094055 517.12442017 C-158.20006419 517.14768008 -166.38917381 517.16540443 -174.57832241 517.17623234 C-178.38163871 517.18143147 -182.18493226 517.18847463 -185.98823547 517.19985962 C-189.66462487 517.21079473 -193.34099251 517.21671933 -197.01739693 517.21929741 C-198.41387842 517.22113263 -199.81035885 517.22471603 -201.20683098 517.23015022 C-220.36177263 517.30166552 -220.36177263 517.30166552 -229.01094055 514.12442017 C-229.7379718 513.93106079 -230.46500305 513.73770142 -231.21406555 513.53848267 C-252.73198376 507.78683786 -270.89488167 491.0032375 -282.01094055 472.12442017 C-283.34375372 469.81910815 -284.65168262 467.50873376 -285.9054718 465.15957642 C-286.7043551 463.68884072 -287.56596473 462.25159989 -288.46406555 460.83926392 C-290.33316348 457.55890265 -291.65539535 454.15874373 -292.94844055 450.62442017 C-293.20858948 449.92099487 -293.4687384 449.21756958 -293.73677063 448.49282837 C-296.07036603 442.10663978 -298.11377989 435.65338749 -300.01094055 429.12442017 C-300.40926086 427.86371704 -300.40926086 427.86371704 -300.81562805 426.57754517 C-302.96261077 419.45044789 -303.99545653 412.21035132 -305.00923157 404.85269165 C-305.12581116 404.012948 -305.24239075 403.17320435 -305.36250305 402.30801392 C-305.46385559 401.55060913 -305.56520813 400.79320435 -305.66963196 400.0128479 C-305.93418777 398.04375503 -305.93418777 398.04375503 -307.01094055 396.12442017 C-308.65626576 386.91124328 -308.15645021 377.32383737 -308.14375305 367.99942017 C-308.14442808 366.24404894 -308.14539975 364.4886778 -308.14665222 362.73330688 C-308.14811985 359.06874698 -308.14600485 355.40421158 -308.14131165 351.73965454 C-308.13561494 347.06632536 -308.13889897 342.39305364 -308.14488411 337.71972656 C-308.14851505 334.09926936 -308.14733954 330.47882555 -308.14475632 326.85836792 C-308.14409405 325.13615919 -308.14489072 323.4139492 -308.14723587 321.69174194 C-308.16571354 304.31262549 -308.16571354 304.31262549 -307.01094055 296.12442017 C-306.68094055 295.79442017 -306.35094055 295.46442017 -306.01094055 295.12442017 C-305.72597492 293.59531795 -305.49387199 292.05630156 -305.28437805 290.51504517 C-302.37405361 270.44062891 -296.55097056 252.47639954 -288.01094055 234.12442017 C-287.35094055 234.12442017 -286.69094055 234.12442017 -286.01094055 234.12442017 C-285.92844055 233.40254517 -285.84594055 232.68067017 -285.76094055 231.93692017 C-284.84816448 228.51400988 -283.2718142 226.83746854 -281.01094055 224.12442017 C-280.42054993 223.04676392 -279.8301593 221.96910767 -279.22187805 220.85879517 C-277.07139851 217.03227281 -274.4412722 213.94015836 -271.44844055 210.74942017 C-270.96697571 210.21703735 -270.48551086 209.68465454 -269.98945618 209.13613892 C-267.69442398 206.65485239 -266.26815474 205.21015823 -263.01094055 204.12442017 C-262.70156555 203.46442017 -262.39219055 202.80442017 -262.07344055 202.12442017 C-261.01094055 200.12442017 -261.01094055 200.12442017 -258.88594055 199.37442017 C-258.26719055 199.29192017 -257.64844055 199.20942017 -257.01094055 199.12442017 C-257.01094055 198.46442017 -257.01094055 197.80442017 -257.01094055 197.12442017 C-254.81011998 195.57501813 -252.63547176 194.17805671 -250.32344055 192.81192017 C-249.64805237 192.4096521 -248.97266418 192.00738403 -248.27680969 191.59292603 C-242.090205 188.00259569 -235.79861614 185.39915936 -229.01094055 183.12442017 C-228.07198283 182.79726957 -227.13302511 182.47011898 -226.16561413 182.13305473 C-213.22093634 177.99429072 -199.46269489 178.85330743 -186.0448761 178.89736938 C-183.62919622 178.89793425 -181.21351599 178.89761546 -178.7978363 178.89648438 C-172.94748942 178.89597199 -167.09720872 178.90459577 -161.24687692 178.91735969 C-154.43258979 178.93172536 -147.61831171 178.93465597 -140.80401156 178.93693604 C-128.65430538 178.94130089 -116.50462622 178.95457696 -104.35493469 178.97354126 C-92.56066522 178.99193151 -80.76640313 179.00607258 -68.97212219 179.01455688 C-68.24372368 179.01508233 -67.51532517 179.01560778 -66.76485398 179.01614915 C-63.11027481 179.01875944 -59.4556956 179.0212868 -55.80111635 179.02377295 C-25.53770448 179.04446773 4.72567225 179.08021494 34.98905945 179.12442017 C34.98905945 172.19442017 34.98905945 165.26442017 34.98905945 158.12442017 C-19.79094055 158.12442017 -74.57094055 158.12442017 -131.01094055 158.12442017 C-131.07281555 142.94442017 -131.13469055 127.76442017 -131.19844055 112.12442017 C-131.22575256 107.34199829 -131.25306458 102.55957642 -131.28120422 97.63223267 C-131.29475403 91.76504517 -131.29475403 91.76504517 -131.29727173 89.01309204 C-131.30186023 87.10258891 -131.31237352 85.19209415 -131.32766724 83.28164673 C-131.3497413 80.37752326 -131.35265475 77.47392791 -131.35151672 74.56973267 C-131.36231105 73.72725983 -131.37310537 72.88478699 -131.3842268 72.01678467 C-131.35489853 66.39669141 -130.24661032 62.28761051 -128.01094055 57.12442017 C-127.7067218 56.39352173 -127.40250305 55.66262329 -127.08906555 54.90957642 C-116.88369937 33.68048921 -93.45454779 20.86527734 -72.1242218 13.10879517 C-67.85794775 11.75986033 -63.5622994 10.73553156 -59.1867218 9.80801392 C-56.13761458 9.15168702 -53.14720338 8.37217964 -50.13594055 7.56192017 C-44.12649725 6.02536907 -38.1189032 5.26454959 -31.9679718 4.55410767 C-29.12983746 4.44267559 -29.12983746 4.44267559 -28.01094055 3.12442017 C-26.39164116 2.90931028 -24.76435052 2.75358583 -23.13594055 2.62442017 C-22.1510968 2.54192017 -21.16625305 2.45942017 -20.15156555 2.37442017 C-18.05781555 2.2077535 -15.96406555 2.04108683 -13.87031555 1.87442017 C-12.8854718 1.79192017 -11.90062805 1.70942017 -10.88594055 1.62442017 C-9.97586243 1.55223267 -9.0657843 1.48004517 -8.12812805 1.40567017 C-5.20108523 1.01683791 -3.26961215 0.00692263 0 0 Z " fill="#3771A0" transform="translate(411.0109405517578,100.87557983398438)"/>
<path d="M0 0 C9.15360899 -0.0463988 18.30717731 -0.0819075 27.46087837 -0.10362434 C31.71159147 -0.11404883 35.96222393 -0.1281836 40.21289062 -0.15087891 C44.31720647 -0.17265496 48.42144489 -0.18457867 52.52581406 -0.18975449 C54.08945814 -0.1934417 55.65309813 -0.2006419 57.21670914 -0.21146011 C59.4116548 -0.22603848 61.60628302 -0.22797531 63.80126953 -0.22705078 C65.67324509 -0.23371262 65.67324509 -0.23371262 67.58303833 -0.24050903 C71.05611048 0.00394944 73.75678441 0.77491373 77 2 C78.64456639 2.38051774 80.29042026 2.75551292 81.9375 3.125 C94.1926569 6.45973657 104.69057822 13.52564263 114 22 C114.94746094 22.84304688 114.94746094 22.84304688 115.9140625 23.703125 C129.13863256 36.14267492 137.77703789 52.34233818 144.22973633 69.05615234 C144.98600992 70.96469445 145.79642353 72.84064333 146.625 74.71875 C148.93944853 80.24186581 150.38882092 85.97327569 150 92 C150.66 92 151.32 92 152 92 C152.11593506 92.78238037 152.23187012 93.56476074 152.35131836 94.37084961 C152.87577773 97.89371734 153.40655177 101.41560466 153.9375 104.9375 C154.11990234 106.16919922 154.30230469 107.40089844 154.49023438 108.66992188 C154.66748047 109.83974609 154.84472656 111.00957031 155.02734375 112.21484375 C155.18968506 113.29886475 155.35202637 114.38288574 155.51928711 115.49975586 C155.74444917 117.93140955 155.74444917 117.93140955 157 119 C157 121.66666667 157 124.33333333 157 127 C157.33 127.33 157.66 127.66 158 128 C158.10044813 130.59982257 158.13616821 133.17310189 158.12939453 135.7734375 C158.13114685 136.58818039 158.13289917 137.40292328 158.13470459 138.24235535 C158.13912801 140.95325819 158.13618124 143.66409642 158.1328125 146.375 C158.13348592 148.25773125 158.13445627 150.14046241 158.13571167 152.02319336 C158.13718973 155.98112816 158.13503257 159.93904046 158.13037109 163.89697266 C158.12470492 168.95291969 158.12793225 174.00881328 158.13394356 179.0647583 C158.13757299 182.95970047 158.13639913 186.85463019 158.13381577 190.74957275 C158.13315145 192.61216234 158.13395751 194.47475307 158.13629532 196.33734131 C158.13885748 198.95539295 158.13493008 201.57336079 158.12939453 204.19140625 C158.13141876 204.9522905 158.13344299 205.71317474 158.13552856 206.49711609 C158.11520782 211.72988873 157.64685449 216.80654382 157 222 C156.34 222 155.68 222 155 222 C155.02707031 223.15628906 155.05414062 224.31257812 155.08203125 225.50390625 C155.07921412 229.77185835 154.51838176 233.76016683 153.6875 237.9375 C153.55287354 238.63552734 153.41824707 239.33355469 153.27954102 240.05273438 C152.38749162 244.51038969 151.2565039 248.76282619 149.6953125 253.02734375 C148.54497364 256.29094558 147.79544657 259.63464913 147 263 C146.34 263 145.68 263 145 263 C144.9278125 263.97453125 144.855625 264.9490625 144.78125 265.953125 C144.0940801 270.7584751 141.85708912 274.56853849 139.5 278.75 C138.67523365 280.24377188 137.85224069 281.73852465 137.03125 283.234375 C136.66580078 283.88631836 136.30035156 284.53826172 135.92382812 285.20996094 C134.86445375 287.1498506 134.86445375 287.1498506 134 290 C133.34 290 132.68 290 132 290 C131.77957031 290.86496094 131.55914063 291.72992187 131.33203125 292.62109375 C129.78971274 296.53342662 127.56758564 299.09826843 124.6875 302.0625 C124.21376953 302.56587891 123.74003906 303.06925781 123.25195312 303.58789062 C110.28232778 317.3026928 97.003609 327.99167839 78.8125 333.75 C78.14726318 333.96084229 77.48202637 334.17168457 76.79663086 334.38891602 C69.06273039 336.73301733 61.67555635 337.14999347 53.66725159 337.15821838 C52.12694799 337.16562535 52.12694799 337.16562535 50.55552715 337.17318195 C47.12238752 337.18851265 43.68926653 337.19690558 40.25610352 337.20532227 C37.79204648 337.21490427 35.32799107 337.22491454 32.86393738 337.23532104 C27.5629334 337.25674624 22.2619319 337.27519722 16.96090889 337.29092598 C9.29659164 337.31367209 1.63230157 337.34180824 -6.03199256 337.37124526 C-18.46784955 337.41886318 -30.90371769 337.46214301 -43.33959961 337.50268555 C-55.4174079 337.54207003 -67.49520631 337.5835033 -79.57299805 337.62768555 C-80.31790788 337.63040982 -81.06281771 337.63313409 -81.83030056 337.63594092 C-85.56742406 337.64962088 -89.30454741 337.66334106 -93.04167068 337.67708123 C-124.02776017 337.79095485 -155.01387065 337.89751612 -186 338 C-186 344.27 -186 350.54 -186 357 C-103.83 357.495 -103.83 357.495 -20 358 C-19.9175 373.118125 -19.835 388.23625 -19.75 403.8125 C-19.71358398 408.56760986 -19.67716797 413.32271973 -19.63964844 418.22192383 C-19.62158203 424.07556152 -19.62158203 424.07556152 -19.6182251 426.82499695 C-19.61212484 428.72538511 -19.59814462 430.6257588 -19.57769775 432.52604675 C-19.36820475 453.04002741 -19.36820475 453.04002741 -24 462 C-24.37332458 462.75098465 -24.74664917 463.5019693 -25.13128662 464.27571106 C-25.41796204 464.84472641 -25.70463745 465.41374176 -26 466 C-26.66 466 -27.32 466 -28 466 C-28.25265625 466.72832031 -28.5053125 467.45664062 -28.765625 468.20703125 C-35.68025891 483.85248457 -56.07816334 493.76944974 -71.12304688 499.859375 C-91.86888348 507.87782051 -113.72908661 512.56728057 -135.86791992 514.40478516 C-139.75433904 514.37136094 -139.75433904 514.37136094 -143 516 C-145.58100756 516.10039611 -148.13527897 516.13617269 -150.71679688 516.12939453 C-151.52488297 516.13114685 -152.33296906 516.13289917 -153.1655426 516.13470459 C-155.8499666 516.13912376 -158.53432528 516.13618489 -161.21875 516.1328125 C-163.07580579 516.13348552 -164.9328615 516.13445553 -166.78991699 516.13571167 C-170.68726437 516.13718873 -174.58458887 516.13503382 -178.48193359 516.13037109 C-183.489345 516.1246738 -188.49670281 516.12795276 -193.50411224 516.13394356 C-197.34039721 516.13754895 -201.17666937 516.13641069 -205.01295471 516.13381577 C-206.85982774 516.13314644 -208.70670192 516.13397513 -210.55357361 516.13629532 C-213.13014832 516.13882149 -215.70663501 516.13498177 -218.28320312 516.12939453 C-219.0541481 516.13141876 -219.82509308 516.13344299 -220.61940002 516.13552856 C-225.88573745 516.11426255 -225.88573745 516.11426255 -227 515 C-228.85575964 514.80239596 -230.71256455 514.61226958 -232.57226562 514.45605469 C-269.11584593 511.35440728 -311.22085388 500.62005498 -337.3203125 473.02734375 C-346.16236107 462.35519675 -352.82949664 451.36117082 -354.640625 437.43359375 C-354.87108738 434.99803325 -354.87108738 434.99803325 -356 433 C-356.08677856 430.82306903 -356.10591641 428.64335785 -356.0957489 426.46472168 C-356.09393091 425.78559267 -356.09211291 425.10646365 -356.09023982 424.40675497 C-356.08282994 422.11943051 -356.06813612 419.83221048 -356.0534668 417.54492188 C-356.04659909 415.9088304 -356.04014954 414.27273712 -356.03408813 412.63664246 C-356.01611959 408.17904922 -355.99155449 403.72151517 -355.96532798 399.2639637 C-355.94383794 395.53509123 -355.92517413 391.80620657 -355.90639621 388.07731962 C-355.8618143 379.26261528 -355.81153398 370.44795525 -355.75805664 361.63330078 C-355.70322976 352.57572516 -355.65910751 343.51814177 -355.62020558 334.46048498 C-355.58627272 326.6665539 -355.54489757 318.87268473 -355.49788028 311.07882166 C-355.46996291 306.4325953 -355.44486999 301.78639916 -355.4272213 297.14012146 C-355.4102865 292.75373247 -355.38395379 288.3674917 -355.35091019 283.98119545 C-355.34039087 282.38589086 -355.33299112 280.79056154 -355.32924461 279.19522667 C-355.2537463 250.04288261 -355.2537463 250.04288261 -350 237 C-349.26932749 234.71712165 -348.55580235 232.42936469 -347.84375 230.140625 C-341.5024384 214.05248261 -325.86787629 198.86790253 -310.3359375 191.78515625 C-308 191 -308 191 -305 191 C-305 190.34 -305 189.68 -305 189 C-304.13117188 188.73445312 -303.26234375 188.46890625 -302.3671875 188.1953125 C-300.63855469 187.66550781 -300.63855469 187.66550781 -298.875 187.125 C-297.16957031 186.60292969 -297.16957031 186.60292969 -295.4296875 186.0703125 C-293.35172685 185.42183731 -291.28294016 184.74120619 -289.23541451 184.00223446 C-277.08694526 180.23900274 -263.73266334 180.70018755 -251.14111328 180.69702148 C-249.30950555 180.68933939 -247.47790129 180.68078915 -245.64630127 180.67144775 C-241.7385331 180.65332939 -237.83081121 180.64118998 -233.92300797 180.63390923 C-227.74621757 180.62233203 -221.56953005 180.59684342 -215.39279175 180.56959534 C-205.63508354 180.52814129 -195.87737026 180.49562667 -186.11961639 180.46712118 C-168.60556584 180.41589037 -151.09155762 180.35403909 -133.57758129 180.28178078 C-127.43308284 180.25684932 -121.28859838 180.23742447 -115.144068 180.22239864 C-111.33742894 180.21222401 -107.53081192 180.19808047 -103.72418976 180.18292236 C-101.95443361 180.17674839 -100.18467051 180.17229948 -98.41490555 180.16966438 C-96.00793665 180.16587415 -93.60106579 180.15607928 -91.19412231 180.14476013 C-90.48714553 180.14514626 -89.78016875 180.1455324 -89.05176842 180.14593023 C-85.40279212 180.16610187 -85.40279212 180.16610187 -82 179 C-79.9617688 178.70792357 -77.92295619 178.41930576 -75.88134766 178.15185547 C-59.67916054 175.95810522 -46.88584493 171.12086606 -34 161 C-33.17886719 160.37351562 -32.35773438 159.74703125 -31.51171875 159.1015625 C-13.62267567 144.4566464 -3.92307993 118.60381632 -1.21429634 96.26353455 C-0.84220982 92.33331956 -0.82138586 88.40826217 -0.79467773 84.46289062 C-0.78477814 83.54488678 -0.77487854 82.62688293 -0.76467896 81.68106079 C-0.73330933 78.67281598 -0.70840444 75.66455543 -0.68359375 72.65625 C-0.66300299 70.56017669 -0.64200598 68.46410734 -0.62062073 66.36804199 C-0.56561916 60.87067888 -0.51611386 55.37327967 -0.46777344 49.87585449 C-0.41739769 44.25834976 -0.3617958 38.64089698 -0.30664062 33.0234375 C-0.19932738 22.01566946 -0.09782361 11.00785617 0 0 Z " fill="#FFD242" transform="translate(639,283)"/>
<path d="M0 0 C1.01964844 -0.01417969 2.03929687 -0.02835938 3.08984375 -0.04296875 C11.12107768 0.57968933 18.39552459 6.34901795 23.81640625 12.0234375 C29.55791792 19.59880514 29.79227458 28.04794216 29.0625 37.1875 C26.00711249 47.54186879 18.9287276 53.85180195 9.875 59 C1.71362267 61.54206835 -6.012503 60.93833728 -13.7578125 57.375 C-20.93883567 53.46275799 -26.34512444 46.96462669 -28.9375 39.1875 C-30.10011003 19.28898215 -30.10011003 19.28898215 -23.98046875 11.7890625 C-16.90446833 4.33937211 -10.41732507 0.06568301 0 0 Z " fill="#FFFEFB" transform="translate(553.9375,677.8125)"/>
<path d="M0 0 C7.5359588 4.73213884 13.67749393 9.40827175 16.65625 18.109375 C17.24629795 21.40002704 17.20664243 24.66921803 17.1875 28 C17.19330078 29.0209375 17.19330078 29.0209375 17.19921875 30.0625 C17.18922061 35.12155878 17.18922061 35.12155878 16.0625 37.375 C15.4025 37.375 14.7425 37.375 14.0625 37.375 C13.96066406 38.1175 13.85882813 38.86 13.75390625 39.625 C12.04020524 46.44107633 5.7333114 50.99436994 -0.04296875 54.46484375 C-6.71053091 57.6680231 -15.56000449 57.43737464 -22.609375 55.7265625 C-31.03018915 52.32919955 -36.94124682 45.38401981 -40.9375 37.375 C-43.24238847 30.34363138 -42.83531389 21.46692822 -40.1640625 14.6015625 C-36.2201823 7.44228953 -30.26706733 1.42354315 -22.734375 -1.83984375 C-14.81520598 -4.06296243 -7.33111535 -3.81661088 0 0 Z " fill="#FBFCFC" transform="translate(364.9375,157.625)"/>
<path d="M0 0 C0.33 0 0.66 0 1 0 C1.02936502 3.81248345 1.04692035 7.62493726 1.0625 11.4375 C1.07087891 12.50677734 1.07925781 13.57605469 1.08789062 14.67773438 C1.10684631 20.87624228 0.82063259 26.8549481 0 33 C-0.66 33 -1.32 33 -2 33 C-1.97292969 34.15628906 -1.94585938 35.31257813 -1.91796875 36.50390625 C-1.92078588 40.77185835 -2.48161824 44.76016683 -3.3125 48.9375 C-3.44712646 49.63552734 -3.58175293 50.33355469 -3.72045898 51.05273438 C-4.61250838 55.51038969 -5.7434961 59.76282619 -7.3046875 64.02734375 C-8.45502636 67.29094558 -9.20455343 70.63464913 -10 74 C-10.66 74 -11.32 74 -12 74 C-12.0721875 74.97453125 -12.144375 75.9490625 -12.21875 76.953125 C-12.9059199 81.7584751 -15.14291088 85.56853849 -17.5 89.75 C-18.32476635 91.24377188 -19.14775931 92.73852465 -19.96875 94.234375 C-20.33419922 94.88631836 -20.69964844 95.53826172 -21.07617188 96.20996094 C-22.13554625 98.1498506 -22.13554625 98.1498506 -23 101 C-23.66 101 -24.32 101 -25 101 C-25.22042969 101.86496094 -25.44085937 102.72992187 -25.66796875 103.62109375 C-27.21028726 107.53342662 -29.43241436 110.09826843 -32.3125 113.0625 C-32.78623047 113.56587891 -33.25996094 114.06925781 -33.74804688 114.58789062 C-46.71767222 128.3026928 -59.996391 138.99167839 -78.1875 144.75 C-79.18535522 145.06626343 -79.18535522 145.06626343 -80.20336914 145.38891602 C-87.93726961 147.73301733 -95.32444365 148.14999347 -103.33274841 148.15821838 C-104.87305201 148.16562535 -104.87305201 148.16562535 -106.44447285 148.17318195 C-109.87761248 148.18851265 -113.31073347 148.19690558 -116.74389648 148.20532227 C-119.20795352 148.21490427 -121.67200893 148.22491454 -124.13606262 148.23532104 C-129.4370666 148.25674624 -134.7380681 148.27519722 -140.03909111 148.29092598 C-147.70340836 148.31367209 -155.36769843 148.34180824 -163.03199256 148.37124526 C-175.46784955 148.41886318 -187.90371769 148.46214301 -200.33959961 148.50268555 C-212.4174079 148.54207003 -224.49520631 148.5835033 -236.57299805 148.62768555 C-237.31790788 148.63040982 -238.06281771 148.63313409 -238.83030056 148.63594092 C-242.56742406 148.64962088 -246.30454741 148.66334106 -250.04167068 148.67708123 C-281.02776017 148.79095485 -312.01387065 148.89751612 -343 149 C-343 155.27 -343 161.54 -343 168 C-260.83 168.495 -260.83 168.495 -177 169 C-176.9175 184.118125 -176.835 199.23625 -176.75 214.8125 C-176.71358398 219.56760986 -176.67716797 224.32271973 -176.63964844 229.22192383 C-176.62158203 235.07556152 -176.62158203 235.07556152 -176.6182251 237.82499695 C-176.61212484 239.72538511 -176.59814462 241.6257588 -176.57769775 243.52604675 C-176.36820475 264.04002741 -176.36820475 264.04002741 -181 273 C-181.37332458 273.75098465 -181.74664917 274.5019693 -182.13128662 275.27571106 C-182.41796204 275.84472641 -182.70463745 276.41374176 -183 277 C-183.66 277 -184.32 277 -185 277 C-185.37898438 278.09248047 -185.37898438 278.09248047 -185.765625 279.20703125 C-191.71908888 292.67768529 -208.87757559 302.58369731 -222 308 C-222.66 308 -223.32 308 -224 308 C-224 307.34 -224 306.68 -224 306 C-223.11699219 305.5875 -222.23398437 305.175 -221.32421875 304.75 C-203.22116447 296.11549463 -190.30503343 284.8415708 -181 267 C-179.70273132 262.75567968 -179.82464253 258.50161782 -179.79467773 254.10058594 C-179.78464501 253.18818272 -179.77461229 252.2757795 -179.76427555 251.33572769 C-179.73291906 248.38530253 -179.70813108 245.43486393 -179.68359375 242.484375 C-179.66518768 240.66161667 -179.64635086 238.83886263 -179.6270752 237.01611328 C-179.55866079 230.26079306 -179.49858671 223.50539046 -179.4375 216.75 C-179.293125 201.6525 -179.14875 186.555 -179 171 C-234.11 171 -289.22 171 -346 171 C-346 147 -346 147 -345 146 C-343.66491909 145.90228345 -342.32471964 145.87337472 -340.98606777 145.87250805 C-339.68115844 145.86799658 -339.68115844 145.86799658 -338.34988731 145.86339396 C-337.3831951 145.86514433 -336.41650288 145.86689471 -335.42051697 145.86869812 C-334.4018964 145.86658241 -333.38327583 145.86446669 -332.33378798 145.86228687 C-328.89170422 145.85625535 -325.44965679 145.85728928 -322.00756836 145.8581543 C-319.55065345 145.85512467 -317.09373911 145.85160377 -314.63682556 145.84762573 C-309.32919647 145.83971773 -304.02157478 145.83456371 -298.71394157 145.83133507 C-290.31241204 145.82583964 -281.91092316 145.80894015 -273.50941467 145.78999329 C-270.6342879 145.78363553 -267.75916103 145.77732712 -264.88403416 145.77101612 C-264.16533358 145.76943236 -263.446633 145.7678486 -262.70615361 145.76621684 C-254.51658907 145.7482642 -246.32702162 145.7320492 -238.13745117 145.71704102 C-237.38857872 145.71566514 -236.63970626 145.71428927 -235.8681407 145.71287171 C-223.76721121 145.69100228 -211.66629216 145.68020122 -199.56534641 145.67267027 C-187.1305344 145.66457524 -174.69581143 145.64120209 -162.26105028 145.6047166 C-154.59973521 145.58277812 -146.93860373 145.57300031 -139.27725888 145.57921693 C-133.3862962 145.58279193 -127.4955081 145.56540038 -121.60459328 145.54053879 C-119.20054976 145.53365685 -116.79647554 145.53346786 -114.39243317 145.54073906 C-98.41754929 145.58414665 -84.75454006 144.54282694 -70 138 C-69.24074219 137.68417969 -68.48148438 137.36835937 -67.69921875 137.04296875 C-44.52075437 127.18649555 -27.60816076 107.03676289 -17.25 84.375 C-15.91534481 80.77143098 -14.81232415 77.14349757 -13.74609375 73.453125 C-13.11395848 71.37469071 -12.35154707 69.33657728 -11.5625 67.3125 C-5.03778869 50.02713914 -3.14340597 31.33392329 -2 13 C-1.34 13 -0.68 13 0 13 C0 8.71 0 4.42 0 0 Z " fill="#FFE182" transform="translate(796,472)"/>
<path d="M0 0 C0 0.66 0 1.32 0 2 C-0.58265625 2.13535156 -1.1653125 2.27070313 -1.765625 2.41015625 C-20.54868566 7.34218633 -35.19646253 20.90671221 -45.03515625 37.23828125 C-46.23228615 39.42413381 -47.19007097 41.64384283 -48 44 C-48.66 44 -49.32 44 -50 44 C-50.37125 45.918125 -50.37125 45.918125 -50.75 47.875 C-51.51290669 51.37347209 -52.56108617 54.47486031 -54 57.75 C-56.16714754 62.86575719 -56.9199409 67.91952666 -57.60546875 73.41015625 C-58 76 -58 76 -59 77 C-60.01457092 83.41447208 -60.15901835 89.9156399 -60.20532227 96.39697266 C-60.21522186 97.27625427 -60.22512146 98.15553589 -60.23532104 99.0614624 C-60.26656962 101.92896965 -60.29154635 104.79649338 -60.31640625 107.6640625 C-60.33700754 109.66759641 -60.35800478 111.67112629 -60.37937927 113.6746521 C-60.4342723 118.9188101 -60.48382452 124.16300517 -60.53222656 129.40722656 C-60.5826826 134.77021539 -60.63824219 140.13315116 -60.69335938 145.49609375 C-60.80053943 155.99735038 -60.90207163 166.49865331 -61 177 C-69.18912364 177.02325991 -77.37823326 177.04098426 -85.56738186 177.05181217 C-89.37069816 177.0570113 -93.17399171 177.06405447 -96.97729492 177.07543945 C-100.65368432 177.08637456 -104.33005196 177.09229916 -108.00645638 177.09487724 C-109.40293787 177.09671247 -110.7994183 177.10029586 -112.19589043 177.10573006 C-131.35083208 177.17724536 -131.35083208 177.17724536 -140 174 C-140.72703125 173.80664062 -141.4540625 173.61328125 -142.203125 173.4140625 C-163.72104321 167.6624177 -181.88394112 150.87881734 -193 132 C-194.33281317 129.69468798 -195.64074207 127.38431359 -196.89453125 125.03515625 C-197.68765259 123.57502828 -198.54507803 122.14914648 -199.44140625 120.75 C-201.41373352 117.27000401 -202.75680984 113.68799113 -204.125 109.9375 C-204.38925781 109.23044922 -204.65351563 108.52339844 -204.92578125 107.79492188 C-206.12391066 104.55632335 -207.20490571 101.35897185 -208 98 C-207.01 98 -206.02 98 -205 98 C-204.74605469 98.86882812 -204.49210937 99.73765625 -204.23046875 100.6328125 C-203.88628906 101.78523437 -203.54210937 102.93765625 -203.1875 104.125 C-202.85105469 105.26195312 -202.51460938 106.39890625 -202.16796875 107.5703125 C-201.03386999 110.9005423 -199.60843076 113.87775204 -198 117 C-197.835 117.721875 -197.67 118.44375 -197.5 119.1875 C-197.13539874 121.09083713 -197.13539874 121.09083713 -195.625 122.375 C-194 124 -194 124 -192.66796875 126.69921875 C-185.04531327 141.78386484 -173.23346644 155.38326678 -158 163 C-158 163.66 -158 164.32 -158 165 C-154.7 165.99 -151.4 166.98 -148 168 C-148 168.66 -148 169.32 -148 170 C-146.6078125 170.185625 -146.6078125 170.185625 -145.1875 170.375 C-143.01452103 170.67556938 -140.88360477 171.02490219 -138.73783875 171.48397827 C-130.5991716 173.1955585 -122.54761493 173.34733189 -114.26953125 173.4140625 C-112.78308589 173.43281584 -111.29665072 173.4523922 -109.81022644 173.4727478 C-105.93555764 173.52363581 -102.06085448 173.56349054 -98.18603516 173.60089111 C-94.21703906 173.6412057 -90.24818047 173.69217139 -86.27929688 173.7421875 C-78.51962627 173.83843222 -70.75988798 173.92299805 -63 174 C-63.00444122 172.94780777 -63.00888245 171.89561554 -63.01345825 170.8115387 C-63.05425962 160.8245859 -63.08410568 150.83765035 -63.10362434 140.85063267 C-63.11399686 135.71801299 -63.12803451 130.58546138 -63.15087891 125.45288086 C-63.17284305 120.48616315 -63.18461753 115.51951031 -63.18975449 110.55274773 C-63.19340844 108.6716402 -63.20054153 106.79053564 -63.21146011 104.90945625 C-63.26256401 95.7277537 -63.15394771 86.65070843 -62.11279297 77.51928711 C-62.03508226 76.8298253 -61.95737156 76.14036348 -61.87730598 75.43000889 C-61.392795 71.67047973 -60.53615396 68.45899832 -59 65 C-58.69790353 63.6315288 -58.426402 62.25590605 -58.1875 60.875 C-56.97260435 55.17723358 -54.54574683 50.2110453 -52 45 C-51.53335938 43.99324219 -51.06671875 42.98648438 -50.5859375 41.94921875 C-47.41195844 35.27028421 -43.77550062 29.63158388 -39 24 C-37.8553125 22.54980469 -37.8553125 22.54980469 -36.6875 21.0703125 C-33.97964456 17.82620251 -30.92042783 15.29495583 -27.5625 12.75 C-27.01529297 12.316875 -26.46808594 11.88375 -25.90429688 11.4375 C-22.41951786 8.76514876 -19.23303543 7.14924039 -15 6 C-15 5.34 -15 4.68 -15 4 C-13.25307205 3.32532438 -11.50231475 2.66055844 -9.75 2 C-8.77546875 1.62875 -7.8009375 1.2575 -6.796875 0.875 C-4 0 -4 0 0 0 Z " fill="#719198" transform="translate(322,441)"/>
<path d="M0 0 C0.66 0 1.32 0 2 0 C2.20496094 1.07121094 2.40992188 2.14242187 2.62109375 3.24609375 C2.89302709 4.64326851 3.16517352 6.04040181 3.4375 7.4375 C3.57220703 8.14455078 3.70691406 8.85160156 3.84570312 9.58007812 C4.28406898 13.08429264 4.28406898 13.08429264 6 16 C6.09924332 18.23570175 6.12632427 20.47460587 6.12698364 22.71250916 C6.12932363 23.77748126 6.12932363 23.77748126 6.13171089 24.86396796 C6.13572333 27.26081374 6.1325303 29.65759702 6.12939453 32.05444336 C6.13074848 33.76561012 6.13252837 35.47677659 6.13470459 37.1879425 C6.13928007 41.84903317 6.1374888 46.51010181 6.1343255 51.17119288 C6.13180208 56.03897968 6.13413943 60.90676453 6.13571167 65.77455139 C6.13753359 73.95183655 6.13512665 82.12911269 6.13037109 90.30639648 C6.12493025 99.7715893 6.12668975 109.23676058 6.1321975 118.70195287 C6.13673015 126.81489018 6.13737837 134.92782098 6.13475883 143.04075915 C6.13319666 147.89218122 6.13300061 152.74359315 6.13629532 157.59501457 C6.13917617 162.15609563 6.13719436 166.71714882 6.13140106 171.27822685 C6.13007454 172.9560593 6.13046576 174.63389408 6.13266373 176.31172562 C6.13537949 178.59468488 6.13198881 180.87755376 6.12698364 183.1605072 C6.1264181 185.08049735 6.1264181 185.08049735 6.12584114 187.03927517 C6 190 6 190 5 192 C4.72961539 194.0807859 4.48376872 196.16478299 4.25 198.25 C1.85671102 215.42536795 -6.27367944 231.16156227 -19 243 C-19.60070312 243.59425781 -20.20140625 244.18851563 -20.8203125 244.80078125 C-30.99206011 254.46581819 -42.79248639 259.78274937 -56 264 C-57.59328125 264.56074219 -57.59328125 264.56074219 -59.21875 265.1328125 C-62 266 -62 266 -65 266 C-65 265.34 -65 264.68 -65 264 C-64.46632813 263.83918945 -63.93265625 263.67837891 -63.3828125 263.51269531 C-60.91957065 262.76583868 -58.4598364 262.00799403 -56 261.25 C-55.16082031 260.99734375 -54.32164062 260.7446875 -53.45703125 260.484375 C-49.30360271 259.19649018 -45.42693296 257.8034075 -41.5625 255.796875 C-38 254 -38 254 -35 254 C-35 253.34 -35 252.68 -35 252 C-33.3828125 250.80859375 -33.3828125 250.80859375 -31.125 249.4375 C-16.82684894 240.15269436 -6.01112128 226.7737799 -2 210 C-1.34 210 -0.68 210 0 210 C1.63643795 198.23085377 2.29046419 186.73504605 2.25878906 174.8605957 C2.2615079 173.11727758 2.26507378 171.37396061 2.26940918 169.63064575 C2.27842744 164.95108027 2.27503371 160.27160423 2.26865101 155.59203744 C2.26353809 150.66456145 2.26829678 145.73709242 2.27142334 140.80961609 C2.27504669 132.54290409 2.27030588 124.27622801 2.26074219 116.00952148 C2.24984997 106.48513584 2.2533954 96.9608358 2.264395 87.43645221 C2.27350165 79.21854148 2.27473702 71.00065635 2.26951766 62.7827422 C2.26641786 57.89204106 2.26593359 53.00138002 2.27259064 48.11068153 C2.27841329 43.51320683 2.27427824 38.91584147 2.26280212 34.31837845 C2.2601821 32.64234917 2.26087447 30.96631052 2.26532745 29.29028511 C2.28935292 19.32031731 1.73023176 9.84835706 0 0 Z " fill="#869D96" transform="translate(611,168)"/>
<path d="M0 0 C0.33 0 0.66 0 1 0 C1.33 7.26 1.66 14.52 2 22 C57.11 22 112.22 22 169 22 C169.0825 37.118125 169.165 52.23625 169.25 67.8125 C169.28641602 72.56760986 169.32283203 77.32271973 169.36035156 82.22192383 C169.37841797 88.07556152 169.37841797 88.07556152 169.3817749 90.82499695 C169.38787516 92.72538511 169.40185538 94.6257588 169.42230225 96.52604675 C169.63179525 117.04002741 169.63179525 117.04002741 165 126 C164.62667542 126.75098465 164.25335083 127.5019693 163.86871338 128.27571106 C163.58203796 128.84472641 163.29536255 129.41374176 163 130 C162.34 130 161.68 130 161 130 C160.74734375 130.72832031 160.4946875 131.45664062 160.234375 132.20703125 C154.28091112 145.67768529 137.12242441 155.58369731 124 161 C123.34 161 122.68 161 122 161 C122 160.34 122 159.68 122 159 C123.32451172 158.38125 123.32451172 158.38125 124.67578125 157.75 C142.77883553 149.11549463 155.69496657 137.8415708 165 120 C166.29726868 115.75567968 166.17535747 111.50161782 166.20532227 107.10058594 C166.21535499 106.18818272 166.22538771 105.2757795 166.23572445 104.33572769 C166.26708094 101.38530253 166.29186892 98.43486393 166.31640625 95.484375 C166.33481232 93.66161667 166.35364914 91.83886263 166.3729248 90.01611328 C166.44133921 83.26079306 166.50141329 76.50539046 166.5625 69.75 C166.706875 54.6525 166.85125 39.555 167 24 C111.89 24 56.78 24 0 24 C0 16.08 0 8.16 0 0 Z " fill="#FFDA68" transform="translate(450,619)"/>
<path d="M0 0 C9.15360899 -0.0463988 18.30717731 -0.0819075 27.46087837 -0.10362434 C31.71159147 -0.11404883 35.96222393 -0.1281836 40.21289062 -0.15087891 C44.31720647 -0.17265496 48.42144489 -0.18457867 52.52581406 -0.18975449 C54.08945814 -0.1934417 55.65309813 -0.2006419 57.21670914 -0.21146011 C59.4116548 -0.22603848 61.60628302 -0.22797531 63.80126953 -0.22705078 C65.67324509 -0.23371262 65.67324509 -0.23371262 67.58303833 -0.24050903 C71.05611048 0.00394944 73.75678441 0.77491373 77 2 C78.64456639 2.38051774 80.29042026 2.75551292 81.9375 3.125 C98.86601223 7.73139788 114.8611956 19.80567384 125 34 C125 34.66 125 35.32 125 36 C124.34 36 123.68 36 123 36 C121.6817255 34.41324397 120.42158611 32.7780801 119.1875 31.125 C113.30128312 23.73856226 105.70679307 16.90013733 97 13 C97 12.34 97 11.68 97 11 C95.25014646 10.52029877 93.50011109 10.04126076 91.75 9.5625 C90.77546875 9.29566406 89.8009375 9.02882813 88.796875 8.75390625 C86.53627347 8.14455416 84.27377991 7.55761745 82 7 C82 6.34 82 5.68 82 5 C81.32453125 4.93941406 80.6490625 4.87882812 79.953125 4.81640625 C79.06109375 4.73261719 78.1690625 4.64882813 77.25 4.5625 C76.36828125 4.48128906 75.4865625 4.40007812 74.578125 4.31640625 C72 4 72 4 70.24591064 3.49305725 C67.29978482 2.84627787 64.50383491 2.83497489 61.48730469 2.79467773 C60.84298492 2.78477814 60.19866516 2.77487854 59.53482056 2.76467896 C57.41387555 2.73319571 55.29290819 2.70835897 53.171875 2.68359375 C51.69784985 2.66301282 50.22383045 2.64201605 48.74981689 2.62062073 C44.87667509 2.5655176 41.00348105 2.51605666 37.13024902 2.46777344 C33.17532726 2.41747237 29.22048102 2.36183129 25.265625 2.30664062 C17.51048068 2.19920295 9.75527342 2.09772626 2 2 C2.00222061 3.13481812 2.00444122 4.26963623 2.00672913 5.43884277 C2.02702824 16.14970286 2.04200475 26.86055904 2.05181217 37.57143402 C2.0570238 43.07757877 2.06409018 48.58370796 2.07543945 54.08984375 C2.0863295 59.40664319 2.0922898 64.72342769 2.09487724 70.04023743 C2.09672047 72.06553889 2.10031981 74.09083957 2.10573006 76.11613464 C2.11302169 78.95960234 2.11398752 81.80300879 2.11352539 84.64648438 C2.11712067 85.47799011 2.12071594 86.30949585 2.12442017 87.16619873 C2.11162892 94.47154604 1.43658373 101.05665237 -1 108 C-1.57217133 110.45141296 -2.11344296 112.91022517 -2.625 115.375 C-2.88539063 116.62023437 -3.14578125 117.86546875 -3.4140625 119.1484375 C-3.60742188 120.08945312 -3.80078125 121.03046875 -4 122 C-4.66 122 -5.32 122 -6 122 C-6.10957031 122.67546875 -6.21914063 123.3509375 -6.33203125 124.046875 C-6.49058594 124.93890625 -6.64914062 125.8309375 -6.8125 126.75 C-6.96332031 127.63171875 -7.11414063 128.5134375 -7.26953125 129.421875 C-8.06384917 132.22535002 -9.16506192 133.76717994 -11 136 C-11.556875 137.010625 -12.11375 138.02125 -12.6875 139.0625 C-19.71699557 151.49725163 -29.41921987 162.9375043 -42 170 C-42.99 170 -43.98 170 -45 170 C-45 170.66 -45 171.32 -45 172 C-46.76641683 172.6987693 -48.53832664 173.38366583 -50.3125 174.0625 C-51.29863281 174.44535156 -52.28476562 174.82820312 -53.30078125 175.22265625 C-56 176 -56 176 -59 175 C-58.18917969 174.64808594 -57.37835937 174.29617188 -56.54296875 173.93359375 C-32.56713736 163.24355484 -17.27130835 147.30327328 -7.78515625 122.87109375 C-3.4087755 110.20436154 -0.88529244 97.84865653 -0.79467773 84.46289062 C-0.78477814 83.54488678 -0.77487854 82.62688293 -0.76467896 81.68106079 C-0.73330933 78.67281598 -0.70840444 75.66455543 -0.68359375 72.65625 C-0.66300299 70.56017669 -0.64200598 68.46410734 -0.62062073 66.36804199 C-0.56561916 60.87067888 -0.51611386 55.37327967 -0.46777344 49.87585449 C-0.41739769 44.25834976 -0.3617958 38.64089698 -0.30664062 33.0234375 C-0.19932738 22.01566946 -0.09782361 11.00785617 0 0 Z " fill="#FFDF79" transform="translate(639,283)"/>
<path d="M0 0 C0.66 0 1.32 0 2 0 C2 7.92 2 15.84 2 24 C-79.51 24 -161.02 24 -245 24 C-245 23.34 -245 22.68 -245 22 C-164.15 22 -83.3 22 0 22 C0 14.74 0 7.48 0 0 Z " fill="#98A999" transform="translate(446,258)"/>
<path d="M0 0 C0.66 0 1.32 0 2 0 C2.00146656 0.87169327 2.00293312 1.74338654 2.00444412 2.64149475 C2.04159306 23.91077571 2.1007145 45.17989834 2.18390274 66.4490509 C2.22361027 76.73491659 2.2560447 87.02070669 2.27099609 97.30664062 C2.28405572 106.27815266 2.31112967 115.24949779 2.35461307 124.22091579 C2.37713138 128.96553296 2.3929165 133.70994502 2.39188385 138.45462036 C2.3911315 142.93301279 2.40931003 147.41095346 2.44116783 151.88922882 C2.44959112 153.52084538 2.45146917 155.15251308 2.44580269 156.78414154 C2.40370095 170.78717432 4.24569315 183.49202434 11 196 C10.505 196.99 10.505 196.99 10 198 C4.44795173 190.2667899 1.68704844 182.96223297 0.39453125 173.50390625 C0.13092685 171.00972926 0.13092685 171.00972926 -1 169 C-1.08255956 166.78256599 -1.09708346 164.56251851 -1.08229065 162.34359741 C-1.07906152 161.65176821 -1.07583239 160.95993901 -1.07250541 160.2471453 C-1.06039531 157.91780092 -1.04102983 155.58857243 -1.02172852 153.25927734 C-1.01158943 151.59398147 -1.00189536 149.92868284 -0.99261475 148.26338196 C-0.96609664 143.73261526 -0.93332475 139.20191249 -0.89946485 134.67119551 C-0.86515849 129.93996888 -0.83655525 125.20870793 -0.80735779 120.47744751 C-0.75116879 111.51370284 -0.68981998 102.55000115 -0.62663645 93.58630335 C-0.5549673 83.38333244 -0.4890213 73.18032708 -0.42356598 62.97731471 C-0.2887643 41.98483173 -0.14674309 20.99240268 0 0 Z " fill="#FFE07F" transform="translate(284,547)"/>
<path d="M0 0 C0 0.66 0 1.32 0 2 C-0.57105469 2.15855469 -1.14210938 2.31710938 -1.73046875 2.48046875 C-12.99082099 5.72072909 -23.51864094 10.07672828 -33.90625 15.44921875 C-36.57002198 16.78446809 -39.21574009 17.9455135 -42 19 C-42 19.66 -42 20.32 -42 21 C-43.57421875 22.3671875 -43.57421875 22.3671875 -45.6875 23.875 C-46.42226563 24.41382813 -47.15703125 24.95265625 -47.9140625 25.5078125 C-49.45054334 26.60694299 -51.00244387 27.68459581 -52.5625 28.75 C-59.85991595 35.48607626 -66.55418713 45.79440128 -67.1053791 55.93959999 C-67.16295041 58.32824508 -67.18917528 60.7154482 -67.20532227 63.10473633 C-67.21522186 64.01254852 -67.22512146 64.92036072 -67.23532104 65.85568237 C-67.26683635 68.84777239 -67.29165401 71.83987828 -67.31640625 74.83203125 C-67.33698439 76.90997219 -67.35798108 78.98790902 -67.37937927 81.06584167 C-67.43451114 86.52872386 -67.48395956 91.99164327 -67.53222656 97.45458984 C-67.58250651 103.03160913 -67.63815866 108.60857451 -67.69335938 114.18554688 C-67.80083226 125.12365185 -67.90230131 136.06180366 -68 147 C-68.66 147 -69.32 147 -70 147 C-70.06960295 135.01250913 -70.12286364 123.02506658 -70.15543652 111.03741455 C-70.17107224 105.47067105 -70.19227242 99.90406611 -70.22631836 94.33740234 C-70.25898623 88.96223595 -70.27686876 83.58720261 -70.28463173 78.21194458 C-70.29016189 76.16429552 -70.30096092 74.11665349 -70.31719017 72.06906128 C-70.33906303 69.19432002 -70.34196279 66.32012399 -70.34057617 63.4453125 C-70.351362 62.60445602 -70.36214783 61.76359955 -70.3732605 60.89726257 C-70.34404141 55.2751042 -69.23651381 51.16513962 -67 46 C-66.69578125 45.26910156 -66.3915625 44.53820312 -66.078125 43.78515625 C-55.72189393 22.24224161 -32.23841125 9.89723114 -10.734375 1.875 C-7.08174682 0.70615898 -3.83888469 0 0 0 Z " fill="#40759D" transform="translate(350,112)"/>
<path d="M0 0 C0 0.66 0 1.32 0 2 C-4.9922788 2.81453152 -9.83496068 3.14935717 -14.89633179 3.15148926 C-16.04355601 3.15783787 -16.04355601 3.15783787 -17.21395648 3.16431475 C-19.76031555 3.17726476 -22.30664338 3.18334763 -24.85302734 3.18945312 C-26.68492826 3.19740117 -28.51682732 3.20578957 -30.34872437 3.21458435 C-34.28447297 3.23259899 -38.22021758 3.24762916 -42.15598679 3.26036072 C-48.37376298 3.28061267 -54.59149285 3.30825753 -60.80923462 3.33703613 C-75.121552 3.40215915 -89.43390342 3.45773392 -103.7462616 3.51302338 C-116.88101893 3.56383372 -130.01575926 3.61664481 -143.15047419 3.67754889 C-149.33789303 3.70595572 -155.52530617 3.72952938 -161.71275783 3.74947357 C-165.54994722 3.76281678 -169.3871101 3.78023027 -173.2242775 3.79878426 C-175.0105701 3.80656899 -176.79687115 3.81262591 -178.58317566 3.81687737 C-181.01068609 3.82288339 -183.43809213 3.8349109 -185.86557007 3.84851074 C-186.58159877 3.84880673 -187.29762748 3.84910272 -188.03535402 3.84940767 C-191.29891402 3.59581316 -191.29891402 3.59581316 -194 5 C-196.85877909 5.23701239 -199.69883297 5.42219182 -202.5625 5.5625 C-203.36880859 5.60568359 -204.17511719 5.64886719 -205.00585938 5.69335938 C-207.00368805 5.79975262 -209.0018207 5.90040888 -211 6 C-211 5.34 -211 4.68 -211 4 C-206.26597032 2.13785519 -202.01346401 1.71023247 -196.98509216 1.72825623 C-196.19536784 1.72316939 -195.40564351 1.71808255 -194.59198815 1.71284157 C-191.95507425 1.69821945 -189.31834801 1.69764807 -186.68139648 1.69702148 C-184.78716673 1.68935763 -182.89294038 1.68081075 -180.99871826 1.67144775 C-176.92435268 1.6531871 -172.85003283 1.64113706 -168.77563286 1.63390923 C-162.3341817 1.62241623 -155.89283178 1.59695734 -149.45143127 1.56959534 C-139.26488877 1.52796218 -129.07834139 1.49553946 -118.89175421 1.46712118 C-100.64439168 1.41613148 -82.39707155 1.35398655 -64.14978081 1.28178078 C-57.74520019 1.25686073 -51.34063289 1.23742814 -44.93602169 1.22239864 C-40.95442112 1.21219717 -36.97284131 1.1980511 -32.99125671 1.18292236 C-31.14375358 1.17676519 -29.29624388 1.17230681 -27.44873238 1.16966438 C-24.92842449 1.16585359 -22.40820811 1.1560378 -19.88792419 1.14476013 C-18.78948005 1.14533933 -18.78948005 1.14533933 -17.66884512 1.14593023 C-11.67350934 1.10845844 -6.01469338 -0.11793516 0 0 Z " fill="#538097" transform="translate(544,433)"/>
<path d="M0 0 C0 0.66 0 1.32 0 2 C-0.58265625 2.13535156 -1.1653125 2.27070313 -1.765625 2.41015625 C-20.54868566 7.34218633 -35.19646253 20.90671221 -45.03515625 37.23828125 C-46.23228615 39.42413381 -47.19007097 41.64384283 -48 44 C-48.66 44 -49.32 44 -50 44 C-50.2475 45.27875 -50.495 46.5575 -50.75 47.875 C-51.51290669 51.37347209 -52.56108617 54.47486031 -54 57.75 C-56.16714754 62.86575719 -56.9199409 67.91952666 -57.60546875 73.41015625 C-58 76 -58 76 -59 77 C-59.23287008 78.68183948 -59.41264166 80.3712416 -59.5625 82.0625 C-59.64628906 82.98160156 -59.73007812 83.90070313 -59.81640625 84.84765625 C-59.87699219 85.55792969 -59.93757813 86.26820313 -60 87 C-60.66 87 -61.32 87 -62 87 C-62.14127335 79.1985715 -61.95962342 72.3120108 -59 65 C-58.71551128 63.62776028 -58.44635524 62.25230522 -58.1875 60.875 C-56.97260435 55.17723358 -54.54574683 50.2110453 -52 45 C-51.30003906 43.48986328 -51.30003906 43.48986328 -50.5859375 41.94921875 C-47.41195844 35.27028421 -43.77550062 29.63158388 -39 24 C-38.236875 23.03320312 -37.47375 22.06640625 -36.6875 21.0703125 C-33.97964456 17.82620251 -30.92042783 15.29495583 -27.5625 12.75 C-27.01529297 12.316875 -26.46808594 11.88375 -25.90429688 11.4375 C-22.41951786 8.76514876 -19.23303543 7.14924039 -15 6 C-15 5.34 -15 4.68 -15 4 C-13.25307205 3.32532438 -11.50231475 2.66055844 -9.75 2 C-8.77546875 1.62875 -7.8009375 1.2575 -6.796875 0.875 C-4 0 -4 0 0 0 Z " fill="#97A899" transform="translate(322,441)"/>
<path d="M0 0 C0.99 0 1.98 0 3 0 C3.25394531 0.86882813 3.50789063 1.73765625 3.76953125 2.6328125 C4.28580078 4.36144531 4.28580078 4.36144531 4.8125 6.125 C5.14894531 7.26195312 5.48539062 8.39890625 5.83203125 9.5703125 C6.96613001 12.9005423 8.39156924 15.87775204 10 19 C10.165 19.721875 10.33 20.44375 10.5 21.1875 C10.86460126 23.09083713 10.86460126 23.09083713 12.375 24.375 C14 26 14 26 15.33203125 28.69921875 C22.95468673 43.78386484 34.76653356 57.38326678 50 65 C50 65.66 50 66.32 50 67 C53.3 67.99 56.6 68.98 60 70 C60 70.66 60 71.32 60 72 C61.5778125 72.185625 61.5778125 72.185625 63.1875 72.375 C66.45958771 72.91140782 69.00536076 73.63880035 72 75 C66.12701457 76.93982434 60.66436612 74.23620445 55.2890625 71.7421875 C35.5803999 61.40784579 21.50623727 46.52251676 11.10546875 27.03515625 C10.31234741 25.57502828 9.45492197 24.14914648 8.55859375 22.75 C6.58626648 19.27000401 5.24319016 15.68799113 3.875 11.9375 C3.47861328 10.87692383 3.47861328 10.87692383 3.07421875 9.79492188 C1.87608934 6.55632335 0.79509429 3.35897185 0 0 Z " fill="#9CAC9A" transform="translate(114,539)"/>
<path d="M0 0 C3.8307124 3.35187335 5.81073246 7.0014323 8 11.5 C8.34885254 12.20688965 8.69770508 12.9137793 9.05712891 13.64208984 C11.93509019 19.60117845 14.11093936 25.65948953 16 32 C16.350625 33.0003125 16.70125 34.000625 17.0625 35.03125 C17.91103317 37.71827169 18.37094357 40.08037924 18.625 42.875 C18.69976563 43.65617187 18.77453125 44.43734375 18.8515625 45.2421875 C18.92503906 46.11230469 18.92503906 46.11230469 19 47 C19.66 47 20.32 47 21 47 C21.11593506 47.78238037 21.23187012 48.56476074 21.35131836 49.37084961 C21.87577773 52.89371734 22.40655177 56.41560466 22.9375 59.9375 C23.11990234 61.16919922 23.30230469 62.40089844 23.49023438 63.66992188 C23.66748047 64.83974609 23.84472656 66.00957031 24.02734375 67.21484375 C24.18968506 68.29886475 24.35202637 69.38288574 24.51928711 70.49975586 C24.74444917 72.93140955 24.74444917 72.93140955 26 74 C26 76.66666667 26 79.33333333 26 82 C26.495 82.495 26.495 82.495 27 83 C27.08737645 84.85369611 27.10698153 86.71067541 27.09765625 88.56640625 C27.09443359 89.69111328 27.09121094 90.81582031 27.08789062 91.97460938 C27.07951172 93.15861328 27.07113281 94.34261719 27.0625 95.5625 C27.05798828 96.75037109 27.05347656 97.93824219 27.04882812 99.16210938 C27.03699675 102.10812226 27.02051287 105.05403681 27 108 C26.67 108 26.34 108 26 108 C25.95101562 107.20078125 25.90203125 106.4015625 25.8515625 105.578125 C25.77679687 104.47984375 25.70203125 103.3815625 25.625 102.25 C25.55539062 101.18265625 25.48578125 100.1153125 25.4140625 99.015625 C25.13162494 95.74520467 24.601404 92.54596361 24.0390625 89.3125 C23.15765994 84.18999574 22.56312207 79.08920288 22.0625 73.91748047 C20.27025023 55.75134879 17.18323097 36.46199181 8.5625 20.125 C6.04216817 15.19820675 3.98614987 10.16052041 2 5 C1.33534427 3.33253036 0.66920731 1.66564816 0 0 Z " fill="#FFE38A" transform="translate(770,328)"/>
<path d="M0 0 C0.33 0 0.66 0 1 0 C0.60947024 17.39632552 -7.6669424 32.910208 -19.3125 45.5 C-20.6428125 46.7375 -20.6428125 46.7375 -22 48 C-22.60070312 48.59425781 -23.20140625 49.18851562 -23.8203125 49.80078125 C-33.99206011 59.46581819 -45.79248639 64.78274937 -59 69 C-60.0621875 69.37382812 -61.124375 69.74765625 -62.21875 70.1328125 C-65 71 -65 71 -68 71 C-68 70.34 -68 69.68 -68 69 C-67.19949219 68.75878418 -67.19949219 68.75878418 -66.3828125 68.51269531 C-63.91957065 67.76583868 -61.4598364 67.00799403 -59 66.25 C-58.16082031 65.99734375 -57.32164062 65.7446875 -56.45703125 65.484375 C-52.30360271 64.19649018 -48.42693296 62.8034075 -44.5625 60.796875 C-41 59 -41 59 -38 59 C-38 58.34 -38 57.68 -38 57 C-36.3828125 55.80859375 -36.3828125 55.80859375 -34.125 54.4375 C-19.82684894 45.15269436 -9.01112128 31.7737799 -5 15 C-4.34 15 -3.68 15 -3 15 C-2.92652344 14.12988281 -2.92652344 14.12988281 -2.8515625 13.2421875 C-2.40350595 8.56076908 -1.701979 4.42514541 0 0 Z " fill="#A2AF9A" transform="translate(614,363)"/>
<path d="M0 0 C0 0.66 0 1.32 0 2 C-0.57105469 2.15855469 -1.14210938 2.31710938 -1.73046875 2.48046875 C-12.99082099 5.72072909 -23.51864094 10.07672828 -33.90625 15.44921875 C-36.57002198 16.78446809 -39.21574009 17.9455135 -42 19 C-42 19.66 -42 20.32 -42 21 C-43.57421875 22.3671875 -43.57421875 22.3671875 -45.6875 23.875 C-46.42226563 24.41382813 -47.15703125 24.95265625 -47.9140625 25.5078125 C-49.45054334 26.60694299 -51.00244387 27.68459581 -52.5625 28.75 C-61.74800293 37.22892579 -66.3070797 47.88225471 -68 60 C-68.66 60 -69.32 60 -70 60 C-69.94273567 47.05826236 -63.11488669 36.08517943 -54.12890625 27.13671875 C-40.94116614 15.16957431 -18.5282004 0 0 0 Z " fill="#9DAC99" transform="translate(350,112)"/>
<path d="M0 0 C0.66 0 1.32 0 2 0 C3.26660762 1.64421131 4.46305546 3.3427295 5.625 5.0625 C12.86840925 15.23714501 22.9535272 22.86239303 34.25390625 28.16015625 C36 29 36 29 38.75 30.6875 C40.87482994 31.92698413 42.59632085 32.55487423 45 33 C45 33.66 45 34.32 45 35 C45.54527344 35.10957031 46.09054687 35.21914063 46.65234375 35.33203125 C52.2634834 36.51180933 57.59098895 38.11335182 63 40 C64.6242249 40.54398644 66.24921251 41.08570156 67.875 41.625 C69.25 42.08333333 70.625 42.54166667 72 43 C73.485 43.495 73.485 43.495 75 44 C75 44.66 75 45.32 75 46 C47.21981626 39.79417709 15.96041645 26.99760589 0 2 C0 1.34 0 0.68 0 0 Z " fill="#FFE38A" transform="translate(295,745)"/>
<path d="M0 0 C1.35814777 4.0744433 -0.05254238 6.81468116 -1.4375 10.6875 C-1.68048828 11.38939453 -1.92347656 12.09128906 -2.17382812 12.81445312 C-2.7744944 14.54578532 -3.38619719 16.27328137 -4 18 C-4.66 18 -5.32 18 -6 18 C-6.66 22.29 -7.32 26.58 -8 31 C-8.66 31 -9.32 31 -10 31 C-11.79566279 44.98504429 -13.39966646 58.9914691 -15 73 C-15.99 73 -16.98 73 -18 73 C-17.85978195 70.35375716 -17.71310224 67.70815422 -17.5625 65.0625 C-17.52318359 64.30775391 -17.48386719 63.55300781 -17.44335938 62.77539062 C-17.11328125 57.11328125 -17.11328125 57.11328125 -16 56 C-15.71503437 54.47089778 -15.48293144 52.9318814 -15.2734375 51.390625 C-12.66079742 33.38265634 -8.28102146 16.2949132 0 0 Z " fill="#889F98" transform="translate(121,340)"/>
<path d="M0 0 C0.66 0 1.32 0 2 0 C1.59524765 7.15062486 -0.82523652 12.62704304 -4 19 C-4.66 19 -5.32 19 -6 19 C-6.37898437 20.09248047 -6.37898437 20.09248047 -6.765625 21.20703125 C-12.71908888 34.67768529 -29.87757559 44.58369731 -43 50 C-43.66 50 -44.32 50 -45 50 C-45 49.34 -45 48.68 -45 48 C-44.11699219 47.5875 -43.23398437 47.175 -42.32421875 46.75 C-24.62359529 38.30743964 -10.53859888 26.9731 -2 9 C-0.9450186 5.89639193 -0.40079745 3.2636364 0 0 Z " fill="#FFE287" transform="translate(617,730)"/>
<path d="M0 0 C1.17679972 3.43498297 0.81887767 5.56282473 -0.25 9 C-0.62898437 10.2684375 -0.62898437 10.2684375 -1.015625 11.5625 C-2.04003762 14.09914076 -3.30340803 15.86929311 -5 18 C-5.556875 19.010625 -6.11375 20.02125 -6.6875 21.0625 C-13.71699557 33.49725163 -23.41921987 44.9375043 -36 52 C-36.99 52 -37.98 52 -39 52 C-39 52.66 -39 53.32 -39 54 C-40.76641683 54.6987693 -42.53832664 55.38366583 -44.3125 56.0625 C-45.29863281 56.44535156 -46.28476562 56.82820313 -47.30078125 57.22265625 C-50 58 -50 58 -53 57 C-52.18917969 56.64808594 -51.37835937 56.29617188 -50.54296875 55.93359375 C-26.59133572 45.2543441 -11.8424189 29.42949206 -1.90234375 5.33984375 C-1.23240253 3.57306854 -0.60824421 1.78895357 0 0 Z " fill="#FFE38C" transform="translate(633,401)"/>
<path d="M0 0 C0.66 0 1.32 0 2 0 C2.06058594 0.78246094 2.12117188 1.56492187 2.18359375 2.37109375 C2.26738281 3.38300781 2.35117188 4.39492188 2.4375 5.4375 C2.55931641 6.95150391 2.55931641 6.95150391 2.68359375 8.49609375 C2.73211468 10.93640779 2.73211468 10.93640779 4 12 C4.28643064 13.83705518 4.51519727 15.68317519 4.71875 17.53125 C4.84636719 18.65144531 4.97398438 19.77164062 5.10546875 20.92578125 C5.5 24.5 5.5 24.5 5.89453125 28.07421875 C6.02214844 29.19441406 6.14976563 30.31460937 6.28125 31.46875 C6.39533203 32.50451172 6.50941406 33.54027344 6.62695312 34.60742188 C6.75093673 36.94751359 6.75093673 36.94751359 8 38 C8.36547163 39.44592382 8.68080987 40.90462437 8.97265625 42.3671875 C9.14990234 43.25277344 9.32714844 44.13835938 9.50976562 45.05078125 C9.69216797 45.98277344 9.87457031 46.91476562 10.0625 47.875 C10.24876953 48.79925781 10.43503906 49.72351563 10.62695312 50.67578125 C12 57.60639881 12 57.60639881 12 61 C11.34 61 10.68 61 10 61 C6.66896038 49.36111059 4.17829062 37.90540013 2.578125 25.90234375 C2.23942266 22.21942188 2.23942266 22.21942188 1 20 C-0.03409157 13.36138744 -0.12835863 6.70317304 0 0 Z " fill="#8EA397" transform="translate(103,477)"/>
<path d="M0 0 C7.65382319 0.45480179 14.69604761 1.71449271 22.0625 3.8125 C22.97837891 4.06064453 23.89425781 4.30878906 24.83789062 4.56445312 C34.01478277 7.11683714 42.5525167 10.61982347 51 15 C51 15.66 51 16.32 51 17 C46.10265675 15.70070485 41.66715572 14.0002096 37 12 C34.67992969 11.25993843 32.35501155 10.62479898 30 10 C30 9.34 30 8.68 30 8 C28.84757813 7.86464844 27.69515625 7.72929688 26.5078125 7.58984375 C22.26614048 7.0584674 18.07548617 6.35160867 13.875 5.5625 C13.19824219 5.44068359 12.52148438 5.31886719 11.82421875 5.19335938 C7.74826532 4.43256729 3.90058891 3.40348293 0 2 C0 1.34 0 0.68 0 0 Z " fill="#92A598" transform="translate(515,107)"/>
<path d="M0 0 C0.61875 0.639375 1.2375 1.27875 1.875 1.9375 C8.70166771 8.70631459 15.26844619 14.80294877 24 19 C24 19.66 24 20.32 24 21 C27.3 21.99 30.6 22.98 34 24 C34 24.66 34 25.32 34 26 C35.051875 26.12375 36.10375 26.2475 37.1875 26.375 C40.45958771 26.91140782 43.00536076 27.63880035 46 29 C40.12701457 30.93982434 34.66436612 28.23620445 29.2890625 25.7421875 C18.34032565 20.0011593 7.88109744 12.62485435 0 3 C0 2.01 0 1.02 0 0 Z " fill="#8FA397" transform="translate(140,585)"/>
<path d="M0 0 C0.66 0 1.32 0 2 0 C2.13277344 0.85464844 2.26554688 1.70929688 2.40234375 2.58984375 C2.57894531 3.69457031 2.75554688 4.79929687 2.9375 5.9375 C3.19853516 7.59072266 3.19853516 7.59072266 3.46484375 9.27734375 C3.71845136 11.90426929 3.71845136 11.90426929 5 13 C5 15.66666667 5 18.33333333 5 21 C5.33 21.33 5.66 21.66 6 22 C6.08737645 23.85369611 6.10698153 25.71067541 6.09765625 27.56640625 C6.09282227 29.2534668 6.09282227 29.2534668 6.08789062 30.97460938 C6.07951172 32.15861328 6.07113281 33.34261719 6.0625 34.5625 C6.05798828 35.75037109 6.05347656 36.93824219 6.04882812 38.16210938 C6.03699675 41.10812226 6.02051287 44.05403681 6 47 C5.67 47 5.34 47 5 47 C4.95101562 46.20078125 4.90203125 45.4015625 4.8515625 44.578125 C4.48428542 39.18295132 4.04883664 33.88250469 3.0625 28.5625 C1.36610121 19.13664509 0.79168742 9.53588767 0 0 Z " fill="#FFDF7B" transform="translate(791,389)"/>
<path d="M0 0 C15.5771434 5.76612491 27.51537119 17.51095686 38 30 C37.505 31.485 37.505 31.485 37 33 C36.36835937 32.18917969 35.73671875 31.37835938 35.0859375 30.54296875 C25.80677954 18.93829125 15.23971675 10.33817774 2.1328125 3.33984375 C1.07707031 2.67662109 1.07707031 2.67662109 0 2 C0 1.34 0 0.68 0 0 Z " fill="#9BAB98" transform="translate(567,123)"/>
<path d="M0 0 C14.84664322 6.83653458 28.32389888 15.45345843 38 29 C38 29.66 38 30.32 38 31 C37.34 31 36.68 31 36 31 C34.6817255 29.41324397 33.42158611 27.7780801 32.1875 26.125 C26.30128312 18.73856226 18.70679307 11.90013733 10 8 C10 7.34 10 6.68 10 6 C9.36191406 5.81824219 8.72382812 5.63648438 8.06640625 5.44921875 C7.24011719 5.19785156 6.41382813 4.94648438 5.5625 4.6875 C4.73878906 4.44386719 3.91507813 4.20023437 3.06640625 3.94921875 C2.04353516 3.47935547 2.04353516 3.47935547 1 3 C0.67 2.01 0.34 1.02 0 0 Z " fill="#FFE389" transform="translate(726,288)"/>
<path d="M0 0 C0.33 0 0.66 0 1 0 C1.02936502 3.81248345 1.04692035 7.62493726 1.0625 11.4375 C1.07087891 12.50677734 1.07925781 13.57605469 1.08789062 14.67773438 C1.10684631 20.87624228 0.82063259 26.8549481 0 33 C-0.66 33 -1.32 33 -2 33 C-2.495 35.475 -2.495 35.475 -3 38 C-3.33 38 -3.66 38 -4 38 C-3.34 29.75 -2.68 21.5 -2 13 C-1.34 13 -0.68 13 0 13 C0 8.71 0 4.42 0 0 Z " fill="#FFDD72" transform="translate(796,472)"/>
<path d="M0 0 C11.68632092 1.19403714 23.35019135 2.48954205 35 4 C35 4.99 35 5.98 35 7 C26.55748172 6.72044641 18.46577747 5.68609906 10.1875 4.0625 C9.29772461 3.89266602 8.40794922 3.72283203 7.49121094 3.54785156 C6.66266602 3.37866211 5.83412109 3.20947266 4.98046875 3.03515625 C3.86514771 2.80904663 3.86514771 2.80904663 2.72729492 2.57836914 C1 2 1 2 0 0 Z " fill="#FFDE77" transform="translate(372,790)"/>
<path d="M0 0 C0 0.66 0 1.32 0 2 C-10.68441211 4.25907118 -21.08698516 5.57915235 -32 6 C-32 5.01 -32 4.02 -32 3 C-27.98000981 2.49306328 -23.95889046 1.9956961 -19.9375 1.5 C-18.80376953 1.35691406 -17.67003906 1.21382812 -16.50195312 1.06640625 C-10.96234446 0.38808682 -5.58198572 -0.19443782 0 0 Z " fill="#FFDC6E" transform="translate(533,791)"/>
<path d="M0 0 C1.35814777 4.0744433 -0.05254238 6.81468116 -1.4375 10.6875 C-1.68048828 11.38939453 -1.92347656 12.09128906 -2.17382812 12.81445312 C-2.7744944 14.54578532 -3.38619719 16.27328137 -4 18 C-4.66 18 -5.32 18 -6 18 C-6.66 22.29 -7.32 26.58 -8 31 C-8.66 31 -9.32 31 -10 31 C-10.33 33.97 -10.66 36.94 -11 40 C-11.66 40 -12.32 40 -13 40 C-10.74281868 25.98526227 -5.8491144 12.86403167 0 0 Z " fill="#A2AF9A" transform="translate(121,340)"/>
<path d="M0 0 C0 0.66 0 1.32 0 2 C-1.65 2 -3.3 2 -5 2 C-5 2.66 -5 3.32 -5 4 C-6.76949612 4.50471197 -8.54065223 5.00360685 -10.3125 5.5 C-11.79169922 5.91765625 -11.79169922 5.91765625 -13.30078125 6.34375 C-16 7 -16 7 -19 7 C-19 7.66 -19 8.32 -19 9 C-19.969375 9.37125 -20.93875 9.7425 -21.9375 10.125 C-26.01116208 11.84591439 -29.48241826 14.2465988 -33.08203125 16.79296875 C-35 18 -35 18 -37 18 C-37 17.34 -37 16.68 -37 16 C-34.79917943 14.45059796 -32.62453121 13.05363654 -30.3125 11.6875 C-29.63711182 11.28523193 -28.96172363 10.88296387 -28.26586914 10.46850586 C-22.07926445 6.87817553 -15.78767559 4.27473919 -9 2 C-7.94941406 1.62746094 -6.89882812 1.25492187 -5.81640625 0.87109375 C-3 0 -3 0 0 0 Z " fill="#A1AE99" transform="translate(191,282)"/>
<path d="M0 0 C0 0.66 0 1.32 0 2 C-9.67903105 3.53611741 -19.21962456 4.47947582 -29 5 C-29 4.34 -29 3.68 -29 3 C-27.865625 2.855625 -26.73125 2.71125 -25.5625 2.5625 C-22.19222799 2.38828522 -22.19222799 2.38828522 -21 1 C-14.05382309 -0.15769615 -7.01946221 -0.12010487 0 0 Z " fill="#799697" transform="translate(404,103)"/>
<path d="M0 0 C0.66 0 1.32 0 2 0 C2 0.66 2 1.32 2 2 C2.54527344 2.10957031 3.09054687 2.21914063 3.65234375 2.33203125 C9.2634834 3.51180933 14.59098895 5.11335182 20 7 C21.6242249 7.54398644 23.24921251 8.08570156 24.875 8.625 C26.25 9.08333333 27.625 9.54166667 29 10 C29.99 10.33 30.98 10.66 32 11 C32 11.66 32 12.32 32 13 C23.66412503 11.13784659 15.52728773 9.05640061 7.5625 5.9375 C6.59654907 5.56987549 6.59654907 5.56987549 5.61108398 5.19482422 C3.81640625 4.46484375 3.81640625 4.46484375 1 3 C0.67 2.01 0.34 1.02 0 0 Z " fill="#FFDF7C" transform="translate(338,778)"/>
<path d="M0 0 C0.33 0 0.66 0 1 0 C0.41275531 4.99157988 -0.26620641 9.96522704 -1 14.9375 C-1.165 16.06027344 -1.33 17.18304687 -1.5 18.33984375 C-2 21 -2 21 -3 22 C-3.23287008 23.68183948 -3.41264166 25.3712416 -3.5625 27.0625 C-3.68818359 28.44115234 -3.68818359 28.44115234 -3.81640625 29.84765625 C-3.87699219 30.55792969 -3.93757813 31.26820313 -4 32 C-4.66 32 -5.32 32 -6 32 C-6.14127335 24.1985715 -5.95962342 17.3120108 -3 10 C-2.43998492 7.63819725 -1.94161802 5.27055605 -1.46484375 2.890625 C-1 1 -1 1 0 0 Z " fill="#90A498" transform="translate(266,496)"/>
<path d="M0 0 C1 2 1 2 0.22265625 4.8203125 C-0.16019531 5.91085937 -0.54304688 7.00140625 -0.9375 8.125 C-1.31777344 9.22070312 -1.69804687 10.31640625 -2.08984375 11.4453125 C-2.54037109 12.70988281 -2.54037109 12.70988281 -3 14 C-3.66 14 -4.32 14 -5 14 C-5.06058594 14.70125 -5.12117188 15.4025 -5.18359375 16.125 C-5.44495565 19.08442092 -5.7205264 22.04223774 -6 25 C-6.0721875 25.81726563 -6.144375 26.63453125 -6.21875 27.4765625 C-6.40710421 29.32646993 -6.69430474 31.16582846 -7 33 C-7.99 33.495 -7.99 33.495 -9 34 C-9.56222309 22.94294587 -6.96672538 11.91334256 -2 2 C-1.34 1.34 -0.68 0.68 0 0 Z " fill="#FFE285" transform="translate(294,509)"/>
<path d="M0 0 C0.66 0.33 1.32 0.66 2 1 C1.20335937 1.76183594 1.20335937 1.76183594 0.390625 2.5390625 C-3.63943202 6.46616186 -7.0219594 10.1967087 -10 15 C-13.50462047 20.1285108 -17.02037521 25.22445025 -21 30 C-20.48771456 25.5175024 -18.84960519 23.41952623 -16 20 C-15.4121875 18.92234375 -14.824375 17.8446875 -14.21875 16.734375 C-12.05143103 12.8742956 -9.35907936 9.81281152 -6.3125 6.625 C-5.81427734 6.09261719 -5.31605469 5.56023437 -4.80273438 5.01171875 C-3.21975849 3.32349752 -1.63659638 1.63659638 0 0 Z " fill="#A8B39A" transform="translate(146,305)"/>
<path d="M0 0 C6.6 0 13.2 0 20 0 C19.01 1.485 19.01 1.485 18 3 C16.12060547 3.34057617 16.12060547 3.34057617 13.8671875 3.29296875 C13.06152344 3.28330078 12.25585938 3.27363281 11.42578125 3.26367188 C10.58402344 3.23853516 9.74226563 3.21339844 8.875 3.1875 C8.02550781 3.17396484 7.17601562 3.16042969 6.30078125 3.14648438 C4.20025163 3.11108219 2.10004707 3.05727401 0 3 C0 2.01 0 1.02 0 0 Z " fill="#FFD75B" transform="translate(478,796)"/>
<path d="M0 0 C-8.49673928 2.95025669 -15.94248976 5.32348251 -25 5 C-25 4.34 -25 3.68 -25 3 C-21.47860166 1.23930083 -17.48744938 0.99207771 -13.625 0.375 C-12.32949219 0.15457031 -12.32949219 0.15457031 -11.0078125 -0.0703125 C-10.1725 -0.204375 -9.3371875 -0.3384375 -8.4765625 -0.4765625 C-7.71424316 -0.60111816 -6.95192383 -0.72567383 -6.16650391 -0.85400391 C-3.87771821 -1.00824031 -2.17991052 -0.67507306 0 0 Z " fill="#FFDF7A" transform="translate(580,460)"/>
<path d="M0 0 C0 0.99 0 1.98 0 3 C-2.54115002 3.95972174 -5.08289457 4.91781494 -7.625 5.875 C-8.33785156 6.14441406 -9.05070313 6.41382813 -9.78515625 6.69140625 C-21.23971037 11 -21.23971037 11 -25 11 C-25 10.34 -25 9.68 -25 9 C-24.45585449 8.83395264 -23.91170898 8.66790527 -23.35107422 8.49682617 C-20.8573475 7.73248276 -18.3661923 6.96006183 -15.875 6.1875 C-15.0190625 5.92646484 -14.163125 5.66542969 -13.28125 5.39648438 C-8.61706155 3.94341028 -4.30846983 2.35200074 0 0 Z " fill="#8BA197" transform="translate(571,423)"/>
<path d="M0 0 C7.96764466 0.43928079 15.77330553 1.38665277 23 5 C22.67 5.66 22.34 6.32 22 7 C19.45727525 6.54702053 16.91594018 6.08779821 14.375 5.625 C13.66214844 5.49867187 12.94929687 5.37234375 12.21484375 5.2421875 C8.00094047 4.46899424 4.04119829 3.46604985 0 2 C0 1.34 0 0.68 0 0 Z " fill="#7E9997" transform="translate(515,107)"/>
<path d="M0 0 C5.61 0.33 11.22 0.66 17 1 C17.33 1.99 17.66 2.98 18 4 C11.8894576 4.11269443 6.04829486 3.89604368 0 3 C0 2.01 0 1.02 0 0 Z " fill="#7A9797" transform="translate(488,103)"/>
<path d="M0 0 C5.61 0 11.22 0 17 0 C17 0.99 17 1.98 17 3 C11.06 3 5.12 3 -1 3 C-0.67 2.01 -0.34 1.02 0 0 Z " fill="#9BAA97" transform="translate(406,101)"/>
<path d="M0 0 C2 1 2 1 2.9296875 3.66015625 C3.24164063 4.78292969 3.55359375 5.90570312 3.875 7.0625 C5.06805128 11.15939308 6.3038515 14.92041527 8.3125 18.6875 C9.1478125 20.3271875 9.1478125 20.3271875 10 22 C9.67 22.66 9.34 23.32 9 24 C3.54160037 16.39722909 0.5961046 9.38864752 0 0 Z " fill="#FFE38B" transform="translate(285,721)"/>
<path d="M0 0 C-0.33 0.99 -0.66 1.98 -1 3 C-9.415 3.495 -9.415 3.495 -18 4 C-18 3.34 -18 2.68 -18 2 C-12.12116651 -0.61281488 -6.29268272 -0.18328202 0 0 Z " fill="#89A098" transform="translate(351,435)"/>
<path d="M0 0 C0.66 0 1.32 0 2 0 C6.40774487 14.59681093 6.40774487 14.59681093 7 22 C6.34 22 5.68 22 5 22 C4.1606242 18.89743488 3.3295495 15.79270556 2.5 12.6875 C2.26152344 11.80642578 2.02304688 10.92535156 1.77734375 10.01757812 C1.55175781 9.17001953 1.32617188 8.32246094 1.09375 7.44921875 C0.88427734 6.66893311 0.67480469 5.88864746 0.45898438 5.0847168 C0 3 0 3 0 0 Z " fill="#9CAB99" transform="translate(108,516)"/>
<path d="M0 0 C0.33 0 0.66 0 1 0 C0.69959179 7.76555233 -0.42372463 15.00776505 -4 22 C-4.99 22.66 -5.98 23.32 -7 24 C-6.34 21.03 -5.68 18.06 -5 15 C-4.34 15 -3.68 15 -3 15 C-2.95101562 14.41992188 -2.90203125 13.83984375 -2.8515625 13.2421875 C-2.40350595 8.56076908 -1.701979 4.42514541 0 0 Z " fill="#96A898" transform="translate(614,363)"/>
<path d="M0 0 C0 0.66 0 1.32 0 2 C-2.4363189 2.67126129 -4.87388883 3.33716354 -7.3125 4 C-8.00279297 4.19078125 -8.69308594 4.3815625 -9.40429688 4.578125 C-12.35787949 5.37716184 -14.92559219 6 -18 6 C-17.67 5.01 -17.34 4.02 -17 3 C-14.19921875 2.05078125 -14.19921875 2.05078125 -10.6875 1.3125 C-8.96080078 0.93544922 -8.96080078 0.93544922 -7.19921875 0.55078125 C-4 0 -4 0 0 0 Z " fill="#FFDF79" transform="translate(553,786)"/>
<path d="M0 0 C0.66 0 1.32 0 2 0 C2 0.66 2 1.32 2 2 C1.34 2 0.68 2 0 2 C0 1.34 0 0.68 0 0 Z M-2 2 C-1.34 2.33 -0.68 2.66 0 3 C-1.8734012 4.73092571 -3.74866282 6.45976163 -5.625 8.1875 C-6.14707031 8.67025391 -6.66914063 9.15300781 -7.20703125 9.65039062 C-10.71861293 12.88017871 -14.31299651 15.97178542 -18 19 C-15.09746162 11.87558761 -7.62269141 6.93669856 -2 2 Z " fill="#487A9D" transform="translate(308,131)"/>
<path d="M0 0 C0.33 0.66 0.66 1.32 1 2 C0.0625 4.625 0.0625 4.625 -1 7 C-1.66 7 -2.32 7 -3 7 C-3.10957031 7.60328125 -3.21914063 8.2065625 -3.33203125 8.828125 C-4.90685413 16.76625659 -4.90685413 16.76625659 -8 20 C-7.73064353 12.86205353 -5.18911398 5.18911398 0 0 Z " fill="#A6B29A" transform="translate(275,478)"/>
<path d="M0 0 C0 0.66 0 1.32 0 2 C-9.405 3.98 -9.405 3.98 -19 6 C-19 5.34 -19 4.68 -19 4 C-12.61608085 1.74434857 -6.83901146 0 0 0 Z " fill="#94A697" transform="translate(371,107)"/>
<path d="M0 0 C3.96 0 7.92 0 12 0 C12 0.99 12 1.98 12 3 C8.04 3 4.08 3 0 3 C0 2.01 0 1.02 0 0 Z " fill="#9BAA97" transform="translate(471,101)"/>
<path d="M0 0 C10.08499096 8.14556962 10.08499096 8.14556962 13 13 C12.67 13.99 12.34 14.98 12 16 C9.99397361 13.71336873 7.99508435 11.42114438 6 9.125 C5.14148438 8.14853516 5.14148438 8.14853516 4.265625 7.15234375 C3.72421875 6.52714844 3.1828125 5.90195313 2.625 5.2578125 C2.12226562 4.6817627 1.61953125 4.10571289 1.1015625 3.51220703 C0 2 0 2 0 0 Z " fill="#A1AE99" transform="translate(592,140)"/>
<path d="M0 0 C-5.26322777 2.45855991 -10.36691325 4.56176509 -16 6 C-16 5.34 -16 4.68 -16 4 C-15.01 4 -14.02 4 -13 4 C-13 3.34 -13 2.68 -13 2 C-11.21089097 1.47044766 -9.41860852 0.9516063 -7.625 0.4375 C-6.62726562 0.14746094 -5.62953125 -0.14257812 -4.6015625 -0.44140625 C-2 -1 -2 -1 0 0 Z " fill="#FFE181" transform="translate(571,781)"/>
<path d="M0 0 C0 0.66 0 1.32 0 2 C-1.65 2 -3.3 2 -5 2 C-5 2.66 -5 3.32 -5 4 C-7.97 4.66 -10.94 5.32 -14 6 C-14 5.34 -14 4.68 -14 4 C-9.22613086 1.44653511 -5.42119013 0 0 0 Z " fill="#8EA397" transform="translate(191,282)"/>
<path d="M0 0 C2.97 0 5.94 0 9 0 C9.33 0.99 9.66 1.98 10 3 C7.03 3 4.06 3 1 3 C0.67 2.01 0.34 1.02 0 0 Z " fill="#FFE184" transform="translate(412,796)"/>
<path d="M0 0 C3.3 0 6.6 0 10 0 C9.67 0.99 9.34 1.98 9 3 C6.36 3 3.72 3 1 3 C0.67 2.01 0.34 1.02 0 0 Z " fill="#FFD759" transform="translate(421,796)"/>
<path d="M0 0 C0.70125 0.721875 1.4025 1.44375 2.125 2.1875 C4.92770745 4.99823813 7.92262792 7.49516226 11 10 C10.01 10.33 9.02 10.66 8 11 C6.65772182 9.73861805 5.32641323 8.46555441 4 7.1875 C3.2575 6.47980469 2.515 5.77210938 1.75 5.04296875 C0 3 0 3 0 0 Z " fill="#89A096" transform="translate(140,585)"/>
<path d="M0 0 C2.97 0 5.94 0 9 0 C8.01 1.485 8.01 1.485 7 3 C5.0546875 3.29296875 5.0546875 3.29296875 2.875 3.1875 C1.59625 3.125625 0.3175 3.06375 -1 3 C-0.67 2.01 -0.34 1.02 0 0 Z " fill="#FFE286" transform="translate(489,796)"/>
<path d="M0 0 C-1.55603771 3.81936528 -3.95604931 6.26044438 -7 9 C-7.66 9 -8.32 9 -9 9 C-7.45665977 5.21180126 -4.44676575 0 0 0 Z " fill="#DFE4DF" transform="translate(337,160)"/>
<path d="M0 0 C3.26782914 1.08927638 3.81937333 1.68347929 5.75 4.375 C6.42289063 5.28378906 6.42289063 5.28378906 7.109375 6.2109375 C8 8 8 8 7 11 C5.82750647 9.54634731 4.66216184 8.08692581 3.5 6.625 C2.52546875 5.40683594 2.52546875 5.40683594 1.53125 4.1640625 C0 2 0 2 0 0 Z " fill="#A1AF99" transform="translate(132,576)"/>
<path d="M0 0 C3.81300782 3.2870757 5.22972246 6.39727838 7 11 C6.01 11.33 5.02 11.66 4 12 C3.3291288 10.3767313 2.66342971 8.75132422 2 7.125 C1.62875 6.22007812 1.2575 5.31515625 0.875 4.3828125 C0 2 0 2 0 0 Z " fill="#9BAB99" transform="translate(605,156)"/>
<path d="M0 0 C2.64 1.98 5.28 3.96 8 6 C7.67 6.99 7.34 7.98 7 9 C4.36 6.69 1.72 4.38 -1 2 C-0.67 1.34 -0.34 0.68 0 0 Z " fill="#849D96" transform="translate(584,133)"/>
<path d="M0 0 C0.99 0 1.98 0 3 0 C2.67 4.29 2.34 8.58 2 13 C1.67 13 1.34 13 1 13 C0.67 8.71 0.34 4.42 0 0 Z " fill="#FFD85D" transform="translate(793,406)"/>
<path d="M0 0 C3.63 0 7.26 0 11 0 C11 0.33 11 0.66 11 1 C7.04 1.66 3.08 2.32 -1 3 C-0.67 2.01 -0.34 1.02 0 0 Z " fill="#FFE07F" transform="translate(515,793)"/>
<path d="M0 0 C4.37859255 0.50522222 6.81651224 3.17827222 10 6 C9.67 6.66 9.34 7.32 9 8 C7.49712782 6.85793642 5.99776716 5.71125043 4.5 4.5625 C3.6646875 3.92441406 2.829375 3.28632812 1.96875 2.62890625 C1.3190625 2.09136719 0.669375 1.55382812 0 1 C0 0.67 0 0.34 0 0 Z " fill="#A4B09A" transform="translate(149,596)"/>
<path d="M0 0 C0.99 0 1.98 0 3 0 C3.66 2.64 4.32 5.28 5 8 C4.01 7.67 3.02 7.34 2 7 C0.8125 3.4375 0.8125 3.4375 0 0 Z " fill="#8DA299" transform="translate(114,539)"/>
<path d="M0 0 C1.98 0 3.96 0 6 0 C6 0.99 6 1.98 6 3 C4.02 3 2.04 3 0 3 C0 2.01 0 1.02 0 0 Z " fill="#6A8C93" transform="translate(417,101)"/>
<path d="M0 0 C2.31 0.33 4.62 0.66 7 1 C7 1.99 7 2.98 7 4 C4.625 3.6875 4.625 3.6875 2 3 C1.34 2.01 0.68 1.02 0 0 Z " fill="#719299" transform="translate(185,613)"/>
<path d="M0 0 C0.66 0.33 1.32 0.66 2 1 C2 3.64 2 6.28 2 9 C1.67 7.68 1.34 6.36 1 5 C0.34 5 -0.32 5 -1 5 C-0.67 3.35 -0.34 1.7 0 0 Z " fill="#6D8F97" transform="translate(105,488)"/>
</svg>
