<?xml version="1.0" encoding="UTF-8"?>
<svg version="1.1" xmlns="http://www.w3.org/2000/svg" width="251" height="251">
<path d="M0 0 C26.04201772 21.78627569 42.93430477 51.98726519 46 86 C48.21501699 122.15292951 37.44060756 154.79214079 13.625 182.125 C-9.13485321 206.68994501 -39.96755606 221.91749845 -73.62109375 223.28515625 C-108.87345687 224.11573244 -140.64917413 212.37576518 -166.5703125 188.359375 C-190.59259254 165.03227348 -204.56344608 134.01064057 -205.35400391 100.45678711 C-205.60546972 65.04396837 -192.66797072 33.40310892 -168 8 C-123.3109864 -36.82954509 -48.77356278 -40.5152316 0 0 Z " fill="#FEFEFE" transform="translate(205,28)"/>
<path d="M0 0 C4.74054 3.86124629 7.70353238 8.39856776 9.625 14.1875 C10.77665613 27.27450147 8.82433487 37.760085 0.625 48.1875 C-6.38112367 56.50402828 -13.98276118 64.23715635 -22.2265625 71.32421875 C-25.56161637 74.21662002 -28.81454862 77.19931817 -32.078125 80.171875 C-34.0950593 81.94183775 -36.22825667 83.5774425 -38.375 85.1875 C-20.885 85.5175 -3.395 85.8475 14.625 86.1875 C14.625 90.1475 14.625 94.1075 14.625 98.1875 C-8.475 98.1875 -31.575 98.1875 -55.375 98.1875 C-55.375 83.1875 -55.375 83.1875 -50.5625 77.8125 C-48.53130413 76.22981693 -46.46858784 74.68667722 -44.375 73.1875 C-37.18428836 67.60697839 -30.59600532 61.64676188 -24.125 55.25 C-23.36823975 54.51072266 -22.61147949 53.77144531 -21.83178711 53.00976562 C-13.22075074 44.39021565 -5.61921041 35.15283919 -4.9375 22.5625 C-5.13721368 17.98506247 -6.27713545 14.60400204 -9.375 11.1875 C-14.73900643 6.63213776 -21.00513372 6.59407085 -27.77734375 6.796875 C-36.51163623 7.7452238 -44.50322895 11.45039657 -52.375 15.1875 C-52.51001894 12.74815775 -52.60903897 10.31625896 -52.6875 7.875 C-52.72939453 7.18470703 -52.77128906 6.49441406 -52.81445312 5.78320312 C-52.86328125 3.76171875 -52.86328125 3.76171875 -52.375 0.1875 C-40.32698795 -10.21366148 -12.37185881 -8.57032401 0 0 Z " fill="#030367" transform="translate(206.375,76.8125)"/>
<path d="M0 0 C2.6258382 1.78870171 3.34201385 3.11189509 5 6 C5.619038 9.46661281 5.80972674 11.6722863 3.9375 14.7421875 C1.04452447 18.34118682 -0.67933003 19.847615 -5.25 20.375 C-10.19272958 19.88072704 -11.53828301 18.46171699 -15 15 C-16.57455739 11.85088521 -16.34799118 9.47991184 -16 6 C-11.91144457 -0.86511172 -7.42772528 -2.06183409 0 0 Z " fill="#04045A" transform="translate(126,154)"/>
<path d="M0 0 C2.6258382 1.78870171 3.34201385 3.11189509 5 6 C5.619038 9.46661281 5.80972674 11.6722863 3.9375 14.7421875 C1.04452447 18.34118682 -0.67933003 19.847615 -5.25 20.375 C-10.19272958 19.88072704 -11.53828301 18.46171699 -15 15 C-16.57455739 11.85088521 -16.34799118 9.47991184 -16 6 C-11.91144457 -0.86511172 -7.42772528 -2.06183409 0 0 Z " fill="#04045A" transform="translate(86,154)"/>
<path d="M0 0 C2.6258382 1.78870171 3.34201385 3.11189509 5 6 C5.619038 9.46661281 5.80972674 11.6722863 3.9375 14.7421875 C1.04452447 18.34118682 -0.67933003 19.847615 -5.25 20.375 C-10.19272958 19.88072704 -11.53828301 18.46171699 -15 15 C-16.57455739 11.85088521 -16.34799118 9.47991184 -16 6 C-11.91144457 -0.86511172 -7.42772528 -2.06183409 0 0 Z " fill="#04045A" transform="translate(46,154)"/>
<path d="M0 0 C2.6258382 1.78870171 3.34201385 3.11189509 5 6 C5.619038 9.46661281 5.80972674 11.6722863 3.9375 14.7421875 C1.04452447 18.34118682 -0.67933003 19.847615 -5.25 20.375 C-10.19272958 19.88072704 -11.53828301 18.46171699 -15 15 C-16.57455739 11.85088521 -16.34799118 9.47991184 -16 6 C-11.91144457 -0.86511172 -7.42772528 -2.06183409 0 0 Z " fill="#04045A" transform="translate(126,114)"/>
<path d="M0 0 C2.6258382 1.78870171 3.34201385 3.11189509 5 6 C5.619038 9.46661281 5.80972674 11.6722863 3.9375 14.7421875 C1.04452447 18.34118682 -0.67933003 19.847615 -5.25 20.375 C-10.19272958 19.88072704 -11.53828301 18.46171699 -15 15 C-16.57455739 11.85088521 -16.34799118 9.47991184 -16 6 C-11.91144457 -0.86511172 -7.42772528 -2.06183409 0 0 Z " fill="#04045A" transform="translate(86,114)"/>
<path d="M0 0 C2.6258382 1.78870171 3.34201385 3.11189509 5 6 C5.619038 9.46661281 5.80972674 11.6722863 3.9375 14.7421875 C1.04452447 18.34118682 -0.67933003 19.847615 -5.25 20.375 C-10.19272958 19.88072704 -11.53828301 18.46171699 -15 15 C-16.57455739 11.85088521 -16.34799118 9.47991184 -16 6 C-11.91144457 -0.86511172 -7.42772528 -2.06183409 0 0 Z " fill="#04045A" transform="translate(46,114)"/>
<path d="M0 0 C2.6258382 1.78870171 3.34201385 3.11189509 5 6 C5.619038 9.46661281 5.80972674 11.6722863 3.9375 14.7421875 C1.04452447 18.34118682 -0.67933003 19.847615 -5.25 20.375 C-10.19272958 19.88072704 -11.53828301 18.46171699 -15 15 C-16.57455739 11.85088521 -16.34799118 9.47991184 -16 6 C-11.91144457 -0.86511172 -7.42772528 -2.06183409 0 0 Z " fill="#04045A" transform="translate(126,74)"/>
<path d="M0 0 C2.6258382 1.78870171 3.34201385 3.11189509 5 6 C5.619038 9.46661281 5.80972674 11.6722863 3.9375 14.7421875 C1.04452447 18.34118682 -0.67933003 19.847615 -5.25 20.375 C-10.19272958 19.88072704 -11.53828301 18.46171699 -15 15 C-16.57455739 11.85088521 -16.34799118 9.47991184 -16 6 C-11.91144457 -0.86511172 -7.42772528 -2.06183409 0 0 Z " fill="#04045A" transform="translate(86,74)"/>
<path d="M0 0 C2.6258382 1.78870171 3.34201385 3.11189509 5 6 C5.619038 9.46661281 5.80972674 11.6722863 3.9375 14.7421875 C1.04452447 18.34118682 -0.67933003 19.847615 -5.25 20.375 C-10.19272958 19.88072704 -11.53828301 18.46171699 -15 15 C-16.57455739 11.85088521 -16.34799118 9.47991184 -16 6 C-11.91144457 -0.86511172 -7.42772528 -2.06183409 0 0 Z " fill="#04045A" transform="translate(46,74)"/>
<path d="M0 0 C0.66 0.66 1.32 1.32 2 2 C1.21625 2.9075 0.4325 3.815 -0.375 4.75 C-2.30052496 7.05190236 -3.82205741 9.21577207 -5 12 C-5.35338623 9.03155565 -5.5417682 6.84401782 -3.88671875 4.265625 C-2.64496832 2.79651181 -1.32662082 1.39295186 0 0 Z " fill="#0E0E38" transform="translate(115,154)"/>
<path d="M0 0 C0.66 0.66 1.32 1.32 2 2 C1.21625 2.9075 0.4325 3.815 -0.375 4.75 C-2.30052496 7.05190236 -3.82205741 9.21577207 -5 12 C-5.35338623 9.03155565 -5.5417682 6.84401782 -3.88671875 4.265625 C-2.64496832 2.79651181 -1.32662082 1.39295186 0 0 Z " fill="#0E0E38" transform="translate(75,154)"/>
<path d="M0 0 C0.66 0.66 1.32 1.32 2 2 C1.21625 2.9075 0.4325 3.815 -0.375 4.75 C-2.30052496 7.05190236 -3.82205741 9.21577207 -5 12 C-5.35338623 9.03155565 -5.5417682 6.84401782 -3.88671875 4.265625 C-2.64496832 2.79651181 -1.32662082 1.39295186 0 0 Z " fill="#0E0E38" transform="translate(35,154)"/>
<path d="M0 0 C0.66 0.66 1.32 1.32 2 2 C1.21625 2.9075 0.4325 3.815 -0.375 4.75 C-2.30052496 7.05190236 -3.82205741 9.21577207 -5 12 C-5.35338623 9.03155565 -5.5417682 6.84401782 -3.88671875 4.265625 C-2.64496832 2.79651181 -1.32662082 1.39295186 0 0 Z " fill="#0E0E38" transform="translate(115,114)"/>
<path d="M0 0 C0.66 0.66 1.32 1.32 2 2 C1.21625 2.9075 0.4325 3.815 -0.375 4.75 C-2.30052496 7.05190236 -3.82205741 9.21577207 -5 12 C-5.35338623 9.03155565 -5.5417682 6.84401782 -3.88671875 4.265625 C-2.64496832 2.79651181 -1.32662082 1.39295186 0 0 Z " fill="#0E0E38" transform="translate(75,114)"/>
<path d="M0 0 C0.66 0.66 1.32 1.32 2 2 C1.21625 2.9075 0.4325 3.815 -0.375 4.75 C-2.30052496 7.05190236 -3.82205741 9.21577207 -5 12 C-5.35338623 9.03155565 -5.5417682 6.84401782 -3.88671875 4.265625 C-2.64496832 2.79651181 -1.32662082 1.39295186 0 0 Z " fill="#0E0E38" transform="translate(35,114)"/>
<path d="M0 0 C0.66 0.66 1.32 1.32 2 2 C1.21625 2.9075 0.4325 3.815 -0.375 4.75 C-2.30052496 7.05190236 -3.82205741 9.21577207 -5 12 C-5.35338623 9.03155565 -5.5417682 6.84401782 -3.88671875 4.265625 C-2.64496832 2.79651181 -1.32662082 1.39295186 0 0 Z " fill="#0E0E38" transform="translate(115,74)"/>
<path d="M0 0 C0.66 0.66 1.32 1.32 2 2 C1.21625 2.9075 0.4325 3.815 -0.375 4.75 C-2.30052496 7.05190236 -3.82205741 9.21577207 -5 12 C-5.35338623 9.03155565 -5.5417682 6.84401782 -3.88671875 4.265625 C-2.64496832 2.79651181 -1.32662082 1.39295186 0 0 Z " fill="#0E0E38" transform="translate(75,74)"/>
<path d="M0 0 C0.66 0.66 1.32 1.32 2 2 C1.21625 2.9075 0.4325 3.815 -0.375 4.75 C-2.30052496 7.05190236 -3.82205741 9.21577207 -5 12 C-5.35338623 9.03155565 -5.5417682 6.84401782 -3.88671875 4.265625 C-2.64496832 2.79651181 -1.32662082 1.39295186 0 0 Z " fill="#0E0E38" transform="translate(35,74)"/>
</svg>
