<?xml version="1.0" encoding="UTF-8"?>
<svg version="1.1" xmlns="http://www.w3.org/2000/svg" width="1200" height="1200">
<path d="M0 0 C1.05446351 0.96615869 2.10656605 1.93490067 3.15625 2.90625 C3.92582031 3.61007813 3.92582031 3.61007813 4.7109375 4.328125 C30.22022455 27.89508055 43.71312866 60.07657668 49.15625 93.90625 C49.27339355 94.59058105 49.39053711 95.27491211 49.51123047 95.97998047 C53.70842233 121.33151824 51.84275683 148.65349514 48.15625 173.90625 C47.99527832 175.01000977 47.83430664 176.11376953 47.66845703 177.25097656 C38.78601172 235.80173522 17.9641486 292.58802852 -6.98620605 346.06219482 C-7.88072343 347.98575736 -8.76791372 349.91255986 -9.65332031 351.84033203 C-23.29840627 381.53742501 -37.88993191 410.76250409 -54.22949219 439.07617188 C-56.63965736 443.30161572 -58.97542183 447.56725561 -61.3190918 451.82983398 C-69.15572139 466.06790525 -77.3751794 480.03629875 -85.84375 493.90625 C-86.54463134 495.05814793 -87.24531033 496.21016901 -87.94580078 497.36230469 C-89.72869131 500.2937133 -91.51603557 503.22236087 -93.30691528 506.14889526 C-94.30682661 507.78339343 -95.30469783 509.4191391 -96.30249023 511.05493164 C-97.53821723 513.0649686 -98.78596853 515.06767356 -100.046875 517.06201172 C-101.23127405 518.9367738 -102.38843451 520.82906391 -103.515625 522.73876953 C-107.69482492 529.41645725 -111.38998738 531.69392728 -118.84375 533.90625 C-120.61865888 534.55272034 -122.38945753 535.21057264 -124.15625 535.87890625 C-125.07229004 536.21494873 -125.98833008 536.55099121 -126.93212891 536.8972168 C-169.68760491 552.6320637 -211.08058107 572.71246444 -250.84375 594.90625 C-252.54540594 595.85186305 -254.24722269 596.79718677 -255.94921875 597.7421875 C-257.24741108 598.46351423 -258.54559414 599.18485764 -259.84375 599.90625 C-254.47256443 598.1797975 -249.22299366 596.27451484 -243.96875 594.21875 C-216.77959977 583.91982946 -188.03865116 577.76074002 -159.84375 570.90625 C-158.64440826 570.61406586 -158.64440826 570.61406586 -157.4208374 570.315979 C-152.94057586 569.22564073 -148.45679322 568.15171816 -143.96875 567.09375 C-142.93097412 566.84544434 -141.89319824 566.59713867 -140.82397461 566.34130859 C-139.44544312 566.02347412 -139.44544312 566.02347412 -138.0390625 565.69921875 C-136.87914795 565.42887817 -136.87914795 565.42887817 -135.69580078 565.15307617 C-133.84375 564.90625 -133.84375 564.90625 -131.84375 565.90625 C-143.64027335 583.71936435 -155.54737306 601.43263082 -167.84375 618.90625 C-168.9102555 620.42701373 -169.97666664 621.94784365 -171.04296875 623.46875 C-181.62817385 638.54071622 -192.42088484 653.45179767 -203.51953125 668.14990234 C-205.38574212 670.62510902 -207.23887383 673.11004271 -209.09375 675.59375 C-215.32508793 683.898424 -221.6185732 692.15555715 -227.93261719 700.39746094 C-229.65031911 702.65232872 -231.34821242 704.92029156 -233.0390625 707.1953125 C-233.97364535 708.43252816 -234.90851726 709.66952554 -235.84375 710.90625 C-236.6275 711.958125 -237.41125 713.01 -238.21875 714.09375 C-243.84485213 720.12171657 -251.51393113 723.34668764 -258.78125 727.03125 C-274.55687421 735.1841812 -288.85187804 745.0076063 -302.84375 755.90625 C-303.79507813 756.64230469 -304.74640625 757.37835937 -305.7265625 758.13671875 C-322.08956295 771.15385194 -336.53024812 786.02121112 -348.84375 802.90625 C-349.24706543 803.45845215 -349.65038086 804.0106543 -350.06591797 804.57958984 C-360.51559479 819.08951997 -369.45140108 835.32513379 -375.14550781 852.29858398 C-376.66712697 856.81793848 -376.66712697 856.81793848 -378.84375 857.90625 C-378.18371792 851.14438591 -377.11015054 844.55819115 -375.796875 837.89453125 C-375.58972366 836.83367813 -375.38257233 835.77282501 -375.16914368 834.67982483 C-374.48395795 831.1914532 -373.79034999 827.70485965 -373.09375 824.21875 C-372.73227371 822.40724457 -372.73227371 822.40724457 -372.36349487 820.55914307 C-366.93518615 793.49060414 -360.62674419 766.66485094 -353.84375 739.90625 C-353.59280579 738.91556519 -353.34186157 737.92488037 -353.08331299 736.9041748 C-332.92517413 657.55334119 -307.58770691 578.80047792 -276.84375 502.90625 C-276.5564502 502.19625854 -276.26915039 501.48626709 -275.97314453 500.75476074 C-255.65009799 450.61009774 -233.08070335 401.39000145 -209.23429871 352.8326416 C-206.68837327 347.64391963 -204.16677863 342.44406758 -201.6640625 337.234375 C-195.77133561 324.97069814 -189.851512 312.7442531 -183.421875 300.75 C-181.43481069 297.04039341 -179.49901722 293.30679972 -177.578125 289.5625 C-171.49481298 277.70868841 -165.28797826 265.96555354 -158.66870117 254.40161133 C-154.78272622 247.60601631 -151.04070548 240.74373573 -147.34375 233.84375 C-141.15348151 222.33908099 -134.58866391 211.09298054 -127.84375 199.90625 C-127.16731445 198.7807373 -126.49087891 197.65522461 -125.79394531 196.49560547 C-117.3708217 182.4846989 -108.87172536 168.53829262 -99.84375 154.90625 C-99.37163086 154.18856445 -98.89951172 153.47087891 -98.41308594 152.73144531 C-82.96316291 129.24634178 -66.65880701 106.29668698 -48.28369141 84.99243164 C-45.80079833 82.13124919 -45.80079833 82.13124919 -43.84375 78.90625 C-51.90071703 86.01133906 -59.55553044 93.50694596 -67.15625 101.09375 C-67.63128967 101.56629211 -68.10632935 102.03883423 -68.59576416 102.5256958 C-73.69198565 107.59995745 -78.67523277 112.71402317 -83.35717773 118.17456055 C-85.41936888 120.57678123 -87.57061543 122.89341241 -89.71875 125.21875 C-93.80812787 129.70287928 -97.68994021 134.30892238 -101.5 139.03125 C-103.5937655 141.59960234 -105.72518274 144.12619983 -107.87988281 146.64306641 C-113.24524283 152.91511619 -118.35926659 159.34581617 -123.33886719 165.92871094 C-125.07049352 168.20420952 -126.82003338 170.46538157 -128.5703125 172.7265625 C-136.34617245 182.80345184 -143.79750066 193.01662646 -150.90625 203.57421875 C-153.43453615 207.32663311 -156.05491271 210.99952791 -158.71875 214.65625 C-165.8185104 224.47269558 -172.29037226 234.72160965 -178.84375 244.90625 C-179.35131836 245.69064453 -179.85888672 246.47503906 -180.38183594 247.28320312 C-200.38075755 278.22182311 -218.50567582 310.41925241 -235.84375 342.90625 C-236.31039062 343.78023438 -236.77703125 344.65421875 -237.2578125 345.5546875 C-252.8455663 374.85966465 -267.62733946 404.59824562 -281.08007812 434.94335938 C-282.5205346 438.18885929 -283.98306467 441.42377631 -285.45391846 444.65559387 C-317.0397961 514.11839241 -340.93508524 586.0458108 -359.84375 659.90625 C-360.17765747 661.20547394 -360.17765747 661.20547394 -360.51831055 662.53094482 C-379.41878509 736.15461135 -393.28129321 811.14400617 -399.84375 886.90625 C-399.9189386 887.75612488 -399.9941272 888.60599976 -400.07159424 889.48162842 C-402.32035664 915.05226203 -403.12950711 940.5710931 -403.15382385 966.22987366 C-403.15619818 968.35976091 -403.16150231 970.48962598 -403.16711426 972.61950684 C-403.21618571 998.03180023 -402.26330866 1023.4266959 -399.03125 1048.65625 C-398.94726959 1049.32594818 -398.86328918 1049.99564636 -398.77676392 1050.68563843 C-395.93916038 1073.21217316 -391.31650479 1095.14412753 -385.52050781 1117.08325195 C-384.81883869 1120.01016397 -384.30464043 1122.93273673 -383.84375 1125.90625 C-386.65625 1127.96875 -386.65625 1127.96875 -389.84375 1129.90625 C-390.83375 1129.57625 -391.82375 1129.24625 -392.84375 1128.90625 C-393.95325402 1126.54117281 -394.831252 1124.31008042 -395.65625 1121.84375 C-395.91341797 1121.08698975 -396.17058594 1120.33022949 -396.43554688 1119.55053711 C-405.89969414 1090.86162111 -410.22897142 1060.75210161 -413.71875 1030.84375 C-413.88299973 1029.44580704 -413.88299973 1029.44580704 -414.05056763 1028.0196228 C-414.36141071 1025.34588727 -414.66327894 1022.67132641 -414.9609375 1019.99609375 C-415.05123734 1019.20990662 -415.14153717 1018.42371948 -415.23457336 1017.6137085 C-415.64864069 1013.77008855 -415.88730742 1009.99708468 -415.8664856 1006.12940979 C-415.86320314 1005.3340661 -415.85992069 1004.5387224 -415.85653877 1003.71927738 C-415.85231848 1003.12097835 -415.84809818 1002.52267931 -415.84375 1001.90625 C-416.87200392 1001.90776888 -417.90025783 1001.90928776 -418.95967096 1001.91085267 C-464.30082414 1001.97756408 -509.64198108 1002.03927019 -554.98316956 1002.07562256 C-555.67018424 1002.07617479 -556.35719893 1002.07672702 -557.06503225 1002.07729598 C-571.99761073 1002.08926908 -586.93018975 1002.1003496 -601.86276957 1002.11051132 C-609.18626382 1002.11550043 -616.50975792 1002.12068668 -623.83325195 1002.12597656 C-624.56200713 1002.1264996 -625.2907623 1002.12702263 -626.04160096 1002.12756152 C-649.64018008 1002.14459082 -673.23872076 1002.17462401 -696.83727662 1002.21143888 C-721.09856461 1002.24921868 -745.35983135 1002.27380322 -769.62114826 1002.28190996 C-773.05204407 1002.28306249 -776.48293981 1002.28436503 -779.91383553 1002.28575897 C-780.58904992 1002.28602866 -781.26426431 1002.28629836 -781.95993975 1002.28657622 C-792.80590626 1002.29129337 -803.65180682 1002.30981927 -814.49774649 1002.33357814 C-825.41559709 1002.35719733 -836.33337958 1002.36578181 -847.25125449 1002.36025551 C-853.16113885 1002.35769825 -859.07083053 1002.3615674 -864.98068047 1002.3830719 C-870.40032702 1002.40264785 -875.81965271 1002.40344868 -881.23931456 1002.38984558 C-883.19115839 1002.38816625 -885.14302287 1002.39314625 -887.09482651 1002.40578273 C-902.1619617 1002.49759159 -916.89311367 1001.14765712 -930.59375 994.28125 C-931.63595703 993.77356079 -931.63595703 993.77356079 -932.69921875 993.25561523 C-939.78787404 989.66007368 -945.86455113 985.1083984 -951.84375 979.90625 C-952.65199219 979.21015625 -953.46023438 978.5140625 -954.29296875 977.796875 C-971.07855388 962.21235268 -980.33928033 939.5618016 -981.21069992 916.90410578 C-981.39018656 909.00903588 -981.38087136 901.11486235 -981.35141886 893.21820751 C-981.34027708 889.02924188 -981.35255646 884.84032978 -981.36172634 880.65136832 C-981.37458327 873.32398462 -981.37270538 865.9967221 -981.36094666 858.66933823 C-981.34350905 847.7731614 -981.34908373 836.87707924 -981.35911357 825.98089741 C-981.37627943 806.5175205 -981.37078146 787.05420003 -981.35575638 767.5908243 C-981.34269395 750.55976326 -981.3375107 733.52872178 -981.34007454 716.49765587 C-981.34023495 715.36703839 -981.34039537 714.23642091 -981.34056065 713.07154229 C-981.34122425 708.48179166 -981.34192667 703.89204105 -981.34268599 699.30229043 C-981.34970627 656.26850775 -981.33423079 613.23475949 -981.30806253 570.20098557 C-981.28494366 531.97943856 -981.27956144 493.75792938 -981.28979492 455.53637695 C-981.292397 445.74674131 -981.29498203 435.95710567 -981.29739285 426.16746998 C-981.29769029 424.96219683 -981.29798774 423.75692369 -981.2982942 422.51512712 C-981.30591065 390.56157283 -981.29949562 358.60802163 -981.28869683 326.65446872 C-981.28754904 323.21591781 -981.28640586 319.77736691 -981.28527 316.33881601 C-981.28451476 314.05784927 -981.28374911 311.77688253 -981.28297299 309.4959158 C-981.27731744 292.47470429 -981.27864271 275.45350258 -981.28320122 258.43229103 C-981.28831083 239.0783934 -981.28244784 219.72453239 -981.26230692 200.37064389 C-981.25132796 189.54248076 -981.2485206 178.71438966 -981.25759545 167.88622435 C-981.26282124 160.64995807 -981.2571006 153.41375334 -981.24254211 146.17749997 C-981.23455108 142.05706005 -981.23119377 137.93676553 -981.24111467 133.81632648 C-981.25005543 130.06012806 -981.24495123 126.30420799 -981.22913523 122.54803462 C-981.22431212 120.57697778 -981.23400894 118.60590123 -981.24448386 116.63486633 C-981.10281469 94.71660888 -973.81228893 74.80851549 -959.84375 57.90625 C-959.10125 56.91625 -958.35875 55.92625 -957.59375 54.90625 C-943.82344499 38.77404801 -921.57915012 29.02520132 -900.84375 26.90625 C-891.70053053 26.39997916 -882.53406287 26.51933108 -873.38020626 26.56032447 C-869.62953207 26.5737001 -865.8788696 26.56929546 -862.12817794 26.56718552 C-855.56731524 26.56585373 -849.00654158 26.57546463 -842.4457016 26.59238243 C-832.68953139 26.6174296 -822.93340224 26.62493695 -813.17720328 26.62854957 C-797.76504757 26.63454748 -782.35292455 26.65084875 -766.9407863 26.67436209 C-742.48241769 26.71157924 -718.02409932 26.72086393 -693.56570522 26.72115299 C-684.14808361 26.72136175 -674.73046202 26.7223684 -665.31284046 26.72325325 C-664.26667921 26.7233453 -663.22051795 26.72343734 -662.14265484 26.72353218 C-637.26070951 26.72580753 -612.37876843 26.73474297 -587.49682617 26.74707031 C-585.86443569 26.74786628 -585.86443569 26.74786628 -584.19906762 26.74867834 C-558.79731158 26.76118252 -533.39557387 26.78008721 -507.99383545 26.81292725 C-506.35390327 26.81504656 -506.35390327 26.81504656 -504.68084115 26.81720869 C-495.86740827 26.82865138 -487.05397568 26.84031866 -478.24054317 26.85204441 C-441.90984796 26.9002028 -405.5792426 26.91822712 -369.24851726 26.90147278 C-364.11954906 26.8991405 -358.99058078 26.89719631 -353.86161232 26.89551163 C-352.34754158 26.89500636 -352.34754158 26.89500636 -350.80288355 26.89449089 C-334.55608229 26.89004264 -318.30949158 26.91811531 -302.06274751 26.95889735 C-285.74301833 26.99929702 -269.42352988 27.00767497 -253.10376682 26.98305301 C-243.4076095 26.96944952 -233.71223983 26.98108554 -224.01618576 27.02867635 C-217.53954128 27.05800824 -211.06344347 27.05471244 -204.58680239 27.02494427 C-200.89650076 27.00892434 -197.20771043 27.00707767 -193.51753636 27.04511712 C-189.53914544 27.08580467 -185.56297502 27.05666049 -181.58449841 27.02091789 C-179.87313318 27.05526237 -179.87313318 27.05526237 -178.12719491 27.09030068 C-168.95068579 26.91112132 -164.31764549 23.12110927 -157.84375 16.90625 C-156.75019241 15.99689208 -155.64579046 15.1001321 -154.5234375 14.2265625 C-153.59789062 13.50210938 -152.67234375 12.77765625 -151.71875 12.03125 C-107.06004931 -22.28614914 -46.76643021 -41.86315317 0 0 Z " fill="#42A1DC" transform="translate(1064.84375,47.09375)"/>
<path d="M0 0 C2.15820751 1.88183179 4.27343315 3.80526649 6.375 5.75 C7.14457031 6.45382813 7.14457031 6.45382813 7.9296875 7.171875 C33.43897455 30.73883055 46.93187866 62.92032668 52.375 96.75 C52.49214355 97.43433105 52.60928711 98.11866211 52.72998047 98.82373047 C56.92717233 124.17526824 55.06150683 151.49724514 51.375 176.75 C51.21402832 177.85375977 51.05305664 178.95751953 50.88720703 180.09472656 C42.00476172 238.64548522 21.1828986 295.43177852 -3.76745605 348.90594482 C-4.66197343 350.82950736 -5.54916372 352.75630986 -6.43457031 354.68408203 C-20.07965627 384.38117501 -34.67118191 413.60625409 -51.01074219 441.91992188 C-53.42090736 446.14536572 -55.75667183 450.41100561 -58.1003418 454.67358398 C-65.93697139 468.91165525 -74.1564294 482.88004875 -82.625 496.75 C-83.32588134 497.90189793 -84.02656033 499.05391901 -84.72705078 500.20605469 C-86.50994131 503.1374633 -88.29728557 506.06611087 -90.08816528 508.99264526 C-91.08807661 510.62714343 -92.08594783 512.2628891 -93.08374023 513.89868164 C-94.31946723 515.9087186 -95.56721853 517.91142356 -96.828125 519.90576172 C-98.01252405 521.7805238 -99.16968451 523.67281391 -100.296875 525.58251953 C-104.47607492 532.26020725 -108.17123738 534.53767728 -115.625 536.75 C-117.39990888 537.39647034 -119.17070753 538.05432264 -120.9375 538.72265625 C-121.85354004 539.05869873 -122.76958008 539.39474121 -123.71337891 539.7409668 C-166.46885491 555.4758137 -207.86183107 575.55621444 -247.625 597.75 C-249.32665594 598.69561305 -251.02847269 599.64093677 -252.73046875 600.5859375 C-254.02866108 601.30726423 -255.32684414 602.02860764 -256.625 602.75 C-251.25381443 601.0235475 -246.00424366 599.11826484 -240.75 597.0625 C-213.56084977 586.76357946 -184.81990116 580.60449002 -156.625 573.75 C-155.42565826 573.45781586 -155.42565826 573.45781586 -154.2020874 573.159729 C-149.72182586 572.06939073 -145.23804322 570.99546816 -140.75 569.9375 C-139.71222412 569.68919434 -138.67444824 569.44088867 -137.60522461 569.18505859 C-136.22669312 568.86722412 -136.22669312 568.86722412 -134.8203125 568.54296875 C-134.04703613 568.3627417 -133.27375977 568.18251465 -132.47705078 567.99682617 C-130.625 567.75 -130.625 567.75 -128.625 568.75 C-140.42152335 586.56311435 -152.32862306 604.27638082 -164.625 621.75 C-165.6915055 623.27076373 -166.75791664 624.79159365 -167.82421875 626.3125 C-178.40942385 641.38446622 -189.20213484 656.29554767 -200.30078125 670.99365234 C-202.16699212 673.46885902 -204.02012383 675.95379271 -205.875 678.4375 C-212.10633793 686.742174 -218.3998232 694.99930715 -224.71386719 703.24121094 C-226.43156911 705.49607872 -228.12946242 707.76404156 -229.8203125 710.0390625 C-230.75489535 711.27627816 -231.68976726 712.51327554 -232.625 713.75 C-233.800625 715.3278125 -233.800625 715.3278125 -235 716.9375 C-240.62610213 722.96546657 -248.29518113 726.19043764 -255.5625 729.875 C-271.33812421 738.0279312 -285.63312804 747.8513563 -299.625 758.75 C-301.05199219 759.85408203 -301.05199219 759.85408203 -302.5078125 760.98046875 C-318.87081295 773.99760194 -333.31149812 788.86496112 -345.625 805.75 C-346.02831543 806.30220215 -346.43163086 806.8544043 -346.84716797 807.42333984 C-357.29684479 821.93326997 -366.23265108 838.16888379 -371.92675781 855.14233398 C-373.44837697 859.66168848 -373.44837697 859.66168848 -375.625 860.75 C-374.96496792 853.98813591 -373.89140054 847.40194115 -372.578125 840.73828125 C-372.26739799 839.14700157 -372.26739799 839.14700157 -371.95039368 837.52357483 C-371.26520795 834.0352032 -370.57159999 830.54860965 -369.875 827.0625 C-369.63401581 825.85482971 -369.39303162 824.64715942 -369.14474487 823.40289307 C-363.71643615 796.33435414 -357.40799419 769.50860094 -350.625 742.75 C-350.37405579 741.75931519 -350.12311157 740.76863037 -349.86456299 739.7479248 C-329.70642413 660.39709119 -304.36895691 581.64422792 -273.625 505.75 C-273.19405029 504.68501282 -273.19405029 504.68501282 -272.75439453 503.59851074 C-252.43134799 453.45384774 -229.86195335 404.23375145 -206.01554871 355.6763916 C-203.46962327 350.48766963 -200.94802863 345.28781758 -198.4453125 340.078125 C-192.55258561 327.81444814 -186.632762 315.5880031 -180.203125 303.59375 C-178.21606069 299.88414341 -176.28026722 296.15054972 -174.359375 292.40625 C-168.27606298 280.55243841 -162.06922826 268.80930354 -155.44995117 257.24536133 C-151.56397622 250.44976631 -147.82195548 243.58748573 -144.125 236.6875 C-137.93473151 225.18283099 -131.36991391 213.93673054 -124.625 202.75 C-123.94856445 201.6244873 -123.27212891 200.49897461 -122.57519531 199.33935547 C-114.1520717 185.3284489 -105.65297536 171.38204262 -96.625 157.75 C-95.91682129 156.67347168 -95.91682129 156.67347168 -95.19433594 155.57519531 C-79.74441291 132.09009178 -63.44005701 109.14043698 -45.06494141 87.83618164 C-42.58204833 84.97499919 -42.58204833 84.97499919 -40.625 81.75 C-48.68196703 88.85508906 -56.33678044 96.35069596 -63.9375 103.9375 C-64.65005951 104.64631317 -64.65005951 104.64631317 -65.37701416 105.3694458 C-70.47323565 110.44370745 -75.45648277 115.55777317 -80.13842773 121.01831055 C-82.20061888 123.42053123 -84.35186543 125.73716241 -86.5 128.0625 C-90.58937787 132.54662928 -94.47119021 137.15267238 -98.28125 141.875 C-100.3750155 144.44335234 -102.50643274 146.96994983 -104.66113281 149.48681641 C-110.02649283 155.75886619 -115.14051659 162.18956617 -120.12011719 168.77246094 C-121.85174352 171.04795952 -123.60128338 173.30913157 -125.3515625 175.5703125 C-133.12742245 185.64720184 -140.57875066 195.86037646 -147.6875 206.41796875 C-150.21578615 210.17038311 -152.83616271 213.84327791 -155.5 217.5 C-162.5997604 227.31644558 -169.07162226 237.56535965 -175.625 247.75 C-176.13256836 248.53439453 -176.64013672 249.31878906 -177.16308594 250.12695312 C-197.16200755 281.06557311 -215.28692582 313.26300241 -232.625 345.75 C-233.09164062 346.62398438 -233.55828125 347.49796875 -234.0390625 348.3984375 C-249.6268163 377.70341465 -264.40858946 407.44199562 -277.86132812 437.78710938 C-279.3017846 441.03260929 -280.76431467 444.26752631 -282.23516846 447.49934387 C-313.8210461 516.96214241 -337.71633524 588.8895608 -356.625 662.75 C-356.84760498 663.61614929 -357.07020996 664.48229858 -357.29956055 665.37469482 C-376.20003509 738.99836135 -390.06254321 813.98775617 -396.625 889.75 C-396.7377829 891.02481232 -396.7377829 891.02481232 -396.85284424 892.32537842 C-399.10160664 917.89601203 -399.91075711 943.4148431 -399.93507385 969.07362366 C-399.93744818 971.20351091 -399.94275231 973.33337598 -399.94836426 975.46325684 C-399.99743571 1000.87555023 -399.04455866 1026.2704459 -395.8125 1051.5 C-395.68652939 1052.50454727 -395.68652939 1052.50454727 -395.55801392 1053.52938843 C-392.72041038 1076.05592316 -388.09775479 1097.98787753 -382.30175781 1119.92700195 C-381.60008869 1122.85391397 -381.08589043 1125.77648673 -380.625 1128.75 C-383.4375 1130.8125 -383.4375 1130.8125 -386.625 1132.75 C-387.615 1132.42 -388.605 1132.09 -389.625 1131.75 C-390.73450402 1129.38492281 -391.612502 1127.15383042 -392.4375 1124.6875 C-392.69466797 1123.93073975 -392.95183594 1123.17397949 -393.21679688 1122.39428711 C-407.10546735 1080.29319872 -411.3750778 1034.75498484 -414.375 990.75 C-414.43416595 989.886026 -414.49333191 989.022052 -414.55429077 988.13189697 C-414.96523136 982.00715925 -415.30849943 975.88027806 -415.625 969.75 C-415.70406586 968.30207062 -415.70406586 968.30207062 -415.784729 966.82489014 C-416.48940066 953.51570123 -416.66386059 940.27136948 -416.38621521 926.95127487 C-415.50033642 884.44878682 -417.54962239 845.51496231 -426.92218018 803.9387207 C-428.02662448 798.92781422 -429.01498365 793.89563928 -429.99609375 788.859375 C-432.77749832 774.68662183 -435.7802329 760.68237785 -439.625 746.75 C-440.14266552 744.82472068 -440.66032509 742.89943966 -441.17727661 740.97396851 C-447.9990062 714.59442342 -447.9990062 714.59442342 -458.8203125 689.7109375 C-460.92721025 685.55348986 -461.27910423 681.99195406 -461.1875 677.375 C-461.17799316 676.56828857 -461.16848633 675.76157715 -461.15869141 674.93041992 C-460.52000176 655.28425246 -454.60211849 635.65325584 -449.625 616.75 C-448.965 616.75 -448.305 616.75 -447.625 616.75 C-447.28355957 617.38276855 -446.94211914 618.01553711 -446.59033203 618.66748047 C-438.71679265 633.27944542 -438.71679265 633.27944542 -430.69213867 647.80859375 C-429.07990535 650.68769975 -427.48130468 653.5741975 -425.88720703 656.46337891 C-425.00821215 658.05577078 -424.1261411 659.64646687 -423.24169922 661.23583984 C-416.32657631 673.72547068 -410.91189678 686.12849522 -406.625 699.75 C-408.69995543 690.48804811 -410.95238987 681.33460538 -413.70678711 672.25 C-415.01910733 667.89568497 -416.2020159 663.53042126 -417.2980957 659.11694336 C-421.9830632 640.40284764 -428.50971556 622.26610894 -436.6796875 604.796875 C-437.00807617 604.09369141 -437.33646484 603.39050781 -437.67480469 602.66601562 C-438.69823931 600.53234892 -438.69823931 600.53234892 -440.4453125 597.765625 C-443.39540834 590.2243204 -439.47639799 581.43491745 -437.02734375 574.15234375 C-436.49676109 572.54003624 -436.49676109 572.54003624 -435.95545959 570.89515686 C-434.83272704 567.48981003 -433.69782725 564.08866593 -432.5625 560.6875 C-431.79541429 558.36810616 -431.02912986 556.04844716 -430.26367188 553.72851562 C-428.39337399 548.06590961 -426.5130914 542.40669632 -424.625 536.75 C-423.965 536.75 -423.305 536.75 -422.625 536.75 C-422.23344727 537.48299316 -421.84189453 538.21598633 -421.43847656 538.97119141 C-419.92635842 541.80078552 -418.41341479 544.62993641 -416.89993286 547.45880127 C-416.21611612 548.73725454 -415.53258381 550.01585998 -414.84933472 551.2946167 C-411.35017688 557.84270842 -407.84370881 564.38458135 -404.23828125 570.875 C-398.09204769 581.94516095 -392.52693121 593.07186977 -387.625 604.75 C-389.01243963 595.94842988 -391.1944182 587.43990116 -393.625 578.875 C-393.81963837 578.18590546 -394.01427673 577.49681091 -394.21481323 576.78683472 C-401.92774509 548.12602937 -401.92774509 548.12602937 -414.46508789 521.45922852 C-417.86828246 515.26852321 -416.05802563 509.36489468 -414.625 502.75 C-414.48370667 502.08577026 -414.34241333 501.42154053 -414.19683838 500.73718262 C-413.06076399 495.43158374 -411.8256399 490.15161166 -410.5625 484.875 C-410.36392395 484.04242676 -410.1653479 483.20985352 -409.96075439 482.35205078 C-406.04305203 465.98866906 -401.6357747 449.81378986 -396.625 433.75 C-396.23988251 432.51246979 -396.23988251 432.51246979 -395.84698486 431.24993896 C-383.48735203 391.61937433 -369.18464247 352.81855973 -352.625 314.75 C-352.10905273 313.5626123 -351.59310547 312.37522461 -351.06152344 311.15185547 C-342.7060974 292.02068553 -333.69641311 273.23099672 -324.484375 254.50128174 C-323.26358498 252.01348854 -322.05424835 249.52015733 -320.84375 247.02734375 C-315.57663974 236.25190545 -309.80305406 225.81318716 -303.84375 215.40625 C-301.34144019 211.03166563 -298.90895912 206.62493594 -296.51074219 202.19262695 C-282.40629079 176.1566424 -266.48875174 150.78307874 -249.11230469 126.80664062 C-247.52563987 124.6126051 -245.95350482 122.40861937 -244.3828125 120.203125 C-237.70486402 110.85222761 -230.83443509 101.69739863 -223.625 92.75 C-222.87863281 91.82058594 -222.13226562 90.89117187 -221.36328125 89.93359375 C-212.83486737 79.41470626 -204.00433112 69.15977818 -194.84375 59.1875 C-192.95696831 57.11469758 -191.127467 55.01025529 -189.3125 52.875 C-186.04685695 49.11951049 -182.571943 45.58823385 -179.0625 42.0625 C-178.52004639 41.5154541 -177.97759277 40.9684082 -177.41870117 40.40478516 C-174.87658563 37.87230614 -172.31189812 35.44243005 -169.53515625 33.16796875 C-166.72073192 30.82954102 -164.20047733 28.34569301 -161.625 25.75 C-118.37218835 -13.41545145 -51.16133864 -43.1841584 0 0 Z " fill="#003B57" transform="translate(1061.625,44.25)"/>
<path d="M0 0 C3.22385295 5.52660506 4.31675402 11.66491954 4 18 C0.8982856 13.3474284 -1.52232988 8.70467085 -0.6875 3 C-0.460625 2.01 -0.23375 1.02 0 0 Z " fill="#0F7AC0" transform="translate(671,634)"/>
<path d="M0 0 C1.91238053 3.39885971 2.80407268 6.77453604 3.6875 10.5625 C3.95949219 11.69816406 4.23148438 12.83382812 4.51171875 14.00390625 C5 17 5 17 4 20 C3.13071724 17.60872043 2.27948399 15.21338274 1.4375 12.8125 C1.19064453 12.13896484 0.94378906 11.46542969 0.68945312 10.77148438 C-0.68624467 6.7993992 -1.31172566 4.04514201 0 0 Z " fill="#1476B4" transform="translate(651,727)"/>
</svg>
