<?xml version="1.0" encoding="UTF-8"?>
<svg version="1.1" xmlns="http://www.w3.org/2000/svg" width="949" height="712">
<path d="M0 0 C0 62.04 0 124.08 0 188 C-8.25 192.62 -16.5 197.24 -25 202 C-32.60917977 206.44303334 -32.60917977 206.44303334 -40.21240234 210.89624023 C-48.70533934 215.87297802 -57.31069796 220.6363507 -65.92871094 225.39208984 C-74.38751812 230.07243587 -82.7483664 234.90186334 -91.08203125 239.80078125 C-98.17161291 243.95900352 -105.31808853 248.00360929 -112.5 252 C-120.94925854 256.70284554 -129.34210413 261.49011436 -137.6875 266.375 C-138.68346191 266.95781738 -139.67942383 267.54063477 -140.70556641 268.14111328 C-142.60157125 269.25133476 -144.49741249 270.36183569 -146.39306641 271.47265625 C-150.04918505 273.61469392 -153.70696196 275.75343064 -157.375 277.875 C-158.43460938 278.49117188 -159.49421875 279.10734375 -160.5859375 279.7421875 C-163 281 -163 281 -165 281 C-165 218.96 -165 156.92 -165 93 C-77.5 43 -77.5 43 -75.75007629 42.00004578 C-74.58315281 41.3332309 -73.41623183 40.66641165 -72.24931335 39.99958801 C-69.33659649 38.33515299 -66.42383645 36.67079361 -63.51098633 35.0065918 C-57.61442917 31.63759457 -51.71863561 28.26727191 -45.82421875 24.89453125 C-40.01095854 21.56833352 -34.19499105 18.24691407 -28.37744141 14.92822266 C-26.10800142 13.63257158 -23.83945949 12.33534633 -21.57177734 11.03662109 C-18.34177391 9.18709691 -15.10876519 7.34293692 -11.875 5.5 C-10.41646606 4.66239136 -10.41646606 4.66239136 -8.9284668 3.80786133 C-8.04199463 3.30407959 -7.15552246 2.80029785 -6.2421875 2.28125 C-5.4672998 1.83845703 -4.69241211 1.39566406 -3.89404297 0.93945312 C-2 0 -2 0 0 0 Z " fill="#4040B1" transform="translate(739,165)"/>
<path d="M0 0 C3.53064211 1.38427362 6.80355979 2.90979826 10.11328125 4.765625 C11.10134766 5.31863281 12.08941406 5.87164062 13.10742188 6.44140625 C14.16509766 7.03824219 15.22277344 7.63507813 16.3125 8.25 C17.42044922 8.87261719 18.52839844 9.49523437 19.66992188 10.13671875 C28.15576926 14.92113866 36.57500817 19.81505935 44.97583008 24.74707031 C52.10200276 28.92081367 59.28386337 32.98406309 66.5 37 C75.72931402 42.13631389 84.87236973 47.40212535 93.98046875 52.75 C101.1052845 56.92244112 108.28551567 60.98485099 115.5 65 C126.76032867 71.26848196 138.02592456 77.56989065 149.01052475 84.31378841 C151.95275214 86.06643857 151.95275214 86.06643857 155.11841202 87.21435642 C158.72679895 88.77663327 161.20006017 90.21970053 164 93 C165.78899933 98.99461925 165.52067602 104.84534964 165.36230469 111.05249023 C165.35891781 112.90571369 165.36082372 114.75895325 165.36761475 116.61216736 C165.37105414 121.63367046 165.30058081 126.65172474 165.21672726 131.67242694 C165.14164073 136.9226391 165.13465725 142.17293301 165.12042236 147.42359924 C165.08314431 157.36184818 164.98470105 167.2985105 164.86422849 177.23606116 C164.73003516 188.5513821 164.66410525 199.86677938 164.60388327 211.18269813 C164.47849728 234.45601129 164.26746818 257.7279167 164 281 C160.46935789 279.61572638 157.19644021 278.09020174 153.88671875 276.234375 C152.89865234 275.68136719 151.91058594 275.12835938 150.89257812 274.55859375 C149.83490234 273.96175781 148.77722656 273.36492187 147.6875 272.75 C146.57955078 272.12738281 145.47160156 271.50476563 144.33007812 270.86328125 C135.84423074 266.07886134 127.42499183 261.18494065 119.02416992 256.25292969 C111.89799724 252.07918633 104.71613663 248.01593691 97.5 244 C88.27068598 238.86368611 79.12763027 233.59787465 70.01953125 228.25 C62.8947155 224.07755888 55.71448433 220.01514901 48.5 216 C37.23967133 209.73151804 25.97407544 203.43010935 14.98947525 196.68621159 C12.04724786 194.93356143 12.04724786 194.93356143 8.88158798 193.78564358 C5.27320105 192.22336673 2.79993983 190.78029947 0 188 C-1.78899933 182.00538075 -1.52067602 176.15465036 -1.36230469 169.94750977 C-1.35891781 168.09428631 -1.36082372 166.24104675 -1.36761475 164.38783264 C-1.37105414 159.36632954 -1.30058081 154.34827526 -1.21672726 149.32757306 C-1.14164073 144.0773609 -1.13465725 138.82706699 -1.12042236 133.57640076 C-1.08314431 123.63815182 -0.98470105 113.7014895 -0.86422849 103.76393884 C-0.73003516 92.4486179 -0.66410525 81.13322062 -0.60388327 69.81730187 C-0.47849728 46.54398871 -0.26746818 23.2720833 0 0 Z " fill="#5F42E8" transform="translate(393,165)"/>
<path d="M0 0 C3.53695667 0.80852683 6.27286422 2.11274124 9.453125 3.88671875 C10.53480957 4.48814697 11.61649414 5.0895752 12.73095703 5.70922852 C13.90411129 6.36840336 15.07712192 7.02783387 16.25 7.6875 C17.4685084 8.36854928 18.68709676 9.04945552 19.90576172 9.73022461 C28.69025673 14.64944655 37.39726845 19.69606036 46.07714844 24.79760742 C53.1680826 28.95736496 60.31636565 33.00271796 67.5 37 C76.72934771 42.13625165 85.87237125 47.40212624 94.98046875 52.75 C103.13042209 57.52278313 111.36080412 62.14068261 119.61376953 66.73242188 C128.06531744 71.44672844 136.4342995 76.29354536 144.77148438 81.20703125 C146.14916992 82.01720703 146.14916992 82.01720703 147.5546875 82.84375 C148.73780518 83.54274414 148.73780518 83.54274414 149.94482422 84.25585938 C154.5902744 86.90785682 159.30401375 89.43855296 164 92 C164 154.37 164 216.74 164 281 C155.08683755 276.24631336 146.29769943 271.51437744 137.625 266.375 C129.30474644 261.48135627 120.93556498 256.69199447 112.5 252 C103.2705555 246.86392529 94.12762486 241.59787148 85.01953125 236.25 C77.8947181 232.07756041 70.71453859 228.01504756 63.5 224 C54.28676317 218.87263341 45.15742163 213.61960006 36.06787109 208.27636719 C27.40077093 203.19629623 18.64172553 198.29076657 9.84375 193.44140625 C8.84601563 192.88839844 7.84828125 192.33539063 6.8203125 191.765625 C5.49410889 191.03520996 5.49410889 191.03520996 4.14111328 190.29003906 C2 189 2 189 0 187 C-0.19302416 184.51633372 -0.26056147 182.1446742 -0.24050903 179.6602478 C-0.24221788 178.89491466 -0.24392673 178.12958152 -0.24568737 177.34105647 C-0.24899556 174.76292185 -0.23795686 172.18504445 -0.22705078 169.60693359 C-0.22648695 167.76429755 -0.22680267 165.92166105 -0.22793579 164.07902527 C-0.22851142 159.06480175 -0.21672324 154.05067322 -0.20278788 149.03647184 C-0.19031539 143.80073746 -0.18911277 138.56500109 -0.18673706 133.32925415 C-0.18051203 123.40928723 -0.1640874 113.4893642 -0.14403808 103.56941664 C-0.12171087 92.27817648 -0.11069366 80.98693425 -0.10064721 69.69567752 C-0.07972204 46.46376064 -0.04452623 23.23188278 0 0 Z " fill="#5E42E8" transform="translate(211,61)"/>
<path d="M0 0 C2.36290929 1.25488279 4.72519856 2.51091009 7.0871582 3.76757812 C7.74724129 4.11798157 8.40732437 4.46838501 9.08740997 4.82940674 C15.52884914 8.25863898 21.86338099 11.85872843 28.1875 15.5 C29.39504469 16.19294818 30.60273069 16.88565015 31.81054688 17.578125 C34.30441372 19.00817624 36.79768719 20.43925363 39.29052734 21.87109375 C45.18802618 25.2572913 51.09459438 28.62761842 57 32 C59.33342367 33.33317526 61.66671168 34.66658787 64 36 C65.16666416 36.66667105 66.33333083 37.33333772 67.5 38 C79.16666667 44.66666667 90.83333333 51.33333333 102.5 58 C103.07740433 58.32994461 103.65480865 58.65988922 104.24971008 58.99983215 C105.41734564 59.66705393 106.5849787 60.33428009 107.75260925 61.00151062 C110.6544314 62.65971998 113.55630545 64.31783834 116.45825195 65.97583008 C121.88508859 69.07649749 127.31154345 72.17782486 132.73654175 75.28170776 C135.27594241 76.73455358 137.81557507 78.18699359 140.35522461 79.6394043 C141.55618647 80.32637689 142.75703688 81.01354435 143.95776367 81.70092773 C145.63170839 82.65919871 147.30608256 83.61671937 148.98046875 84.57421875 C149.92817139 85.11651123 150.87587402 85.65880371 151.85229492 86.2175293 C155.88781294 88.50274741 159.94598053 90.74776696 164 93 C164 155.04 164 217.08 164 281 C159.4927066 279.49756887 156.27771609 278.18644101 152.2734375 275.8671875 C150.62408203 274.91779297 150.62408203 274.91779297 148.94140625 273.94921875 C147.75257901 273.25785576 146.56377765 272.56644827 145.375 271.875 C144.12663437 271.15437198 142.87793002 270.43433046 141.62890625 269.71484375 C139.03611824 268.22069053 136.44480118 266.72403245 133.85449219 265.22558594 C127.91652691 261.79338022 121.95719212 258.39869229 116 255 C113.66644045 253.66706242 111.33322092 252.33353021 109 251 C107.83333959 250.33332238 106.66667293 249.66665571 105.5 249 C70.49999999 228.99999999 70.49999999 228.99999999 68.75016785 228.00009155 C67.5829467 227.33311095 66.41572054 226.66613911 65.24848938 225.99917603 C62.34026522 224.33738433 59.43212697 222.67544266 56.52416992 221.01318359 C51.1736457 217.95489633 45.82236513 214.89796079 40.46809387 211.84623718 C17.91967273 198.99447001 17.91967273 198.99447001 7.8125 193.0625 C7.11745361 192.65531738 6.42240723 192.24813477 5.70629883 191.82861328 C1.12574848 189.12574848 1.12574848 189.12574848 0 188 C-0.09768222 185.57150529 -0.12996531 183.17148637 -0.12025452 180.74253845 C-0.12110894 179.97397618 -0.12196337 179.20541391 -0.12284368 178.41356188 C-0.12450081 175.81857214 -0.11897334 173.22364597 -0.11352539 170.62866211 C-0.11324354 168.77632143 -0.1134012 166.92398063 -0.1139679 165.07164001 C-0.11425597 160.02639589 -0.10835773 154.98117532 -0.10139394 149.93593669 C-0.09516195 144.66949631 -0.09455672 139.40305544 -0.09336853 134.13661194 C-0.09025475 124.15642042 -0.08204075 114.1762398 -0.07201904 104.19605309 C-0.06085933 92.8371181 -0.05534781 81.4781826 -0.05032361 70.1192435 C-0.03985817 46.74615628 -0.02225784 23.37307875 0 0 Z " fill="#5F42E8" transform="translate(393,372)"/>
</svg>
