<?xml version="1.0" encoding="UTF-8"?>
<svg version="1.1" xmlns="http://www.w3.org/2000/svg" width="1000" height="600">
<path d="M0 0 C330 0 660 0 1000 0 C1000 198 1000 396 1000 600 C670 600 340 600 0 600 C0 402 0 204 0 0 Z " fill="#2A007D" transform="translate(0,0)"/>
<path d="M0 0 C1.97289467 -0.38869667 1.97289467 -0.38869667 4.43862915 -0.40786743 C5.83898911 -0.4292276 5.83898911 -0.4292276 7.26763916 -0.45101929 C8.29516296 -0.45123077 9.32268677 -0.45144226 10.38134766 -0.45166016 C11.46118927 -0.46334229 12.54103088 -0.47502441 13.65359497 -0.48706055 C17.24050664 -0.52078359 20.82700602 -0.53139936 24.4140625 -0.5390625 C26.90310821 -0.55123661 29.39215242 -0.56372239 31.88119507 -0.57650757 C37.10848023 -0.59902411 42.33566292 -0.60861749 47.56298828 -0.61083984 C52.92727803 -0.61353403 58.29074278 -0.64162974 63.65478516 -0.69287109 C70.12817682 -0.75379662 76.60080272 -0.78036017 83.07447433 -0.78095627 C85.5408175 -0.78633849 88.00716364 -0.80319445 90.47334671 -0.83180618 C93.93054994 -0.86855649 97.38499535 -0.86080595 100.84228516 -0.84228516 C101.85766357 -0.86273895 102.87304199 -0.88319275 103.91918945 -0.90426636 C110.42389 -0.8087438 113.51185468 0.54348152 118.09307671 5.14321709 C119.98848944 6.9887921 121.83318439 8.28912343 124.08538818 9.66464233 C137.69521508 18.12589116 152.27430534 29.82784701 156.09164429 46.14997864 C160.58698175 69.45602634 158.54434436 94.39135624 157.57748079 117.95244575 C157.18661933 127.66307171 157.01075881 137.37443983 156.84655237 147.09110761 C156.58635002 162.16375105 156.21614065 177.2304054 155.66894531 192.29541016 C155.64297398 193.05093863 155.61700264 193.80646709 155.59024429 194.58489037 C155.51737712 196.67390996 155.43787926 198.76255248 155.35577393 200.85122681 C155.31123707 202.0216131 155.26670021 203.1919994 155.22081375 204.39785194 C155 207 155 207 154 208 C152.01766467 208.10108739 150.0316771 208.13077459 148.04676819 208.13371277 C146.75250412 208.13797775 145.45824005 208.14224274 144.12475586 208.14663696 C142.67700192 208.1462874 141.22924801 208.14582584 139.78149414 208.14526367 C138.26736874 208.14825352 136.7532441 208.15165565 135.23912048 208.15544128 C131.11520594 208.16430317 126.99131211 208.16662031 122.86738896 208.16725707 C119.43031609 208.16820435 115.99324809 208.17188054 112.55617708 208.17542917 C104.45029069 208.18358203 96.34441541 208.18601264 88.23852539 208.18530273 C79.86394452 208.18470171 71.48942803 208.19525661 63.11486346 208.2110464 C55.93609979 208.22410156 48.75735721 208.22948749 41.57858175 208.22884732 C37.28605385 208.22859174 32.9935831 208.231476 28.70106697 208.24202538 C24.66525662 208.25167243 20.62955847 208.25180903 16.59374428 208.24450874 C15.10941658 208.24345866 13.62508201 208.24585074 12.14076614 208.2518692 C10.12059652 208.25953214 8.10038904 208.25377096 6.08021545 208.24723816 C4.38145563 208.24805531 4.38145563 208.24805531 2.64837742 208.24888897 C-0 208 -0 208 -2 206 C-2.19764982 203.3236142 -2.26924359 200.75060552 -2.25396729 198.07301331 C-2.25708727 197.24446002 -2.26020725 196.41590674 -2.26342177 195.56224579 C-2.27143544 192.77002304 -2.26506506 189.9780156 -2.25878906 187.18579102 C-2.26149745 185.1903877 -2.26505752 183.19498537 -2.26940918 181.19958496 C-2.27855414 175.76783223 -2.27498011 170.33615518 -2.26865101 164.90440106 C-2.26360119 159.22963581 -2.26827968 153.5548772 -2.27142334 147.88011169 C-2.27506626 138.34771558 -2.27025566 128.81535041 -2.26074219 119.28295898 C-2.24986014 108.25166866 -2.25338011 97.22045227 -2.264395 86.18916374 C-2.27346232 76.73097428 -2.27475578 67.27280712 -2.26951766 57.81461471 C-2.2663945 52.16000814 -2.26599803 46.50543635 -2.27259064 40.85083199 C-2.27835529 35.53459578 -2.27438335 30.21845515 -2.26280212 24.90222931 C-2.26015068 22.94745734 -2.26092884 20.99267737 -2.26532745 19.03790855 C-2.27076536 16.3764861 -2.26397017 13.71537291 -2.25396729 11.05397034 C-2.25842873 10.2742106 -2.26289017 9.49445086 -2.26748681 8.69106203 C-2.2398335 4.91662909 -2.14751087 3.2212663 0 0 Z " fill="#2B017D" transform="translate(106,196)"/>
<path d="M0 0 C0.9354364 -0.01007584 1.8708728 -0.02015167 2.83465576 -0.03053284 C5.92854755 -0.05904023 9.02195182 -0.06489107 12.1159668 -0.06811523 C14.26824647 -0.07775531 16.42052416 -0.08784771 18.57279968 -0.09837341 C23.08617712 -0.1163424 27.59938228 -0.12189373 32.11279297 -0.12011719 C37.89009403 -0.11981251 43.66628736 -0.16074857 49.443326 -0.21243382 C53.88981679 -0.24582949 58.33604091 -0.25187374 62.78264427 -0.25028801 C64.91207888 -0.25382381 67.0415207 -0.26706936 69.17083168 -0.29028511 C72.1537332 -0.31975937 75.13424557 -0.31102773 78.1171875 -0.29296875 C78.99275803 -0.30982727 79.86832855 -0.32668579 80.77043152 -0.34405518 C86.39392037 -0.25776043 89.34699082 1.00658762 93.46252728 4.85594273 C95.99557819 7.95776072 95.87496804 10.99833988 95.86621094 14.82519531 C95.86613541 15.92611008 95.86605988 17.02702484 95.86598206 18.16130066 C95.86082077 19.34887466 95.85565948 20.53644867 95.8503418 21.76000977 C95.84821938 23.58481621 95.84821938 23.58481621 95.84605408 25.44648743 C95.84044867 29.33878012 95.82789521 33.23101566 95.81518555 37.12329102 C95.81017125 39.75935789 95.80560822 42.39542567 95.80151367 45.03149414 C95.79047748 51.49961266 95.77373404 57.96769775 95.75268555 64.43579102 C96.69974365 64.57315674 97.64680176 64.71052246 98.62255859 64.85205078 C101.91686526 65.46640904 103.1500486 66.14351447 105.56518555 68.37329102 C106.14913086 68.89793945 106.73307617 69.42258789 107.3347168 69.96313477 C110.62968116 73.38517764 110.00661401 77.24172711 109.99487305 81.74438477 C109.7060257 84.95431737 108.48055455 86.765448 106.75268555 89.43579102 C107.41548938 91.86607174 107.95378275 93.63688822 109.75268555 95.43579102 C109.90477714 97.36910911 109.97454885 99.30920385 110.00268555 101.24829102 C110.04135742 102.83577148 110.04135742 102.83577148 110.08081055 104.45532227 C109.71616609 107.76750944 108.85850618 108.94455493 106.75268555 111.43579102 C107.03151424 114.50290666 107.99515692 115.79949808 109.75268555 118.43579102 C110.49869654 124.69453255 110.19606932 129.11419791 106.75268555 134.43579102 C107.41548938 136.86607174 107.95378275 138.63688822 109.75268555 140.43579102 C110.35621428 145.27930009 110.85536003 150.27484505 108.58862305 154.71704102 C105.80950944 158.08048107 103.07920334 160.3833948 98.75268555 161.43579102 C97.76268555 161.43579102 96.77268555 161.43579102 95.75268555 161.43579102 C95.67018555 162.15766602 95.58768555 162.87954102 95.50268555 163.62329102 C94.53858746 167.23865884 93.51399601 168.88157884 90.75268555 171.43579102 C88.8034668 171.84204102 88.8034668 171.84204102 86.56518555 172.12329102 C79.89833557 173.29080811 76.80764009 178.42341665 72.75268555 183.43579102 C71.26300199 185.11168501 69.76308712 186.77854485 68.25268555 188.43579102 C67.51018555 189.26079102 66.76768555 190.08579102 66.00268555 190.93579102 C63.75268555 193.43579102 61.50268555 195.93579102 59.25268555 198.43579102 C58.51920898 199.25305664 57.78573242 200.07032227 57.0300293 200.91235352 C55.44796228 202.66538146 53.85607397 204.40957573 52.2565918 206.14672852 C51.45092773 207.02586914 50.64526367 207.90500977 49.81518555 208.81079102 C49.08428711 209.60227539 48.35338867 210.39375977 47.6003418 211.20922852 C45.92222849 213.23147923 44.79789661 215.03891956 43.75268555 217.43579102 C45.23768555 218.42579102 45.23768555 218.42579102 46.75268555 219.43579102 C46.18216103 224.32278392 44.6645193 228.3740274 42.50268555 232.74829102 C42.21522461 233.38057617 41.92776367 234.01286133 41.6315918 234.66430664 C40.15770335 237.66679119 39.3059702 239.21464281 36.14331055 240.47875977 C33.75268555 240.43579102 33.75268555 240.43579102 31.75268555 238.43579102 C31.94644817 234.46365734 33.18546773 231.29369854 34.80737305 227.72094727 C35.17072754 226.91665283 35.53408203 226.1123584 35.90844727 225.28369141 C36.32634521 224.36898071 36.32634521 224.36898071 36.75268555 223.43579102 C36.12813477 223.23945068 35.50358398 223.04311035 34.86010742 222.84082031 C31.99025503 221.93722041 29.12146885 221.03027912 26.25268555 220.12329102 C25.27041992 219.81456055 24.2881543 219.50583008 23.27612305 219.18774414 C18.33092972 217.62176625 13.44084191 215.98974897 8.59838867 214.13037109 C5.51504609 212.97003913 2.38282432 211.96163482 -0.74731445 210.93579102 C-5.21247131 209.4634252 -9.64221598 207.94126762 -14.02856445 206.24829102 C-17.89652888 204.83185334 -21.8183474 203.57102269 -25.73046875 202.28271484 C-29.20384389 201.13398093 -32.64657058 199.93991708 -36.05981445 198.62329102 C-38.99275579 197.31942134 -38.99275579 197.31942134 -41.24731445 197.43579102 C-41.61316399 198.17748283 -41.61316399 198.17748283 -41.98640442 198.93415833 C-44.5261438 204.08000871 -47.07432212 209.22161523 -49.62744141 214.36083984 C-50.57915842 216.2793599 -51.52871857 218.19895148 -52.47607422 220.11962891 C-53.83816938 222.88020837 -55.2079751 225.6368412 -56.5793457 228.39282227 C-57.00133743 229.25228958 -57.42332916 230.1117569 -57.85810852 230.99726868 C-58.45839119 232.1981739 -58.45839119 232.1981739 -59.07080078 233.42333984 C-59.59375481 234.47924065 -59.59375481 234.47924065 -60.12727356 235.55647278 C-61.31113739 237.54287961 -62.45850801 238.97000975 -64.24731445 240.43579102 C-66.43481445 240.12329102 -66.43481445 240.12329102 -68.24731445 239.43579102 C-69.34905986 235.48315508 -69.22022448 233.50979609 -67.37304688 229.86083984 C-66.93897018 228.9867598 -66.50489349 228.11267975 -66.05766296 227.21211243 C-65.57755264 226.28174667 -65.09744232 225.35138092 -64.6027832 224.39282227 C-64.11779861 223.42801437 -63.63281403 222.46320648 -63.13313293 221.46916199 C-62.10632962 219.43269055 -61.07284576 217.39957574 -60.03320312 215.36962891 C-58.43878258 212.25603999 -56.8638007 209.13323448 -55.29223633 206.00805664 C-54.29270156 204.03158027 -53.29208697 202.05564953 -52.2902832 200.08032227 C-51.57922676 198.6756646 -51.57922676 198.6756646 -50.85380554 197.24263 C-50.41027237 196.37800644 -49.9667392 195.51338287 -49.50976562 194.62255859 C-49.12036301 193.86042557 -48.73096039 193.09829254 -48.32975769 192.31306458 C-47.24731445 190.43579102 -47.24731445 190.43579102 -45.24731445 188.43579102 C-42.12231445 188.31079102 -42.12231445 188.31079102 -39.24731445 188.43579102 C-39.24823625 187.82341866 -39.24915804 187.21104631 -39.25010777 186.58011723 C-39.27216341 171.70027613 -39.28872621 156.82043661 -39.29912663 141.94058323 C-39.30428948 134.74488807 -39.31133198 127.5492038 -39.32275391 120.35351562 C-39.33270106 114.08394407 -39.33916795 107.8143804 -39.34140295 101.54480118 C-39.34271 98.22313481 -39.34631443 94.90149635 -39.35304451 91.57983589 C-39.36025073 87.87759154 -39.36130557 84.17539471 -39.36083984 80.47314453 C-39.36443512 79.36400192 -39.3680304 78.25485931 -39.37173462 77.11210632 C-39.37035995 76.10944733 -39.36898529 75.10678833 -39.36756897 74.07374573 C-39.36849076 73.1971206 -39.36941256 72.32049547 -39.37036228 71.41730595 C-39.24731445 69.43579102 -39.24731445 69.43579102 -38.24731445 68.43579102 C-32.04074037 67.7235612 -28.47947405 68.55301507 -22.9230957 71.46313477 C-21.85615479 72.01606201 -20.78921387 72.56898926 -19.68994141 73.13867188 C-18.88387451 73.56672119 -18.07780762 73.99477051 -17.24731445 74.43579102 C-17.2561969 73.63478973 -17.26507935 72.83378845 -17.27423096 72.0085144 C-17.35450093 64.44631926 -17.41534145 56.88433176 -17.45456314 49.32182121 C-17.47540565 45.43416999 -17.50366126 41.54687186 -17.54907227 37.65942383 C-17.59265064 33.90520907 -17.61647665 30.15133316 -17.62682343 26.39688492 C-17.63419344 24.96717116 -17.64858559 23.53747518 -17.67023468 22.10790634 C-17.69942206 20.1000362 -17.70094965 18.09182245 -17.70141602 16.08374023 C-17.71029846 14.94234589 -17.71918091 13.80095154 -17.72833252 12.62496948 C-17.01492397 7.89502826 -14.72522418 5.0690189 -11.57527161 1.58802795 C-7.83412036 -0.26367823 -4.11833665 -0.00635078 0 0 Z " fill="#2A007D" transform="translate(788.247314453125,179.564208984375)"/>
<path d="M0 0 C0.9354364 -0.01007584 1.8708728 -0.02015167 2.83465576 -0.03053284 C5.92854755 -0.05904023 9.02195182 -0.06489107 12.1159668 -0.06811523 C14.26824647 -0.07775531 16.42052416 -0.08784771 18.57279968 -0.09837341 C23.08617712 -0.1163424 27.59938228 -0.12189373 32.11279297 -0.12011719 C37.89009403 -0.11981251 43.66628736 -0.16074857 49.443326 -0.21243382 C53.88981679 -0.24582949 58.33604091 -0.25187374 62.78264427 -0.25028801 C64.91207888 -0.25382381 67.0415207 -0.26706936 69.17083168 -0.29028511 C72.1537332 -0.31975937 75.13424557 -0.31102773 78.1171875 -0.29296875 C78.99275803 -0.30982727 79.86832855 -0.32668579 80.77043152 -0.34405518 C86.39392037 -0.25776043 89.34699082 1.00658762 93.46252728 4.85594273 C95.99557819 7.95776072 95.87496804 10.99833988 95.86621094 14.82519531 C95.86613541 15.92611008 95.86605988 17.02702484 95.86598206 18.16130066 C95.86082077 19.34887466 95.85565948 20.53644867 95.8503418 21.76000977 C95.84821938 23.58481621 95.84821938 23.58481621 95.84605408 25.44648743 C95.84044867 29.33878012 95.82789521 33.23101566 95.81518555 37.12329102 C95.81017125 39.75935789 95.80560822 42.39542567 95.80151367 45.03149414 C95.79047748 51.49961266 95.77373404 57.96769775 95.75268555 64.43579102 C96.69974365 64.57315674 97.64680176 64.71052246 98.62255859 64.85205078 C101.91686526 65.46640904 103.1500486 66.14351447 105.56518555 68.37329102 C106.14913086 68.89793945 106.73307617 69.42258789 107.3347168 69.96313477 C110.62968116 73.38517764 110.00661401 77.24172711 109.99487305 81.74438477 C109.7060257 84.95431737 108.48055455 86.765448 106.75268555 89.43579102 C107.41548938 91.86607174 107.95378275 93.63688822 109.75268555 95.43579102 C109.90477714 97.36910911 109.97454885 99.30920385 110.00268555 101.24829102 C110.04135742 102.83577148 110.04135742 102.83577148 110.08081055 104.45532227 C109.71616609 107.76750944 108.85850618 108.94455493 106.75268555 111.43579102 C107.03151424 114.50290666 107.99515692 115.79949808 109.75268555 118.43579102 C110.49869654 124.69453255 110.19606932 129.11419791 106.75268555 134.43579102 C107.41548938 136.86607174 107.95378275 138.63688822 109.75268555 140.43579102 C110.35621428 145.27930009 110.85536003 150.27484505 108.58862305 154.71704102 C105.80950944 158.08048107 103.07920334 160.3833948 98.75268555 161.43579102 C97.76268555 161.43579102 96.77268555 161.43579102 95.75268555 161.43579102 C95.67018555 162.15766602 95.58768555 162.87954102 95.50268555 163.62329102 C94.53858746 167.23865884 93.51399601 168.88157884 90.75268555 171.43579102 C88.8034668 171.84204102 88.8034668 171.84204102 86.56518555 172.12329102 C79.89833557 173.29080811 76.80764009 178.42341665 72.75268555 183.43579102 C71.26300199 185.11168501 69.76308712 186.77854485 68.25268555 188.43579102 C67.51018555 189.26079102 66.76768555 190.08579102 66.00268555 190.93579102 C63.75268555 193.43579102 61.50268555 195.93579102 59.25268555 198.43579102 C58.51920898 199.25305664 57.78573242 200.07032227 57.0300293 200.91235352 C55.44796228 202.66538146 53.85607397 204.40957573 52.2565918 206.14672852 C51.45092773 207.02586914 50.64526367 207.90500977 49.81518555 208.81079102 C49.08428711 209.60227539 48.35338867 210.39375977 47.6003418 211.20922852 C45.92222849 213.23147923 44.79789661 215.03891956 43.75268555 217.43579102 C45.23768555 218.42579102 45.23768555 218.42579102 46.75268555 219.43579102 C46.18216103 224.32278392 44.6645193 228.3740274 42.50268555 232.74829102 C42.21522461 233.38057617 41.92776367 234.01286133 41.6315918 234.66430664 C40.15770335 237.66679119 39.3059702 239.21464281 36.14331055 240.47875977 C33.75268555 240.43579102 33.75268555 240.43579102 31.75268555 238.43579102 C31.94644817 234.46365734 33.18546773 231.29369854 34.80737305 227.72094727 C35.17072754 226.91665283 35.53408203 226.1123584 35.90844727 225.28369141 C36.32634521 224.36898071 36.32634521 224.36898071 36.75268555 223.43579102 C36.12813477 223.23945068 35.50358398 223.04311035 34.86010742 222.84082031 C31.99025503 221.93722041 29.12146885 221.03027912 26.25268555 220.12329102 C25.27041992 219.81456055 24.2881543 219.50583008 23.27612305 219.18774414 C18.33092972 217.62176625 13.44084191 215.98974897 8.59838867 214.13037109 C5.51504609 212.97003913 2.38282432 211.96163482 -0.74731445 210.93579102 C-5.21247131 209.4634252 -9.64221598 207.94126762 -14.02856445 206.24829102 C-17.89652888 204.83185334 -21.8183474 203.57102269 -25.73046875 202.28271484 C-29.20384389 201.13398093 -32.64657058 199.93991708 -36.05981445 198.62329102 C-38.99275579 197.31942134 -38.99275579 197.31942134 -41.24731445 197.43579102 C-41.61316399 198.17748283 -41.61316399 198.17748283 -41.98640442 198.93415833 C-44.5261438 204.08000871 -47.07432212 209.22161523 -49.62744141 214.36083984 C-50.57915842 216.2793599 -51.52871857 218.19895148 -52.47607422 220.11962891 C-53.83816938 222.88020837 -55.2079751 225.6368412 -56.5793457 228.39282227 C-57.00133743 229.25228958 -57.42332916 230.1117569 -57.85810852 230.99726868 C-58.45839119 232.1981739 -58.45839119 232.1981739 -59.07080078 233.42333984 C-59.59375481 234.47924065 -59.59375481 234.47924065 -60.12727356 235.55647278 C-61.31113739 237.54287961 -62.45850801 238.97000975 -64.24731445 240.43579102 C-66.43481445 240.12329102 -66.43481445 240.12329102 -68.24731445 239.43579102 C-69.34905986 235.48315508 -69.22022448 233.50979609 -67.37304688 229.86083984 C-66.93897018 228.9867598 -66.50489349 228.11267975 -66.05766296 227.21211243 C-65.57755264 226.28174667 -65.09744232 225.35138092 -64.6027832 224.39282227 C-64.11779861 223.42801437 -63.63281403 222.46320648 -63.13313293 221.46916199 C-62.10632962 219.43269055 -61.07284576 217.39957574 -60.03320312 215.36962891 C-58.43878258 212.25603999 -56.8638007 209.13323448 -55.29223633 206.00805664 C-54.29270156 204.03158027 -53.29208697 202.05564953 -52.2902832 200.08032227 C-51.57922676 198.6756646 -51.57922676 198.6756646 -50.85380554 197.24263 C-50.41027237 196.37800644 -49.9667392 195.51338287 -49.50976562 194.62255859 C-49.12036301 193.86042557 -48.73096039 193.09829254 -48.32975769 192.31306458 C-47.24731445 190.43579102 -47.24731445 190.43579102 -45.24731445 188.43579102 C-42.12231445 188.31079102 -42.12231445 188.31079102 -39.24731445 188.43579102 C-39.24823625 187.82341866 -39.24915804 187.21104631 -39.25010777 186.58011723 C-39.27216341 171.70027613 -39.28872621 156.82043661 -39.29912663 141.94058323 C-39.30428948 134.74488807 -39.31133198 127.5492038 -39.32275391 120.35351562 C-39.33270106 114.08394407 -39.33916795 107.8143804 -39.34140295 101.54480118 C-39.34271 98.22313481 -39.34631443 94.90149635 -39.35304451 91.57983589 C-39.36025073 87.87759154 -39.36130557 84.17539471 -39.36083984 80.47314453 C-39.36443512 79.36400192 -39.3680304 78.25485931 -39.37173462 77.11210632 C-39.37035995 76.10944733 -39.36898529 75.10678833 -39.36756897 74.07374573 C-39.36849076 73.1971206 -39.36941256 72.32049547 -39.37036228 71.41730595 C-39.24731445 69.43579102 -39.24731445 69.43579102 -38.24731445 68.43579102 C-32.04074037 67.7235612 -28.47947405 68.55301507 -22.9230957 71.46313477 C-21.85615479 72.01606201 -20.78921387 72.56898926 -19.68994141 73.13867188 C-18.88387451 73.56672119 -18.07780762 73.99477051 -17.24731445 74.43579102 C-17.2561969 73.63478973 -17.26507935 72.83378845 -17.27423096 72.0085144 C-17.35450093 64.44631926 -17.41534145 56.88433176 -17.45456314 49.32182121 C-17.47540565 45.43416999 -17.50366126 41.54687186 -17.54907227 37.65942383 C-17.59265064 33.90520907 -17.61647665 30.15133316 -17.62682343 26.39688492 C-17.63419344 24.96717116 -17.64858559 23.53747518 -17.67023468 22.10790634 C-17.69942206 20.1000362 -17.70094965 18.09182245 -17.70141602 16.08374023 C-17.71029846 14.94234589 -17.71918091 13.80095154 -17.72833252 12.62496948 C-17.01492397 7.89502826 -14.72522418 5.0690189 -11.57527161 1.58802795 C-7.83412036 -0.26367823 -4.11833665 -0.00635078 0 0 Z M-9.24731445 9.43579102 C-9.29398331 29.48034554 -9.32927815 49.52488908 -9.3509388 69.56948662 C-9.3612624 78.87601408 -9.37534337 88.18250784 -9.39819336 97.48901367 C-9.41809413 105.59818898 -9.431023 113.70733988 -9.43549144 121.81653893 C-9.43810446 126.11244293 -9.44426854 130.40827711 -9.45877457 134.70415878 C-9.47230621 138.74404977 -9.4765461 142.78384186 -9.47352982 146.82375336 C-9.47408197 148.30969657 -9.47808567 149.79564294 -9.4857254 151.28156662 C-9.49561706 153.30396916 -9.49210549 155.32642424 -9.48782349 157.34884644 C-9.48966707 158.48265181 -9.49151066 159.61645718 -9.49341011 160.78462029 C-9.51753018 163.59139096 -9.51753018 163.59139096 -7.24731445 165.43579102 C-4.30552178 165.63461503 -1.45784096 165.70844556 1.48510742 165.69458008 C2.38926895 165.69808472 3.29343048 165.70158936 4.22499084 165.7052002 C7.22388307 165.71402724 10.22254078 165.70816492 13.22143555 165.70141602 C15.29886928 165.70276239 17.3763027 165.70470268 19.45373535 165.70721436 C23.81171666 165.71016694 28.16961609 165.70586365 32.52758789 165.6965332 C38.12344632 165.68513862 43.71911291 165.69169737 49.31496429 165.70367813 C53.60595148 165.7108931 57.89689293 165.70861047 62.18788147 165.70342255 C64.25163292 165.70208504 66.31538848 165.70373726 68.37913513 165.70838165 C71.25962379 165.71344091 74.1397985 165.70574511 77.02026367 165.69458008 C78.30919273 165.70065277 78.30919273 165.70065277 79.62416077 165.70684814 C84.1642395 165.87605944 84.1642395 165.87605944 87.75268555 163.43579102 C87.75268555 162.44579102 87.75268555 161.45579102 87.75268555 160.43579102 C86.39143555 159.87891602 86.39143555 159.87891602 85.00268555 159.31079102 C81.11754113 157.06936154 79.69683087 155.4736313 77.75268555 151.43579102 C76.92819854 146.74126295 77.08313613 142.90621745 79.75268555 138.87329102 C80.74268555 137.66672852 80.74268555 137.66672852 81.75268555 136.43579102 C81.46393555 135.85829102 81.17518555 135.28079102 80.87768555 134.68579102 C80.32081055 133.57204102 80.32081055 133.57204102 79.75268555 132.43579102 C79.4072168 131.81833008 79.06174805 131.20086914 78.70581055 130.56469727 C77.0730623 126.91778006 77.18812875 123.34830089 77.75268555 119.43579102 C78.84954427 116.82240587 80.1450146 114.79705772 81.75268555 112.43579102 C81.27831055 111.83766602 80.80393555 111.23954102 80.31518555 110.62329102 C77.43020445 106.58431747 77.05274476 102.26265538 77.75268555 97.43579102 C78.86563307 95.12727541 80.13630702 93.45626418 81.75268555 91.43579102 C81.46393555 90.85829102 81.17518555 90.28079102 80.87768555 89.68579102 C80.32081055 88.57204102 80.32081055 88.57204102 79.75268555 87.43579102 C79.4072168 86.81961914 79.06174805 86.20344727 78.70581055 85.56860352 C77.07275329 81.91430326 77.2083374 78.35509767 77.75268555 74.43579102 C80.20051667 69.35183408 82.76009197 67.77478691 87.75268555 65.43579102 C87.77797374 57.63957408 87.79552623 49.84336765 87.80761719 42.04711914 C87.81265597 39.39314377 87.81948706 36.73917118 87.828125 34.08520508 C87.84021044 30.2775809 87.8459183 26.46999332 87.8503418 22.66235352 C87.85550308 21.46961823 87.86066437 20.27688293 87.86598206 19.04800415 C87.86609535 17.39651871 87.86609535 17.39651871 87.86621094 15.71166992 C87.86843155 14.73904205 87.87065216 13.76641418 87.87294006 12.76431274 C87.90725358 10.41118713 87.90725358 10.41118713 86.75268555 8.43579102 C74.53115299 8.41265828 62.3096256 8.39487116 50.08807564 8.38397884 C44.41360834 8.37875206 38.73915597 8.37165811 33.06469727 8.36035156 C27.5923129 8.34951544 22.11994294 8.34351263 16.64754868 8.34091377 C14.55588428 8.33906084 12.4642207 8.33544273 10.37256241 8.33006096 C7.45123824 8.32284094 4.52997418 8.32180049 1.60864258 8.32226562 C0.30097427 8.31687271 0.30097427 8.31687271 -1.03311157 8.31137085 C-5.27460691 8.19667327 -5.27460691 8.19667327 -9.24731445 9.43579102 Z " fill="#F5F3F9" transform="translate(788.247314453125,179.564208984375)"/>
<path d="M0 0 C1.97289467 -0.38869667 1.97289467 -0.38869667 4.43862915 -0.40786743 C5.83898911 -0.4292276 5.83898911 -0.4292276 7.26763916 -0.45101929 C8.29516296 -0.45123077 9.32268677 -0.45144226 10.38134766 -0.45166016 C11.46118927 -0.46334229 12.54103088 -0.47502441 13.65359497 -0.48706055 C17.24050664 -0.52078359 20.82700602 -0.53139936 24.4140625 -0.5390625 C26.90310821 -0.55123661 29.39215242 -0.56372239 31.88119507 -0.57650757 C37.10848023 -0.59902411 42.33566292 -0.60861749 47.56298828 -0.61083984 C52.92727803 -0.61353403 58.29074278 -0.64162974 63.65478516 -0.69287109 C70.12817682 -0.75379662 76.60080272 -0.78036017 83.07447433 -0.78095627 C85.5408175 -0.78633849 88.00716364 -0.80319445 90.47334671 -0.83180618 C93.93054994 -0.86855649 97.38499535 -0.86080595 100.84228516 -0.84228516 C101.85766357 -0.86273895 102.87304199 -0.88319275 103.91918945 -0.90426636 C110.42389 -0.8087438 113.51185468 0.54348152 118.09307671 5.14321709 C119.98848944 6.9887921 121.83318439 8.28912343 124.08538818 9.66464233 C137.69521508 18.12589116 152.27430534 29.82784701 156.09164429 46.14997864 C160.58698175 69.45602634 158.54434436 94.39135624 157.57748079 117.95244575 C157.18661933 127.66307171 157.01075881 137.37443983 156.84655237 147.09110761 C156.58635002 162.16375105 156.21614065 177.2304054 155.66894531 192.29541016 C155.64297398 193.05093863 155.61700264 193.80646709 155.59024429 194.58489037 C155.51737712 196.67390996 155.43787926 198.76255248 155.35577393 200.85122681 C155.31123707 202.0216131 155.26670021 203.1919994 155.22081375 204.39785194 C155 207 155 207 154 208 C152.01766467 208.10108739 150.0316771 208.13077459 148.04676819 208.13371277 C146.75250412 208.13797775 145.45824005 208.14224274 144.12475586 208.14663696 C142.67700192 208.1462874 141.22924801 208.14582584 139.78149414 208.14526367 C138.26736874 208.14825352 136.7532441 208.15165565 135.23912048 208.15544128 C131.11520594 208.16430317 126.99131211 208.16662031 122.86738896 208.16725707 C119.43031609 208.16820435 115.99324809 208.17188054 112.55617708 208.17542917 C104.45029069 208.18358203 96.34441541 208.18601264 88.23852539 208.18530273 C79.86394452 208.18470171 71.48942803 208.19525661 63.11486346 208.2110464 C55.93609979 208.22410156 48.75735721 208.22948749 41.57858175 208.22884732 C37.28605385 208.22859174 32.9935831 208.231476 28.70106697 208.24202538 C24.66525662 208.25167243 20.62955847 208.25180903 16.59374428 208.24450874 C15.10941658 208.24345866 13.62508201 208.24585074 12.14076614 208.2518692 C10.12059652 208.25953214 8.10038904 208.25377096 6.08021545 208.24723816 C4.38145563 208.24805531 4.38145563 208.24805531 2.64837742 208.24888897 C-0 208 -0 208 -2 206 C-2.19764982 203.3236142 -2.26924359 200.75060552 -2.25396729 198.07301331 C-2.25708727 197.24446002 -2.26020725 196.41590674 -2.26342177 195.56224579 C-2.27143544 192.77002304 -2.26506506 189.9780156 -2.25878906 187.18579102 C-2.26149745 185.1903877 -2.26505752 183.19498537 -2.26940918 181.19958496 C-2.27855414 175.76783223 -2.27498011 170.33615518 -2.26865101 164.90440106 C-2.26360119 159.22963581 -2.26827968 153.5548772 -2.27142334 147.88011169 C-2.27506626 138.34771558 -2.27025566 128.81535041 -2.26074219 119.28295898 C-2.24986014 108.25166866 -2.25338011 97.22045227 -2.264395 86.18916374 C-2.27346232 76.73097428 -2.27475578 67.27280712 -2.26951766 57.81461471 C-2.2663945 52.16000814 -2.26599803 46.50543635 -2.27259064 40.85083199 C-2.27835529 35.53459578 -2.27438335 30.21845515 -2.26280212 24.90222931 C-2.26015068 22.94745734 -2.26092884 20.99267737 -2.26532745 19.03790855 C-2.27076536 16.3764861 -2.26397017 13.71537291 -2.25396729 11.05397034 C-2.25842873 10.2742106 -2.26289017 9.49445086 -2.26748681 8.69106203 C-2.2398335 4.91662909 -2.14751087 3.2212663 0 0 Z M7 8 C7 71.36 7 134.72 7 200 C53.2 200 99.4 200 147 200 C147 151.16 147 102.32 147 52 C133.14 51.67 119.28 51.34 105 51 C98.58300867 38.16601733 103.34986739 22.34456279 103 8 C71.32 8 39.64 8 7 8 Z " fill="#FBFAFC" transform="translate(106,196)"/>
<path d="M0 0 C4.68619132 0.73867084 7.87385555 2.40407974 11 6 C13.79109503 10.68680131 14.37285378 14.13648996 14.36889648 19.5625 C14.37266296 20.29500977 14.37642944 21.02751953 14.38031006 21.78222656 C14.38671693 23.36343103 14.38643663 24.94467405 14.38012505 26.52587891 C14.37097754 29.03183569 14.38127925 31.53705021 14.39674377 34.04296875 C14.43674658 41.16405152 14.43804537 48.28507351 14.43579102 55.40625 C14.43573985 59.77051592 14.45493695 64.13437955 14.48512459 68.49853516 C14.49592506 70.96152995 14.48383606 73.42374916 14.47129822 75.88671875 C14.48020513 77.40365355 14.49028038 78.9205821 14.50170898 80.4375 C14.50154282 81.75621094 14.50137665 83.07492187 14.50120544 84.43359375 C15.16956037 89.21236519 16.90798522 92.3969259 20.76837158 95.35507202 C24.06327503 96.30728046 27.30495281 96.30870443 30.70605469 96.31884766 C31.47717087 96.32889328 32.24828705 96.3389389 33.04277039 96.34928894 C35.58579784 96.38012357 38.12871999 96.39715674 40.671875 96.4140625 C42.4373668 96.43277393 44.20284966 96.45234733 45.96832275 96.4727478 C50.61084724 96.52407764 55.25340073 96.56369881 59.89605713 96.60089111 C64.63520486 96.6409254 69.37423187 96.69202038 74.11328125 96.7421875 C83.40876938 96.83895687 92.70432565 96.92335846 102 97 C99.69556365 100.49904507 97.47387323 103.77596582 94.57421875 106.8046875 C93.94193359 107.47113281 93.30964844 108.13757813 92.65820312 108.82421875 C91.68270508 109.83935547 91.68270508 109.83935547 90.6875 110.875 C84.68851318 117.15849982 78.87135259 123.55150248 73.3046875 130.22265625 C72.50289062 131.15980469 71.70109375 132.09695313 70.875 133.0625 C70.06804687 134.02285156 69.26109375 134.98320312 68.4296875 135.97265625 C67.62789062 136.64167969 66.82609375 137.31070313 66 138 C61.75341779 137.56930354 57.75039594 135.98478718 53.734375 134.59375 C52.67991684 134.23250786 52.67991684 134.23250786 51.60415649 133.8639679 C49.3182097 133.07949811 47.03402359 132.29005024 44.75 131.5 C43.17660691 130.957892 41.60320189 130.41581866 40.02978516 129.8737793 C30.46007247 126.57102497 20.90560663 123.22661793 11.375 119.8125 C9.80443848 119.25175781 9.80443848 119.25175781 8.20214844 118.6796875 C6.78337402 118.16728516 6.78337402 118.16728516 5.3359375 117.64453125 C4.51657715 117.34909424 3.6972168 117.05365723 2.85302734 116.74926758 C1 116 1 116 0 115 C-0.09571971 113.50716202 -0.12188227 112.00980345 -0.12025452 110.51390076 C-0.12162918 109.54489838 -0.12300385 108.575896 -0.12442017 107.57752991 C-0.12082489 106.50579025 -0.11722961 105.4340506 -0.11352539 104.32983398 C-0.11367142 103.20802734 -0.11381744 102.0862207 -0.1139679 100.93041992 C-0.1132682 97.20229189 -0.10547315 93.47421311 -0.09765625 89.74609375 C-0.09579227 87.16919482 -0.09436827 84.59229553 -0.09336853 82.01539612 C-0.08993342 75.91324885 -0.0820426 69.81112206 -0.07201904 63.70898253 C-0.06085689 56.7635075 -0.0553472 49.81803165 -0.05032361 42.87254989 C-0.03985996 28.58169034 -0.02226115 14.2908458 0 0 Z " fill="#2B017D" transform="translate(757,256)"/>
<path d="M0 0 C7.0312162 5.85050253 11.35281755 14.00951888 12.48828125 23.05078125 C12.89527717 33.03868124 10.51603168 41.61223983 4.3828125 49.59765625 C-2.73545385 57.04278176 -12.71179682 61.50056731 -22.9765625 61.81640625 C-35.31500009 61.19008962 -42.7772094 56.04603652 -51.1796875 47.41015625 C-57.12802135 38.27521498 -57.96807697 29.35533176 -56.9296875 18.72265625 C-55.05279699 9.91300142 -49.58126846 3.04720961 -42.328125 -2.13671875 C-28.79560989 -10.51969271 -12.8525206 -9.1131984 0 0 Z " fill="#FD57BE" transform="translate(850.9296875,235.27734375)"/>
<path d="M0 0 C3.75931165 0.62655194 4.70522889 1.48878672 7 4.5 C7.50057125 7.76091003 7.50057125 7.76091003 7.50120544 11.71166992 C7.50673984 12.43913768 7.51227424 13.16660543 7.51797634 13.91611767 C7.53159345 16.35458186 7.51660876 18.79202436 7.50170898 21.23046875 C7.50549179 22.97824539 7.51099152 24.72601904 7.51808167 26.4737854 C7.53205857 31.22172674 7.52085086 35.96930662 7.50437045 40.71722794 C7.49053375 45.68282617 7.49697845 50.64840313 7.50050354 55.61401367 C7.50320675 63.95334711 7.48972048 72.29253672 7.46655273 80.63183594 C7.43994231 90.27718414 7.43819549 99.92229182 7.4499411 109.56766415 C7.46071534 118.84109008 7.45453458 128.11442889 7.44038582 137.3878479 C7.43462295 141.3367417 7.43471107 145.28557181 7.43945122 149.23446655 C7.44421888 153.883511 7.43412808 158.53229161 7.41249657 163.18128586 C7.40692565 164.88891078 7.40646619 166.59656104 7.41144943 168.30418777 C7.41739261 170.63252929 7.40491653 172.96006154 7.38768005 175.28833008 C7.38525016 176.59208084 7.38282026 177.8958316 7.38031673 179.23908997 C6.97923921 182.67800704 6.43383091 184.08810133 4 186.5 C2.0625 187.03125 2.0625 187.03125 0 187 C-1.0209375 187.01546875 -1.0209375 187.01546875 -2.0625 187.03125 C-4.90716201 186.25126203 -5.52788515 185.03637256 -7 182.5 C-7.38031673 179.23908997 -7.38031673 179.23908997 -7.38768005 175.28833008 C-7.39306559 174.56086232 -7.39845113 173.83339457 -7.40399987 173.08388233 C-7.41831064 170.64559337 -7.41116828 168.20784491 -7.40405273 165.76953125 C-7.40975464 164.02175459 -7.4167182 162.27398165 -7.42485046 160.5262146 C-7.44281568 155.77834687 -7.44160733 151.0306636 -7.43590808 146.28277206 C-7.43282146 142.32132156 -7.43890272 138.35990677 -7.44494683 134.39846134 C-7.45900113 125.0549988 -7.45742288 115.71162768 -7.44604492 106.36816406 C-7.43455901 96.72278316 -7.44864527 87.07768014 -7.4754414 77.43233585 C-7.49757661 69.1553835 -7.50424081 60.87851852 -7.49836498 52.60153866 C-7.49498943 47.65613591 -7.49745022 42.71091137 -7.51461601 37.76553345 C-7.53004871 33.11645058 -7.52617068 28.46778048 -7.50731087 23.81871414 C-7.50361494 22.11108099 -7.50676257 20.4034175 -7.51719666 18.69581223 C-7.53034022 16.36728477 -7.51891985 14.04013729 -7.50120544 11.71166992 C-7.50099616 10.40791916 -7.50078688 9.1041684 -7.50057125 7.76091003 C-7 4.5 -7 4.5 -5.15617466 2.08052063 C-3 0.5 -3 0.5 0 0 Z " fill="#FA54BC" transform="translate(494,206.5)"/>
<path d="M0 0 C1.65936375 1.13870335 1.65936375 1.13870335 3 3 C3.38031673 5.77866268 3.38031673 5.77866268 3.38768005 9.21824646 C3.402537 11.17205231 3.402537 11.17205231 3.41769409 13.16532898 C3.41345579 14.612092 3.40889791 16.05885412 3.40405273 17.50561523 C3.4097539 19.02664696 3.41671717 20.5476744 3.42485046 22.06869507 C3.44282563 26.20301312 3.44160532 30.33711944 3.43590808 34.47146487 C3.43282238 37.9208896 3.43890179 41.3702733 3.44494683 44.81969219 C3.45900486 52.95640814 3.45742027 61.09301913 3.44604492 69.22973633 C3.43456311 77.62827027 3.44863741 86.02648491 3.4754414 94.42497677 C3.49758245 101.63185708 3.50423937 108.83863705 3.49836498 116.04554898 C3.49499027 120.35157957 3.49744435 124.65740547 3.51461601 128.96340752 C3.53005774 133.01251112 3.52616088 137.06114098 3.50731087 141.11022568 C3.50361718 142.59693751 3.50675615 144.08368423 3.51719666 145.570364 C3.53035276 147.59846363 3.51648438 149.62668515 3.50120544 151.6547699 C3.50099616 152.79020957 3.50078688 153.92564924 3.50057125 155.09549618 C2.88460469 158.66956724 1.87991905 159.8516589 -1 162 C-4.5625 162.5 -4.5625 162.5 -8 162 C-10.13556708 159.86119115 -10.92722163 158.49126741 -11.3719368 155.48935795 C-11.37047024 154.53953258 -11.36900368 153.5897072 -11.36749268 152.61109924 C-11.37306183 151.51686646 -11.37863098 150.42263367 -11.3843689 149.29524231 C-11.37515411 148.09896713 -11.36593933 146.90269196 -11.35644531 145.67016602 C-11.35848969 144.40608917 -11.36053406 143.14201233 -11.36264038 141.83963013 C-11.36777714 138.36944469 -11.3542224 134.89955568 -11.33711338 131.42941785 C-11.32202872 127.77838721 -11.32324979 124.12735969 -11.32244873 120.4763031 C-11.31875295 114.32684317 -11.30378956 108.17749458 -11.28125 102.02807617 C-11.25260731 94.19891959 -11.24204548 86.36985368 -11.2375679 78.54065037 C-11.23354162 71.75348745 -11.22103133 64.96634329 -11.20722103 58.17919421 C-11.20317258 56.02917255 -11.20022119 53.8791515 -11.19742584 51.72912788 C-11.1836511 42.81869844 -11.12715967 33.90962738 -11 25 C-10.98577499 23.90955761 -10.97154999 22.81911522 -10.95689392 21.69562912 C-10.9077249 18.73326734 -10.82933686 15.7735583 -10.73730469 12.81225586 C-10.72398731 11.96281434 -10.71066994 11.11337282 -10.69694901 10.23819065 C-10.55137805 6.635928 -10.30792438 4.41895378 -8.14532471 1.47657776 C-5.23670063 -0.52536144 -3.45737847 -0.51492871 0 0 Z " fill="#F953BC" transform="translate(471,219)"/>
<path d="M0 0 C2.85610799 2.15623696 3.88648454 3.34134032 4.50057125 6.90450382 C4.50078053 8.03994349 4.50098982 9.17538317 4.50120544 10.3452301 C4.51103958 11.65058716 4.52087372 12.95594421 4.53100586 14.30085754 C4.52163408 15.74557756 4.51185478 17.19029498 4.50170898 18.63500977 C4.50549233 20.15781148 4.5109925 21.68060975 4.51808167 23.20339966 C4.53205052 27.33767608 4.52085721 31.47153701 4.50437045 35.60579038 C4.49052873 39.92990023 4.49697893 44.25398574 4.50050354 48.57810974 C4.50320607 55.83884383 4.48972541 63.09941265 4.46655273 70.36010742 C4.43993267 78.75921252 4.43819888 87.15804143 4.4499411 95.55717427 C4.46071241 103.63245596 4.45453756 111.70763756 4.44038582 119.7829113 C4.43462139 123.22186582 4.43471224 126.66074722 4.43945122 130.09970284 C4.44421634 134.14713113 4.43413892 138.19425616 4.41249657 142.24162674 C4.4069225 143.72875 4.40646908 145.21590236 4.41144943 146.70302773 C4.41738534 148.72927646 4.40308749 150.75555469 4.38768005 152.78175354 C4.38525016 153.91681619 4.38282026 155.05187883 4.38031673 156.22133732 C4 159 4 159 2.69452 160.8652029 C-0.16053801 162.77719659 -2.68526148 162.35515056 -6 162 C-7.69494057 160.86799622 -7.69494057 160.86799622 -9 159 C-9.37752342 156.20292664 -9.37752342 156.20292664 -9.38095093 152.73706055 C-9.3894104 151.424664 -9.39786987 150.11226746 -9.40658569 148.76010132 C-9.40075255 147.30230589 -9.39460803 145.84451169 -9.38818359 144.38671875 C-9.39224788 142.85421372 -9.39758895 141.32171162 -9.40411377 139.78921509 C-9.41781034 135.62396204 -9.41247914 131.45893149 -9.40297651 127.29367447 C-9.395392 122.93885947 -9.40242216 118.58406378 -9.40713501 114.22924805 C-9.4125961 106.91549248 -9.40539172 99.60182773 -9.39111328 92.28808594 C-9.37478607 83.82709443 -9.38007433 75.36631977 -9.3965925 66.90533352 C-9.41019733 59.6466686 -9.41213195 52.38806903 -9.40427649 45.12939548 C-9.39959444 40.79158027 -9.39898967 36.45386705 -9.40888596 32.11605835 C-9.41753881 28.03829144 -9.41156473 23.96080467 -9.39420319 19.88306808 C-9.39022931 18.38465211 -9.39138776 16.88621264 -9.39799118 15.38780594 C-9.40616038 13.34619222 -9.39411064 11.3045271 -9.38095093 9.26293945 C-9.37981985 8.11920364 -9.37868877 6.97546783 -9.37752342 5.79707336 C-9 3 -9 3 -7.65978432 1.13591003 C-5.02092473 -0.67005177 -3.10528353 -0.44361193 0 0 Z " fill="#FE55BD" transform="translate(656,219)"/>
<path d="M0 0 C3.375 0.9375 3.375 0.9375 5.375 3.9375 C5.62947559 6.71895599 5.62947559 6.71895599 5.63569641 10.16247559 C5.64278122 11.46645798 5.64986603 12.77044037 5.65716553 14.11393738 C5.65487163 15.56228672 5.65236192 17.01063574 5.6496582 18.45898438 C5.65400453 19.98163605 5.65918742 21.50428554 5.66514587 23.02693176 C5.67855457 27.1652779 5.67911255 31.30353281 5.67658257 35.44189644 C5.67551429 38.89389265 5.68039249 42.34587029 5.685188 45.79786253 C5.69628931 53.93931175 5.69671686 62.08071484 5.69067383 70.22216797 C5.68463021 78.62861912 5.69695344 87.03490305 5.7182439 95.44132566 C5.73583935 102.65327381 5.74186458 109.86516864 5.73860615 117.07713747 C5.73679011 121.38701707 5.73946142 125.69677735 5.75332069 130.00663757 C5.76586135 134.05812472 5.76399091 138.10935041 5.75090981 142.16083336 C5.74853635 143.64957961 5.7513061 145.13834406 5.75953293 146.62706947 C5.76993607 148.65553069 5.76013318 150.68406587 5.7492218 152.71252441 C5.74938954 153.84888588 5.74955729 154.98524734 5.74973011 156.15604401 C5.375 158.9375 5.375 158.9375 4.07036114 160.80312347 C1.21446165 162.71402332 -1.30996981 162.29268181 -4.625 161.9375 C-6.31952 160.8027029 -6.31952 160.8027029 -7.625 158.9375 C-8.00531673 156.15883732 -8.00531673 156.15883732 -8.01268005 152.71925354 C-8.02258469 151.41671631 -8.03248932 150.11417908 -8.04269409 148.77217102 C-8.03845579 147.325408 -8.03389791 145.87864588 -8.02905273 144.43188477 C-8.0347539 142.91085304 -8.04171717 141.3898256 -8.04985046 139.86880493 C-8.06782563 135.73448688 -8.06660532 131.60038056 -8.06090808 127.46603513 C-8.05782238 124.0166104 -8.06390179 120.5672267 -8.06994683 117.11780781 C-8.08400486 108.98109186 -8.08242027 100.84448087 -8.07104492 92.70776367 C-8.05956311 84.30922973 -8.07363741 75.91101509 -8.1004414 67.51252323 C-8.12258245 60.30564292 -8.12923937 53.09886295 -8.12336498 45.89195102 C-8.11999027 41.58592043 -8.12244435 37.28009453 -8.13961601 32.97409248 C-8.15505774 28.92498888 -8.15116088 24.87635902 -8.13231087 20.82727432 C-8.12861718 19.34056249 -8.13175615 17.85381577 -8.14219666 16.367136 C-8.15535276 14.33903637 -8.14148438 12.31081485 -8.12620544 10.2827301 C-8.12599616 9.14729043 -8.12578688 8.01185076 -8.12557125 6.84200382 C-7.24818469 1.75107498 -5.10382443 -0.08799697 0 0 Z " fill="#FE55BD" transform="translate(388.625,219.0625)"/>
<path d="M0 0 C1.69494057 1.16996765 1.69494057 1.16996765 3 3 C3.37752342 5.54719543 3.37752342 5.54719543 3.38095093 8.65551758 C3.3894104 9.83328766 3.39786987 11.01105774 3.40658569 12.22451782 C3.400513 13.51812225 3.39444031 14.81172668 3.38818359 16.14453125 C3.39224828 17.51940325 3.39758959 18.89427199 3.40411377 20.26913452 C3.41780558 24.00465763 3.41248116 27.73993253 3.40297651 31.47546005 C3.39538952 35.38184028 3.40242285 39.28819903 3.40713501 43.19458008 C3.41259537 49.75508445 3.40539363 56.31548756 3.39111328 62.87597656 C3.37478617 70.4644714 3.38007449 78.05272444 3.3965925 85.64121342 C3.41019941 92.15254062 3.41213094 98.66379497 3.40427649 105.1751318 C3.39959557 109.06582033 3.39898654 112.95639516 3.40888596 116.84707642 C3.41754185 120.50461795 3.41155929 124.16184726 3.39420319 127.81935501 C3.38833361 129.80472635 3.39726563 131.79012404 3.40658569 133.77548218 C3.39389648 135.5421373 3.39389648 135.5421373 3.38095093 137.34448242 C3.37981985 138.37022873 3.37868877 139.39597504 3.37752342 140.45280457 C3 143 3 143 1.69494057 144.83003235 C-1.14916685 146.7932361 -3.6696652 146.35682159 -7 146 C-8.69494057 144.83003235 -8.69494057 144.83003235 -10 143 C-10.37752342 140.45280457 -10.37752342 140.45280457 -10.38095093 137.34448242 C-10.3894104 136.16671234 -10.39786987 134.98894226 -10.40658569 133.77548218 C-10.400513 132.48187775 -10.39444031 131.18827332 -10.38818359 129.85546875 C-10.39224828 128.48059675 -10.39758959 127.10572801 -10.40411377 125.73086548 C-10.41780558 121.99534237 -10.41248116 118.26006747 -10.40297651 114.52453995 C-10.39538952 110.61815972 -10.40242285 106.71180097 -10.40713501 102.80541992 C-10.41259537 96.24491555 -10.40539363 89.68451244 -10.39111328 83.12402344 C-10.37478617 75.5355286 -10.38007449 67.94727556 -10.3965925 60.35878658 C-10.41019941 53.84745938 -10.41213094 47.33620503 -10.40427649 40.8248682 C-10.39959557 36.93417967 -10.39898654 33.04360484 -10.40888596 29.15292358 C-10.41754185 25.49538205 -10.41155929 21.83815274 -10.39420319 18.18064499 C-10.38833361 16.19527365 -10.39726563 14.20987596 -10.40658569 12.22451782 C-10.39812622 11.04674774 -10.38966675 9.86897766 -10.38095093 8.65551758 C-10.37925431 7.11689812 -10.37925431 7.11689812 -10.37752342 5.54719543 C-10 3 -10 3 -8.69494057 1.16996765 C-5.85083315 -0.7932361 -3.3303348 -0.35682159 0 0 Z " fill="#FE55BD" transform="translate(577,227)"/>
<path d="M0 0 C3.43504269 0.79270216 4.36805638 1.66546705 6.4375 4.5625 C7.0514961 8.11314309 6.9834368 11.63874867 6.95507812 15.234375 C6.96559204 16.86421326 6.96559204 16.86421326 6.97631836 18.52697754 C6.99393868 22.12241085 6.98226058 25.71705854 6.96875 29.3125 C6.97144373 31.80826977 6.97532516 34.30403852 6.98034668 36.79980469 C6.98624721 42.03198275 6.97804146 47.26395608 6.95898438 52.49609375 C6.93721569 58.54247012 6.94426724 64.58830696 6.96629 70.63467026 C6.98663847 76.45462966 6.98447294 82.2743842 6.97276306 88.09436035 C6.97009155 90.56954015 6.97338036 93.04473369 6.98268127 95.51989746 C6.99282109 98.97717959 6.97738019 102.43342057 6.95507812 105.890625 C6.96317505 106.91724243 6.97127197 107.94385986 6.97961426 109.00158691 C6.8969386 115.90707115 6.8969386 115.90707115 4.59265137 119.19433594 C1.60083551 121.09364334 -0.08874203 121.21382962 -3.5625 120.5625 C-6.03659094 118.41071121 -7.38128816 116.63657727 -7.9340229 113.3604126 C-8.09181274 110.55874372 -8.11420946 107.78268329 -8.09594727 104.9765625 C-8.10456284 103.91097107 -8.11317841 102.84537964 -8.12205505 101.74749756 C-8.14474693 98.22725089 -8.1379702 94.70779814 -8.12890625 91.1875 C-8.13414013 88.74039472 -8.14041574 86.29329147 -8.14768982 83.84619141 C-8.15809984 78.71832789 -8.15352323 73.59074177 -8.13891602 68.46289062 C-8.12172214 61.88852117 -8.14522902 55.31502516 -8.18040562 48.74075317 C-8.20235453 43.68784788 -8.2009442 38.63515241 -8.1926403 33.58221436 C-8.19181953 31.15809165 -8.19870693 28.73395373 -8.21341133 26.30987549 C-8.23081114 22.92218136 -8.216351 19.53606772 -8.19360352 16.1484375 C-8.20529572 15.14568787 -8.21698792 14.14293823 -8.22903442 13.10980225 C-8.1648708 8.4184278 -8.09677491 6.26455537 -5.18321228 2.43603516 C-2.5625 0.5625 -2.5625 0.5625 0 0 Z " fill="#F752BB" transform="translate(334.5625,239.4375)"/>
<path d="M0 0 C2.47757585 2.13527498 3.80920379 3.88701996 4.36932564 7.15440369 C4.52938837 9.88054722 4.55173105 12.57970256 4.53344727 15.31054688 C4.54206284 16.34687759 4.55067841 17.38320831 4.55955505 18.45094299 C4.58224299 21.87379995 4.57547098 25.29584014 4.56640625 28.71875 C4.57164031 31.0985946 4.57791598 33.47843712 4.58518982 35.85827637 C4.59559911 40.84490728 4.5910243 45.83125292 4.57641602 50.81787109 C4.55922211 57.21064726 4.58272932 63.60252517 4.61790562 69.99520111 C4.63985627 74.90913864 4.63844379 79.82286044 4.6301403 84.73683167 C4.62931962 87.09396856 4.6362052 89.45112112 4.65091133 91.80821228 C4.66831451 95.10252266 4.6538485 98.39520839 4.63110352 101.68945312 C4.64279572 102.66415054 4.65448792 103.63884796 4.66653442 104.64308167 C4.60144908 109.27201438 4.50906584 111.33475281 1.62071228 115.10925293 C-1 117 -1 117 -3.5625 117.5625 C-6.99045507 116.77143344 -7.93144516 115.88577704 -10 113 C-10.60807027 109.5044193 -10.53561416 106.03607951 -10.50170898 102.49584961 C-10.50711197 101.42719162 -10.51251495 100.35853363 -10.51808167 99.25749207 C-10.53059762 95.72216165 -10.51405914 92.18764094 -10.49609375 88.65234375 C-10.49624866 86.19901995 -10.49773629 83.7456959 -10.50050354 81.29237366 C-10.50188879 76.15012803 -10.48930708 71.0081609 -10.46655273 65.8659668 C-10.43815319 59.26576936 -10.44090799 52.6660343 -10.45364285 46.06580257 C-10.46058825 41.00012748 -10.45282397 35.93455978 -10.44038582 30.86889839 C-10.43586131 28.43476333 -10.4355432 26.00061677 -10.43945122 23.56648064 C-10.44235259 20.16899738 -10.42590773 16.7721579 -10.40405273 13.37475586 C-10.40855438 12.36324463 -10.41305603 11.3517334 -10.41769409 10.30957031 C-10.40778946 9.38567001 -10.39788483 8.46176971 -10.38768005 7.50987244 C-10.38525016 6.70665526 -10.38282026 5.90343809 -10.38031673 5.075881 C-9.34018928 -0.60144168 -4.99958362 -0.70169595 0 0 Z " fill="#F753BB" transform="translate(444,242)"/>
<path d="M0 0 C1.69452 1.27478886 1.69452 1.27478886 3 3 C3.30170591 6.0961104 3.41988903 8.99174384 3.40405273 12.08959961 C3.41091599 13.01995529 3.41777924 13.95031097 3.42485046 14.90885925 C3.44318068 17.99017516 3.43927201 21.07098492 3.43359375 24.15234375 C3.43815265 26.29081896 3.44345734 28.42929269 3.44947815 30.56776428 C3.45842156 35.05264228 3.4559722 39.53734233 3.44604492 44.0222168 C3.43455531 49.77383402 3.45476069 55.52483732 3.48396206 61.27637386 C3.50229548 65.69356702 3.50203726 70.11061229 3.49632454 74.52783394 C3.49617097 76.64855371 3.50224488 78.76928327 3.51461601 80.88996696 C3.52946959 83.85403992 3.51889009 86.81696906 3.50170898 89.78100586 C3.51621094 91.09887085 3.51621094 91.09887085 3.53100586 92.44335938 C3.48405979 96.30498007 3.45150144 98.35454368 1.19520569 101.58009338 C-1 103 -1 103 -4.625 102.9375 C-8 102 -8 102 -10 99 C-10.2005115 95.9349027 -10.28326813 92.9604007 -10.2746582 89.89453125 C-10.27976913 88.96256927 -10.28488007 88.0306073 -10.29014587 87.07040405 C-10.30406621 83.98437104 -10.30308344 80.89856071 -10.30078125 77.8125 C-10.30466648 75.67163001 -10.30900079 73.53076079 -10.31376648 71.38989258 C-10.32123369 66.90085349 -10.32093351 62.41189305 -10.31567383 57.92285156 C-10.30987479 52.16227457 -10.32681838 46.40201863 -10.3500185 40.64149475 C-10.36472874 36.22007354 -10.3656313 31.79873016 -10.36250877 27.37728882 C-10.36302323 25.25295373 -10.3682841 23.12861442 -10.37832069 21.00430298 C-10.39061693 18.03781065 -10.3839347 15.07195048 -10.37231445 12.10546875 C-10.37995819 11.22329681 -10.38760193 10.34112488 -10.39547729 9.43222046 C-10.38846298 8.62467316 -10.38144867 7.81712585 -10.3742218 6.98510742 C-10.37438954 6.28383224 -10.37455729 5.58255707 -10.37473011 4.86003113 C-9.25365959 -0.70457658 -4.83076479 -0.51758194 0 0 Z " fill="#FE55BD" transform="translate(524,249)"/>
<path d="M0 0 C3.76744864 0.70639662 4.72710211 1.48965876 7 4.5625 C7.39455787 7.5103527 7.54732315 10.08427283 7.51757812 13.03125 C7.5245874 13.88372314 7.53159668 14.73619629 7.53881836 15.61450195 C7.55641568 18.4308332 7.5447696 21.24615864 7.53125 24.0625 C7.53394442 26.02018425 7.53782642 27.9778672 7.54284668 29.93554688 C7.54874408 34.03789007 7.54017093 38.13988482 7.52148438 42.2421875 C7.49869475 47.50170628 7.51181653 52.76040864 7.53577423 58.01989746 C7.55022563 62.0622371 7.54562923 66.10438305 7.53526306 70.14672852 C7.53259396 72.08601986 7.53587197 74.02532877 7.54518127 75.96459961 C7.55533602 78.6747905 7.53986128 81.38365775 7.51757812 84.09375 C7.52567505 84.89594971 7.53377197 85.69814941 7.54211426 86.5246582 C7.48790787 90.08175896 7.29935389 92.15778891 5.15515137 95.05664062 C3 96.5625 3 96.5625 0 97.125 C-3 96.5625 -3 96.5625 -5.15515137 94.55126953 C-7.51336007 90.73082475 -7.56287162 87.53360883 -7.51757812 83.1796875 C-7.5245874 82.34818176 -7.53159668 81.51667603 -7.53881836 80.65997314 C-7.55638468 77.91880633 -7.54478071 75.17867682 -7.53125 72.4375 C-7.53394531 70.52848106 -7.53782806 68.61946346 -7.54284668 66.71044922 C-7.54873987 62.71243195 -7.54018451 58.71477251 -7.52148438 54.71679688 C-7.49869495 49.59528114 -7.51181899 44.47460388 -7.53577423 39.3531189 C-7.55023702 35.41196387 -7.545624 31.47100723 -7.53526306 27.52984619 C-7.53259711 25.6416209 -7.53586092 23.75337752 -7.54518127 21.86517334 C-7.55535482 19.2247353 -7.53983517 16.58564994 -7.51757812 13.9453125 C-7.52567505 13.16698059 -7.53377197 12.38864868 -7.54211426 11.58673096 C-7.48467814 7.90374275 -7.10658018 5.73516653 -5.15515137 2.57373047 C-3 0.5625 -3 0.5625 0 0 Z " fill="#F953BC" transform="translate(600,251.4375)"/>
<path d="M0 0 C3.86160034 1.12337464 4.53305905 1.58574935 6.4375 5 C6.83190918 8.02891541 6.83190918 8.02891541 6.85742188 11.61694336 C6.86589142 12.2727388 6.87436096 12.92853424 6.88308716 13.60420227 C6.9064352 15.76628148 6.90747994 17.92764815 6.90625 20.08984375 C6.91335291 21.59672835 6.9210521 23.10361024 6.92932129 24.61048889 C6.94276096 27.76701376 6.94433727 30.92328853 6.93847656 34.07983398 C6.93258044 38.11979894 6.96316885 42.15856213 7.00359344 46.19829464 C7.02947585 49.30992569 7.03234746 52.42126755 7.02870178 55.53299141 C7.03039253 57.02212101 7.04003087 58.51126402 7.05784607 60.00028801 C7.08005007 62.08555807 7.07033181 64.1683985 7.05273438 66.25366211 C7.05478882 67.43850693 7.05684326 68.62335175 7.05895996 69.84410095 C6.25479383 73.92781879 4.63406052 75.42306424 1.4375 78 C-1.125 78.5625 -1.125 78.5625 -3.5625 78 C-6.51015447 75.76265439 -7.46705749 74.58467424 -8.07043457 70.88842773 C-8.07361694 69.66583252 -8.07679932 68.4432373 -8.08007812 67.18359375 C-8.0870874 66.50668488 -8.09409668 65.829776 -8.10131836 65.13235474 C-8.11888824 62.90031613 -8.10728073 60.66955094 -8.09375 58.4375 C-8.09644524 56.88337969 -8.10032793 55.32926103 -8.10534668 53.77514648 C-8.1112403 50.52018151 -8.10268366 47.26565602 -8.08398438 44.01074219 C-8.06119428 39.84076456 -8.07431817 35.67181669 -8.09827423 31.50187683 C-8.11273624 28.29333757 -8.10812451 25.08504201 -8.09776306 21.87649536 C-8.09509686 20.33912026 -8.09836184 18.80172295 -8.10768127 17.26437378 C-8.11785429 15.11445615 -8.10233888 12.96620025 -8.08007812 10.81640625 C-8.07689575 9.59381104 -8.07371338 8.37121582 -8.07043457 7.11157227 C-7.5625 4 -7.5625 4 -5.75280762 1.57397461 C-3.5625 0 -3.5625 0 0 0 Z " fill="#FA53BC" transform="translate(680.5625,261)"/>
<path d="M0 0 C3.73396923 0.6223282 4.69046945 1.5435318 7 4.5 C7.50120544 7.38378906 7.50120544 7.38378906 7.50170898 10.765625 C7.51108994 12.03374023 7.52047089 13.30185547 7.53013611 14.60839844 C7.51965776 15.98893916 7.50828874 17.36947337 7.49609375 18.75 C7.49624877 20.16959711 7.49773831 21.58919464 7.50050354 23.00878906 C7.50188689 25.98131056 7.48934106 28.95334917 7.46655273 31.92578125 C7.43816757 35.73244567 7.44090591 39.53830796 7.45364285 43.34503174 C7.46060407 46.27562285 7.45280582 49.20602917 7.44038582 52.13659668 C7.43587558 53.53999116 7.4355308 54.94340551 7.43945122 56.34680176 C7.44236742 58.30935948 7.42368203 60.27191328 7.40405273 62.234375 C7.39864975 63.35038086 7.39324677 64.46638672 7.38768005 65.61621094 C6.95727057 68.81784627 6.23293814 70.20303182 4 72.5 C2.0625 73.03125 2.0625 73.03125 0 73 C-1.0209375 73.01546875 -1.0209375 73.01546875 -2.0625 73.03125 C-4.87707267 72.25951233 -5.52058754 70.98479174 -7 68.5 C-7.38768005 65.61621094 -7.38768005 65.61621094 -7.40405273 62.234375 C-7.41673691 60.96625977 -7.42942108 59.69814453 -7.44248962 58.39160156 C-7.44043826 57.01106605 -7.4374503 55.63053165 -7.43359375 54.25 C-7.43815607 52.8304011 -7.44346179 51.41080442 -7.44947815 49.99121094 C-7.45840536 47.01878881 -7.45599034 44.04663543 -7.44604492 41.07421875 C-7.43454811 37.26745246 -7.45477819 33.46161281 -7.48396206 29.65496826 C-7.50231772 26.72438683 -7.50203311 23.79402781 -7.49632454 20.86340332 C-7.49617128 19.45998839 -7.50221932 18.05655843 -7.51461601 16.65319824 C-7.52951124 14.69072564 -7.5162265 12.72810043 -7.50170898 10.765625 C-7.50154282 9.64961914 -7.50137665 8.53361328 -7.50120544 7.38378906 C-6.69913305 2.76889987 -4.57548762 0.76258127 0 0 Z " fill="#FA54BC" transform="translate(361,263.5)"/>
<path d="M0 0 C1.44402443 -0.00262848 1.44402443 -0.00262848 2.91722107 -0.00531006 C6.11084782 -0.00972428 9.30441953 -0.00679208 12.49804688 -0.00341797 C14.71000174 -0.00409113 16.92195653 -0.00506126 19.13391113 -0.00631714 C23.77433983 -0.00779353 28.41474931 -0.00564143 33.05517578 -0.00097656 C39.01418843 0.00472068 44.97315605 0.00144137 50.93216705 -0.00454903 C55.50108176 -0.00815621 60.06998573 -0.00701532 64.63890076 -0.00442123 C66.8366242 -0.0037524 69.03434861 -0.00457887 71.23207092 -0.00690079 C74.29927162 -0.00942987 77.36639857 -0.00558305 80.43359375 0 C81.34898422 -0.00202423 82.26437469 -0.00404846 83.20750427 -0.00613403 C89.48826946 0.01513082 89.48826946 0.01513082 91.71679688 1.12939453 C91.84179688 4.00439453 91.84179688 4.00439453 91.71679688 7.12939453 C89.01304991 9.8331415 86.89208082 9.38025702 83.21861267 9.41156006 C82.30479324 9.40908264 81.39097382 9.40660522 80.44946289 9.40405273 C79.48838623 9.40916367 78.52730957 9.4142746 77.53710938 9.41954041 C74.3482446 9.43348326 71.15959482 9.4324761 67.97070312 9.43017578 C65.76114318 9.43406015 63.55158398 9.43839428 61.34202576 9.44316101 C56.70577578 9.45063335 52.06960193 9.45032462 47.43334961 9.44506836 C41.48329822 9.43927266 35.533558 9.45620243 29.58355808 9.47941303 C25.01887684 9.49412373 20.45427098 9.4950257 15.88957024 9.49190331 C13.69545818 9.49241787 11.50134205 9.49768075 9.30725288 9.50771523 C6.24246964 9.52001055 3.17829837 9.51332939 0.11352539 9.50170898 C-0.79826981 9.50935272 -1.710065 9.51699646 -2.64949036 9.52487183 C-3.48372528 9.51785751 -4.31796021 9.5108432 -5.17747498 9.50361633 C-5.902172 9.50378407 -6.62686903 9.50395182 -7.37352657 9.50412464 C-9.85988795 9.0162334 -10.77654625 8.13636532 -12.28320312 6.12939453 C-12.09570312 3.50439453 -12.09570312 3.50439453 -11.28320312 1.12939453 C-7.82029408 -0.60205999 -3.8115181 -0.00842853 0 0 Z " fill="#F853BC" transform="translate(143.283203125,273.87060546875)"/>
<path d="M0 0 C2.15209961 1.33422852 2.15209961 1.33422852 4 4 C4.62374026 7.71164763 4.58402766 11.39576236 4.56640625 15.15234375 C4.57570412 16.79076988 4.57570412 16.79076988 4.58518982 18.46229553 C4.5922909 20.77132272 4.58910903 23.08040108 4.57641602 25.3894043 C4.56256326 28.92137004 4.5966046 32.45068046 4.63476562 35.98242188 C4.63571694 38.22656315 4.63385736 40.47070774 4.62890625 42.71484375 C4.64216446 43.77017807 4.65542267 44.82551239 4.66908264 45.91282654 C4.57645808 53.2126763 4.57645808 53.2126763 1.65600586 57.20141602 C-1 59 -1 59 -4.125 59.0625 C-7.44322507 57.83619943 -8.21054796 56.98543012 -10 54 C-10.38768005 51.64770508 -10.38768005 51.64770508 -10.40405273 49.01953125 C-10.41673691 48.03170654 -10.42942108 47.04388184 -10.44248962 46.02612305 C-10.43955399 44.96562744 -10.43661835 43.90513184 -10.43359375 42.8125 C-10.4388356 41.71784424 -10.44407745 40.62318848 -10.44947815 39.49536133 C-10.4558985 37.18213753 -10.45456121 34.86888109 -10.44604492 32.55566406 C-10.43753144 29.0130821 -10.46630385 25.4721103 -10.49804688 21.9296875 C-10.49965885 19.68229215 -10.49908143 17.43489394 -10.49609375 15.1875 C-10.50732773 14.12700439 -10.51856171 13.06650879 -10.53013611 11.97387695 C-10.46074391 4.66680035 -10.46074391 4.66680035 -8.15649414 1.33203125 C-5.18537976 -0.50317763 -3.42943742 -0.5715729 0 0 Z " fill="#F953BC" transform="translate(550,271)"/>
<path d="M0 0 C1.13464188 0.00607269 1.13464188 0.00607269 2.29220581 0.01226807 C3.08907806 0.00876343 3.88595032 0.00525879 4.70697021 0.00164795 C7.34875118 -0.00717566 9.99026573 -0.00131805 12.63204956 0.00543213 C14.46286063 0.00408566 16.29367136 0.00214528 18.1244812 -0.00036621 C21.96460366 -0.00331832 25.80463319 0.00098296 29.64474487 0.01031494 C34.5747365 0.02170953 39.50451039 0.01515052 44.43449402 0.00317001 C48.21592865 -0.00404624 51.99731139 -0.00176174 55.77874756 0.0034256 C57.5968834 0.00476275 59.4150239 0.00311211 61.2331543 -0.00153351 C63.77119482 -0.00659491 66.3088794 0.0011059 68.84689331 0.01226807 C69.60332123 0.0082196 70.35974915 0.00417114 71.13909912 0 C76.34102095 0.04252852 76.34102095 0.04252852 78.56954956 2.27105713 C78.81954956 4.77105713 78.81954956 4.77105713 78.56954956 7.27105713 C76.05332421 9.78728248 74.50866018 9.51438567 71.07563782 9.54211426 C70.30985916 9.5380658 69.54408051 9.53401733 68.75509644 9.52984619 C67.94847061 9.53335083 67.14184479 9.53685547 66.31077576 9.54046631 C63.63653025 9.54929026 60.9625479 9.54343218 58.28829956 9.53668213 C56.43506825 9.53802859 54.58183728 9.53996896 52.72860718 9.54248047 C48.84140668 9.54543263 44.95429799 9.54113114 41.06710815 9.53179932 C36.07658328 9.52040473 31.08627351 9.52696371 26.09575653 9.53894424 C22.26799896 9.54616036 18.44029266 9.54387606 14.61253357 9.53868866 C12.77206904 9.53735147 10.9315999 9.53900227 9.09114075 9.54364777 C6.52196874 9.54870895 3.9531484 9.54100865 1.38400269 9.52984619 C0.61822403 9.53389465 -0.14755463 9.53794312 -0.9365387 9.54211426 C-6.20192192 9.49958565 -6.20192192 9.49958565 -8.43045044 7.27105713 C-7.82608592 1.22741189 -5.9410599 0.04857138 0 0 Z " fill="#F853BB" transform="translate(139.43045043945313,325.72894287109375)"/>
<path d="M0 0 C2.44344936 1.63887568 3.78421685 2.92996994 4.37796021 5.87423706 C4.54776434 8.2466624 4.5804735 10.58633555 4.56640625 12.96484375 C4.57570412 14.27032921 4.57570412 14.27032921 4.58518982 15.60218811 C4.59228457 17.4404285 4.58911994 19.27873318 4.57641602 21.11694336 C4.5625623 23.92487318 4.5966082 26.72946165 4.63476562 29.53710938 C4.63571699 31.32552165 4.63385708 33.11393808 4.62890625 34.90234375 C4.64216446 35.73894028 4.65542267 36.5755368 4.66908264 37.43748474 C4.5998364 41.78870241 4.39585187 43.49528378 1.62084961 47.03344727 C-1 49 -1 49 -3.5625 49.5625 C-6.9474065 48.78136773 -7.93193124 47.8146698 -10 45 C-10.59200841 41.84401045 -10.53658485 38.73031467 -10.49609375 35.52734375 C-10.4982766 34.14815514 -10.4982766 34.14815514 -10.50050354 32.74110413 C-10.49884561 30.80027085 -10.48729623 28.8594243 -10.46655273 26.91870117 C-10.43756903 23.94458356 -10.44595151 20.97224528 -10.45898438 17.99804688 C-10.45274774 16.11197049 -10.44435739 14.22589973 -10.43359375 12.33984375 C-10.43652939 11.44917709 -10.43946503 10.55851044 -10.44248962 9.64085388 C-10.42980545 8.81311966 -10.41712128 7.98538544 -10.40405273 7.13256836 C-10.39864975 6.40516953 -10.39324677 5.67777069 -10.38768005 4.92832947 C-9.26413956 -0.66018668 -4.89312929 -0.60091061 0 0 Z " fill="#F953BC" transform="translate(630,276)"/>
<path d="M0 0 C1.27149399 -0.00960754 2.54298798 -0.01921509 3.85301208 -0.02911377 C5.2471397 -0.03396101 6.6412694 -0.03824002 8.03540039 -0.04199219 C9.46025088 -0.04774316 10.88510134 -0.0535009 12.30995178 -0.05926514 C15.29843507 -0.06977418 18.28689146 -0.07561767 21.27539062 -0.07910156 C25.10678088 -0.08459051 28.9378165 -0.10862706 32.76909542 -0.13707352 C35.71245874 -0.15568554 38.65573632 -0.16090468 41.59915352 -0.16243744 C43.01177474 -0.16546705 44.42439435 -0.17350603 45.83695793 -0.18662262 C47.81180689 -0.20365346 49.78680183 -0.19996236 51.76171875 -0.1953125 C52.88597763 -0.19895813 54.01023651 -0.20260376 55.16856384 -0.20635986 C57.94555664 0.16113281 57.94555664 0.16113281 59.84376526 1.51934814 C60.94555664 3.16113281 60.94555664 3.16113281 60.75805664 5.78613281 C59.94555664 8.16113281 59.94555664 8.16113281 57.94555664 9.16113281 C55.92952344 9.26797604 53.90993839 9.30999594 51.89111328 9.32226562 C49.9838723 9.33667694 49.9838723 9.33667694 48.0381012 9.35137939 C46.64397358 9.35622663 45.24984389 9.36050564 43.85571289 9.36425781 C42.4308624 9.37000879 41.00601194 9.37576653 39.5811615 9.38153076 C36.59267821 9.3920398 33.60422183 9.3978833 30.61572266 9.40136719 C26.7843324 9.40685614 22.95329678 9.43089268 19.12201786 9.45933914 C16.17865454 9.47795117 13.23537696 9.48317031 10.29195976 9.48470306 C8.87933854 9.48773268 7.46671893 9.49577165 6.05415535 9.50888824 C4.07930639 9.52591909 2.10431145 9.52222798 0.12939453 9.51757812 C-0.99486435 9.52122375 -2.11912323 9.52486938 -3.27745056 9.52862549 C-6.05444336 9.16113281 -6.05444336 9.16113281 -7.95265198 7.80291748 C-9.05444336 6.16113281 -9.05444336 6.16113281 -8.86694336 3.53613281 C-7.36404023 -0.85696864 -4.1403985 0.02516384 0 0 Z " fill="#F853BB" transform="translate(140.054443359375,299.8388671875)"/>
<path d="M0 0 C3.7369708 0.62282847 4.69076649 1.53831639 7 4.5 C7.51757812 7.4609375 7.51757812 7.4609375 7.53125 10.875 C7.53640625 12.10734375 7.5415625 13.3396875 7.546875 14.609375 C7.53140625 15.89328125 7.5159375 17.1771875 7.5 18.5 C7.51546875 19.78390625 7.5309375 21.0678125 7.546875 22.390625 C7.54171875 23.62296875 7.5365625 24.8553125 7.53125 26.125 C7.52673828 27.25164062 7.52222656 28.37828125 7.51757812 29.5390625 C6.88918145 33.13396577 5.88605416 34.32697099 3 36.5 C-1.10777749 37.00299316 -2.50875983 36.82749345 -6 34.5 C-7.76173638 29.21479085 -7.26952842 23.59437509 -7.3125 18.0625 C-7.34150391 16.82177734 -7.37050781 15.58105469 -7.40039062 14.30273438 C-7.40876953 13.11099609 -7.41714844 11.91925781 -7.42578125 10.69140625 C-7.44036377 9.60029541 -7.45494629 8.50918457 -7.4699707 7.38500977 C-6.71658744 2.76021492 -4.57056618 0.76176103 0 0 Z " fill="#F953BC" transform="translate(414,281.5)"/>
<path d="M0 0 C4.44016929 3.80585939 8.60442137 7.47661069 12.71484375 11.58203125 C13.21544815 12.08167892 13.71605255 12.5813266 14.23182678 13.09611511 C15.27402363 14.13763881 16.31498848 15.18039671 17.35473633 16.22436523 C18.95474662 17.82980515 20.5601231 19.42974308 22.16601562 21.02929688 C23.18261306 22.04655391 24.1989009 23.06412047 25.21484375 24.08203125 C26.13386475 25.00218018 27.05288574 25.9223291 27.99975586 26.87036133 C30 29 30 29 30 30 C20.1 30 10.2 30 0 30 C0 20.1 0 10.2 0 0 Z " fill="#2A007D" transform="translate(218,209)"/>
<path d="M0 0 C1.46657043 -0.00472824 1.46657043 -0.00472824 2.96276855 -0.009552 C4.0262854 -0.00752777 5.08980225 -0.00550354 6.18554688 -0.00341797 C7.81127625 -0.00485306 7.81127625 -0.00485306 9.46984863 -0.00631714 C11.76652077 -0.00699912 14.06319482 -0.00514358 16.35986328 -0.00097656 C19.88904115 0.00437141 23.41809174 -0.00092097 26.94726562 -0.00732422 C29.17252632 -0.00666344 31.39778694 -0.00538228 33.62304688 -0.00341797 C34.68656372 -0.0054422 35.75008057 -0.00746643 36.8458252 -0.009552 C37.82353882 -0.00639984 38.80125244 -0.00324768 39.80859375 0 C40.67383667 0.00079559 41.53907959 0.00159119 42.43054199 0.00241089 C44.40429688 0.12939453 44.40429688 0.12939453 45.40429688 1.12939453 C45.4451047 3.12897817 45.44684044 5.12984707 45.40429688 7.12939453 C43.00141261 8.33083667 41.48589936 8.26251479 38.80273438 8.2746582 C37.3711499 8.28422798 37.3711499 8.28422798 35.91064453 8.29399109 C34.8772998 8.29510391 33.84395508 8.29621674 32.77929688 8.29736328 C31.1925415 8.30235588 31.1925415 8.30235588 29.57373047 8.30744934 C27.33431433 8.31251809 25.09489062 8.31485768 22.85546875 8.31469727 C19.41849422 8.31688549 15.98183964 8.3350467 12.54492188 8.35400391 C10.37304798 8.35693741 8.20117255 8.35892249 6.02929688 8.35986328 C4.47927979 8.37064156 4.47927979 8.37064156 2.89794922 8.38163757 C1.46636475 8.37702263 1.46636475 8.37702263 0.00585938 8.37231445 C-1.25750244 8.37445198 -1.25750244 8.37445198 -2.54638672 8.37663269 C-4.59570312 8.12939453 -4.59570312 8.12939453 -6.59570312 6.12939453 C-5.93453881 0.70784714 -5.32367024 0.00489513 0 0 Z " fill="#FD55BD" transform="translate(137.595703125,352.87060546875)"/>
<path d="M0 0 C3.47485838 2.07012839 5.74352278 4.11634312 7 8 C7.51555338 11.9525759 7.15914688 13.7044415 5.25 17.25 C2.05882353 21.1503268 2.05882353 21.1503268 -1 22 C-7.91764706 22.65882353 -7.91764706 22.65882353 -11.875 20.25 C-14.79007536 17.16344962 -15.82513599 15.34062405 -16.375 11.125 C-15.89861498 7.15512486 -14.46959574 5.10463464 -12 2 C-7.97297943 -0.68468038 -4.7315637 -0.68187737 0 0 Z " fill="#F5F3F9" transform="translate(832,319)"/>
<path d="M0 0 C3.4375 1 3.4375 1 5.12109375 2.50390625 C7.1003639 6.25688438 6.95093523 9.75578407 6.9375 13.9375 C6.96585937 14.73607422 6.99421875 15.53464844 7.0234375 16.35742188 C7.03792076 20.72774683 6.84567839 22.47817722 4.06640625 26.03125 C1.4375 28 1.4375 28 -1.125 28.5625 C-4.53160213 27.77636105 -5.49441327 26.85060603 -7.5625 24 C-8.16404034 20.65891452 -8.12054972 17.38623352 -8.0625 14 C-8.07796875 13.09765625 -8.0934375 12.1953125 -8.109375 11.265625 C-8.07074807 4.73767322 -8.07074807 4.73767322 -5.75390625 1.375 C-3.5625 0 -3.5625 0 0 0 Z " fill="#F752BB" transform="translate(308.5625,286)"/>
<path d="M0 0 C3.375 0.9375 3.375 0.9375 5.375 3.9375 C5.62290112 6.63270404 5.74517523 9.18036697 5.75 11.875 C5.77449219 12.59107422 5.79898438 13.30714844 5.82421875 14.04492188 C5.84367614 17.54401001 5.63823582 19.57011435 3.578125 22.4453125 C1.375 23.9375 1.375 23.9375 -2.25 23.875 C-5.625 22.9375 -5.625 22.9375 -7.625 19.9375 C-7.87290112 17.24229596 -7.99517523 14.69463303 -8 12 C-8.02449219 11.28392578 -8.04898438 10.56785156 -8.07421875 9.83007812 C-8.09367614 6.33098999 -7.88823582 4.30488565 -5.828125 1.4296875 C-3.625 -0.0625 -3.625 -0.0625 0 0 Z " fill="#FA54BC" transform="translate(707.625,288.0625)"/>
<path d="M0 0 C0.33 0 0.66 0 1 0 C1 9.9 1 19.8 1 30 C-6 24 -6 24 -9 21 C-11.30988315 20.25613932 -13.64315944 19.57809297 -16 19 C-16 16.36 -16 13.72 -16 11 C-14.845 10.67 -13.69 10.34 -12.5 10 C-7.76537037 8.26987687 -4.93419372 5.30230433 -1.56640625 1.64453125 C-1.04949219 1.10183594 -0.53257812 0.55914062 0 0 Z " fill="#FFFDFE" transform="translate(824,248)"/>
<path d="M0 0 C3.48073393 2.46551986 4.78858026 3.84893699 5.5625 8.0625 C5 11 5 11 3.6875 13.375 C-0.53976802 15.93102252 -5.18417271 15.8161173 -10 15 C-11.80859375 13.71875 -11.80859375 13.71875 -13 12 C-13.39296656 8.90538837 -13.61866635 6.95651131 -13 4 C-9.52123267 -0.34845916 -5.28051862 -1.22431379 0 0 Z " fill="#300781" transform="translate(886,251)"/>
<path d="M0 0 C2.625 1.625 2.625 1.625 4 4 C4.5625 6.9375 4.5625 6.9375 4 10 C2.01549712 12.85272289 0.5411791 14.64267017 -2.9375 15.44921875 C-6.55844919 15.64809664 -8.72585747 15.13707127 -12 13.5 C-14.08850117 10.88937354 -14.3800558 10.13321611 -14.5625 6.9375 C-14 3 -14 3 -12.27734375 1.28125 C-8.34424096 -0.93154196 -4.37931012 -0.64743954 0 0 Z " fill="#2F0680" transform="translate(887,319)"/>
<path d="M0 0 C3.54202539 2.4577319 4.7820239 3.81324121 5.5625 8.0625 C5 11 5 11 3.625 13.375 C-0.44072695 15.89187859 -4.34968746 15.74930285 -9 15 C-11.625 13.4375 -11.625 13.4375 -13 11 C-13.55326548 7.12714161 -13.56331202 4.95518126 -11.5625 1.5625 C-7.74919979 -0.76268305 -4.34580859 -0.88926688 0 0 Z " fill="#2F0680" transform="translate(886,296)"/>
<path d="M0 0 C2.625 1.625 2.625 1.625 4 4 C4.5625 6.9375 4.5625 6.9375 4 10 C2.01549712 12.85272289 0.5411791 14.64267017 -2.9375 15.44921875 C-6.55844919 15.64809664 -8.72585747 15.13707127 -12 13.5 C-14.08850117 10.88937354 -14.3800558 10.13321611 -14.5625 6.9375 C-14 3 -14 3 -12.27734375 1.28125 C-8.34424096 -0.93154196 -4.37931012 -0.64743954 0 0 Z " fill="#2F0680" transform="translate(887,274)"/>
<path d="M0 0 C1.26972656 0.00257813 2.53945313 0.00515625 3.84765625 0.0078125 C5.11480469 0.00523437 6.38195312 0.00265625 7.6875 0 C10.91015625 0.1328125 10.91015625 0.1328125 12.91015625 1.1328125 C13.03515625 3.5078125 13.03515625 3.5078125 12.91015625 6.1328125 C10.91015625 8.1328125 10.91015625 8.1328125 7.72265625 8.3984375 C5.83546875 8.39070312 5.83546875 8.39070312 3.91015625 8.3828125 C2.65203125 8.38796875 1.39390625 8.393125 0.09765625 8.3984375 C-3.08984375 8.1328125 -3.08984375 8.1328125 -5.08984375 6.1328125 C-4.36481973 0.18761551 -4.36481973 0.18761551 0 0 Z " fill="#F0EEF6" transform="translate(829.08984375,194.8671875)"/>
<path d="M0 0 C3.78822477 3.53567645 5.76027379 5.95097176 6.37109375 11.171875 C6.51352339 18.84631892 6.14390841 24.08450533 1 30 C0.01 29.34 -0.98 28.68 -2 28 C-1.71125 27.443125 -1.4225 26.88625 -1.125 26.3125 C-0.75375 25.549375 -0.3825 24.78625 0 24 C0.37125 23.278125 0.7425 22.55625 1.125 21.8125 C2.93713371 15.9877845 2.73870204 10.91490408 0 5.4375 C-0.66 4.303125 -1.32 3.16875 -2 2 C-1.34 1.34 -0.68 0.68 0 0 Z " fill="#FFF4FA" transform="translate(840,248)"/>
<path d="M0 0 C2 1.3125 2 1.3125 4 4 C4.84932468 9.30827926 4.88913034 13.58294852 2 18.1875 C1.01 19.0846875 1.01 19.0846875 0 20 C-0.66 18.68 -1.32 17.36 -2 16 C-1.34 15.01 -0.68 14.02 0 13 C0.36703674 8.7790775 -0.20114028 5.82257691 -2 2 C-1.34 1.34 -0.68 0.68 0 0 Z " fill="#FFF3FA" transform="translate(835,253)"/>
<path d="M0 0 C2.125 0.375 2.125 0.375 4 1 C4.625 3.375 4.625 3.375 5 6 C4.34 6.66 3.68 7.32 3 8 C0.875 7.625 0.875 7.625 -1 7 C-1.625 4.625 -1.625 4.625 -2 2 C-1.34 1.34 -0.68 0.68 0 0 Z " fill="#381186" transform="translate(826,326)"/>
<path d="M0 0 C2.125 0.375 2.125 0.375 4 1 C4.625 3.375 4.625 3.375 5 6 C4.34 6.66 3.68 7.32 3 8 C0.875 7.625 0.875 7.625 -1 7 C-1.625 4.625 -1.625 4.625 -2 2 C-1.34 1.34 -0.68 0.68 0 0 Z " fill="#EFECF5" transform="translate(815,195)"/>
<path d="M0 0 C1.66611905 -0.042721 3.33382885 -0.04063832 5 0 C6 1 6 1 6.0625 3.5625 C6.041875 4.366875 6.02125 5.17125 6 6 C3.625 6.625 3.625 6.625 1 7 C0.34 6.34 -0.32 5.68 -1 5 C-0.625 2.375 -0.625 2.375 0 0 Z " fill="#F1EEF6" transform="translate(750,394)"/>
<path d="M0 0 C0.66 0.33 1.32 0.66 2 1 C2.125 4.375 2.125 4.375 2 8 C1.34 8.66 0.68 9.32 0 10 C-1.58538318 7.48203847 -2.0373656 6.32134414 -1.6875 3.3125 C-1 1 -1 1 0 0 Z " fill="#FFF4FA" transform="translate(830,258)"/>
</svg>
