<?xml version="1.0" encoding="UTF-8"?>
<svg version="1.1" xmlns="http://www.w3.org/2000/svg" width="788" height="825">
<path d="M0 0 C0.83678284 -0.00979385 1.67356567 -0.01958771 2.53570557 -0.02967834 C20.36149367 -0.19541185 37.68711065 -0.28353507 55.05859375 4.23828125 C55.91066406 4.45258789 56.76273438 4.66689453 57.640625 4.88769531 C70.01337513 8.0736321 81.58921938 12.64359582 93.05859375 18.23828125 C93.70634766 18.54991211 94.35410156 18.86154297 95.02148438 19.18261719 C130.22528889 36.31320178 158.09584298 65.77962842 176.05859375 100.23828125 C176.40664063 100.90166504 176.7546875 101.56504883 177.11328125 102.24853516 C186.71195752 120.80988518 192.17335869 140.59286702 195.05859375 161.23828125 C195.21328125 162.32725708 195.21328125 162.32725708 195.37109375 163.43823242 C196.43621279 172.26065149 196.30250002 181.17789115 196.30859375 190.05078125 C196.30960587 191.37777039 196.30960587 191.37777039 196.31063843 192.73156738 C196.24596501 246.42138598 183.56404537 299.57311858 161.05859375 348.23828125 C160.32215924 349.87205463 159.58646117 351.5061602 158.8515625 353.140625 C136.78713251 401.59087098 100.62597767 451.41365892 58.41015625 484.3828125 C56.12861754 486.18302992 54.00574258 488.08002867 51.87109375 490.05078125 C42.26626848 498.63922289 31.60627898 505.99138955 20.93359375 513.17578125 C20.17916992 513.6877002 19.42474609 514.19961914 18.64746094 514.72705078 C17.85243164 515.25540527 17.05740234 515.78375977 16.23828125 516.328125 C15.36051025 516.95678467 14.48273926 517.58544434 13.57836914 518.2331543 C10.69401411 520.09063952 7.82281444 520.94145583 4.53686523 521.89379883 C-2.39273299 524.28566609 -7.87822504 526.92699602 -11.94140625 533.23828125 C-16.33259021 547.00630077 -14.26103367 563.48670925 -13.74072266 577.69750977 C-13.52001045 584.31646638 -13.44199249 590.93824503 -13.35190296 597.5600462 C-13.28010078 602.73012717 -13.18642231 607.89566271 -13.01335144 613.06343079 C-12.00978487 647.04732654 -19.8131664 679.35798472 -35.94140625 709.23828125 C-36.4828125 710.26050781 -37.02421875 711.28273438 -37.58203125 712.3359375 C-44.63774313 725.06019461 -53.87007444 736.77199525 -63.94140625 747.23828125 C-64.41126953 747.73392578 -64.88113281 748.22957031 -65.36523438 748.74023438 C-95.14514591 780.04146962 -135.1448117 799.0451726 -177.94140625 804.23828125 C-179.01519531 804.36976563 -180.08898437 804.50125 -181.1953125 804.63671875 C-217.28033612 808.26976875 -254.17758739 800.53061774 -285.94140625 783.23828125 C-286.55209961 782.91214844 -287.16279297 782.58601562 -287.79199219 782.25 C-296.41351768 777.62853091 -304.3107677 772.36470776 -311.94140625 766.23828125 C-312.46057617 765.8220752 -312.97974609 765.40586914 -313.51464844 764.97705078 C-353.08655472 733.01882738 -378.16077493 687.49026899 -383.72358608 636.78588963 C-384.08955123 632.50558865 -384.07185542 628.23837469 -384.05493164 623.94506836 C-384.05507767 622.95864349 -384.05522369 621.97221863 -384.05537415 620.9559021 C-384.05468268 617.72578663 -384.04692646 614.49573028 -384.0390625 611.265625 C-384.03719559 609.01404349 -384.03577298 606.76246158 -384.03477478 604.51087952 C-384.03097107 598.60742048 -384.02115925 592.70398636 -384.0100708 586.80053711 C-383.9998104 580.76741879 -383.99526727 574.73429642 -383.99023438 568.70117188 C-383.97953493 556.88019744 -383.96248447 545.05924142 -383.94140625 533.23828125 C-384.88035736 532.93488831 -385.81930847 532.63149536 -386.78671265 532.31890869 C-389.77395781 531.29564003 -392.16251297 530.10190798 -394.85546875 528.47265625 C-395.77142822 527.91940674 -396.6873877 527.36615723 -397.63110352 526.79614258 C-399.08407837 525.90125122 -399.08407837 525.90125122 -400.56640625 524.98828125 C-402.08415649 524.05761841 -402.08415649 524.05761841 -403.63256836 523.1081543 C-432.199529 505.4091804 -457.96114859 484.23563524 -481.75390625 460.55078125 C-482.45942627 459.84993408 -483.16494629 459.14908691 -483.8918457 458.42700195 C-488.44509766 453.85978132 -492.74419532 449.13297844 -496.94140625 444.23828125 C-497.79863281 443.26246094 -498.65585937 442.28664063 -499.5390625 441.28125 C-516.45845318 421.68049788 -532.59343641 399.61011882 -543.94140625 376.23828125 C-540.13259148 377.62705487 -536.96202177 379.40845693 -533.56640625 381.61328125 C-503.6464371 400.36677718 -470.97409234 411.91521685 -435.94140625 416.23828125 C-435.21880615 416.33254395 -434.49620605 416.42680664 -433.75170898 416.52392578 C-425.77549778 417.45524736 -417.77399553 417.48176974 -409.75390625 417.48828125 C-409.00329926 417.48895599 -408.25269226 417.48963074 -407.4793396 417.49032593 C-394.43576811 417.47179887 -381.78997111 416.61421107 -368.94140625 414.23828125 C-367.99797363 414.0666748 -367.05454102 413.89506836 -366.08251953 413.71826172 C-334.09884991 407.73035369 -302.44435652 395.35207327 -275.94140625 376.23828125 C-274.98363281 375.55378906 -274.02585937 374.86929687 -273.0390625 374.1640625 C-222.03792978 336.83471831 -188.43663194 282.23158718 -178.32763672 219.78955078 C-176.51848116 207.83906052 -175.85686288 195.93592506 -175.50390625 183.86328125 C-173.79890181 129.55812856 -152.01268138 83.27289937 -112.86669922 46.02001953 C-108.18443024 41.68687231 -103.20828795 37.83874919 -97.94140625 34.23828125 C-97.25771973 33.76970703 -96.5740332 33.30113281 -95.86962891 32.81835938 C-67.77285063 13.81952667 -34.3130455 0.33228537 0 0 Z " fill="#0A72C8" transform="translate(591.94140625,18.76171875)"/>
<path d="M0 0 C0.8448999 0.00337372 1.6897998 0.00674744 2.56030273 0.01022339 C16.60928569 0.09104636 30.13248966 1.01626941 43.8125 4.4375 C44.75899414 4.67355957 45.70548828 4.90961914 46.68066406 5.15283203 C94.30585263 17.50098774 135.58679943 48.37965305 160.60375977 90.74414062 C185.820185 134.50790273 192.95334513 185.55414642 180.125 234.5625 C172.08743719 263.34061221 157.37543591 289.79419968 136.8125 311.4375 C135.63916277 312.80681218 134.47196034 314.18141787 133.3125 315.5625 C103.50763804 349.47837741 56.17090145 368.01665654 11.98022461 371.11499023 C-37.2346333 373.793976 -85.88504068 357.51505947 -122.75390625 324.5859375 C-123.90168032 323.54000586 -125.04618398 322.49047486 -126.1875 321.4375 C-126.76741699 320.90286133 -127.34733398 320.36822266 -127.94482422 319.81738281 C-141.79172617 306.88342143 -153.11498185 292.06105809 -162.1875 275.4375 C-162.70304443 274.49704834 -162.70304443 274.49704834 -163.22900391 273.53759766 C-177.52961962 247.0905181 -184.26746035 219.33061473 -183.96972656 189.29003906 C-183.93751518 185.43931525 -183.969649 181.59278669 -184.0078125 177.7421875 C-184.08479507 131.13630953 -163.99484993 88.75948565 -132.1875 55.4375 C-131.38699219 54.58414063 -130.58648437 53.73078125 -129.76171875 52.8515625 C-107.77280147 30.03491184 -78.25926991 14.07196619 -47.875 5.75 C-46.84705322 5.46406982 -46.84705322 5.46406982 -45.79833984 5.17236328 C-30.70283696 1.26805996 -15.54563981 -0.12177598 0 0 Z " fill="#0A23A9" transform="translate(183.1875,18.5625)"/>
<path d="M0 0 C0.52614395 0.24939835 1.0522879 0.49879669 1.59437561 0.75575256 C4.03289857 1.91153613 6.47152699 3.067097 8.91015625 4.22265625 C9.73729126 4.61473267 10.56442627 5.00680908 11.41662598 5.4107666 C48.96469169 23.20150663 87.08062657 35.04938925 128 42 C129.70325439 42.29463135 129.70325439 42.29463135 131.44091797 42.59521484 C178.85163976 50.35468301 230.47564866 46.21197974 277 35 C278.11020508 34.73316406 279.22041016 34.46632813 280.36425781 34.19140625 C309.32388094 27.09370911 337.12985638 16.41242448 363.59545898 2.69140625 C368.80761186 0 368.80761186 0 371 0 C371.07013528 12.23269473 371.12312882 24.46534005 371.15543652 36.69819641 C371.17095832 42.3810649 371.19194353 48.06379383 371.22631836 53.74658203 C371.25940115 59.25149872 371.27695374 64.75628292 371.28463173 70.2612915 C371.29008897 72.34037354 371.3007389 74.41945001 371.31719017 76.49847412 C371.58506438 111.8214063 364.83314547 144.81374641 348 176 C347.45859375 177.02222656 346.9171875 178.04445313 346.359375 179.09765625 C339.30366312 191.82191336 330.07133181 203.533714 320 214 C319.29520508 214.7434668 319.29520508 214.7434668 318.57617188 215.50195312 C288.79626034 246.80318837 248.79659455 265.80689135 206 271 C204.92621094 271.13148438 203.85242188 271.26296875 202.74609375 271.3984375 C166.66107013 275.0314875 129.76381886 267.29233649 98 250 C97.38930664 249.67386719 96.77861328 249.34773437 96.14941406 249.01171875 C87.52788857 244.39024966 79.63063855 239.12642651 72 233 C71.22124512 232.37569092 71.22124512 232.37569092 70.42675781 231.73876953 C30.85485153 199.78054613 5.78063132 154.25198774 0.21782017 103.54760838 C-0.14814498 99.2673074 -0.13044917 95.00009344 -0.11352539 90.70678711 C-0.11367142 89.72036224 -0.11381744 88.73393738 -0.1139679 87.71762085 C-0.11327643 84.48750538 -0.10552021 81.25744903 -0.09765625 78.02734375 C-0.09578934 75.77576224 -0.09436673 73.52418033 -0.09336853 71.27259827 C-0.08956482 65.36913923 -0.079753 59.46570511 -0.06866455 53.56225586 C-0.05840415 47.52913754 -0.05386102 41.49601517 -0.04882812 35.46289062 C-0.03812868 23.64191619 -0.02107822 11.82096017 0 0 Z " fill="#0A23A9" transform="translate(208,552)"/>
</svg>
